<svg width="512" height="512" viewBox="0 0 512 512" xmlns="http://www.w3.org/2000/svg">
  <rect width="100%" height="100%" fill="none" />
  <rect x="15.0" y="15.0" width="33.8" height="33.8" fill="black" rx="1.0" ry="1.0" />
  <rect x="64.8" y="15.0" width="33.8" height="33.8" fill="black" rx="1.0" ry="1.0" />
  <rect x="114.6" y="15.0" width="33.8" height="33.8" fill="black" rx="1.0" ry="1.0" />
  <rect x="164.39999999999998" y="15.0" width="33.8" height="33.8" fill="black" rx="1.0" ry="1.0" />
  <rect x="214.2" y="15.0" width="33.8" height="33.8" fill="black" rx="1.0" ry="1.0" />
  <rect x="264.0" y="15.0" width="33.8" height="33.8" fill="black" rx="1.0" ry="1.0" />
  <rect x="313.79999999999995" y="15.0" width="33.8" height="33.8" fill="black" rx="1.0" ry="1.0" />
  <rect x="363.59999999999997" y="15.0" width="33.8" height="33.8" fill="black" rx="1.0" ry="1.0" />
  <rect x="413.4" y="15.0" width="33.8" height="33.8" fill="black" rx="1.0" ry="1.0" />
  <rect x="463.2" y="15.0" width="33.8" height="33.8" fill="black" rx="1.0" ry="1.0" />
  <rect x="15.0" y="64.8" width="33.8" height="33.8" fill="black" rx="1.0" ry="1.0" />
  <rect x="64.8" y="64.8" width="33.8" height="33.8" fill="black" rx="1.0" ry="1.0" />
  <rect x="114.6" y="64.8" width="33.8" height="33.8" fill="black" rx="1.0" ry="1.0" />
  <rect x="164.39999999999998" y="64.8" width="33.8" height="33.8" fill="black" rx="1.0" ry="1.0" />
  <rect x="214.2" y="64.8" width="33.8" height="33.8" fill="black" rx="1.0" ry="1.0" />
  <rect x="264.0" y="64.8" width="33.8" height="33.8" fill="black" rx="1.0" ry="1.0" />
  <rect x="313.79999999999995" y="64.8" width="33.8" height="33.8" fill="black" rx="1.0" ry="1.0" />
  <rect x="363.59999999999997" y="64.8" width="33.8" height="33.8" fill="black" rx="1.0" ry="1.0" />
  <rect x="413.4" y="64.8" width="33.8" height="33.8" fill="black" rx="1.0" ry="1.0" />
  <rect x="463.2" y="64.8" width="33.8" height="33.8" fill="black" rx="1.0" ry="1.0" />
  <rect x="15.0" y="114.6" width="33.8" height="33.8" fill="black" rx="1.0" ry="1.0" />
  <rect x="64.8" y="114.6" width="33.8" height="33.8" fill="black" rx="1.0" ry="1.0" />
  <rect x="114.6" y="114.6" width="33.8" height="33.8" fill="black" rx="1.0" ry="1.0" />
  <rect x="164.39999999999998" y="114.6" width="33.8" height="33.8" fill="black" rx="1.0" ry="1.0" />
  <rect x="214.2" y="114.6" width="33.8" height="33.8" fill="black" rx="1.0" ry="1.0" />
  <rect x="264.0" y="114.6" width="33.8" height="33.8" fill="black" rx="1.0" ry="1.0" />
  <rect x="313.79999999999995" y="114.6" width="33.8" height="33.8" fill="black" rx="1.0" ry="1.0" />
  <rect x="363.59999999999997" y="114.6" width="33.8" height="33.8" fill="black" rx="1.0" ry="1.0" />
  <rect x="413.4" y="114.6" width="33.8" height="33.8" fill="black" rx="1.0" ry="1.0" />
  <rect x="463.2" y="114.6" width="33.8" height="33.8" fill="black" rx="1.0" ry="1.0" />
  <rect x="15.0" y="164.39999999999998" width="33.8" height="33.8" fill="black" rx="1.0" ry="1.0" />
  <rect x="64.8" y="164.39999999999998" width="33.8" height="33.8" fill="black" rx="1.0" ry="1.0" />
  <rect x="114.6" y="164.39999999999998" width="33.8" height="33.8" fill="black" rx="1.0" ry="1.0" />
  <rect x="164.39999999999998" y="164.39999999999998" width="33.8" height="33.8" fill="black" rx="1.0" ry="1.0" />
  <rect x="214.2" y="164.39999999999998" width="33.8" height="33.8" fill="black" rx="1.0" ry="1.0" />
  <rect x="264.0" y="164.39999999999998" width="33.8" height="33.8" fill="black" rx="1.0" ry="1.0" />
  <rect x="313.79999999999995" y="164.39999999999998" width="33.8" height="33.8" fill="black" rx="1.0" ry="1.0" />
  <rect x="363.59999999999997" y="164.39999999999998" width="33.8" height="33.8" fill="black" rx="1.0" ry="1.0" />
  <rect x="413.4" y="164.39999999999998" width="33.8" height="33.8" fill="black" rx="1.0" ry="1.0" />
  <rect x="463.2" y="164.39999999999998" width="33.8" height="33.8" fill="black" rx="1.0" ry="1.0" />
  <rect x="15.0" y="214.2" width="33.8" height="33.8" fill="black" rx="1.0" ry="1.0" />
  <rect x="64.8" y="214.2" width="33.8" height="33.8" fill="black" rx="1.0" ry="1.0" />
  <rect x="114.6" y="214.2" width="33.8" height="33.8" fill="black" rx="1.0" ry="1.0" />
  <rect x="164.39999999999998" y="214.2" width="33.8" height="33.8" fill="black" rx="1.0" ry="1.0" />
  <rect x="214.2" y="214.2" width="33.8" height="33.8" fill="black" rx="1.0" ry="1.0" />
  <rect x="264.0" y="214.2" width="33.8" height="33.8" fill="black" rx="1.0" ry="1.0" />
  <rect x="313.79999999999995" y="214.2" width="33.8" height="33.8" fill="black" rx="1.0" ry="1.0" />
  <rect x="363.59999999999997" y="214.2" width="33.8" height="33.8" fill="black" rx="1.0" ry="1.0" />
  <rect x="413.4" y="214.2" width="33.8" height="33.8" fill="black" rx="1.0" ry="1.0" />
  <rect x="463.2" y="214.2" width="33.8" height="33.8" fill="black" rx="1.0" ry="1.0" />
  <rect x="15.0" y="264.0" width="33.8" height="33.8" fill="black" rx="1.0" ry="1.0" />
  <rect x="64.8" y="264.0" width="33.8" height="33.8" fill="black" rx="1.0" ry="1.0" />
  <rect x="114.6" y="264.0" width="33.8" height="33.8" fill="black" rx="1.0" ry="1.0" />
  <rect x="164.39999999999998" y="264.0" width="33.8" height="33.8" fill="black" rx="1.0" ry="1.0" />
  <rect x="214.2" y="264.0" width="33.8" height="33.8" fill="black" rx="1.0" ry="1.0" />
  <rect x="264.0" y="264.0" width="33.8" height="33.8" fill="black" rx="1.0" ry="1.0" />
  <rect x="313.79999999999995" y="264.0" width="33.8" height="33.8" fill="black" rx="1.0" ry="1.0" />
  <rect x="363.59999999999997" y="264.0" width="33.8" height="33.8" fill="black" rx="1.0" ry="1.0" />
  <rect x="413.4" y="264.0" width="33.8" height="33.8" fill="black" rx="1.0" ry="1.0" />
  <rect x="463.2" y="264.0" width="33.8" height="33.8" fill="black" rx="1.0" ry="1.0" />
  <rect x="15.0" y="313.79999999999995" width="33.8" height="33.8" fill="black" rx="1.0" ry="1.0" />
  <rect x="64.8" y="313.79999999999995" width="33.8" height="33.8" fill="black" rx="1.0" ry="1.0" />
  <rect x="114.6" y="313.79999999999995" width="33.8" height="33.8" fill="black" rx="1.0" ry="1.0" />
  <rect x="164.39999999999998" y="313.79999999999995" width="33.8" height="33.8" fill="black" rx="1.0" ry="1.0" />
  <rect x="214.2" y="313.79999999999995" width="33.8" height="33.8" fill="black" rx="1.0" ry="1.0" />
  <rect x="264.0" y="313.79999999999995" width="33.8" height="33.8" fill="black" rx="1.0" ry="1.0" />
  <rect x="313.79999999999995" y="313.79999999999995" width="33.8" height="33.8" fill="black" rx="1.0" ry="1.0" />
  <rect x="363.59999999999997" y="313.79999999999995" width="33.8" height="33.8" fill="black" rx="1.0" ry="1.0" />
  <rect x="413.4" y="313.79999999999995" width="33.8" height="33.8" fill="black" rx="1.0" ry="1.0" />
  <rect x="463.2" y="313.79999999999995" width="33.8" height="33.8" fill="black" rx="1.0" ry="1.0" />
  <rect x="15.0" y="363.59999999999997" width="33.8" height="33.8" fill="black" rx="1.0" ry="1.0" />
  <rect x="64.8" y="363.59999999999997" width="33.8" height="33.8" fill="black" rx="1.0" ry="1.0" />
  <rect x="114.6" y="363.59999999999997" width="33.8" height="33.8" fill="black" rx="1.0" ry="1.0" />
  <rect x="164.39999999999998" y="363.59999999999997" width="33.8" height="33.8" fill="black" rx="1.0" ry="1.0" />
  <rect x="214.2" y="363.59999999999997" width="33.8" height="33.8" fill="black" rx="1.0" ry="1.0" />
  <rect x="264.0" y="363.59999999999997" width="33.8" height="33.8" fill="black" rx="1.0" ry="1.0" />
  <rect x="313.79999999999995" y="363.59999999999997" width="33.8" height="33.8" fill="black" rx="1.0" ry="1.0" />
  <rect x="363.59999999999997" y="363.59999999999997" width="33.8" height="33.8" fill="black" rx="1.0" ry="1.0" />
  <rect x="413.4" y="363.59999999999997" width="33.8" height="33.8" fill="black" rx="1.0" ry="1.0" />
  <rect x="463.2" y="363.59999999999997" width="33.8" height="33.8" fill="black" rx="1.0" ry="1.0" />
  <rect x="15.0" y="413.4" width="33.8" height="33.8" fill="black" rx="1.0" ry="1.0" />
  <rect x="64.8" y="413.4" width="33.8" height="33.8" fill="black" rx="1.0" ry="1.0" />
  <rect x="114.6" y="413.4" width="33.8" height="33.8" fill="black" rx="1.0" ry="1.0" />
  <rect x="164.39999999999998" y="413.4" width="33.8" height="33.8" fill="black" rx="1.0" ry="1.0" />
  <rect x="214.2" y="413.4" width="33.8" height="33.8" fill="black" rx="1.0" ry="1.0" />
  <rect x="264.0" y="413.4" width="33.8" height="33.8" fill="black" rx="1.0" ry="1.0" />
  <rect x="313.79999999999995" y="413.4" width="33.8" height="33.8" fill="black" rx="1.0" ry="1.0" />
  <rect x="363.59999999999997" y="413.4" width="33.8" height="33.8" fill="black" rx="1.0" ry="1.0" />
  <rect x="413.4" y="413.4" width="33.8" height="33.8" fill="black" rx="1.0" ry="1.0" />
  <rect x="463.2" y="413.4" width="33.8" height="33.8" fill="black" rx="1.0" ry="1.0" />
  <rect x="15.0" y="463.2" width="33.8" height="33.8" fill="black" rx="1.0" ry="1.0" />
  <rect x="64.8" y="463.2" width="33.8" height="33.8" fill="black" rx="1.0" ry="1.0" />
  <rect x="114.6" y="463.2" width="33.8" height="33.8" fill="black" rx="1.0" ry="1.0" />
  <rect x="164.39999999999998" y="463.2" width="33.8" height="33.8" fill="black" rx="1.0" ry="1.0" />
  <rect x="214.2" y="463.2" width="33.8" height="33.8" fill="black" rx="1.0" ry="1.0" />
  <rect x="264.0" y="463.2" width="33.8" height="33.8" fill="black" rx="1.0" ry="1.0" />
  <rect x="313.79999999999995" y="463.2" width="33.8" height="33.8" fill="black" rx="1.0" ry="1.0" />
  <rect x="363.59999999999997" y="463.2" width="33.8" height="33.8" fill="black" rx="1.0" ry="1.0" />
  <rect x="413.4" y="463.2" width="33.8" height="33.8" fill="black" rx="1.0" ry="1.0" />
  <rect x="463.2" y="463.2" width="33.8" height="33.8" fill="black" rx="1.0" ry="1.0" />
</svg>