<svg width="500" height="500" viewBox="0 0 500 500" xmlns="http://www.w3.org/2000/svg">
  <polygon points="95.00,128.00 95.06,127.22 95.24,126.45 95.54,125.73 95.95,125.06 96.46,124.46 97.06,123.95 97.73,123.54 98.45,123.24 99.22,123.06 100.00,123.00 180.00,123.00 180.78,123.06 181.55,123.24 182.27,123.54 182.94,123.95 183.54,124.46 184.05,125.06 184.46,125.73 184.76,126.45 184.94,127.22 185.00,128.00 185.00,208.00 184.94,208.78 184.76,209.55 184.46,210.27 184.05,210.94 183.54,211.54 182.94,212.05 182.27,212.46 181.55,212.76 180.78,212.94 180.00,213.00 100.00,213.00 99.22,212.94 98.45,212.76 97.73,212.46 97.06,212.05 96.46,211.54 95.95,210.94 95.54,210.27 95.24,209.55 95.06,208.78 95.00,208.00" fill="black" />
  <polygon points="191.00,128.00 191.06,127.22 191.24,126.45 191.54,125.73 191.95,125.06 192.46,124.46 193.06,123.95 193.73,123.54 194.45,123.24 195.22,123.06 196.00,123.00 276.00,123.00 276.78,123.06 277.55,123.24 278.27,123.54 278.94,123.95 279.54,124.46 280.05,125.06 280.46,125.73 280.76,126.45 280.94,127.22 281.00,128.00 281.00,208.00 280.94,208.78 280.76,209.55 280.46,210.27 280.05,210.94 279.54,211.54 278.94,212.05 278.27,212.46 277.55,212.76 276.78,212.94 276.00,213.00 196.00,213.00 195.22,212.94 194.45,212.76 193.73,212.46 193.06,212.05 192.46,211.54 191.95,210.94 191.54,210.27 191.24,209.55 191.06,208.78 191.00,208.00" fill="black" />
  <polygon points="287.00,128.00 287.06,127.22 287.24,126.45 287.54,125.73 287.95,125.06 288.46,124.46 289.06,123.95 289.73,123.54 290.45,123.24 291.22,123.06 292.00,123.00 372.00,123.00 372.78,123.06 373.55,123.24 374.27,123.54 374.94,123.95 375.54,124.46 376.05,125.06 376.46,125.73 376.76,126.45 376.94,127.22 377.00,128.00 377.00,208.00 376.94,208.78 376.76,209.55 376.46,210.27 376.05,210.94 375.54,211.54 374.94,212.05 374.27,212.46 373.55,212.76 372.78,212.94 372.00,213.00 292.00,213.00 291.22,212.94 290.45,212.76 289.73,212.46 289.06,212.05 288.46,211.54 287.95,210.94 287.54,210.27 287.24,209.55 287.06,208.78 287.00,208.00" fill="black" />
  <polygon points="95.00,224.00 95.06,223.22 95.24,222.45 95.54,221.73 95.95,221.06 96.46,220.46 97.06,219.95 97.73,219.54 98.45,219.24 99.22,219.06 100.00,219.00 180.00,219.00 180.78,219.06 181.55,219.24 182.27,219.54 182.94,219.95 183.54,220.46 184.05,221.06 184.46,221.73 184.76,222.45 184.94,223.22 185.00,224.00 185.00,304.00 184.94,304.78 184.76,305.55 184.46,306.27 184.05,306.94 183.54,307.54 182.94,308.05 182.27,308.46 181.55,308.76 180.78,308.94 180.00,309.00 100.00,309.00 99.22,308.94 98.45,308.76 97.73,308.46 97.06,308.05 96.46,307.54 95.95,306.94 95.54,306.27 95.24,305.55 95.06,304.78 95.00,304.00" fill="black" />
  <polygon points="191.00,224.00 191.06,223.22 191.24,222.45 191.54,221.73 191.95,221.06 192.46,220.46 193.06,219.95 193.73,219.54 194.45,219.24 195.22,219.06 196.00,219.00 276.00,219.00 276.78,219.06 277.55,219.24 278.27,219.54 278.94,219.95 279.54,220.46 280.05,221.06 280.46,221.73 280.76,222.45 280.94,223.22 281.00,224.00 281.00,304.00 280.94,304.78 280.76,305.55 280.46,306.27 280.05,306.94 279.54,307.54 278.94,308.05 278.27,308.46 277.55,308.76 276.78,308.94 276.00,309.00 196.00,309.00 195.22,308.94 194.45,308.76 193.73,308.46 193.06,308.05 192.46,307.54 191.95,306.94 191.54,306.27 191.24,305.55 191.06,304.78 191.00,304.00" fill="black" />
  <polygon points="287.00,224.00 287.06,223.22 287.24,222.45 287.54,221.73 287.95,221.06 288.46,220.46 289.06,219.95 289.73,219.54 290.45,219.24 291.22,219.06 292.00,219.00 372.00,219.00 372.78,219.06 373.55,219.24 374.27,219.54 374.94,219.95 375.54,220.46 376.05,221.06 376.46,221.73 376.76,222.45 376.94,223.22 377.00,224.00 377.00,304.00 376.94,304.78 376.76,305.55 376.46,306.27 376.05,306.94 375.54,307.54 374.94,308.05 374.27,308.46 373.55,308.76 372.78,308.94 372.00,309.00 292.00,309.00 291.22,308.94 290.45,308.76 289.73,308.46 289.06,308.05 288.46,307.54 287.95,306.94 287.54,306.27 287.24,305.55 287.06,304.78 287.00,304.00" fill="black" />
  <polygon points="95.00,320.00 95.06,319.22 95.24,318.45 95.54,317.73 95.95,317.06 96.46,316.46 97.06,315.95 97.73,315.54 98.45,315.24 99.22,315.06 100.00,315.00 180.00,315.00 180.78,315.06 181.55,315.24 182.27,315.54 182.94,315.95 183.54,316.46 184.05,317.06 184.46,317.73 184.76,318.45 184.94,319.22 185.00,320.00 185.00,400.00 184.94,400.78 184.76,401.55 184.46,402.27 184.05,402.94 183.54,403.54 182.94,404.05 182.27,404.46 181.55,404.76 180.78,404.94 180.00,405.00 100.00,405.00 99.22,404.94 98.45,404.76 97.73,404.46 97.06,404.05 96.46,403.54 95.95,402.94 95.54,402.27 95.24,401.55 95.06,400.78 95.00,400.00" fill="black" />
  <polygon points="191.00,320.00 191.06,319.22 191.24,318.45 191.54,317.73 191.95,317.06 192.46,316.46 193.06,315.95 193.73,315.54 194.45,315.24 195.22,315.06 196.00,315.00 276.00,315.00 276.78,315.06 277.55,315.24 278.27,315.54 278.94,315.95 279.54,316.46 280.05,317.06 280.46,317.73 280.76,318.45 280.94,319.22 281.00,320.00 281.00,400.00 280.94,400.78 280.76,401.55 280.46,402.27 280.05,402.94 279.54,403.54 278.94,404.05 278.27,404.46 277.55,404.76 276.78,404.94 276.00,405.00 196.00,405.00 195.22,404.94 194.45,404.76 193.73,404.46 193.06,404.05 192.46,403.54 191.95,402.94 191.54,402.27 191.24,401.55 191.06,400.78 191.00,400.00" fill="black" />
  <polygon points="287.00,320.00 287.06,319.22 287.24,318.45 287.54,317.73 287.95,317.06 288.46,316.46 289.06,315.95 289.73,315.54 290.45,315.24 291.22,315.06 292.00,315.00 372.00,315.00 372.78,315.06 373.55,315.24 374.27,315.54 374.94,315.95 375.54,316.46 376.05,317.06 376.46,317.73 376.76,318.45 376.94,319.22 377.00,320.00 377.00,400.00 376.94,400.78 376.76,401.55 376.46,402.27 376.05,402.94 375.54,403.54 374.94,404.05 374.27,404.46 373.55,404.76 372.78,404.94 372.00,405.00 292.00,405.00 291.22,404.94 290.45,404.76 289.73,404.46 289.06,404.05 288.46,403.54 287.95,402.94 287.54,402.27 287.24,401.55 287.06,400.78 287.00,400.00" fill="black" />
  <polygon points="100.00,117.00 98.34,116.86 97.37,116.43 97.07,115.73 97.46,114.74 98.54,113.46 113.46,98.54 114.94,97.26 116.53,96.27 118.23,95.57 120.06,95.14 122.00,95.00 202.00,95.00 203.66,95.14 204.63,95.57 204.93,96.27 204.54,97.26 203.46,98.54 188.54,113.46 187.06,114.74 185.47,115.73 183.77,116.43 181.94,116.86 180.00,117.00" fill="black" />
  <polygon points="196.00,117.00 194.34,116.86 193.37,116.43 193.07,115.73 193.46,114.74 194.54,113.46 209.46,98.54 210.94,97.26 212.53,96.27 214.23,95.57 216.06,95.14 218.00,95.00 298.00,95.00 299.66,95.14 300.63,95.57 300.93,96.27 300.54,97.26 299.46,98.54 284.54,113.46 283.06,114.74 281.47,115.73 279.77,116.43 277.94,116.86 276.00,117.00" fill="black" />
  <polygon points="292.00,117.00 290.34,116.86 289.37,116.43 289.07,115.73 289.46,114.74 290.54,113.46 305.46,98.54 306.94,97.26 308.53,96.27 310.23,95.57 312.06,95.14 314.00,95.00 394.00,95.00 395.66,95.14 396.63,95.57 396.93,96.27 396.54,97.26 395.46,98.54 380.54,113.46 379.06,114.74 377.47,115.73 375.77,116.43 373.94,116.86 372.00,117.00" fill="black" />
  <polygon points="383.00,126.00 383.14,124.06 383.57,122.23 384.27,120.53 385.26,118.94 386.54,117.46 401.46,102.54 402.74,101.46 403.73,101.07 404.43,101.37 404.86,102.34 405.00,104.00 405.00,184.00 404.86,185.94 404.43,187.77 403.73,189.47 402.74,191.06 401.46,192.54 386.54,207.46 385.26,208.54 384.27,208.93 383.57,208.63 383.14,207.66 383.00,206.00" fill="black" />
  <polygon points="383.00,222.00 383.14,220.06 383.57,218.23 384.27,216.53 385.26,214.94 386.54,213.46 401.46,198.54 402.74,197.46 403.73,197.07 404.43,197.37 404.86,198.34 405.00,200.00 405.00,280.00 404.86,281.94 404.43,283.77 403.73,285.47 402.74,287.06 401.46,288.54 386.54,303.46 385.26,304.54 384.27,304.93 383.57,304.63 383.14,303.66 383.00,302.00" fill="black" />
  <polygon points="383.00,318.00 383.14,316.06 383.57,314.23 384.27,312.53 385.26,310.94 386.54,309.46 401.46,294.54 402.74,293.46 403.73,293.07 404.43,293.37 404.86,294.34 405.00,296.00 405.00,376.00 404.86,377.94 404.43,379.77 403.73,381.47 402.74,383.06 401.46,384.54 386.54,399.46 385.26,400.54 384.27,400.93 383.57,400.63 383.14,399.66 383.00,398.00" fill="black" />
</svg>