<?xml version="1.0" standalone="no"?>
<!DOCTYPE svg PUBLIC "-//W3C//DTD SVG 20010904//EN"
 "http://www.w3.org/TR/2001/REC-SVG-20010904/DTD/svg10.dtd">
<svg version="1.0" xmlns="http://www.w3.org/2000/svg"
 width="600.000000pt" height="449.000000pt" viewBox="0 0 600.000000 449.000000"
 preserveAspectRatio="xMidYMid meet">

<g transform="translate(0.000000,449.000000) scale(0.100000,-0.100000)"
fill="#000000" stroke="none">
<path d="M2650 4040 c-157 -94 -293 -180 -304 -190 -13 -13 -16 -22 -9 -35 16
-27 594 -385 623 -385 29 0 608 362 617 386 3 8 0 21 -7 29 -21 25 -576 355
-607 361 -24 5 -73 -21 -313 -166z"/>
<path d="M2138 3725 c-48 -18 -599 -357 -612 -377 -8 -14 -6 -22 9 -37 11 -11
144 -104 295 -206 238 -160 280 -185 313 -185 33 0 83 28 337 190 164 105 304
198 311 206 9 11 10 20 2 32 -13 22 -571 379 -600 385 -12 2 -36 -1 -55 -8z"/>
<path d="M3695 3725 c-16 -7 -151 -92 -300 -188 -229 -147 -270 -177 -270
-197 0 -26 -18 -14 422 -292 157 -100 209 -128 236 -128 27 0 85 34 303 181
303 204 321 218 306 244 -5 10 -110 79 -233 154 -415 252 -412 251 -464 226z"/>
<path d="M2769 3135 c-450 -287 -454 -290 -457 -317 -3 -24 22 -43 309 -237
250 -169 319 -211 346 -211 26 0 94 41 335 203 166 112 307 211 312 220 8 12
8 22 0 35 -19 31 -624 412 -654 412 -17 0 -86 -38 -191 -105z"/>
<path d="M1001 3037 c-173 -105 -319 -200 -325 -210 -8 -12 -8 -22 0 -35 11
-18 519 -393 568 -418 17 -10 38 -13 54 -9 28 7 623 384 656 415 33 32 14 60
-86 127 -51 33 -180 120 -286 192 -162 110 -198 131 -230 131 -31 0 -91 -33
-351 -193z"/>
<path d="M4250 3040 c-151 -103 -280 -197 -288 -208 -11 -16 -10 -22 5 -39 10
-11 161 -111 336 -223 256 -163 324 -202 352 -202 29 0 78 31 315 204 276 200
310 232 282 260 -6 6 -154 98 -329 204 -275 168 -323 194 -358 193 -35 0 -72
-22 -315 -189z"/>
<path d="M2102 2700 c-35 -15 -627 -398 -647 -420 -10 -11 -14 -26 -11 -37 4
-10 143 -117 311 -238 235 -169 313 -221 340 -223 30 -3 70 21 342 203 329
221 370 254 353 284 -9 19 -568 404 -619 428 -31 14 -39 15 -69 3z"/>
<path d="M3763 2700 c-49 -20 -613 -414 -619 -433 -4 -12 1 -26 12 -37 11 -10
163 -116 338 -234 271 -183 325 -216 355 -216 31 0 78 31 331 215 162 119 301
224 308 234 26 38 39 27 -385 300 -230 147 -291 182 -311 180 -4 0 -17 -4 -29
-9z"/>
<path d="M584 2636 c-10 -27 56 -587 74 -626 13 -26 86 -87 291 -242 151 -115
280 -208 287 -208 7 0 14 5 16 10 2 6 -8 145 -23 309 -20 234 -29 305 -43 325
-15 24 -136 117 -431 332 -162 119 -164 119 -171 100z"/>
<path d="M5037 2434 c-188 -139 -283 -216 -294 -237 -16 -31 -72 -481 -73
-589 0 -77 -32 -96 407 239 98 74 169 136 179 155 16 31 97 614 88 630 -3 4
-11 8 -17 8 -7 0 -137 -93 -290 -206z"/>
<path d="M2910 2119 c-110 -67 -622 -424 -630 -439 -5 -10 -8 -25 -5 -33 3 -7
72 -61 153 -120 81 -58 228 -165 327 -236 99 -72 192 -133 208 -136 18 -5 40
0 62 12 33 17 557 393 617 441 32 27 36 62 11 84 -23 20 -611 421 -640 436
-32 18 -64 15 -103 -9z"/>
<path d="M1344 2077 c-2 -7 6 -148 19 -313 19 -237 28 -306 41 -326 16 -24
538 -425 594 -456 16 -9 27 -11 34 -4 10 10 -5 510 -18 589 -3 18 -16 46 -30
63 -14 16 -125 103 -247 192 -400 293 -383 281 -393 255z"/>
<path d="M4554 2077 c-51 -29 -577 -423 -599 -448 -28 -35 -30 -48 -50 -344
-19 -289 -19 -304 0 -311 10 -4 108 63 278 191 300 227 334 256 347 305 11 38
60 511 60 572 0 43 -8 51 -36 35z"/>
<path d="M2173 1475 c-3 -9 -2 -144 2 -301 7 -263 9 -287 29 -325 17 -32 82
-86 336 -275 173 -128 322 -234 331 -234 9 0 20 7 23 16 3 9 6 148 6 309 l0
293 -26 31 c-24 28 -609 462 -661 489 -28 15 -32 15 -40 -3z"/>
<path d="M3420 1252 c-254 -185 -329 -245 -342 -272 -24 -51 -31 -633 -8 -637
8 -2 150 98 315 223 336 253 332 249 350 284 14 27 52 597 42 624 -4 9 -12 16
-19 16 -7 0 -159 -107 -338 -238z"/>
</g>
</svg>
