<svg width="512" height="512" viewBox="0 0 512 512" xmlns="http://www.w3.org/2000/svg">
  <rect width="100%" height="100%" fill="none" />
  <path d="M60,20 h392 a40,40 0 0 1 40,40 v392 a40,40 0 0 1 -40,40 h-392 a40,40 0 0 1 -40,-40 v-392 a40,40 0 0 1 40,-40Z M55.0,40.0 h63.0 a15,15 0 0 1 15,15 v63.0 a15,15 0 0 1 -15,15 h-63.0 a15,15 0 0 1 -15,-15 v-63.0 a15,15 0 0 1 15,-15Z M168.0,40.0 h63.0 a15,15 0 0 1 15,15 v63.0 a15,15 0 0 1 -15,15 h-63.0 a15,15 0 0 1 -15,-15 v-63.0 a15,15 0 0 1 15,-15Z M281.0,40.0 h63.0 a15,15 0 0 1 15,15 v63.0 a15,15 0 0 1 -15,15 h-63.0 a15,15 0 0 1 -15,-15 v-63.0 a15,15 0 0 1 15,-15Z M394.0,40.0 h63.0 a15,15 0 0 1 15,15 v63.0 a15,15 0 0 1 -15,15 h-63.0 a15,15 0 0 1 -15,-15 v-63.0 a15,15 0 0 1 15,-15Z M55.0,153.0 h63.0 a15,15 0 0 1 15,15 v63.0 a15,15 0 0 1 -15,15 h-63.0 a15,15 0 0 1 -15,-15 v-63.0 a15,15 0 0 1 15,-15Z M168.0,153.0 h63.0 a15,15 0 0 1 15,15 v63.0 a15,15 0 0 1 -15,15 h-63.0 a15,15 0 0 1 -15,-15 v-63.0 a15,15 0 0 1 15,-15Z M281.0,153.0 h63.0 a15,15 0 0 1 15,15 v63.0 a15,15 0 0 1 -15,15 h-63.0 a15,15 0 0 1 -15,-15 v-63.0 a15,15 0 0 1 15,-15Z M394.0,153.0 h63.0 a15,15 0 0 1 15,15 v63.0 a15,15 0 0 1 -15,15 h-63.0 a15,15 0 0 1 -15,-15 v-63.0 a15,15 0 0 1 15,-15Z M55.0,266.0 h63.0 a15,15 0 0 1 15,15 v63.0 a15,15 0 0 1 -15,15 h-63.0 a15,15 0 0 1 -15,-15 v-63.0 a15,15 0 0 1 15,-15Z M168.0,266.0 h63.0 a15,15 0 0 1 15,15 v63.0 a15,15 0 0 1 -15,15 h-63.0 a15,15 0 0 1 -15,-15 v-63.0 a15,15 0 0 1 15,-15Z M281.0,266.0 h63.0 a15,15 0 0 1 15,15 v63.0 a15,15 0 0 1 -15,15 h-63.0 a15,15 0 0 1 -15,-15 v-63.0 a15,15 0 0 1 15,-15Z M394.0,266.0 h63.0 a15,15 0 0 1 15,15 v63.0 a15,15 0 0 1 -15,15 h-63.0 a15,15 0 0 1 -15,-15 v-63.0 a15,15 0 0 1 15,-15Z M55.0,379.0 h63.0 a15,15 0 0 1 15,15 v63.0 a15,15 0 0 1 -15,15 h-63.0 a15,15 0 0 1 -15,-15 v-63.0 a15,15 0 0 1 15,-15Z M168.0,379.0 h63.0 a15,15 0 0 1 15,15 v63.0 a15,15 0 0 1 -15,15 h-63.0 a15,15 0 0 1 -15,-15 v-63.0 a15,15 0 0 1 15,-15Z M281.0,379.0 h63.0 a15,15 0 0 1 15,15 v63.0 a15,15 0 0 1 -15,15 h-63.0 a15,15 0 0 1 -15,-15 v-63.0 a15,15 0 0 1 15,-15Z" fill="black" fill-rule="evenodd" />
</svg>