<?xml version="1.0" standalone="no"?>
<!DOCTYPE svg PUBLIC "-//W3C//DTD SVG 20010904//EN"
 "http://www.w3.org/TR/2001/REC-SVG-20010904/DTD/svg10.dtd">
<svg version="1.0" xmlns="http://www.w3.org/2000/svg"
 width="375.000000pt" height="375.000000pt" viewBox="0 0 375.000000 375.000000"
 preserveAspectRatio="xMidYMid meet">

<g transform="translate(0.000000,375.000000) scale(0.100000,-0.100000)"
fill="#000000" stroke="none">
<path d="M690 2275 l0 -785 670 0 670 0 0 785 0 785 -670 0 -670 0 0 -785z"/>
<path d="M2390 2275 l0 -785 335 0 335 0 0 785 0 785 -335 0 -335 0 0 -785z"/>
<path d="M690 910 l0 -220 670 0 670 0 0 220 0 220 -670 0 -670 0 0 -220z"/>
<path d="M2390 910 l0 -220 335 0 335 0 0 220 0 220 -335 0 -335 0 0 -220z"/>
</g>
</svg>
