<svg width="500" height="500" xmlns="http://www.w3.org/2000/svg" enable-background="new 0 0 500 500">

 <g>
  <title>Layer 1</title>
  <g id="svg_1" fill-rule="evenodd" clip-rule="evenodd">
   <path id="svg_2" d="m236.65,349.13c28.964,-79.663 57.749,-158.833 86.686,-238.421c39.981,0.633 75.703,13.602 106.74,38.845c-28.854,79.365 -57.585,158.397 -86.531,238.013c-32.38,-21.474 -68.053,-34.377 -106.895,-38.437z"/>
   <path id="svg_3" d="m333.838,80.083c4.42,-12.027 8.563,-23.458 12.878,-34.826c0.492,-1.296 1.739,-2.749 2.988,-3.244c13.553,-5.377 27.471,-9.129 42.2,-9.437c20.949,-0.437 35.875,10.381 48.05,25.878c5.233,6.663 9.434,14.146 13.986,21.33c0.604,0.951 1.014,2.52 0.665,3.501c-4.166,11.724 -8.492,23.391 -12.912,35.446c-32.797,-21.733 -68.405,-34.528 -107.855,-38.648z"/>
   <path id="svg_4" d="m254.47,466.013c-0.836,-1.796 -1.426,-3.058 -2.015,-4.322c-10.146,-21.757 -20.293,-43.514 -30.436,-65.271c-1.477,-3.171 0.235,-13.635 2.837,-15.838c0.808,-0.685 2.329,-0.77 3.512,-0.734c37.824,1.162 71.613,13.455 101.417,36.785c2.047,1.602 2.333,2.969 1.693,5.562c-1.72,6.972 -5.656,10.951 -12.381,13.901c-21.527,9.446 -42.704,19.694 -64.627,29.917z"/>
  </g>
  <g>
   <path d="m67.22513,99.00017l120,0l0,120l-120,0l0,-120z"/>
   <path d="m67.22513,261.00017l120,0l0,120l-120,0l0,-120z"/>
  </g>
 </g>
</svg>