<svg width="500" height="500" viewBox="0 0 500 500" xmlns="http://www.w3.org/2000/svg">
  <polygon points="129.00,142.00 129.06,141.22 129.24,140.45 129.54,139.73 129.95,139.06 130.46,138.46 131.06,137.95 131.73,137.54 132.45,137.24 133.22,137.06 134.00,137.00 214.00,137.00 214.78,137.06 215.55,137.24 216.27,137.54 216.94,137.95 217.54,138.46 218.05,139.06 218.46,139.73 218.76,140.45 218.94,141.22 219.00,142.00 219.00,222.00 218.94,222.78 218.76,223.55 218.46,224.27 218.05,224.94 217.54,225.54 216.94,226.05 216.27,226.46 215.55,226.76 214.78,226.94 214.00,227.00 134.00,227.00 133.22,226.94 132.45,226.76 131.73,226.46 131.06,226.05 130.46,225.54 129.95,224.94 129.54,224.27 129.24,223.55 129.06,222.78 129.00,222.00" fill="black" />
  <polygon points="225.00,142.00 225.06,141.22 225.24,140.45 225.54,139.73 225.95,139.06 226.46,138.46 227.06,137.95 227.73,137.54 228.45,137.24 229.22,137.06 230.00,137.00 310.00,137.00 310.78,137.06 311.55,137.24 312.27,137.54 312.94,137.95 313.54,138.46 314.05,139.06 314.46,139.73 314.76,140.45 314.94,141.22 315.00,142.00 315.00,222.00 314.94,222.78 314.76,223.55 314.46,224.27 314.05,224.94 313.54,225.54 312.94,226.05 312.27,226.46 311.55,226.76 310.78,226.94 310.00,227.00 230.00,227.00 229.22,226.94 228.45,226.76 227.73,226.46 227.06,226.05 226.46,225.54 225.95,224.94 225.54,224.27 225.24,223.55 225.06,222.78 225.00,222.00" fill="black" />
  <polygon points="129.00,238.00 129.06,237.22 129.24,236.45 129.54,235.73 129.95,235.06 130.46,234.46 131.06,233.95 131.73,233.54 132.45,233.24 133.22,233.06 134.00,233.00 214.00,233.00 214.78,233.06 215.55,233.24 216.27,233.54 216.94,233.95 217.54,234.46 218.05,235.06 218.46,235.73 218.76,236.45 218.94,237.22 219.00,238.00 219.00,318.00 218.94,318.78 218.76,319.55 218.46,320.27 218.05,320.94 217.54,321.54 216.94,322.05 216.27,322.46 215.55,322.76 214.78,322.94 214.00,323.00 134.00,323.00 133.22,322.94 132.45,322.76 131.73,322.46 131.06,322.05 130.46,321.54 129.95,320.94 129.54,320.27 129.24,319.55 129.06,318.78 129.00,318.00" fill="black" />
  <polygon points="225.00,238.00 225.06,237.22 225.24,236.45 225.54,235.73 225.95,235.06 226.46,234.46 227.06,233.95 227.73,233.54 228.45,233.24 229.22,233.06 230.00,233.00 310.00,233.00 310.78,233.06 311.55,233.24 312.27,233.54 312.94,233.95 313.54,234.46 314.05,235.06 314.46,235.73 314.76,236.45 314.94,237.22 315.00,238.00 315.00,318.00 314.94,318.78 314.76,319.55 314.46,320.27 314.05,320.94 313.54,321.54 312.94,322.05 312.27,322.46 311.55,322.76 310.78,322.94 310.00,323.00 230.00,323.00 229.22,322.94 228.45,322.76 227.73,322.46 227.06,322.05 226.46,321.54 225.95,320.94 225.54,320.27 225.24,319.55 225.06,318.78 225.00,318.00" fill="black" />
  <polygon points="129.00,334.00 129.06,333.22 129.24,332.45 129.54,331.73 129.95,331.06 130.46,330.46 131.06,329.95 131.73,329.54 132.45,329.24 133.22,329.06 134.00,329.00 214.00,329.00 214.78,329.06 215.55,329.24 216.27,329.54 216.94,329.95 217.54,330.46 218.05,331.06 218.46,331.73 218.76,332.45 218.94,333.22 219.00,334.00 219.00,414.00 218.94,414.78 218.76,415.55 218.46,416.27 218.05,416.94 217.54,417.54 216.94,418.05 216.27,418.46 215.55,418.76 214.78,418.94 214.00,419.00 134.00,419.00 133.22,418.94 132.45,418.76 131.73,418.46 131.06,418.05 130.46,417.54 129.95,416.94 129.54,416.27 129.24,415.55 129.06,414.78 129.00,414.00" fill="black" />
  <polygon points="225.00,334.00 225.06,333.22 225.24,332.45 225.54,331.73 225.95,331.06 226.46,330.46 227.06,329.95 227.73,329.54 228.45,329.24 229.22,329.06 230.00,329.00 310.00,329.00 310.78,329.06 311.55,329.24 312.27,329.54 312.94,329.95 313.54,330.46 314.05,331.06 314.46,331.73 314.76,332.45 314.94,333.22 315.00,334.00 315.00,414.00 314.94,414.78 314.76,415.55 314.46,416.27 314.05,416.94 313.54,417.54 312.94,418.05 312.27,418.46 311.55,418.76 310.78,418.94 310.00,419.00 230.00,419.00 229.22,418.94 228.45,418.76 227.73,418.46 227.06,418.05 226.46,417.54 225.95,416.94 225.54,416.27 225.24,415.55 225.06,414.78 225.00,414.00" fill="black" />
  <polygon points="134.00,131.00 132.34,130.86 131.37,130.43 131.07,129.73 131.46,128.74 132.54,127.46 147.46,112.54 148.94,111.26 150.53,110.27 152.23,109.57 154.06,109.14 156.00,109.00 236.00,109.00 237.66,109.14 238.63,109.57 238.93,110.27 238.54,111.26 237.46,112.54 222.54,127.46 221.06,128.74 219.47,129.73 217.77,130.43 215.94,130.86 214.00,131.00" fill="black" />
  <polygon points="230.00,131.00 228.34,130.86 227.37,130.43 227.07,129.73 227.46,128.74 228.54,127.46 243.46,112.54 244.94,111.26 246.53,110.27 248.23,109.57 250.06,109.14 252.00,109.00 332.00,109.00 333.66,109.14 334.63,109.57 334.93,110.27 334.54,111.26 333.46,112.54 318.54,127.46 317.06,128.74 315.47,129.73 313.77,130.43 311.94,130.86 310.00,131.00" fill="black" />
  <polygon points="162.00,103.00 160.34,102.86 159.37,102.43 159.07,101.73 159.46,100.74 160.54,99.46 175.46,84.54 176.94,83.26 178.53,82.27 180.23,81.57 182.06,81.14 184.00,81.00 264.00,81.00 265.66,81.14 266.63,81.57 266.93,82.27 266.54,83.26 265.46,84.54 250.54,99.46 249.06,100.74 247.47,101.73 245.77,102.43 243.94,102.86 242.00,103.00" fill="black" />
  <polygon points="258.00,103.00 256.34,102.86 255.37,102.43 255.07,101.73 255.46,100.74 256.54,99.46 271.46,84.54 272.94,83.26 274.53,82.27 276.23,81.57 278.06,81.14 280.00,81.00 360.00,81.00 361.66,81.14 362.63,81.57 362.93,82.27 362.54,83.26 361.46,84.54 346.54,99.46 345.06,100.74 343.47,101.73 341.77,102.43 339.94,102.86 338.00,103.00" fill="black" />
  <polygon points="321.00,140.00 321.14,138.06 321.57,136.23 322.27,134.53 323.26,132.94 324.54,131.46 339.46,116.54 340.74,115.46 341.73,115.07 342.43,115.37 342.86,116.34 343.00,118.00 343.00,198.00 342.86,199.94 342.43,201.77 341.73,203.47 340.74,205.06 339.46,206.54 324.54,221.46 323.26,222.54 322.27,222.93 321.57,222.63 321.14,221.66 321.00,220.00" fill="black" />
  <polygon points="321.00,236.00 321.14,234.06 321.57,232.23 322.27,230.53 323.26,228.94 324.54,227.46 339.46,212.54 340.74,211.46 341.73,211.07 342.43,211.37 342.86,212.34 343.00,214.00 343.00,294.00 342.86,295.94 342.43,297.77 341.73,299.47 340.74,301.06 339.46,302.54 324.54,317.46 323.26,318.54 322.27,318.93 321.57,318.63 321.14,317.66 321.00,316.00" fill="black" />
  <polygon points="321.00,332.00 321.14,330.06 321.57,328.23 322.27,326.53 323.26,324.94 324.54,323.46 339.46,308.54 340.74,307.46 341.73,307.07 342.43,307.37 342.86,308.34 343.00,310.00 343.00,390.00 342.86,391.94 342.43,393.77 341.73,395.47 340.74,397.06 339.46,398.54 324.54,413.46 323.26,414.54 322.27,414.93 321.57,414.63 321.14,413.66 321.00,412.00" fill="black" />
  <polygon points="349.00,112.00 349.14,110.06 349.57,108.23 350.27,106.53 351.26,104.94 352.54,103.46 367.46,88.54 368.74,87.46 369.73,87.07 370.43,87.37 370.86,88.34 371.00,90.00 371.00,170.00 370.86,171.94 370.43,173.77 369.73,175.47 368.74,177.06 367.46,178.54 352.54,193.46 351.26,194.54 350.27,194.93 349.57,194.63 349.14,193.66 349.00,192.00" fill="black" />
  <polygon points="349.00,208.00 349.14,206.06 349.57,204.23 350.27,202.53 351.26,200.94 352.54,199.46 367.46,184.54 368.74,183.46 369.73,183.07 370.43,183.37 370.86,184.34 371.00,186.00 371.00,266.00 370.86,267.94 370.43,269.77 369.73,271.47 368.74,273.06 367.46,274.54 352.54,289.46 351.26,290.54 350.27,290.93 349.57,290.63 349.14,289.66 349.00,288.00" fill="black" />
  <polygon points="349.00,304.00 349.14,302.06 349.57,300.23 350.27,298.53 351.26,296.94 352.54,295.46 367.46,280.54 368.74,279.46 369.73,279.07 370.43,279.37 370.86,280.34 371.00,282.00 371.00,362.00 370.86,363.94 370.43,365.77 369.73,367.47 368.74,369.06 367.46,370.54 352.54,385.46 351.26,386.54 350.27,386.93 349.57,386.63 349.14,385.66 349.00,384.00" fill="black" />
</svg>