<?xml version="1.0" standalone="no"?>
<!DOCTYPE svg PUBLIC "-//W3C//DTD SVG 20010904//EN"
 "http://www.w3.org/TR/2001/REC-SVG-20010904/DTD/svg10.dtd">
<svg version="1.0" xmlns="http://www.w3.org/2000/svg"
 width="1049.000000pt" height="640.000000pt" viewBox="0 0 1049.000000 640.000000"
 preserveAspectRatio="xMidYMid meet">

<g transform="translate(0.000000,640.000000) scale(0.100000,-0.100000)"
fill="#000000" stroke="none">
<path d="M8715 5994 c-35 -10 -38 -22 -15 -54 21 -29 26 -32 61 -26 42 7 175
-17 224 -40 88 -41 129 -47 357 -53 l227 -6 51 -50 50 -49 42 41 c24 23 70 56
103 74 77 41 95 57 95 85 0 40 -55 47 -256 33 -218 -15 -477 -2 -639 32 -58
12 -270 21 -300 13z"/>
<path d="M8776 5694 c3 -82 1 -183 -4 -224 -11 -74 -41 -206 -53 -225 -4 -5
-12 -35 -20 -65 -7 -30 -18 -64 -25 -75 -6 -11 -15 -33 -19 -50 -3 -16 -15
-49 -26 -72 -10 -24 -28 -62 -38 -85 -11 -24 -25 -54 -30 -68 -6 -14 -21 -41
-33 -60 -11 -19 -26 -44 -32 -55 -27 -48 -70 -110 -77 -113 -5 -2 -9 -10 -9
-17 0 -8 -9 -19 -20 -25 -11 -6 -20 -15 -20 -20 0 -15 -158 -167 -242 -233
-13 -9 -49 -37 -80 -62 -31 -25 -61 -45 -67 -45 -6 0 -11 -3 -11 -8 0 -4 -18
-18 -40 -32 -22 -14 -40 -28 -40 -32 0 -5 -6 -8 -13 -8 -8 0 -22 -9 -32 -20
-10 -11 -23 -20 -30 -20 -7 0 -20 -9 -30 -20 -10 -11 -24 -20 -30 -20 -7 0
-18 -7 -25 -15 -7 -9 -28 -23 -46 -31 -19 -9 -34 -20 -34 -25 0 -5 -4 -9 -9
-9 -5 0 -45 -22 -88 -49 -73 -47 -214 -132 -258 -157 -11 -6 -40 -23 -65 -38
-25 -15 -57 -31 -72 -37 -16 -6 -28 -15 -28 -20 0 -5 -6 -9 -14 -9 -22 0 -63
-38 -50 -47 12 -9 115 -218 159 -323 15 -36 36 -82 46 -103 10 -22 19 -43 19
-48 0 -6 9 -29 20 -51 11 -23 20 -47 20 -53 0 -6 9 -30 20 -53 11 -22 20 -53
20 -67 0 -14 5 -25 10 -25 6 0 10 -9 10 -19 0 -11 5 -23 10 -26 6 -3 10 -19
10 -34 0 -15 3 -31 7 -35 11 -11 33 -79 33 -103 0 -13 4 -23 9 -23 4 0 14 -28
21 -62 7 -35 18 -73 24 -85 12 -25 5 -27 112 36 32 18 96 58 143 89 47 31 93
61 103 67 51 31 287 215 353 275 43 39 171 168 226 227 19 21 50 59 69 86 18
26 37 47 42 47 4 0 8 5 8 11 0 9 54 93 70 109 24 24 161 306 187 385 52 154
59 185 104 440 10 61 26 162 34 225 8 63 19 131 25 150 6 19 17 89 25 155 19
161 43 321 55 371 5 23 14 84 21 135 6 52 14 101 19 109 4 8 13 60 20 115 7
55 19 117 26 139 24 67 19 84 -23 91 -39 7 -120 34 -183 62 -19 9 -65 18 -102
21 l-67 5 5 -149z"/>
<path d="M9410 5749 c-30 -4 -79 -7 -107 -8 -49 -1 -53 -3 -58 -28 -3 -16 -10
-42 -15 -58 -5 -17 -15 -66 -21 -110 -6 -44 -14 -86 -19 -95 -4 -8 -13 -60
-19 -115 -7 -55 -19 -129 -26 -165 -8 -36 -22 -121 -31 -190 -8 -69 -24 -183
-35 -255 -11 -71 -23 -161 -29 -200 -5 -38 -14 -99 -20 -135 -6 -36 -15 -96
-21 -135 -5 -38 -15 -87 -20 -110 -6 -22 -15 -65 -19 -95 -14 -89 -22 -120
-31 -126 -5 -3 -9 -18 -9 -34 0 -16 -9 -45 -20 -65 -11 -20 -20 -44 -20 -53 0
-10 -9 -37 -20 -60 -11 -22 -20 -47 -20 -54 0 -7 -9 -24 -20 -38 -11 -14 -20
-32 -20 -40 0 -8 -9 -26 -20 -40 -11 -14 -20 -31 -20 -38 0 -7 -5 -18 -10 -25
-9 -11 -120 -175 -145 -216 -5 -8 -15 -20 -21 -26 -6 -5 -26 -30 -44 -55 -19
-25 -49 -60 -67 -77 -18 -18 -33 -35 -33 -38 0 -11 -146 -149 -242 -227 -35
-29 -70 -59 -78 -66 -8 -6 -42 -32 -75 -56 -33 -25 -68 -52 -77 -60 -10 -9
-20 -16 -22 -16 -9 0 -101 -64 -104 -72 -2 -4 -8 -8 -13 -8 -6 0 -37 -18 -70
-40 -33 -22 -63 -40 -67 -40 -4 0 -18 -9 -32 -20 -14 -11 -33 -20 -42 -20 -10
0 -18 -4 -18 -9 0 -5 -18 -17 -40 -27 l-40 -18 0 -72 c0 -39 4 -94 9 -121 6
-28 13 -126 16 -219 4 -93 8 -174 10 -180 2 -8 26 -7 82 2 144 23 258 44 328
59 73 16 167 36 295 60 41 8 86 19 100 24 14 6 54 15 90 22 36 7 70 15 75 19
6 4 26 11 45 15 19 3 65 15 103 26 37 10 100 28 140 40 39 11 92 28 117 39 25
10 63 24 85 32 33 11 47 26 82 83 23 39 49 86 58 105 9 19 19 37 23 40 7 5 46
83 77 155 10 22 26 58 35 80 38 86 93 276 110 380 7 39 16 89 21 112 15 68 10
338 -7 433 -8 47 -19 108 -24 135 -17 104 -42 231 -51 260 -5 17 -14 73 -19
125 -6 52 -15 129 -20 170 -13 96 -13 234 0 330 5 41 14 128 20 192 6 65 14
128 19 140 5 13 14 57 20 98 7 41 16 89 21 105 5 17 14 57 21 90 7 33 16 65
19 70 4 6 10 26 12 45 6 39 56 180 69 195 5 5 9 15 9 22 0 7 20 47 45 88 51
83 50 96 -6 136 -40 28 -82 36 -149 28z"/>
<path d="M938 3923 c-31 -5 -80 -59 -179 -198 -180 -251 -185 -269 -102 -405
28 -47 84 -149 123 -227 40 -79 73 -143 75 -143 6 0 110 107 145 149 19 23 48
56 64 74 15 18 39 49 52 70 13 20 29 37 34 37 6 0 10 4 10 10 0 5 17 33 37 62
44 61 69 103 84 141 6 15 15 27 20 27 5 0 9 5 9 11 0 5 11 34 24 62 48 105 59
133 72 186 8 30 19 60 24 66 16 19 -3 31 -80 49 -122 29 -320 43 -412 29z"/>
<path d="M1496 3788 c-4 -28 -15 -70 -25 -92 -10 -23 -22 -52 -26 -66 -4 -13
-32 -72 -61 -130 -55 -110 -56 -117 -9 -143 12 -6 57 -36 99 -64 43 -29 81
-53 85 -53 4 0 16 -9 26 -20 10 -11 24 -20 30 -20 7 0 18 -7 25 -15 7 -8 24
-21 39 -28 44 -24 74 -41 119 -70 57 -37 104 -64 181 -104 36 -18 69 -37 75
-42 40 -32 484 -253 656 -326 36 -15 75 -34 87 -41 12 -8 27 -14 32 -14 6 0
34 -10 63 -23 29 -13 73 -31 98 -41 25 -10 64 -26 88 -37 23 -10 47 -19 53
-19 5 0 29 -9 51 -20 23 -11 48 -20 55 -20 8 0 33 -9 55 -20 23 -11 49 -20 58
-20 9 0 35 -9 58 -20 22 -11 49 -20 60 -20 10 0 22 -4 28 -9 5 -6 34 -17 64
-25 30 -8 73 -22 95 -30 22 -8 49 -15 61 -16 11 0 24 -4 30 -9 5 -5 36 -16 69
-25 33 -8 101 -27 150 -41 50 -14 122 -32 161 -40 40 -8 76 -16 80 -17 9 -3
13 10 9 27 -2 6 -9 46 -15 90 -7 44 -16 88 -21 97 -5 10 -16 48 -24 85 -22
105 -54 226 -65 245 -6 10 -10 26 -10 37 0 10 -7 36 -16 57 -9 22 -23 63 -31
93 -7 30 -17 60 -22 65 -4 6 -11 26 -15 44 -3 19 -12 48 -19 65 -24 56 -49
131 -54 160 -3 15 -9 27 -14 27 -5 0 -9 8 -9 18 -1 30 -26 53 -66 59 -22 3
-59 12 -84 20 -25 8 -63 18 -85 23 -44 10 -151 38 -260 70 -38 11 -101 29
-140 39 -38 10 -81 23 -95 29 -42 17 -183 60 -220 67 -19 4 -39 11 -45 15 -5
4 -39 13 -75 20 -36 6 -70 16 -75 20 -6 5 -42 14 -80 20 -38 6 -74 15 -80 19
-5 5 -41 14 -80 20 -38 7 -84 16 -100 21 -17 6 -73 17 -125 25 -86 13 -191 32
-365 65 -33 6 -98 20 -145 30 -47 11 -113 24 -148 31 -34 6 -65 16 -68 20 -3
5 -18 9 -33 9 -27 0 -29 -3 -35 -52z"/>
<path d="M6835 3506 c-116 -57 -182 -88 -280 -131 -28 -12 -46 -19 -105 -42
-14 -5 -45 -19 -70 -31 -25 -12 -51 -22 -58 -22 -7 0 -32 -9 -54 -20 -23 -11
-51 -20 -63 -20 -12 0 -25 -3 -29 -7 -10 -11 -79 -33 -102 -33 -11 0 -24 -3
-28 -7 -11 -11 -79 -33 -106 -33 -14 0 -44 -7 -68 -15 -41 -15 -108 -24 -302
-45 -113 -11 -430 -11 -555 0 -55 6 -149 14 -210 20 -60 5 -146 14 -190 20
-44 7 -114 16 -155 20 -41 5 -97 14 -125 20 -27 6 -77 15 -110 20 -33 5 -82
14 -110 20 -61 14 -125 23 -125 19 0 -2 12 -35 26 -74 14 -38 29 -83 34 -100
4 -16 24 -75 42 -130 33 -98 64 -195 89 -285 7 -25 16 -49 21 -55 4 -5 8 -20
8 -35 0 -14 7 -45 16 -70 9 -25 20 -65 24 -90 5 -25 15 -72 24 -105 8 -33 15
-74 16 -92 0 -17 4 -34 9 -37 4 -3 11 -23 15 -45 6 -37 9 -40 53 -51 64 -15
232 -47 313 -59 307 -47 318 -48 576 -61 233 -11 629 -1 769 20 144 22 296 50
375 69 47 11 112 26 145 34 63 15 136 37 220 67 28 10 61 21 75 25 42 11 154
56 164 66 6 5 17 9 25 9 8 0 35 9 60 21 25 11 66 30 91 41 44 20 61 28 98 47
9 5 47 24 85 42 45 22 67 38 67 50 0 10 -4 20 -9 23 -5 3 -14 35 -21 71 -7 36
-16 67 -20 70 -4 3 -14 29 -20 57 -7 29 -17 61 -22 71 -5 10 -15 40 -23 65 -7
26 -25 79 -39 117 -15 39 -31 81 -35 95 -5 14 -17 45 -28 70 -11 25 -28 65
-37 90 -23 55 -55 128 -69 155 -15 29 -20 40 -73 148 -26 53 -52 97 -58 97 -6
0 -69 -29 -141 -64z"/>
<path d="M1211 3223 c-85 -114 -139 -178 -244 -286 l-79 -80 22 -51 c51 -114
105 -222 132 -262 15 -23 28 -45 28 -48 0 -10 82 -130 92 -134 4 -2 8 -9 8
-14 0 -6 7 -18 15 -27 9 -9 46 -54 83 -101 92 -118 118 -146 267 -295 120
-120 212 -205 281 -259 15 -11 61 -48 103 -82 69 -55 149 -113 189 -139 9 -5
25 -18 36 -27 11 -10 25 -18 31 -18 7 0 20 -9 30 -20 10 -11 24 -20 32 -20 7
0 13 -4 13 -8 0 -5 15 -16 33 -25 17 -10 52 -31 77 -47 25 -16 52 -33 60 -37
8 -3 26 -15 39 -25 38 -29 401 -25 906 11 88 6 205 16 260 22 55 5 186 18 290
29 105 11 232 25 283 31 l93 13 -5 50 c-3 28 -8 132 -11 231 -4 99 -10 196
-15 215 -4 19 -11 69 -15 111 -6 73 -8 77 -33 82 -15 3 -61 15 -102 26 -41 11
-109 29 -150 40 -158 41 -416 118 -490 146 -19 8 -53 19 -75 26 -22 6 -44 15
-49 20 -6 5 -18 9 -28 9 -10 0 -37 9 -61 19 -23 11 -60 25 -82 31 -22 7 -44
16 -49 21 -6 5 -16 9 -23 9 -8 0 -33 9 -55 20 -23 11 -45 20 -50 20 -5 0 -27
8 -51 19 -23 10 -67 28 -97 41 -114 48 -153 65 -285 125 -80 37 -382 187 -470
234 -170 92 -210 114 -215 121 -3 3 -30 20 -60 35 -30 16 -80 45 -110 65 -30
19 -68 41 -83 49 -15 8 -27 18 -27 23 0 4 -5 8 -11 8 -5 0 -37 18 -69 40 -32
22 -64 40 -69 40 -6 0 -11 3 -11 8 0 4 -18 18 -40 32 -22 14 -40 28 -40 32 0
5 -8 8 -18 8 -9 0 -23 9 -30 20 -7 11 -16 20 -21 20 -4 0 -40 -43 -80 -97z"/>
<path d="M7358 2290 c-42 -21 -105 -51 -140 -66 -35 -14 -81 -34 -103 -44 -22
-10 -61 -27 -88 -39 -26 -12 -52 -21 -58 -21 -6 0 -25 -7 -42 -15 -47 -21
-268 -93 -324 -105 -26 -6 -57 -15 -68 -20 -11 -5 -54 -16 -95 -24 -41 -8 -97
-19 -125 -25 -219 -43 -309 -53 -645 -71 -165 -8 -241 -7 -490 10 -162 11
-320 24 -350 30 -30 6 -100 17 -155 26 -212 32 -281 44 -303 54 -13 6 -27 10
-32 10 -12 0 -12 -63 0 -115 5 -22 15 -153 21 -292 l13 -253 31 0 c16 0 46 4
65 10 19 5 107 16 195 25 88 9 183 20 210 25 28 5 100 14 160 20 61 7 124 15
140 20 17 5 84 14 150 20 66 6 134 15 150 20 27 8 127 21 380 50 44 5 105 14
135 20 30 6 91 15 135 20 44 5 105 14 135 20 30 6 96 15 145 20 50 5 110 14
135 20 25 6 81 15 125 20 44 5 107 14 140 20 33 6 89 15 125 20 36 5 117 17
180 25 63 9 129 20 145 25 17 5 72 15 124 22 l94 12 -7 180 c-9 219 -19 373
-26 379 -3 3 -40 -12 -82 -33z"/>
<path d="M8910 1995 c-112 -33 -200 -58 -266 -74 -39 -10 -76 -21 -82 -25 -6
-4 -44 -13 -84 -21 -40 -8 -125 -26 -188 -40 -63 -14 -151 -33 -195 -41 -44
-8 -91 -18 -105 -23 -14 -5 -65 -14 -115 -21 -49 -6 -99 -15 -110 -19 -11 -5
-60 -15 -110 -22 l-90 -14 -7 -115 c-3 -63 -11 -158 -17 -210 -5 -52 -17 -158
-25 -235 -8 -77 -19 -166 -24 -199 -6 -44 -5 -59 5 -63 7 -3 53 16 103 41 50
25 97 46 105 46 8 0 15 4 15 9 0 5 12 13 28 19 45 17 55 22 97 47 22 14 58 34
80 45 70 35 348 217 353 231 2 5 8 9 14 9 8 0 67 46 188 147 30 25 286 279
310 308 20 24 130 166 173 223 11 15 5 14 -53 -3z"/>
<path d="M7375 1663 c-38 -7 -106 -18 -150 -23 -44 -5 -102 -14 -130 -21 -27
-6 -86 -14 -130 -19 -44 -4 -100 -13 -125 -19 -25 -6 -81 -16 -125 -21 -44 -5
-109 -15 -145 -20 -36 -6 -96 -15 -135 -20 -38 -4 -113 -15 -165 -24 -52 -9
-109 -16 -127 -16 -18 0 -42 -4 -55 -9 -13 -5 -70 -14 -128 -20 -58 -7 -130
-16 -161 -21 -31 -6 -109 -17 -175 -26 -65 -9 -146 -20 -179 -25 -33 -5 -109
-13 -169 -19 -59 -6 -113 -13 -119 -17 -5 -3 -85 -14 -176 -25 -164 -18 -247
-28 -398 -49 -43 -5 -98 -12 -123 -15 -94 -10 -85 12 -85 -211 0 -109 -2 -272
-5 -362 -3 -103 -1 -165 5 -167 118 -25 211 -39 450 -66 135 -15 899 -15 1035
0 98 11 136 16 310 43 122 18 266 45 276 52 6 3 42 11 80 17 38 6 92 17 119
24 98 28 171 48 225 62 30 8 63 19 72 24 10 6 26 10 37 10 11 0 40 9 66 20 26
11 53 20 61 20 8 0 34 9 56 20 23 11 48 20 55 20 7 0 22 4 33 10 11 6 29 15
40 20 11 6 27 10 35 10 17 0 56 20 66 33 4 5 9 49 13 97 4 49 11 101 16 117
11 32 40 356 47 521 4 89 2 112 -9 111 -7 -1 -44 -8 -83 -16z"/>
<path d="M4155 1221 c-11 -5 -92 -14 -180 -20 -88 -7 -173 -16 -190 -21 -16
-6 -145 -17 -285 -26 -140 -8 -295 -19 -345 -24 -49 -4 -187 -9 -305 -9 -189
-1 -212 -3 -190 -15 73 -41 329 -166 338 -166 7 0 12 -4 12 -10 0 -5 8 -10 17
-10 16 0 64 -20 148 -61 22 -10 45 -19 52 -19 7 0 28 -9 48 -20 20 -11 44 -20
55 -20 11 0 35 -9 55 -20 20 -11 44 -20 53 -20 10 0 37 -9 60 -20 22 -11 46
-20 52 -20 11 0 122 -34 165 -51 11 -4 45 -13 75 -20 30 -7 60 -17 66 -21 7
-5 43 -15 80 -23 178 -37 223 -47 278 -61 32 -8 61 -13 63 -10 3 2 7 160 10
350 l6 346 -59 -1 c-32 0 -68 -4 -79 -8z"/>
</g>
</svg>
