<svg width="500" height="500" viewBox="0 0 500 500" xmlns="http://www.w3.org/2000/svg">
  <polygon points="96.00,157.00 96.06,156.22 96.24,155.45 96.54,154.73 96.95,154.06 97.46,153.46 98.06,152.95 98.73,152.54 99.45,152.24 100.22,152.06 101.00,152.00 171.00,152.00 171.78,152.06 172.55,152.24 173.27,152.54 173.94,152.95 174.54,153.46 175.05,154.06 175.46,154.73 175.76,155.45 175.94,156.22 176.00,157.00 176.00,227.00 175.94,227.78 175.76,228.55 175.46,229.27 175.05,229.94 174.54,230.54 173.94,231.05 173.27,231.46 172.55,231.76 171.78,231.94 171.00,232.00 101.00,232.00 100.22,231.94 99.45,231.76 98.73,231.46 98.06,231.05 97.46,230.54 96.95,229.94 96.54,229.27 96.24,228.55 96.06,227.78 96.00,227.00" fill="black" />
  <polygon points="182.00,157.00 182.06,156.22 182.24,155.45 182.54,154.73 182.95,154.06 183.46,153.46 184.06,152.95 184.73,152.54 185.45,152.24 186.22,152.06 187.00,152.00 257.00,152.00 257.78,152.06 258.55,152.24 259.27,152.54 259.94,152.95 260.54,153.46 261.05,154.06 261.46,154.73 261.76,155.45 261.94,156.22 262.00,157.00 262.00,227.00 261.94,227.78 261.76,228.55 261.46,229.27 261.05,229.94 260.54,230.54 259.94,231.05 259.27,231.46 258.55,231.76 257.78,231.94 257.00,232.00 187.00,232.00 186.22,231.94 185.45,231.76 184.73,231.46 184.06,231.05 183.46,230.54 182.95,229.94 182.54,229.27 182.24,228.55 182.06,227.78 182.00,227.00" fill="black" />
  <polygon points="268.00,157.00 268.06,156.22 268.24,155.45 268.54,154.73 268.95,154.06 269.46,153.46 270.06,152.95 270.73,152.54 271.45,152.24 272.22,152.06 273.00,152.00 343.00,152.00 343.78,152.06 344.55,152.24 345.27,152.54 345.94,152.95 346.54,153.46 347.05,154.06 347.46,154.73 347.76,155.45 347.94,156.22 348.00,157.00 348.00,227.00 347.94,227.78 347.76,228.55 347.46,229.27 347.05,229.94 346.54,230.54 345.94,231.05 345.27,231.46 344.55,231.76 343.78,231.94 343.00,232.00 273.00,232.00 272.22,231.94 271.45,231.76 270.73,231.46 270.06,231.05 269.46,230.54 268.95,229.94 268.54,229.27 268.24,228.55 268.06,227.78 268.00,227.00" fill="black" />
  <polygon points="96.00,243.00 96.06,242.22 96.24,241.45 96.54,240.73 96.95,240.06 97.46,239.46 98.06,238.95 98.73,238.54 99.45,238.24 100.22,238.06 101.00,238.00 171.00,238.00 171.78,238.06 172.55,238.24 173.27,238.54 173.94,238.95 174.54,239.46 175.05,240.06 175.46,240.73 175.76,241.45 175.94,242.22 176.00,243.00 176.00,313.00 175.94,313.78 175.76,314.55 175.46,315.27 175.05,315.94 174.54,316.54 173.94,317.05 173.27,317.46 172.55,317.76 171.78,317.94 171.00,318.00 101.00,318.00 100.22,317.94 99.45,317.76 98.73,317.46 98.06,317.05 97.46,316.54 96.95,315.94 96.54,315.27 96.24,314.55 96.06,313.78 96.00,313.00" fill="black" />
  <polygon points="182.00,243.00 182.06,242.22 182.24,241.45 182.54,240.73 182.95,240.06 183.46,239.46 184.06,238.95 184.73,238.54 185.45,238.24 186.22,238.06 187.00,238.00 257.00,238.00 257.78,238.06 258.55,238.24 259.27,238.54 259.94,238.95 260.54,239.46 261.05,240.06 261.46,240.73 261.76,241.45 261.94,242.22 262.00,243.00 262.00,313.00 261.94,313.78 261.76,314.55 261.46,315.27 261.05,315.94 260.54,316.54 259.94,317.05 259.27,317.46 258.55,317.76 257.78,317.94 257.00,318.00 187.00,318.00 186.22,317.94 185.45,317.76 184.73,317.46 184.06,317.05 183.46,316.54 182.95,315.94 182.54,315.27 182.24,314.55 182.06,313.78 182.00,313.00" fill="black" />
  <polygon points="268.00,243.00 268.06,242.22 268.24,241.45 268.54,240.73 268.95,240.06 269.46,239.46 270.06,238.95 270.73,238.54 271.45,238.24 272.22,238.06 273.00,238.00 343.00,238.00 343.78,238.06 344.55,238.24 345.27,238.54 345.94,238.95 346.54,239.46 347.05,240.06 347.46,240.73 347.76,241.45 347.94,242.22 348.00,243.00 348.00,313.00 347.94,313.78 347.76,314.55 347.46,315.27 347.05,315.94 346.54,316.54 345.94,317.05 345.27,317.46 344.55,317.76 343.78,317.94 343.00,318.00 273.00,318.00 272.22,317.94 271.45,317.76 270.73,317.46 270.06,317.05 269.46,316.54 268.95,315.94 268.54,315.27 268.24,314.55 268.06,313.78 268.00,313.00" fill="black" />
  <polygon points="96.00,329.00 96.06,328.22 96.24,327.45 96.54,326.73 96.95,326.06 97.46,325.46 98.06,324.95 98.73,324.54 99.45,324.24 100.22,324.06 101.00,324.00 171.00,324.00 171.78,324.06 172.55,324.24 173.27,324.54 173.94,324.95 174.54,325.46 175.05,326.06 175.46,326.73 175.76,327.45 175.94,328.22 176.00,329.00 176.00,399.00 175.94,399.78 175.76,400.55 175.46,401.27 175.05,401.94 174.54,402.54 173.94,403.05 173.27,403.46 172.55,403.76 171.78,403.94 171.00,404.00 101.00,404.00 100.22,403.94 99.45,403.76 98.73,403.46 98.06,403.05 97.46,402.54 96.95,401.94 96.54,401.27 96.24,400.55 96.06,399.78 96.00,399.00" fill="black" />
  <polygon points="182.00,329.00 182.06,328.22 182.24,327.45 182.54,326.73 182.95,326.06 183.46,325.46 184.06,324.95 184.73,324.54 185.45,324.24 186.22,324.06 187.00,324.00 257.00,324.00 257.78,324.06 258.55,324.24 259.27,324.54 259.94,324.95 260.54,325.46 261.05,326.06 261.46,326.73 261.76,327.45 261.94,328.22 262.00,329.00 262.00,399.00 261.94,399.78 261.76,400.55 261.46,401.27 261.05,401.94 260.54,402.54 259.94,403.05 259.27,403.46 258.55,403.76 257.78,403.94 257.00,404.00 187.00,404.00 186.22,403.94 185.45,403.76 184.73,403.46 184.06,403.05 183.46,402.54 182.95,401.94 182.54,401.27 182.24,400.55 182.06,399.78 182.00,399.00" fill="black" />
  <polygon points="268.00,329.00 268.06,328.22 268.24,327.45 268.54,326.73 268.95,326.06 269.46,325.46 270.06,324.95 270.73,324.54 271.45,324.24 272.22,324.06 273.00,324.00 343.00,324.00 343.78,324.06 344.55,324.24 345.27,324.54 345.94,324.95 346.54,325.46 347.05,326.06 347.46,326.73 347.76,327.45 347.94,328.22 348.00,329.00 348.00,399.00 347.94,399.78 347.76,400.55 347.46,401.27 347.05,401.94 346.54,402.54 345.94,403.05 345.27,403.46 344.55,403.76 343.78,403.94 343.00,404.00 273.00,404.00 272.22,403.94 271.45,403.76 270.73,403.46 270.06,403.05 269.46,402.54 268.95,401.94 268.54,401.27 268.24,400.55 268.06,399.78 268.00,399.00" fill="black" />
  <polygon points="101.00,146.00 99.34,145.86 98.37,145.43 98.07,144.73 98.46,143.74 99.54,142.46 114.46,127.54 115.94,126.26 117.53,125.27 119.23,124.57 121.06,124.14 123.00,124.00 193.00,124.00 194.66,124.14 195.63,124.57 195.93,125.27 195.54,126.26 194.46,127.54 179.54,142.46 178.06,143.74 176.47,144.73 174.77,145.43 172.94,145.86 171.00,146.00" fill="black" />
  <polygon points="187.00,146.00 185.34,145.86 184.37,145.43 184.07,144.73 184.46,143.74 185.54,142.46 200.46,127.54 201.94,126.26 203.53,125.27 205.23,124.57 207.06,124.14 209.00,124.00 279.00,124.00 280.66,124.14 281.63,124.57 281.93,125.27 281.54,126.26 280.46,127.54 265.54,142.46 264.06,143.74 262.47,144.73 260.77,145.43 258.94,145.86 257.00,146.00" fill="black" />
  <polygon points="273.00,146.00 271.34,145.86 270.37,145.43 270.07,144.73 270.46,143.74 271.54,142.46 286.46,127.54 287.94,126.26 289.53,125.27 291.23,124.57 293.06,124.14 295.00,124.00 365.00,124.00 366.66,124.14 367.63,124.57 367.93,125.27 367.54,126.26 366.46,127.54 351.54,142.46 350.06,143.74 348.47,144.73 346.77,145.43 344.94,145.86 343.00,146.00" fill="black" />
  <polygon points="129.00,118.00 127.34,117.86 126.37,117.43 126.07,116.73 126.46,115.74 127.54,114.46 142.46,99.54 143.94,98.26 145.53,97.27 147.23,96.57 149.06,96.14 151.00,96.00 221.00,96.00 222.66,96.14 223.63,96.57 223.93,97.27 223.54,98.26 222.46,99.54 207.54,114.46 206.06,115.74 204.47,116.73 202.77,117.43 200.94,117.86 199.00,118.00" fill="black" />
  <polygon points="215.00,118.00 213.34,117.86 212.37,117.43 212.07,116.73 212.46,115.74 213.54,114.46 228.46,99.54 229.94,98.26 231.53,97.27 233.23,96.57 235.06,96.14 237.00,96.00 307.00,96.00 308.66,96.14 309.63,96.57 309.93,97.27 309.54,98.26 308.46,99.54 293.54,114.46 292.06,115.74 290.47,116.73 288.77,117.43 286.94,117.86 285.00,118.00" fill="black" />
  <polygon points="301.00,118.00 299.34,117.86 298.37,117.43 298.07,116.73 298.46,115.74 299.54,114.46 314.46,99.54 315.94,98.26 317.53,97.27 319.23,96.57 321.06,96.14 323.00,96.00 393.00,96.00 394.66,96.14 395.63,96.57 395.93,97.27 395.54,98.26 394.46,99.54 379.54,114.46 378.06,115.74 376.47,116.73 374.77,117.43 372.94,117.86 371.00,118.00" fill="black" />
  <polygon points="354.00,155.00 354.14,153.06 354.57,151.23 355.27,149.53 356.26,147.94 357.54,146.46 372.46,131.54 373.74,130.46 374.73,130.07 375.43,130.37 375.86,131.34 376.00,133.00 376.00,203.00 375.86,204.94 375.43,206.77 374.73,208.47 373.74,210.06 372.46,211.54 357.54,226.46 356.26,227.54 355.27,227.93 354.57,227.63 354.14,226.66 354.00,225.00" fill="black" />
  <polygon points="354.00,241.00 354.14,239.06 354.57,237.23 355.27,235.53 356.26,233.94 357.54,232.46 372.46,217.54 373.74,216.46 374.73,216.07 375.43,216.37 375.86,217.34 376.00,219.00 376.00,289.00 375.86,290.94 375.43,292.77 374.73,294.47 373.74,296.06 372.46,297.54 357.54,312.46 356.26,313.54 355.27,313.93 354.57,313.63 354.14,312.66 354.00,311.00" fill="black" />
  <polygon points="354.00,327.00 354.14,325.06 354.57,323.23 355.27,321.53 356.26,319.94 357.54,318.46 372.46,303.54 373.74,302.46 374.73,302.07 375.43,302.37 375.86,303.34 376.00,305.00 376.00,375.00 375.86,376.94 375.43,378.77 374.73,380.47 373.74,382.06 372.46,383.54 357.54,398.46 356.26,399.54 355.27,399.93 354.57,399.63 354.14,398.66 354.00,397.00" fill="black" />
  <polygon points="382.00,127.00 382.14,125.06 382.57,123.23 383.27,121.53 384.26,119.94 385.54,118.46 400.46,103.54 401.74,102.46 402.73,102.07 403.43,102.37 403.86,103.34 404.00,105.00 404.00,175.00 403.86,176.94 403.43,178.77 402.73,180.47 401.74,182.06 400.46,183.54 385.54,198.46 384.26,199.54 383.27,199.93 382.57,199.63 382.14,198.66 382.00,197.00" fill="black" />
  <polygon points="382.00,213.00 382.14,211.06 382.57,209.23 383.27,207.53 384.26,205.94 385.54,204.46 400.46,189.54 401.74,188.46 402.73,188.07 403.43,188.37 403.86,189.34 404.00,191.00 404.00,261.00 403.86,262.94 403.43,264.77 402.73,266.47 401.74,268.06 400.46,269.54 385.54,284.46 384.26,285.54 383.27,285.93 382.57,285.63 382.14,284.66 382.00,283.00" fill="black" />
  <polygon points="382.00,299.00 382.14,297.06 382.57,295.23 383.27,293.53 384.26,291.94 385.54,290.46 400.46,275.54 401.74,274.46 402.73,274.07 403.43,274.37 403.86,275.34 404.00,277.00 404.00,347.00 403.86,348.94 403.43,350.77 402.73,352.47 401.74,354.06 400.46,355.54 385.54,370.46 384.26,371.54 383.27,371.93 382.57,371.63 382.14,370.66 382.00,369.00" fill="black" />
</svg>