<?xml version="1.0" standalone="no"?>
<!DOCTYPE svg PUBLIC "-//W3C//DTD SVG 20010904//EN"
 "http://www.w3.org/TR/2001/REC-SVG-20010904/DTD/svg10.dtd">
<svg version="1.0" xmlns="http://www.w3.org/2000/svg"
 width="820.000000pt" height="820.000000pt" viewBox="0 0 820.000000 820.000000"
 preserveAspectRatio="xMidYMid meet">

<g transform="translate(0.000000,820.000000) scale(0.100000,-0.100000)"
fill="#000000" stroke="none">
<path d="M3363 6776 c-22 -7 -92 -40 -155 -74 -62 -33 -174 -90 -248 -127
-161 -81 -190 -100 -190 -126 0 -29 40 -41 330 -98 272 -53 384 -76 550 -114
56 -12 131 -21 185 -21 98 -1 115 5 295 104 41 23 133 73 205 112 262 143 261
156 -15 208 -834 157 -870 163 -957 136z"/>
<path d="M4660 6525 c-19 -7 -55 -24 -80 -38 -441 -243 -497 -278 -484 -311
10 -26 74 -42 489 -121 132 -25 303 -60 380 -77 110 -25 164 -32 255 -32 131
-1 95 -15 370 147 233 138 310 188 310 203 0 29 -37 50 -111 63 -40 7 -153 28
-249 47 -96 18 -224 43 -285 54 -60 12 -141 28 -180 36 -227 46 -348 55 -415
29z"/>
<path d="M2588 6361 c-20 -4 -58 -19 -85 -32 -319 -163 -571 -295 -586 -307
-11 -10 -17 -26 -15 -41 3 -30 30 -41 160 -66 78 -15 223 -45 383 -80 39 -8
115 -24 170 -35 55 -12 141 -30 190 -41 53 -13 127 -21 180 -21 104 -1 113 3
325 122 74 42 199 111 277 154 148 82 169 102 138 136 -19 21 -75 35 -335 86
-102 19 -297 58 -434 85 -244 48 -295 54 -368 40z"/>
<path d="M6010 6252 c-31 -16 -78 -43 -105 -61 -28 -17 -131 -80 -230 -140
-148 -89 -181 -113 -183 -133 -2 -14 3 -30 10 -35 20 -17 159 -47 768 -168
334 -67 432 -77 501 -53 19 6 95 51 169 99 74 49 173 111 220 140 128 78 150
97 150 124 0 38 -31 51 -205 84 -1020 196 -997 193 -1095 143z"/>
<path d="M3930 6099 c-36 -6 -86 -27 -145 -61 -49 -28 -182 -103 -295 -165
-219 -122 -240 -136 -240 -164 0 -38 14 -42 435 -129 110 -22 283 -58 385 -80
393 -83 408 -82 620 50 47 29 161 98 253 154 93 55 173 109 178 118 13 23 1
46 -31 63 -15 8 -153 39 -306 69 -153 31 -333 67 -399 82 -122 26 -386 75
-395 73 -3 -1 -30 -5 -60 -10z"/>
<path d="M1679 5889 c-32 -7 -158 -71 -614 -310 -80 -42 -113 -65 -119 -83
-17 -46 7 -58 184 -96 131 -27 502 -108 575 -125 33 -8 85 -18 115 -24 30 -6
87 -17 125 -25 121 -27 201 -19 290 30 135 72 279 153 340 189 39 23 115 67
171 98 56 31 107 63 113 71 19 22 10 48 -24 67 -17 10 -208 54 -425 99 -617
127 -641 131 -731 109z"/>
<path d="M7295 5854 c-28 -20 -135 -94 -240 -164 -104 -70 -198 -136 -207
-147 -10 -10 -26 -40 -38 -65 -18 -41 -22 -85 -35 -380 -8 -183 -18 -451 -22
-595 -6 -235 -4 -264 11 -287 10 -16 26 -26 40 -26 13 0 102 58 220 143 109
78 208 149 220 157 72 49 121 105 136 158 6 20 20 231 30 467 10 237 22 493
26 570 6 121 5 145 -10 173 -23 45 -65 44 -131 -4z"/>
<path d="M5279 5805 c-35 -13 -149 -80 -449 -265 -131 -81 -155 -100 -158
-122 -3 -21 3 -30 28 -43 30 -16 141 -42 295 -70 77 -14 284 -58 595 -125 312
-68 364 -65 507 29 48 32 167 109 263 171 96 61 185 121 198 133 59 55 -1 94
-198 126 -36 5 -119 22 -185 36 -66 14 -145 30 -175 36 -30 5 -84 16 -120 24
-201 45 -440 85 -498 84 -37 0 -83 -6 -103 -14z"/>
<path d="M3056 5609 c-27 -5 -94 -36 -150 -68 -55 -32 -192 -108 -302 -170
-216 -120 -284 -164 -284 -184 0 -41 23 -49 320 -117 52 -11 124 -28 160 -36
542 -124 616 -138 710 -139 l96 0 99 59 c109 64 189 113 428 260 144 90 157
100 157 127 0 35 -25 53 -100 69 -51 10 -423 87 -800 166 -192 39 -266 47
-334 33z"/>
<path d="M6615 5398 c-11 -6 -137 -89 -281 -185 -302 -201 -307 -206 -325
-355 -11 -93 -39 -1121 -32 -1161 3 -14 16 -36 29 -48 23 -22 25 -22 58 -6 32
15 210 143 455 326 156 117 148 88 166 576 8 209 18 477 21 595 6 211 6 215
-15 243 -24 29 -44 33 -76 15z"/>
<path d="M895 5313 c-31 -8 -74 -54 -84 -91 -7 -22 -3 -163 9 -415 11 -210 23
-461 27 -558 13 -270 30 -293 268 -349 72 -17 229 -55 350 -85 121 -30 277
-68 346 -84 164 -40 211 -40 249 -2 16 16 32 41 36 57 7 29 -22 1047 -32 1136
-7 62 -53 132 -101 156 -21 11 -124 39 -228 63 -105 23 -228 51 -275 61 -47
11 -114 25 -150 33 -36 7 -126 27 -200 43 -164 37 -189 41 -215 35z"/>
<path d="M4490 5311 c-44 -9 -108 -43 -230 -120 -52 -33 -169 -104 -260 -158
-169 -101 -230 -145 -230 -168 0 -8 13 -23 29 -34 28 -20 65 -30 326 -86 66
-14 170 -37 230 -51 61 -14 144 -31 185 -39 41 -8 102 -22 135 -30 184 -45
257 -58 335 -58 101 -1 121 7 257 95 54 36 187 122 295 192 216 141 238 158
222 184 -19 31 -77 50 -274 92 -107 23 -247 53 -310 66 -63 14 -146 31 -185
39 -38 7 -135 27 -215 44 -162 34 -258 44 -310 32z"/>
<path d="M2253 4995 c-17 -7 -39 -25 -49 -40 -17 -26 -17 -58 -5 -598 7 -315
17 -588 22 -608 12 -48 47 -99 87 -125 21 -14 118 -43 270 -79 130 -32 341
-83 467 -115 352 -88 393 -92 448 -43 35 32 37 76 28 658 -9 623 -7 606 -70
678 -41 46 -124 74 -351 117 -30 6 -93 19 -140 30 -322 75 -632 140 -660 140
-8 -1 -29 -7 -47 -15z"/>
<path d="M5734 4812 c-55 -37 -192 -128 -304 -202 -225 -149 -248 -173 -268
-277 -15 -73 -32 -1194 -20 -1241 5 -18 19 -39 32 -47 38 -25 59 -13 315 175
69 51 151 109 182 131 91 61 177 137 194 169 27 52 33 155 46 742 12 555 12
578 -6 598 -30 33 -64 24 -171 -48z"/>
<path d="M3713 4675 c-18 -8 -42 -29 -53 -47 -19 -32 -20 -49 -19 -393 1 -198
4 -471 8 -606 l6 -246 30 -43 c49 -71 77 -82 380 -155 154 -36 389 -93 522
-126 253 -62 332 -71 371 -43 58 40 59 60 68 757 l6 508 -27 54 c-42 87 -81
107 -305 155 -74 16 -178 39 -230 50 -52 11 -156 34 -230 50 -74 16 -208 45
-297 64 -182 40 -186 41 -230 21z"/>
<path d="M7169 4323 c-75 -54 -176 -127 -225 -162 -115 -83 -151 -117 -176
-166 -19 -37 -23 -81 -44 -515 -28 -583 -30 -688 -8 -718 24 -35 57 -27 130
31 388 307 429 343 455 392 26 48 27 59 43 360 35 671 39 812 24 842 -24 51
-51 43 -199 -64z"/>
<path d="M6522 3853 c-68 -47 -154 -110 -391 -285 l-118 -87 -21 -68 c-22 -73
-33 -284 -48 -928 -6 -251 -5 -284 10 -313 11 -22 24 -32 39 -32 21 0 151 99
496 377 96 78 122 116 135 193 6 36 34 797 38 1020 3 188 -17 206 -140 123z"/>
<path d="M928 3793 c-48 -30 -53 -53 -51 -212 2 -80 10 -261 18 -401 7 -140
17 -334 20 -430 l6 -175 35 -42 c41 -50 56 -55 414 -148 140 -37 327 -87 415
-112 88 -24 189 -47 225 -50 61 -5 68 -3 95 20 l30 25 -3 354 c-5 530 -15 774
-36 823 -34 79 -95 123 -208 149 -76 18 -106 25 -458 111 -338 82 -439 105
-459 105 -9 0 -28 -8 -43 -17z"/>
<path d="M2295 3461 c-42 -18 -59 -50 -63 -114 -7 -125 25 -1081 37 -1112 16
-40 69 -94 109 -111 18 -8 101 -32 185 -54 83 -22 271 -71 417 -111 478 -128
470 -127 521 -81 20 18 33 41 37 67 4 22 4 282 0 579 l-7 539 -26 52 c-42 86
-83 107 -335 165 -92 21 -289 69 -605 145 -163 40 -239 50 -270 36z"/>
<path d="M5620 3195 c-382 -280 -418 -307 -438 -334 -46 -63 -50 -106 -59
-636 -4 -275 -7 -540 -5 -590 2 -83 4 -92 28 -113 31 -27 49 -23 119 26 69 50
527 422 543 441 52 65 56 106 73 788 11 464 10 504 -5 528 -31 46 -57 35 -256
-110z"/>
<path d="M3749 3120 c-46 -13 -66 -29 -84 -66 -16 -34 -17 -76 -10 -593 7
-525 8 -559 27 -603 31 -74 86 -108 232 -143 34 -8 84 -21 111 -29 53 -15 599
-163 750 -203 118 -31 166 -21 205 42 17 28 18 67 21 615 3 553 3 587 -15 620
-23 45 -54 78 -87 95 -14 8 -93 30 -177 49 -83 20 -225 54 -314 75 -248 61
-580 139 -608 143 -14 3 -37 1 -51 -2z"/>
</g>
</svg>
