<?xml version="1.0" standalone="no"?>
<!DOCTYPE svg PUBLIC "-//W3C//DTD SVG 20010904//EN"
 "http://www.w3.org/TR/2001/REC-SVG-20010904/DTD/svg10.dtd">
<svg version="1.0" xmlns="http://www.w3.org/2000/svg"
 width="1000.000000pt" height="1000.000000pt" viewBox="0 0 1000.000000 1000.000000"
 preserveAspectRatio="xMidYMid meet">

<g transform="translate(0.000000,1000.000000) scale(0.100000,-0.100000)"
fill="#000000" stroke="none">
<path d="M8202 7148 l3 -353 353 -3 352 -2 0 355 0 355 -355 0 -355 0 2 -352z"/>
<path d="M7077 7303 c-4 -3 -7 -199 -7 -435 l0 -428 435 0 435 0 -2 433 -3
432 -426 3 c-234 1 -429 -1 -432 -5z"/>
<path d="M5572 6633 l3 -578 575 0 575 0 3 578 2 577 -580 0 -580 0 2 -577z"/>
<path d="M2050 7113 c-300 -52 -469 -132 -627 -296 -230 -239 -337 -528 -400
-1082 -25 -220 -25 -1196 0 -1430 52 -482 147 -781 317 -1005 221 -291 531
-420 1007 -420 427 0 692 113 810 345 56 109 78 269 63 457 -11 147 -39 296
-126 678 -93 405 -117 552 -110 670 6 118 35 303 81 525 119 568 135 670 135
861 0 233 -48 375 -169 494 -152 150 -379 211 -769 209 -103 -1 -198 -4 -212
-6z"/>
<path d="M3500 6167 c0 -642 3 -846 12 -855 17 -17 1669 -17 1686 0 9 9 12
213 12 855 l0 843 -855 0 -855 0 0 -843z"/>
<path d="M8200 6075 l0 -355 355 0 355 0 0 355 0 355 -355 0 -355 0 0 -355z"/>
<path d="M7070 5625 l0 -435 433 2 432 3 3 433 2 432 -435 0 -435 0 0 -435z"/>
<path d="M5570 5000 l0 -580 580 0 580 0 0 580 0 580 -580 0 -580 0 0 -580z"/>
<path d="M8207 5353 c-4 -3 -7 -163 -7 -354 l0 -348 348 -3 c191 -2 350 -2
355 0 4 2 7 163 7 358 l0 354 -348 0 c-192 0 -352 -3 -355 -7z"/>
<path d="M7070 4375 l0 -435 433 2 432 3 3 433 2 432 -435 0 -435 0 0 -435z"/>
<path d="M3505 4688 c-3 -7 -4 -391 -3 -853 l3 -840 850 0 850 0 0 850 0 850
-848 3 c-673 2 -849 0 -852 -10z"/>
<path d="M8202 3928 l3 -353 353 -3 352 -2 0 355 0 355 -355 0 -355 0 2 -352z"/>
<path d="M5572 3373 l3 -578 575 0 575 0 3 578 2 577 -580 0 -580 0 2 -577z"/>
<path d="M7076 3563 c-3 -4 -6 -199 -6 -435 l0 -428 435 0 435 0 -2 433 -3
432 -426 2 c-235 1 -429 -1 -433 -4z"/>
<path d="M8200 2855 l0 -355 355 0 355 0 0 355 0 355 -355 0 -355 0 0 -355z"/>
</g>
</svg>
