<?xml version="1.0" standalone="no"?>
<!DOCTYPE svg PUBLIC "-//W3C//DTD SVG 20010904//EN"
 "http://www.w3.org/TR/2001/REC-SVG-20010904/DTD/svg10.dtd">
<svg version="1.0" xmlns="http://www.w3.org/2000/svg"
 width="1181.000000pt" height="1181.000000pt" viewBox="0 0 1181.000000 1181.000000"
 preserveAspectRatio="xMidYMid meet">

<g transform="translate(0.000000,1181.000000) scale(0.100000,-0.100000)"
fill="#000000" stroke="none">
<path d="M2179 9311 c336 -340 631 -637 656 -660 l45 -41 1285 0 c769 0 1285
4 1285 9 0 5 -289 302 -641 660 l-641 651 -1300 0 -1300 0 611 -619z"/>
<path d="M4751 9793 c74 -76 365 -372 647 -658 l511 -520 42 40 c22 22 315
318 651 658 l610 617 -1298 0 -1298 0 135 -137z"/>
<path d="M7464 9708 c-695 -703 -1064 -1080 -1064 -1089 0 -6 473 -8 1293 -7
l1292 3 360 365 c198 201 490 497 650 658 l290 292 -1301 0 -1300 0 -220 -222z"/>
<path d="M1270 8939 l0 -714 633 -630 632 -630 3 704 2 703 -317 326 c-359
368 -897 909 -930 937 l-23 18 0 -714z"/>
<path d="M10220 9339 c-173 -173 -458 -462 -633 -641 l-317 -326 2 -703 3
-704 633 630 632 630 -2 715 -3 715 -315 -316z"/>
<path d="M3090 8243 c0 -4 85 -93 188 -198 103 -104 393 -398 644 -652 l455
-463 642 650 c352 358 641 655 641 660 0 7 -449 10 -1285 10 -707 0 -1285 -3
-1285 -7z"/>
<path d="M6162 8241 c2 -5 291 -302 643 -660 l640 -651 642 648 c353 356 642
653 642 660 1 9 -263 12 -1285 12 -763 0 -1284 -4 -1282 -9z"/>
<path d="M5809 7913 c-51 -54 -339 -347 -639 -651 -300 -304 -546 -557 -548
-562 -4 -10 1276 -1310 1290 -1310 5 0 203 197 441 438 237 240 528 534 645
653 l214 217 -647 656 c-356 361 -651 656 -655 656 -4 0 -49 -44 -101 -97z"/>
<path d="M8323 7355 l-633 -638 0 -704 c0 -667 1 -703 18 -694 9 5 295 288
635 628 l617 618 -2 714 -3 714 -632 -638z"/>
<path d="M2830 7238 l0 -713 629 -629 c365 -364 634 -626 640 -622 8 5 11 208
11 699 l-1 692 -156 160 c-540 553 -1089 1107 -1105 1116 -17 9 -18 -13 -18
-703z"/>
<path d="M1271 7120 l-1 -715 622 -622 c343 -343 628 -623 635 -623 10 0 13
143 13 698 l0 698 -634 640 -635 639 0 -715z"/>
<path d="M9903 7195 l-633 -639 0 -703 c0 -667 1 -703 18 -694 9 5 295 288
635 628 l617 618 -2 714 -3 714 -632 -638z"/>
<path d="M6751 5663 l-631 -638 0 -697 c0 -553 3 -698 13 -698 6 0 294 282
640 628 l627 627 0 708 c0 422 -4 707 -9 707 -5 0 -293 -287 -640 -637z"/>
<path d="M4400 5562 l0 -708 625 -624 c344 -344 630 -626 635 -628 7 -2 10
245 10 700 l0 703 -626 633 c-344 347 -630 632 -635 632 -5 0 -9 -286 -9 -708z"/>
<path d="M8685 5978 c-149 -150 -433 -438 -633 -641 l-362 -367 0 -700 c0
-543 3 -700 12 -700 7 0 293 280 635 623 l623 622 -2 718 -3 717 -270 -272z"/>
<path d="M2830 5532 l0 -707 629 -629 c372 -372 633 -626 640 -622 8 5 11 201
11 699 l0 692 -631 638 c-347 350 -635 637 -640 637 -5 0 -9 -285 -9 -708z"/>
<path d="M4400 3856 l0 -714 625 -621 c344 -341 630 -621 635 -621 6 0 10 262
10 702 l0 701 -362 366 c-200 201 -482 486 -628 633 -145 148 -268 268 -272
268 -5 0 -8 -321 -8 -714z"/>
<path d="M6751 3933 l-631 -638 0 -697 c0 -546 3 -698 12 -698 7 0 295 282
640 627 l628 628 0 707 c0 422 -4 708 -9 708 -5 0 -293 -287 -640 -637z"/>
</g>
</svg>
