<?xml version="1.0" standalone="no"?>
<!DOCTYPE svg PUBLIC "-//W3C//DTD SVG 20010904//EN"
 "http://www.w3.org/TR/2001/REC-SVG-20010904/DTD/svg10.dtd">
<svg version="1.0" xmlns="http://www.w3.org/2000/svg"
 width="600.000000pt" height="600.000000pt" viewBox="0 0 600.000000 600.000000"
 preserveAspectRatio="xMidYMid meet">

<g transform="translate(0.000000,600.000000) scale(0.100000,-0.100000)"
fill="#000000" stroke="none">
<path d="M1481 5375 c-248 -56 -426 -175 -555 -369 -184 -277 -178 -664 14
-933 110 -154 231 -247 405 -311 438 -161 929 75 1078 518 134 399 -43 830
-420 1019 -154 77 -376 109 -522 76z"/>
<path d="M4221 5375 c-350 -80 -577 -297 -673 -645 -18 -68 -15 -302 5 -376
26 -94 69 -193 112 -259 57 -87 188 -215 271 -264 330 -194 748 -147 1015 114
112 110 180 222 226 372 23 77 27 106 27 228 1 116 -3 153 -21 217 -85 293
-283 497 -571 588 -119 38 -287 49 -391 25z"/>
<path d="M3306 4041 c-146 -146 -169 -174 -169 -200 0 -42 37 -81 77 -81 26 0
55 25 203 173 186 186 194 198 152 251 -15 20 -29 26 -57 26 -35 0 -49 -11
-206 -169z"/>
<path d="M2710 3826 c-116 -33 -211 -113 -263 -224 -29 -61 -32 -75 -31 -162
0 -123 25 -188 101 -270 80 -87 160 -124 275 -128 145 -6 258 45 340 153 83
108 102 284 45 408 -80 175 -285 273 -467 223z m224 -66 c61 -23 136 -85 171
-140 110 -174 39 -410 -149 -496 -93 -42 -212 -41 -300 3 -49 25 -127 105
-154 158 -34 67 -42 189 -17 264 31 94 117 180 214 216 57 21 171 18 235 -5z"/>
<path d="M3071 3806 c-16 -19 -3 -43 44 -85 39 -34 62 -39 72 -15 4 10 -11 32
-43 65 -53 54 -56 55 -73 35z"/>
<path d="M1315 2971 c-153 -25 -284 -87 -372 -177 -105 -107 -182 -294 -213
-519 -13 -93 -13 -399 0 -505 79 -632 468 -991 1215 -1120 215 -37 383 -50
780 -61 399 -10 848 -1 1080 21 246 25 547 90 705 152 395 157 632 411 724
777 36 140 46 233 46 412 0 401 -72 660 -229 819 -193 196 -475 228 -1051 120
-91 -17 -181 -35 -200 -40 -78 -21 -434 -90 -570 -111 -261 -40 -371 -29 -870
86 -359 83 -422 97 -560 121 -155 27 -395 39 -485 25z"/>
</g>
</svg>
