<?xml version="1.0" standalone="no"?>
<!DOCTYPE svg PUBLIC "-//W3C//DTD SVG 20010904//EN"
 "http://www.w3.org/TR/2001/REC-SVG-20010904/DTD/svg10.dtd">
<svg version="1.0" xmlns="http://www.w3.org/2000/svg"
 width="1024.000000pt" height="1024.000000pt" viewBox="0 0 1024.000000 1024.000000"
 preserveAspectRatio="xMidYMid meet">

<g transform="translate(0.000000,1024.000000) scale(0.100000,-0.100000)"
fill="#000000" stroke="none">
<path d="M4425 9451 c-696 -276 -620 -241 -620 -282 0 -33 2 -35 65 -56 445
-150 1165 -383 1186 -383 15 0 113 37 218 81 105 45 299 127 431 183 132 57
286 122 342 145 117 49 131 61 115 95 -12 27 -26 32 -517 185 -640 200 -680
211 -725 210 -34 0 -157 -45 -495 -178z"/>
<path d="M6295 9193 c-42 -11 -1051 -446 -1067 -461 -22 -18 -23 -36 -4 -54
14 -15 80 -37 838 -287 267 -89 502 -161 521 -161 36 0 103 29 447 190 96 45
231 108 300 140 279 129 337 158 342 171 9 24 -9 55 -39 67 -15 6 -95 32 -178
57 -82 26 -197 62 -255 80 -299 96 -819 254 -850 258 -19 3 -44 3 -55 0z"/>
<path d="M3580 9115 c-19 -8 -282 -111 -585 -230 -487 -191 -575 -230 -575
-255 0 -27 70 -57 475 -201 775 -277 785 -280 819 -273 28 6 157 60 941 393
227 97 250 109 253 132 2 14 -3 31 -11 37 -30 25 -1205 412 -1249 411 -18 0
-49 -6 -68 -14z"/>
<path d="M7550 8599 c-140 -66 -370 -175 -510 -241 -140 -66 -261 -125 -267
-130 -7 -6 -13 -21 -13 -33 0 -12 6 -27 13 -33 6 -5 342 -119 746 -252 578
-191 742 -241 771 -237 20 2 114 46 210 97 96 51 301 160 455 241 407 214 375
195 375 224 0 17 -9 29 -28 39 -16 8 -240 80 -498 161 -258 80 -569 177 -692
216 -128 39 -241 69 -265 69 -33 0 -97 -26 -297 -121z"/>
<path d="M5030 8653 c-96 -36 -1140 -489 -1152 -500 -25 -22 -22 -50 5 -67 12
-8 216 -84 452 -169 237 -85 527 -190 645 -233 173 -63 226 -78 270 -78 51 0
97 20 610 263 305 145 564 272 574 282 16 15 18 22 9 42 -10 21 -91 51 -678
246 -366 121 -678 221 -693 220 -15 0 -34 -3 -42 -6z"/>
<path d="M1760 8399 c-250 -99 -542 -214 -648 -256 -198 -78 -222 -94 -201
-134 4 -8 81 -44 171 -79 90 -34 368 -143 618 -242 405 -160 460 -179 500
-175 28 3 176 60 390 152 190 81 471 201 625 267 154 65 290 126 303 134 24
16 30 55 10 72 -13 10 -129 53 -816 298 -313 112 -414 144 -450 143 -36 -1
-154 -43 -502 -180z"/>
<path d="M9095 8037 c-847 -453 -781 -414 -795 -466 -10 -33 -32 -406 -76
-1274 -19 -363 -17 -383 34 -375 30 4 961 575 1004 616 17 16 29 40 33 66 4
23 30 370 59 771 45 625 51 735 40 763 -8 19 -20 32 -31 32 -10 0 -131 -60
-268 -133z m205 -54 c0 -124 -93 -1331 -105 -1359 -13 -32 -7 -28 -465 -309
-91 -56 -218 -134 -282 -173 -64 -40 -122 -72 -129 -72 -9 0 -10 29 -5 118 4
64 22 389 40 722 19 333 37 612 41 622 3 9 54 42 113 75 251 138 778 421 785
422 4 1 7 -20 7 -46z"/>
<path d="M6570 8133 c-18 -6 -976 -459 -1070 -506 -58 -29 -65 -35 -68 -65 -3
-29 1 -34 30 -46 43 -18 1125 -411 1328 -483 122 -43 164 -54 197 -50 29 3
122 47 305 145 145 77 391 208 548 292 157 84 291 157 298 162 19 16 14 46
-11 63 -13 8 -347 123 -743 255 -694 232 -763 251 -814 233z"/>
<path d="M3650 8056 c-103 -41 -1258 -539 -1277 -552 -29 -18 -30 -59 -3 -74
11 -6 315 -128 677 -272 539 -214 667 -261 708 -262 45 -1 94 20 500 213 248
118 538 256 645 306 189 89 195 93 198 124 3 29 -1 33 -40 50 -37 16 -435 162
-1123 410 -188 68 -233 77 -285 57z"/>
<path d="M868 7952 c-36 -8 -37 17 51 -1150 43 -570 36 -536 132 -585 30 -15
200 -92 379 -171 179 -79 427 -190 553 -246 152 -68 234 -99 247 -95 38 12 42
36 31 218 -6 94 -24 435 -41 757 -35 692 -39 734 -72 766 -14 14 -231 106
-568 240 -627 249 -689 272 -712 266z m651 -352 c421 -168 535 -218 548 -237
17 -26 18 -38 74 -1069 12 -231 20 -428 16 -437 -8 -21 57 -48 -579 235 -427
189 -501 225 -513 248 -10 20 -28 205 -60 636 -25 335 -49 656 -54 714 -9 117
-6 134 19 127 10 -2 257 -100 549 -217z"/>
<path d="M7990 7446 c-956 -511 -953 -509 -974 -546 -19 -32 -21 -84 -45 -867
-26 -886 -26 -883 21 -883 28 0 28 0 448 259 652 403 666 412 684 442 17 28
37 348 87 1396 13 275 12 283 -40 283 -14 0 -96 -38 -181 -84z m130 -68 c0 -7
-16 -335 -36 -728 -22 -453 -40 -724 -47 -739 -8 -15 -97 -77 -246 -168 -578
-355 -724 -443 -732 -443 -13 0 -12 71 11 774 26 812 22 751 44 775 10 11 152
92 315 180 163 88 379 205 481 260 102 55 191 101 198 101 6 0 12 -6 12 -12z"/>
<path d="M4910 7344 c-179 -85 -468 -223 -644 -306 -204 -98 -323 -160 -333
-174 -24 -37 -3 -56 109 -100 56 -23 399 -159 760 -303 722 -287 712 -284 799
-237 24 13 170 91 324 173 154 83 375 201 490 263 116 62 256 137 312 167 55
29 104 61 107 69 9 25 -10 50 -51 67 -101 40 -326 123 -870 321 -432 158 -604
216 -635 216 -34 -1 -108 -32 -368 -156z"/>
<path d="M2286 7357 c-14 -20 -13 -74 9 -492 13 -259 31 -621 40 -805 9 -184
20 -351 25 -371 5 -19 20 -45 33 -57 12 -12 133 -71 267 -131 135 -59 428
-190 652 -290 224 -99 418 -181 432 -181 57 0 57 -3 41 545 -8 275 -17 610
-20 745 -3 135 -8 296 -11 359 -6 107 -8 117 -33 141 -30 30 -1349 560 -1394
560 -17 0 -32 -8 -41 -23z m764 -367 c305 -122 561 -227 569 -233 32 -27 31
-12 67 -1324 6 -216 5 -253 -7 -258 -13 -5 -1005 427 -1148 500 -87 44 -71
-99 -137 1229 -14 270 -14 330 -4 336 8 5 33 1 59 -10 25 -10 296 -118 601
-240z"/>
<path d="M6240 6507 c-328 -177 -613 -332 -633 -344 -22 -13 -44 -37 -51 -55
-11 -27 -15 -206 -17 -914 -4 -949 -6 -921 46 -912 20 4 200 113 924 559 176
109 323 206 335 222 23 32 18 -75 51 1012 23 772 24 756 -34 754 -15 0 -294
-145 -621 -322z m567 157 c5 -14 -3 -374 -28 -1178 -6 -219 -14 -338 -22 -355
-16 -33 -1095 -695 -1111 -682 -17 14 -5 1578 11 1608 7 12 46 39 85 61 40 22
217 117 393 213 176 95 392 213 480 261 88 48 166 88 173 88 7 0 15 -7 19 -16z"/>
<path d="M3870 6735 c-10 -13 -12 -80 -7 -318 22 -1087 30 -1376 39 -1411 5
-21 20 -48 32 -59 12 -11 166 -84 342 -162 175 -78 502 -224 726 -323 224
-100 418 -182 431 -182 14 0 29 6 35 13 8 9 13 286 18 894 8 952 9 930 -45
957 -73 38 -1513 606 -1534 606 -13 0 -30 -7 -37 -15z m800 -395 c360 -144
661 -265 668 -267 7 -3 19 -18 27 -34 22 -41 22 -1565 1 -1594 -17 -24 30 -42
-606 240 -245 109 -508 225 -584 259 -92 41 -146 70 -159 88 -18 24 -20 63
-37 789 -19 786 -19 797 19 786 9 -2 311 -122 671 -267z"/>
<path d="M9054 6302 c-623 -384 -825 -516 -841 -545 -12 -25 -22 -150 -48
-632 -49 -887 -49 -889 -36 -914 26 -47 23 -49 661 400 129 91 264 184 298
208 41 27 69 55 77 75 9 20 32 288 65 749 49 685 51 719 34 738 -9 10 -25 19
-34 19 -9 0 -88 -44 -176 -98z m126 -49 c0 -10 -67 -940 -81 -1128 -5 -77 -15
-155 -20 -173 -9 -27 -55 -63 -307 -239 -163 -114 -350 -244 -416 -290 -65
-46 -122 -83 -127 -83 -13 0 -13 9 26 709 26 470 39 641 49 656 8 11 125 90
261 175 137 85 327 205 424 267 176 111 191 120 191 106z"/>
<path d="M1002 6094 c-27 -19 -28 -43 -7 -309 7 -104 23 -320 35 -480 55 -745
54 -738 79 -774 20 -27 120 -81 609 -322 321 -159 592 -289 601 -289 47 0 49
26 26 405 -8 138 -26 458 -39 712 -27 490 -29 505 -79 537 -30 19 -1181 536
-1193 536 -5 0 -20 -7 -32 -16z m255 -190 c603 -270 881 -399 901 -419 24 -22
24 -27 58 -609 18 -323 36 -639 40 -702 5 -82 4 -114 -4 -114 -23 0 -1037 507
-1055 527 -15 17 -24 108 -67 689 -28 368 -48 675 -45 682 2 6 9 12 14 12 6 0
77 -30 158 -66z"/>
<path d="M7745 5491 c-707 -442 -759 -476 -781 -508 -18 -27 -22 -52 -27 -165
-14 -322 -40 -1416 -34 -1440 4 -15 17 -30 28 -33 24 -8 21 -9 442 283 550
383 641 448 660 474 21 28 18 -12 77 1121 19 373 20 411 5 433 -10 16 -25 24
-43 23 -17 0 -135 -68 -327 -188z m285 37 c0 -7 -7 -143 -15 -303 -8 -159 -24
-457 -34 -662 -13 -256 -23 -380 -33 -399 -9 -19 -160 -129 -472 -346 -253
-175 -466 -318 -473 -318 -10 0 -11 26 -7 123 3 67 14 385 23 705 l18 584 24
23 c25 24 948 605 961 605 5 0 8 -6 8 -12z"/>
<path d="M2386 5464 c-21 -21 -21 -7 19 -760 19 -357 36 -686 38 -730 7 -131
4 -127 282 -264 132 -65 422 -208 643 -319 222 -111 415 -201 428 -201 55 0
54 -24 30 840 -14 519 -26 802 -33 815 -6 11 -19 28 -30 37 -10 9 -171 85
-358 168 -187 84 -478 215 -647 291 -170 77 -319 139 -332 139 -14 0 -32 -7
-40 -16z m386 -243 c220 -99 475 -214 845 -381 35 -16 67 -38 74 -51 16 -30
56 -1436 42 -1450 -10 -10 -1108 525 -1157 564 l-30 23 -18 335 c-10 184 -27
498 -38 698 -11 200 -17 367 -14 372 3 5 12 9 19 9 8 0 133 -53 277 -119z"/>
<path d="M6714 4852 c-304 -187 -1029 -637 -1094 -680 -97 -65 -90 8 -90 -931
-1 -609 2 -827 11 -837 25 -31 -5 -50 739 467 432 301 494 346 514 372 25 34
29 99 52 976 l16 645 -22 18 c-12 10 -28 18 -34 18 -7 0 -48 -22 -92 -48z m43
-309 c-4 -115 -11 -419 -17 -678 -12 -519 -13 -541 -38 -571 -9 -12 -222 -163
-472 -336 -571 -394 -577 -398 -590 -398 -7 0 -10 214 -8 734 3 723 3 735 23
762 12 15 145 105 295 199 671 418 796 495 804 495 5 0 6 -86 3 -207z"/>
<path d="M3915 4766 c-14 -21 -15 -50 -10 -198 3 -95 13 -452 21 -793 13 -550
17 -622 32 -649 11 -19 46 -44 102 -73 151 -78 1334 -660 1356 -667 11 -3 29
0 40 8 19 14 19 35 22 848 2 802 1 834 -17 864 -15 24 -47 43 -147 89 -225
101 -830 374 -1082 486 -134 60 -256 109 -272 109 -20 0 -35 -8 -45 -24z m296
-190 c159 -71 740 -333 1004 -452 116 -53 132 -63 148 -95 16 -34 17 -81 10
-759 -5 -598 -9 -723 -20 -727 -16 -6 -1258 600 -1287 627 -16 16 -21 40 -27
137 -11 178 -33 1319 -25 1332 12 18 27 14 197 -63z"/>
<path d="M8889 4592 c-107 -76 -319 -227 -471 -335 -192 -137 -283 -207 -294
-228 -13 -25 -23 -163 -54 -723 -22 -415 -34 -700 -29 -713 6 -15 17 -23 33
-23 27 0 79 37 406 291 124 96 300 232 392 303 144 111 169 134 182 170 11 28
29 236 61 666 25 344 45 642 45 662 0 42 -21 68 -54 68 -13 0 -104 -58 -217
-138z m131 -610 c-23 -323 -47 -598 -54 -612 -11 -24 -51 -57 -432 -350 -352
-271 -394 -303 -399 -299 -2 3 2 110 10 239 8 129 24 406 35 615 13 227 26
389 33 403 15 29 840 617 845 602 2 -6 -15 -275 -38 -598z"/>
<path d="M1126 4364 c-22 -21 -21 -57 14 -510 16 -214 37 -495 46 -624 18
-266 25 -303 62 -339 41 -40 1133 -631 1165 -631 19 0 30 7 36 23 5 14 3 125
-5 272 -65 1188 -64 1177 -91 1213 -13 19 -187 112 -599 319 -318 161 -587
292 -596 293 -9 0 -24 -7 -32 -16z m612 -378 c279 -140 515 -263 525 -274 20
-22 17 15 57 -705 34 -596 34 -607 19 -607 -6 0 -192 98 -413 218 -220 121
-445 243 -499 272 -54 29 -104 62 -112 74 -9 15 -24 166 -50 506 -19 267 -40
535 -45 595 -13 141 -12 175 0 175 6 0 239 -114 518 -254z"/>
<path d="M7669 3737 c-635 -445 -742 -523 -759 -550 -21 -33 -24 -91 -45 -782
-23 -742 -23 -755 30 -755 30 0 1041 783 1062 823 13 26 21 130 44 562 45 843
45 871 24 895 -10 11 -26 20 -35 20 -10 0 -154 -96 -321 -213z m268 -89 c-44
-886 -58 -1113 -72 -1135 -16 -23 -129 -112 -618 -487 -164 -126 -300 -227
-301 -225 -2 2 2 180 9 394 7 215 17 505 20 645 4 140 11 265 16 277 4 12 39
45 76 72 168 124 859 610 868 611 7 0 7 -52 2 -152z"/>
<path d="M2493 3689 c-39 -14 -40 51 12 -904 8 -148 17 -328 20 -400 8 -150
15 -182 53 -217 15 -14 232 -136 482 -273 250 -136 493 -269 540 -295 155 -87
223 -120 245 -120 50 0 49 -19 31 728 -9 383 -19 720 -22 749 -3 30 -14 63
-26 78 -13 17 -229 130 -641 337 -342 171 -633 314 -647 318 -14 4 -35 4 -47
-1z m670 -419 c361 -182 559 -287 571 -304 17 -23 20 -53 27 -338 5 -172 13
-466 19 -652 6 -206 7 -343 2 -348 -9 -9 -58 16 -547 282 -88 48 -250 136
-360 196 -110 59 -209 118 -221 129 -25 25 -24 12 -59 715 -33 668 -33 614 -4
605 11 -4 269 -132 572 -285z"/>
<path d="M6740 3083 c-12 -5 -601 -415 -1082 -755 -57 -40 -105 -82 -115 -101
-17 -30 -18 -90 -21 -808 -3 -864 -6 -820 61 -787 18 9 255 188 527 398 272
210 525 405 562 433 81 61 100 97 105 192 6 127 33 1158 33 1282 0 115 -1 123
-22 137 -24 17 -25 17 -48 9z m-27 -235 c-2 -46 -10 -338 -18 -650 -8 -311
-19 -577 -24 -590 -5 -13 -22 -35 -37 -49 -63 -56 -995 -769 -1007 -769 -4 0
-6 307 -5 683 3 586 5 685 18 705 8 12 137 108 285 212 149 104 380 268 515
364 135 96 252 175 261 175 13 1 15 -12 12 -81z"/>
<path d="M3966 2944 c-13 -12 -16 -39 -16 -132 0 -179 30 -1344 35 -1369 10
-44 59 -83 207 -163 84 -46 221 -120 303 -166 425 -233 906 -493 923 -498 12
-4 26 0 36 9 14 15 16 84 19 648 3 990 5 919 -16 950 -14 22 -182 110 -728
382 -391 195 -719 355 -729 355 -10 0 -26 -7 -34 -16z m743 -443 c426 -214
625 -318 640 -337 21 -27 21 -29 21 -706 0 -578 -2 -679 -14 -684 -8 -3 -207
99 -443 227 -235 128 -507 275 -603 327 -178 96 -205 113 -221 144 -5 9 -16
286 -24 615 -19 775 -20 723 5 723 11 0 299 -139 639 -309z"/>
</g>
</svg>
