<?xml version="1.0" standalone="no"?>
<!DOCTYPE svg PUBLIC "-//W3C//DTD SVG 20010904//EN"
 "http://www.w3.org/TR/2001/REC-SVG-20010904/DTD/svg10.dtd">
<svg version="1.0" xmlns="http://www.w3.org/2000/svg"
 width="600.000000pt" height="600.000000pt" viewBox="0 0 600.000000 600.000000"
 preserveAspectRatio="xMidYMid meet">

<g transform="translate(0.000000,600.000000) scale(0.100000,-0.100000)"
fill="#000000" stroke="none">
<path d="M1507 5380 c-340 -62 -596 -290 -688 -613 -20 -69 -24 -104 -23 -222
0 -122 4 -151 27 -228 46 -148 106 -250 214 -361 322 -329 878 -324 1194 11
84 90 131 161 174 269 161 399 -6 856 -385 1053 -152 79 -368 118 -513 91z"/>
<path d="M4247 5380 c-78 -14 -186 -49 -252 -82 -365 -183 -546 -604 -426
-993 21 -67 69 -172 82 -181 5 -3 37 -10 71 -15 35 -6 89 -21 121 -34 l59 -23
34 20 c19 11 42 34 50 50 26 50 402 425 448 448 80 38 173 14 221 -58 33 -49
40 -95 25 -152 -10 -38 -40 -73 -212 -246 -110 -111 -218 -212 -241 -224 -26
-14 -48 -36 -59 -57 -14 -31 -15 -39 -2 -68 12 -29 20 -35 61 -42 27 -4 102
-7 168 -6 98 1 137 6 210 28 376 111 624 461 602 849 -25 436 -370 775 -807
791 -58 2 -127 0 -153 -5z"/>
<path d="M4455 4501 c-16 -10 -114 -104 -217 -207 -138 -140 -189 -198 -195
-224 -7 -25 -16 -36 -37 -41 -15 -4 -43 -19 -62 -34 l-34 -26 -53 24 c-28 14
-72 30 -97 37 -57 15 -203 15 -261 0 -117 -32 -230 -116 -301 -224 -106 -164
-106 -389 1 -552 100 -154 248 -234 430 -234 138 0 243 39 341 127 113 101
170 230 170 382 0 95 -9 138 -47 223 l-25 57 27 35 c14 19 30 47 34 63 6 21
14 29 37 31 22 3 74 49 226 199 108 108 205 212 214 231 23 48 6 105 -39 132
-40 25 -74 25 -112 1z m-706 -560 c83 -26 141 -62 194 -121 157 -175 152 -425
-13 -591 -167 -169 -433 -169 -600 0 -130 132 -163 323 -84 487 90 187 309
285 503 225z"/>
<path d="M1315 2970 c-155 -25 -279 -84 -372 -177 -81 -80 -149 -219 -189
-383 -28 -111 -29 -124 -29 -380 0 -239 2 -275 23 -372 55 -255 139 -428 284
-584 255 -272 676 -425 1288 -468 435 -31 1136 -29 1485 4 151 15 377 55 515
92 364 97 638 281 789 531 121 201 171 415 171 727 -1 502 -121 792 -380 918
-47 23 -119 48 -162 57 -98 19 -329 20 -463 0 -127 -18 -423 -72 -495 -90
-104 -26 -405 -84 -550 -106 -185 -28 -292 -28 -460 0 -124 21 -201 38 -560
120 -379 88 -515 110 -695 116 -77 2 -167 0 -200 -5z"/>
</g>
</svg>
