<?xml version="1.0" standalone="no"?>
<!DOCTYPE svg PUBLIC "-//W3C//DTD SVG 20010904//EN"
 "http://www.w3.org/TR/2001/REC-SVG-20010904/DTD/svg10.dtd">
<svg version="1.0" xmlns="http://www.w3.org/2000/svg"
 width="500.000000pt" height="500.000000pt" viewBox="0 0 500.000000 500.000000"
 preserveAspectRatio="xMidYMid meet">

<g transform="translate(0.000000,500.000000) scale(0.100000,-0.100000)"
fill="#000000" stroke="none">
<path d="M652 3985 l3 -500 495 0 495 0 0 497 0 498 -498 2 -497 3 2 -500z"/>
<path d="M2819 3860 c-323 -70 -610 -295 -759 -597 -122 -248 -144 -556 -58
-828 94 -301 355 -577 659 -695 142 -55 206 -65 404 -65 166 1 188 3 280 29
119 33 217 77 315 140 40 26 76 46 80 44 5 -2 205 -198 445 -436 240 -237 440
-432 444 -432 3 0 48 42 100 94 l93 94 -177 178 c-97 99 -297 299 -443 446
-264 265 -265 267 -249 290 185 256 250 539 198 859 -26 160 -111 343 -225
486 -168 209 -392 346 -650 397 -111 23 -344 20 -457 -4z m451 -275 c264 -68
508 -301 583 -555 99 -336 -4 -680 -269 -897 -165 -135 -301 -183 -524 -183
-189 0 -311 34 -452 125 -190 124 -337 348 -369 564 -15 109 -6 284 20 373 87
297 359 540 660 588 80 13 275 4 351 -15z"/>
<path d="M3252 3167 l-192 -192 -188 188 c-103 103 -192 187 -197 187 -12 0
-186 -171 -186 -183 0 -5 84 -94 187 -199 l186 -190 -193 -194 -194 -194 95
-95 c52 -52 98 -95 101 -95 4 0 89 83 190 185 101 102 188 185 195 185 6 0 94
-83 195 -185 100 -102 188 -185 195 -185 6 0 53 43 104 96 l93 96 -194 194
-193 193 187 189 c103 103 187 192 187 198 0 5 -42 51 -93 102 l-92 92 -193
-193z"/>
<path d="M654 3075 c-2 -5 -3 -230 -2 -500 l3 -490 498 -3 497 -2 -2 502 -3
503 -494 0 c-320 0 -495 -4 -497 -10z"/>
<path d="M664 1681 c-2 -2 -4 -227 -4 -500 l0 -496 498 0 497 0 0 498 0 498
-493 2 c-272 1 -496 0 -498 -2z"/>
</g>
</svg>
