<?xml version="1.0" standalone="no"?>
<!DOCTYPE svg PUBLIC "-//W3C//DTD SVG 20010904//EN"
 "http://www.w3.org/TR/2001/REC-SVG-20010904/DTD/svg10.dtd">
<svg version="1.0" xmlns="http://www.w3.org/2000/svg"
 width="864.000000pt" height="864.000000pt" viewBox="0 0 864.000000 864.000000"
 preserveAspectRatio="xMidYMid meet">

<g transform="translate(0.000000,864.000000) scale(0.100000,-0.100000)"
fill="#000000" stroke="none">
<path d="M2821 6602 c-575 -2 -623 -3 -617 -19 4 -9 28 -53 55 -97 27 -45 60
-101 73 -126 14 -25 81 -139 148 -255 68 -115 130 -223 140 -240 84 -147 155
-271 260 -450 67 -115 130 -223 140 -240 9 -16 52 -91 95 -165 43 -74 98 -170
122 -212 24 -43 48 -78 53 -78 5 0 65 32 132 72 68 39 164 95 213 123 50 29
155 91 235 137 307 179 386 225 405 236 54 30 181 106 193 115 13 11 9 19
-134 262 -45 77 -117 201 -159 275 -43 74 -94 162 -113 195 -19 33 -43 76 -54
95 -11 19 -51 87 -88 150 -37 63 -81 140 -98 170 l-31 55 -173 0 c-95 0 -454
-1 -797 -3z"/>
<path d="M4011 6568 c12 -24 47 -86 78 -138 32 -52 93 -158 138 -235 44 -77
119 -205 165 -285 46 -80 117 -202 157 -273 41 -70 77 -130 82 -132 9 -6 53
18 209 110 58 34 123 72 145 85 22 12 54 31 70 40 17 10 71 41 120 69 50 28
97 55 105 61 8 5 62 37 120 70 58 33 112 65 120 70 8 6 69 41 135 78 66 38
206 118 310 179 105 60 240 138 300 172 61 35 126 74 145 86 19 13 58 35 85
50 28 15 52 29 54 31 2 2 -573 4 -1278 4 l-1281 0 21 -42z"/>
<path d="M2030 5262 c0 -700 2 -1272 5 -1272 5 0 196 109 211 121 5 4 57 35
115 67 57 32 254 146 437 252 268 155 333 196 329 211 -3 9 -36 70 -74 136
-87 147 -280 479 -312 536 -13 23 -59 102 -102 175 -44 73 -79 134 -79 136 0
2 -37 66 -81 142 -45 77 -93 159 -107 184 -62 110 -331 572 -338 579 -2 2 -4
-568 -4 -1267z"/>
<path d="M6370 6303 c-118 -69 -287 -167 -375 -218 -88 -51 -212 -123 -275
-160 -63 -37 -205 -119 -315 -182 -110 -64 -258 -150 -330 -191 -71 -42 -181
-104 -242 -140 l-112 -64 15 -32 c9 -17 38 -67 64 -111 42 -71 171 -293 417
-720 42 -71 102 -176 135 -233 l60 -102 42 24 c22 13 60 34 82 47 455 262
1061 615 1067 623 5 6 6 279 3 606 -3 327 -6 682 -6 788 0 105 -3 192 -7 192
-5 -1 -105 -58 -223 -127z"/>
<path d="M4545 5246 c-11 -7 -81 -48 -155 -91 -215 -124 -598 -346 -630 -366
-8 -5 -55 -32 -105 -60 -49 -28 -106 -61 -125 -72 -19 -11 -59 -34 -88 -50
-30 -16 -56 -35 -58 -42 -3 -6 34 -79 82 -161 48 -82 119 -205 159 -274 99
-172 207 -360 301 -520 44 -74 87 -151 98 -171 40 -76 36 -75 110 -30 37 23
69 41 71 41 3 0 65 35 138 78 72 43 224 132 337 197 113 65 270 156 350 203
80 46 164 95 188 108 23 14 42 27 42 29 0 4 -96 170 -195 340 -84 142 -265
456 -293 505 -14 25 -53 92 -87 150 -34 58 -74 126 -89 153 -15 26 -28 47 -29
47 -1 0 -11 -6 -22 -14z"/>
<path d="M6565 4621 c-10 -10 -31 -22 -405 -239 -406 -236 -525 -304 -587
-339 -35 -19 -65 -38 -67 -42 -3 -4 27 -61 65 -127 39 -65 89 -150 110 -189
22 -38 44 -77 49 -85 27 -44 90 -152 117 -200 16 -30 71 -125 120 -210 201
-345 347 -597 478 -825 76 -132 144 -247 152 -255 11 -12 13 176 13 1253 -1
1201 -2 1267 -18 1267 -10 0 -22 -4 -27 -9z"/>
<path d="M3001 4350 c-112 -66 -206 -120 -208 -120 -3 0 -68 -38 -146 -84 -78
-46 -207 -121 -287 -166 -80 -46 -187 -108 -239 -139 l-94 -55 7 -790 c4 -435
9 -793 12 -795 2 -2 45 21 96 51 51 30 113 66 138 80 25 14 124 71 220 128 96
56 191 111 210 121 19 11 49 28 65 38 17 10 62 37 102 60 107 61 121 69 348
201 116 68 224 130 240 140 63 36 223 129 295 171 41 24 92 53 113 64 36 19
46 41 28 60 -5 6 -20 30 -33 55 -28 49 -172 300 -278 480 -38 63 -133 228
-213 365 -80 138 -151 251 -159 253 -7 1 -105 -52 -217 -118z"/>
<path d="M5295 3882 c-27 -15 -84 -47 -125 -72 -96 -56 -527 -306 -602 -348
-18 -11 -98 -57 -178 -104 -80 -46 -164 -95 -187 -108 -24 -13 -43 -28 -43
-34 0 -11 17 -41 230 -406 62 -107 145 -250 184 -318 39 -68 78 -135 87 -150
40 -67 119 -205 119 -208 0 -2 16 -29 36 -59 l35 -56 147 5 c81 3 431 6 778 6
347 1 636 5 643 10 13 7 -57 132 -409 735 -92 157 -231 397 -490 845 -84 146
-158 270 -164 277 -8 9 -23 5 -61 -15z"/>
<path d="M3975 3118 c-11 -6 -72 -41 -135 -78 -63 -37 -218 -128 -345 -200
-126 -73 -266 -155 -310 -181 -44 -26 -98 -57 -120 -69 -84 -47 -301 -173
-327 -191 -15 -11 -30 -19 -33 -19 -3 0 -60 -32 -128 -71 -67 -40 -176 -103
-242 -142 -66 -38 -146 -84 -177 -101 -32 -17 -58 -34 -58 -38 0 -5 572 -8
1270 -8 699 0 1270 2 1270 5 0 11 -45 93 -125 230 -45 77 -138 237 -207 355
-68 118 -164 284 -213 368 -48 83 -91 152 -94 152 -3 0 -15 -6 -26 -12z"/>
</g>
</svg>
