<svg xmlns="http://www.w3.org/2000/svg" xmlns:v="https://svgstorm.com" viewBox="0 0 1600 1600" width="1600" height="1600">
<g fill="None" fill-opacity="0.0" stroke="#FFFFFF" stroke-opacity="1.00" stroke-width="0.3">
</g>
<g fill="None" fill-opacity="0.0" stroke="#000000" stroke-opacity="1.00" stroke-width="0.3"><path d="
M 464.00 94.00 
C 454.02 94.00 443.98 94.00 434.00 94.00 C 424.02 94.00 413.96 94.00 404.00 94.00 C 394.04 94.00 383.91 94.00 374.00 94.00 C 364.09 94.00 354.90 94.00 345.00 94.00 C 335.10 94.00 324.92 94.01 315.00 94.00 C 305.08 93.99 294.90 94.02 285.00 94.00 C 275.10 93.98 265.92 94.04 256.00 94.00 C 246.08 93.96 235.98 94.08 226.00 94.00 C 216.02 93.92 206.04 94.17 196.00 94.00 C 185.96 93.83 177.24 94.40 167.00 94.00 C 156.76 93.60 147.67 94.86 137.00 94.00 C 126.33 93.14 118.55 95.89 107.00 94.00 C 95.45 92.11 91.25 97.67 93.00 109.00 C 94.75 120.33 92.21 128.43 93.00 139.00 C 93.79 149.57 92.63 158.81 93.00 169.00 C 93.37 179.19 92.84 187.98 93.00 198.00 C 93.16 208.02 92.93 218.03 93.00 228.00 C 93.07 237.98 92.97 248.09 93.00 258.00 C 93.03 267.91 92.99 277.10 93.00 287.00 C 93.01 296.90 92.99 307.08 93.00 317.00 C 93.01 326.92 93.00 337.11 93.00 347.00 C 93.00 356.89 93.00 366.12 93.00 376.00 C 93.00 385.88 93.00 396.10 93.00 406.00 C 93.00 415.90 93.00 426.15 93.00 436.00 C 93.00 445.85 93.00 455.19 93.00 465.00
C 216.67 465.00 340.33 465.00 464.00 465.00
C 464.00 341.33 464.00 217.67 464.00 94.00
M 322.00 199.00 
C 341.08 202.95 348.45 230.54 335.08 244.08 C 321.72 257.63 296.45 255.01 289.68 235.32 C 282.91 215.63 299.94 194.43 322.00 199.00
M 254.00 264.00 
C 287.95 269.51 279.91 323.51 245.00 318.00 C 210.09 312.49 219.48 258.39 254.00 264.00
M 320.00 264.00 
C 354.28 269.57 344.53 324.67 310.00 318.00 C 275.47 311.33 285.49 258.40 320.00 264.00
M 256.00 330.00 
C 275.43 333.48 282.83 361.36 269.25 375.25 C 255.67 389.13 230.83 385.61 224.03 365.98 C 217.22 346.34 234.25 326.10 256.00 330.00 Z" data-index="1"></path>
</g>
<g fill="None" fill-opacity="0.0" stroke="#000000" stroke-opacity="1.00" stroke-width="0.3"><path d="
M 984.00 94.00 
C 860.33 94.00 736.67 94.00 613.00 94.00
C 613.00 217.67 613.00 341.33 613.00 465.00
C 736.67 465.00 860.33 465.00 984.00 465.00
C 984.00 341.33 984.00 217.67 984.00 94.00
M 774.00 204.00 
C 807.40 210.92 794.19 265.62 760.78 256.22 C 727.37 246.83 739.89 196.93 774.00 204.00
M 774.00 269.00 
C 806.75 274.87 794.89 330.64 761.33 321.67 C 727.77 312.70 739.21 262.77 774.00 269.00
M 838.00 269.00 
C 871.65 274.46 860.20 330.21 826.33 321.67 C 792.46 313.13 803.60 263.41 838.00 269.00
M 840.00 334.00 
C 858.41 337.81 865.30 365.76 851.75 378.75 C 838.20 391.74 813.06 389.13 807.03 368.98 C 800.99 348.82 817.59 329.36 840.00 334.00 Z" data-index="2"></path>
</g>
<g fill="None" fill-opacity="0.0" stroke="#000000" stroke-opacity="1.00" stroke-width="0.3"><path d="
M 1504.00 94.00 
C 1494.02 94.00 1483.98 94.00 1474.00 94.00 C 1464.02 94.00 1453.96 94.00 1444.00 94.00 C 1434.04 94.00 1423.91 94.00 1414.00 94.00 C 1404.09 94.00 1394.90 94.00 1385.00 94.00 C 1375.10 94.00 1364.93 94.01 1355.00 94.00 C 1345.08 93.99 1334.90 94.02 1325.00 94.00 C 1315.10 93.98 1305.92 94.04 1296.00 94.00 C 1286.08 93.96 1275.98 94.08 1266.00 94.00 C 1256.02 93.92 1246.04 94.17 1236.00 94.00 C 1225.96 93.83 1217.24 94.40 1207.00 94.00 C 1196.76 93.60 1187.67 94.86 1177.00 94.00 C 1166.33 93.14 1158.55 95.89 1147.00 94.00 C 1135.45 92.11 1131.25 97.67 1133.00 109.00 C 1134.75 120.33 1132.21 128.43 1133.00 139.00 C 1133.79 149.57 1132.63 158.81 1133.00 169.00 C 1133.37 179.19 1132.84 187.98 1133.00 198.00 C 1133.16 208.02 1132.93 218.03 1133.00 228.00 C 1133.07 237.98 1132.97 248.09 1133.00 258.00 C 1133.03 267.91 1132.98 277.10 1133.00 287.00 C 1133.02 296.90 1132.99 307.08 1133.00 317.00 C 1133.01 326.92 1133.00 337.11 1133.00 347.00 C 1133.00 356.89 1133.00 366.12 1133.00 376.00 C 1133.00 385.88 1133.00 396.10 1133.00 406.00 C 1133.00 415.90 1133.00 426.15 1133.00 436.00 C 1133.00 445.85 1133.00 455.19 1133.00 465.00
C 1256.66 465.00 1380.34 465.00 1504.00 465.00
C 1504.00 341.33 1504.00 217.67 1504.00 94.00
M 1302.00 204.00 
C 1335.49 209.44 1324.26 265.22 1290.33 256.67 C 1256.40 248.12 1267.64 198.42 1302.00 204.00
M 1368.00 334.00 
C 1400.40 340.71 1388.69 395.13 1355.33 386.67 C 1321.97 378.21 1332.94 326.74 1368.00 334.00 Z" data-index="3"></path>
</g>
<g fill="None" fill-opacity="0.0" stroke="#FFFFFF" stroke-opacity="1.00" stroke-width="0.3"><path d="
M 322.00 199.00 
C 299.94 194.43 282.91 215.63 289.68 235.32 C 296.45 255.01 321.72 257.63 335.08 244.08 C 348.45 230.54 341.08 202.95 322.00 199.00 Z" data-index="4"></path>
</g>
<g fill="None" fill-opacity="0.0" stroke="#FFFFFF" stroke-opacity="1.00" stroke-width="0.3"><path d="
M 774.00 204.00 
C 739.89 196.93 727.37 246.83 760.78 256.22 C 794.19 265.62 807.40 210.92 774.00 204.00 Z" data-index="5"></path>
</g>
<g fill="None" fill-opacity="0.0" stroke="#FFFFFF" stroke-opacity="1.00" stroke-width="0.3"><path d="
M 1302.00 204.00 
C 1267.64 198.42 1256.40 248.12 1290.33 256.67 C 1324.26 265.22 1335.49 209.44 1302.00 204.00 Z" data-index="6"></path>
</g>
<g fill="None" fill-opacity="0.0" stroke="#FFFFFF" stroke-opacity="1.00" stroke-width="0.3"><path d="
M 254.00 264.00 
C 219.48 258.39 210.09 312.49 245.00 318.00 C 279.91 323.51 287.95 269.51 254.00 264.00 Z" data-index="7"></path>
</g>
<g fill="None" fill-opacity="0.0" stroke="#FFFFFF" stroke-opacity="1.00" stroke-width="0.3"><path d="
M 320.00 264.00 
C 285.49 258.40 275.47 311.33 310.00 318.00 C 344.53 324.67 354.28 269.57 320.00 264.00 Z" data-index="8"></path>
</g>
<g fill="None" fill-opacity="0.0" stroke="#FFFFFF" stroke-opacity="1.00" stroke-width="0.3"><path d="
M 774.00 269.00 
C 739.21 262.77 727.77 312.70 761.33 321.67 C 794.89 330.64 806.75 274.87 774.00 269.00 Z" data-index="9"></path>
</g>
<g fill="None" fill-opacity="0.0" stroke="#FFFFFF" stroke-opacity="1.00" stroke-width="0.3"><path d="
M 838.00 269.00 
C 803.60 263.41 792.46 313.13 826.33 321.67 C 860.20 330.21 871.65 274.46 838.00 269.00 Z" data-index="10"></path>
</g>
<g fill="None" fill-opacity="0.0" stroke="#FFFFFF" stroke-opacity="1.00" stroke-width="0.3"><path d="
M 256.00 330.00 
C 234.25 326.10 217.22 346.34 224.03 365.98 C 230.83 385.61 255.67 389.13 269.25 375.25 C 282.83 361.36 275.43 333.48 256.00 330.00 Z" data-index="11"></path>
</g>
<g fill="None" fill-opacity="0.0" stroke="#FFFFFF" stroke-opacity="1.00" stroke-width="0.3"><path d="
M 840.00 334.00 
C 817.59 329.36 800.99 348.82 807.03 368.98 C 813.06 389.13 838.20 391.74 851.75 378.75 C 865.30 365.76 858.41 337.81 840.00 334.00 Z" data-index="12"></path>
</g>
<g fill="None" fill-opacity="0.0" stroke="#FFFFFF" stroke-opacity="1.00" stroke-width="0.3"><path d="
M 1368.00 334.00 
C 1332.94 326.74 1321.97 378.21 1355.33 386.67 C 1388.69 395.13 1400.40 340.71 1368.00 334.00 Z" data-index="13"></path>
</g>
<g fill="None" fill-opacity="0.0" stroke="#000000" stroke-opacity="1.00" stroke-width="0.3"><path d="
M 466.00 614.00 
C 342.81 614.00 218.49 614.00 96.00 614.00
C 93.67 737.13 95.67 861.43 95.00 985.00
C 218.67 985.00 342.33 985.00 466.00 985.00
C 466.00 861.33 466.00 737.67 466.00 614.00 Z" data-index="14"></path>
</g>
<g fill="None" fill-opacity="0.0" stroke="#000000" stroke-opacity="1.00" stroke-width="0.3"><path d="
M 986.00 614.00 
C 862.34 614.00 738.67 614.00 615.00 614.00
C 613.45 737.13 613.27 861.88 615.00 985.00
C 738.66 985.00 862.34 985.00 986.00 985.00
C 986.00 861.33 986.00 737.67 986.00 614.00
M 840.00 722.00 
C 858.42 725.81 865.50 753.46 852.75 766.75 C 839.99 780.03 813.31 778.06 807.08 757.92 C 800.84 737.79 817.84 717.41 840.00 722.00
M 773.00 787.00 
C 806.40 792.42 796.09 847.75 762.00 840.00 C 727.91 832.25 738.92 781.47 773.00 787.00
M 838.00 787.00 
C 871.63 792.46 861.09 847.76 827.00 840.00 C 792.91 832.24 803.92 781.47 838.00 787.00
M 773.00 852.00 
C 806.37 857.42 796.21 912.66 762.00 905.00 C 727.79 897.34 739.10 846.49 773.00 852.00
M 838.00 852.00 
C 856.76 855.05 865.95 881.26 853.75 895.75 C 841.54 910.24 814.90 908.59 807.70 889.31 C 800.49 870.02 815.91 848.41 838.00 852.00 Z" data-index="15"></path>
</g>
<g fill="None" fill-opacity="0.0" stroke="#000000" stroke-opacity="1.00" stroke-width="0.3"><path d="
M 1506.00 985.00 
C 1506.00 972.34 1506.00 959.65 1506.00 947.00 C 1506.00 934.35 1506.01 921.64 1506.00 909.00 C 1505.99 896.36 1506.01 883.61 1506.00 871.00 C 1505.99 858.39 1506.02 845.55 1506.00 833.00 C 1505.98 820.45 1506.05 808.50 1506.00 796.00 C 1505.95 783.50 1506.11 770.46 1506.00 758.00 C 1505.89 745.54 1506.24 732.28 1506.00 720.00 C 1505.76 707.72 1506.53 693.85 1506.00 682.00 C 1505.47 670.15 1507.22 655.93 1506.00 645.00 C 1504.78 634.07 1511.62 614.64 1499.00 614.00 C 1486.38 613.36 1473.62 614.29 1461.00 614.00 C 1448.38 613.71 1435.58 614.14 1423.00 614.00 C 1410.43 613.86 1398.58 614.07 1386.00 614.00 C 1373.42 613.93 1360.62 614.04 1348.00 614.00 C 1335.38 613.96 1322.64 614.05 1310.00 614.00 C 1297.36 613.95 1284.63 614.09 1272.00 614.00 C 1259.37 613.91 1246.60 614.19 1234.00 614.00 C 1221.40 613.81 1209.63 614.43 1197.00 614.00 C 1184.37 613.57 1171.74 614.94 1159.00 614.00 C 1146.26 613.06 1131.91 612.07 1134.00 627.00 C 1136.09 641.93 1133.03 651.47 1134.00 665.00 C 1134.97 678.53 1133.56 689.28 1134.00 702.00 C 1134.44 714.72 1133.77 727.88 1134.00 740.00 C 1134.23 752.12 1134.21 761.48 1134.20 771.75 C 1134.18 782.03 1133.91 792.22 1134.00 804.00 C 1134.09 815.78 1134.25 826.70 1134.00 839.00 C 1133.75 851.30 1134.28 860.70 1135.00 872.00 C 1135.72 883.30 1134.66 898.02 1135.00 910.00 C 1135.34 921.98 1134.82 935.79 1135.00 948.00 C 1135.18 960.21 1134.86 972.76 1135.00 985.00
C 1258.66 985.00 1382.34 985.00 1506.00 985.00 Z" data-index="16"></path>
</g>
<g fill="None" fill-opacity="0.0" stroke="#FFFFFF" stroke-opacity="1.00" stroke-width="0.3"><path d="
M 840.00 722.00 
C 817.84 717.41 800.84 737.79 807.08 757.92 C 813.31 778.06 839.99 780.03 852.75 766.75 C 865.50 753.46 858.42 725.81 840.00 722.00 Z" data-index="17"></path>
</g>
<g fill="None" fill-opacity="0.0" stroke="#FFFFFF" stroke-opacity="1.00" stroke-width="0.3"><path d="
M 773.00 787.00 
C 738.92 781.47 727.91 832.25 762.00 840.00 C 796.09 847.75 806.40 792.42 773.00 787.00 Z" data-index="18"></path>
</g>
<g fill="None" fill-opacity="0.0" stroke="#FFFFFF" stroke-opacity="1.00" stroke-width="0.3"><path d="
M 838.00 787.00 
C 803.92 781.47 792.91 832.24 827.00 840.00 C 861.09 847.76 871.63 792.46 838.00 787.00 Z" data-index="19"></path>
</g>
<g fill="None" fill-opacity="0.0" stroke="#FFFFFF" stroke-opacity="1.00" stroke-width="0.3"><path d="
M 773.00 852.00 
C 739.10 846.49 727.79 897.34 762.00 905.00 C 796.21 912.66 806.37 857.42 773.00 852.00 Z" data-index="20"></path>
</g>
<g fill="None" fill-opacity="0.0" stroke="#FFFFFF" stroke-opacity="1.00" stroke-width="0.3"><path d="
M 838.00 852.00 
C 815.91 848.41 800.49 870.02 807.70 889.31 C 814.90 908.59 841.54 910.24 853.75 895.75 C 865.95 881.26 856.76 855.05 838.00 852.00 Z" data-index="21"></path>
</g>
<g fill="None" fill-opacity="0.0" stroke="#000000" stroke-opacity="1.00" stroke-width="0.3"><path d="
M 467.00 1135.00 
C 343.83 1132.68 219.58 1134.66 96.00 1134.00
C 95.94 1263.41 94.25 1376.08 96.00 1505.00
C 219.67 1505.01 343.33 1505.00 467.00 1505.00
C 467.00 1381.67 467.00 1258.33 467.00 1135.00
M 320.00 1242.00 
C 339.49 1245.17 348.57 1271.18 336.08 1286.08 C 323.60 1300.99 297.81 1298.93 290.08 1279.92 C 282.34 1260.92 298.11 1238.44 320.00 1242.00
M 253.00 1307.00 
C 287.60 1311.94 280.14 1366.17 245.00 1361.00 C 209.86 1355.83 219.72 1302.24 253.00 1307.00
M 254.00 1373.00 
C 273.90 1375.84 282.68 1402.29 270.25 1417.25 C 257.81 1432.20 232.24 1429.62 224.23 1410.77 C 216.22 1391.92 232.84 1369.98 254.00 1373.00 Z" data-index="22"></path>
</g>
<g fill="None" fill-opacity="0.0" stroke="#000000" stroke-opacity="1.00" stroke-width="0.3"><path d="
M 987.00 1134.00 
C 977.71 1134.00 968.28 1134.00 959.00 1134.00 C 949.72 1134.00 940.22 1134.00 931.00 1134.00 C 921.78 1134.00 913.20 1134.00 904.00 1134.00 C 894.80 1134.00 885.19 1134.00 876.00 1134.00 C 866.81 1134.00 858.18 1134.00 849.00 1134.00 C 839.82 1134.00 830.18 1134.01 821.00 1134.00 C 811.82 1133.99 803.19 1134.02 794.00 1134.00 C 784.81 1133.98 775.20 1134.04 766.00 1134.00 C 756.80 1133.96 748.24 1134.08 739.00 1134.00 C 729.76 1133.92 720.31 1134.17 711.00 1134.00 C 701.69 1133.83 693.49 1134.40 684.00 1134.00 C 674.51 1133.60 665.86 1134.85 656.00 1134.00 C 646.14 1133.15 639.74 1135.95 629.00 1134.00 C 618.26 1132.05 613.09 1137.23 615.00 1148.00 C 616.91 1158.77 614.17 1165.13 615.00 1175.00 C 615.83 1184.87 614.61 1193.50 615.00 1203.00 C 615.39 1212.50 614.83 1220.68 615.00 1230.00 C 615.17 1239.32 614.92 1248.76 615.00 1258.00 C 615.08 1267.24 614.97 1275.80 615.00 1285.00 C 615.03 1294.20 614.98 1303.81 615.00 1313.00 C 615.02 1322.19 614.99 1330.82 615.00 1340.00 C 615.01 1349.18 615.00 1358.82 615.00 1368.00 C 615.00 1377.18 615.00 1385.83 615.00 1395.00 C 615.00 1404.17 615.00 1413.83 615.00 1423.00 C 615.00 1432.17 615.00 1440.84 615.00 1450.00 C 615.00 1459.16 615.00 1468.85 615.00 1478.00 C 615.00 1487.15 615.00 1495.89 615.00 1505.00
C 739.00 1505.00 863.00 1505.00 987.00 1505.00
C 987.00 1381.33 987.01 1257.67 987.00 1134.00
M 837.00 1243.00 
C 870.34 1248.42 862.63 1301.91 828.33 1296.67 C 794.03 1291.43 802.81 1237.45 837.00 1243.00
M 840.00 1374.00 
C 858.14 1377.76 865.70 1405.70 852.75 1418.75 C 839.79 1431.79 813.61 1429.73 807.23 1409.77 C 800.85 1389.81 817.80 1369.40 840.00 1374.00 Z" data-index="23"></path>
</g>
<g fill="None" fill-opacity="0.0" stroke="#000000" stroke-opacity="1.00" stroke-width="0.3"><path d="
M 1506.00 1134.00 
C 1501.20 1130.61 1490.01 1135.61 1484.00 1134.00 C 1477.99 1132.39 1469.57 1134.73 1463.00 1134.00 C 1456.43 1133.27 1448.85 1134.33 1442.00 1134.00 C 1435.15 1133.67 1428.02 1134.14 1421.00 1134.00 C 1413.98 1133.86 1406.07 1134.07 1399.00 1134.00 C 1391.93 1133.93 1385.05 1134.03 1378.00 1134.00 C 1370.95 1133.97 1364.06 1134.01 1357.00 1134.00 C 1349.94 1133.99 1343.11 1134.01 1336.00 1134.00 C 1328.89 1133.99 1321.11 1134.01 1314.00 1134.00 C 1306.89 1133.99 1300.06 1134.01 1293.00 1134.00 C 1285.94 1133.99 1279.06 1134.02 1272.00 1134.00 C 1264.94 1133.98 1258.08 1134.03 1251.00 1134.00 C 1243.92 1133.97 1237.17 1134.07 1230.00 1134.00 C 1222.83 1133.93 1215.24 1134.15 1208.00 1134.00 C 1200.76 1133.85 1194.37 1134.34 1187.00 1134.00 C 1179.63 1133.66 1173.74 1134.76 1166.00 1134.00 C 1158.26 1133.24 1153.60 1135.68 1145.00 1134.00 C 1136.40 1132.32 1133.62 1137.91 1135.00 1146.00 C 1136.38 1154.09 1134.38 1159.49 1135.00 1167.00 C 1135.62 1174.51 1134.72 1180.74 1135.00 1188.00 C 1135.28 1195.26 1134.88 1201.80 1135.00 1209.00 C 1135.12 1216.20 1134.94 1223.85 1135.00 1231.00 C 1135.06 1238.15 1134.97 1244.93 1135.00 1252.00 C 1135.03 1259.07 1134.99 1265.95 1135.00 1273.00 C 1135.01 1280.05 1134.99 1286.94 1135.00 1294.00 C 1135.01 1301.06 1135.00 1307.89 1135.00 1315.00 C 1135.00 1322.11 1134.99 1329.89 1135.00 1337.00 C 1135.01 1344.11 1134.99 1350.95 1135.00 1358.00 C 1135.01 1365.05 1134.98 1371.96 1135.00 1379.00 C 1135.03 1386.04 1134.94 1392.95 1135.00 1400.00 C 1135.06 1407.05 1134.88 1415.02 1135.00 1422.00 C 1135.12 1428.98 1134.73 1436.24 1135.00 1443.00 C 1135.27 1449.76 1134.40 1457.63 1135.00 1464.00 C 1135.60 1470.37 1133.66 1479.44 1135.00 1485.00 C 1136.34 1490.56 1131.40 1501.57 1136.33 1504.67 C 1141.26 1507.77 1151.88 1503.76 1158.00 1505.00 C 1164.12 1506.24 1172.38 1504.44 1179.00 1505.00 C 1185.62 1505.56 1193.13 1504.75 1200.00 1505.00 C 1206.87 1505.25 1213.97 1504.89 1221.00 1505.00 C 1228.03 1505.11 1235.93 1504.95 1243.00 1505.00 C 1250.07 1505.05 1256.95 1504.98 1264.00 1505.00 C 1271.05 1505.02 1277.94 1504.99 1285.00 1505.00 C 1292.06 1505.01 1298.89 1504.99 1306.00 1505.00 C 1313.11 1505.01 1320.89 1504.99 1328.00 1505.00 C 1335.11 1505.01 1341.94 1504.99 1349.00 1505.00 C 1356.06 1505.01 1362.94 1504.99 1370.00 1505.00 C 1377.06 1505.01 1383.91 1504.97 1391.00 1505.00 C 1398.09 1505.03 1404.83 1504.93 1412.00 1505.00 C 1419.17 1505.07 1426.76 1504.85 1434.00 1505.00 C 1441.24 1505.15 1447.63 1504.66 1455.00 1505.00 C 1462.37 1505.34 1468.26 1504.24 1476.00 1505.00 C 1483.74 1505.76 1488.40 1503.32 1497.00 1505.00 C 1505.60 1506.68 1508.38 1501.09 1507.00 1493.00 C 1505.62 1484.91 1507.62 1479.51 1507.00 1472.00 C 1506.38 1464.49 1507.28 1458.26 1507.00 1451.00 C 1506.72 1443.74 1507.12 1437.20 1507.00 1430.00 C 1506.88 1422.80 1507.06 1415.15 1507.00 1408.00 C 1506.94 1400.85 1507.03 1394.07 1507.00 1387.00 C 1506.97 1379.93 1507.01 1373.05 1507.00 1366.00 C 1506.99 1358.95 1507.01 1352.06 1507.00 1345.00 C 1506.99 1337.94 1507.00 1331.11 1507.00 1324.00 C 1507.00 1316.89 1507.00 1309.11 1507.00 1302.00 C 1507.00 1294.89 1507.01 1288.05 1507.00 1281.00 C 1506.99 1273.95 1507.02 1267.04 1507.00 1260.00 C 1506.98 1252.96 1507.05 1246.04 1507.00 1239.00 C 1506.95 1231.96 1507.11 1223.96 1507.00 1217.00 C 1506.89 1210.04 1507.26 1202.72 1507.00 1196.00 C 1506.74 1189.28 1507.58 1181.28 1507.00 1175.00 C 1506.43 1168.72 1508.28 1159.37 1507.00 1154.00 C 1505.72 1148.63 1510.31 1137.05 1506.00 1134.00
M 1289.00 1242.00 
C 1322.63 1244.26 1320.31 1298.51 1285.00 1296.00 C 1249.69 1293.49 1254.43 1239.68 1289.00 1242.00
M 1355.00 1242.00 
C 1389.33 1244.59 1384.02 1300.67 1349.00 1296.00 C 1313.98 1291.34 1321.15 1239.45 1355.00 1242.00
M 1359.00 1308.00 
C 1392.21 1314.88 1379.63 1369.94 1346.00 1361.00 C 1312.36 1352.06 1323.82 1300.71 1359.00 1308.00 Z" data-index="24"></path>
</g>
<g fill="None" fill-opacity="0.0" stroke="#FFFFFF" stroke-opacity="1.00" stroke-width="0.3"><path d="
M 320.00 1242.00 
C 298.11 1238.44 282.34 1260.92 290.08 1279.92 C 297.81 1298.93 323.60 1300.99 336.08 1286.08 C 348.57 1271.18 339.49 1245.17 320.00 1242.00 Z" data-index="25"></path>
</g>
<g fill="None" fill-opacity="0.0" stroke="#FFFFFF" stroke-opacity="1.00" stroke-width="0.3"><path d="
M 1289.00 1242.00 
C 1254.43 1239.68 1249.69 1293.49 1285.00 1296.00 C 1320.31 1298.51 1322.63 1244.26 1289.00 1242.00 Z" data-index="26"></path>
</g>
<g fill="None" fill-opacity="0.0" stroke="#FFFFFF" stroke-opacity="1.00" stroke-width="0.3"><path d="
M 1355.00 1242.00 
C 1321.15 1239.45 1313.98 1291.34 1349.00 1296.00 C 1384.02 1300.67 1389.33 1244.59 1355.00 1242.00 Z" data-index="27"></path>
</g>
<g fill="None" fill-opacity="0.0" stroke="#FFFFFF" stroke-opacity="1.00" stroke-width="0.3"><path d="
M 837.00 1243.00 
C 802.81 1237.45 794.03 1291.43 828.33 1296.67 C 862.63 1301.91 870.34 1248.42 837.00 1243.00 Z" data-index="28"></path>
</g>
<g fill="None" fill-opacity="0.0" stroke="#FFFFFF" stroke-opacity="1.00" stroke-width="0.3"><path d="
M 253.00 1307.00 
C 219.72 1302.24 209.86 1355.83 245.00 1361.00 C 280.14 1366.17 287.60 1311.94 253.00 1307.00 Z" data-index="29"></path>
</g>
<g fill="None" fill-opacity="0.0" stroke="#FFFFFF" stroke-opacity="1.00" stroke-width="0.3"><path d="
M 1359.00 1308.00 
C 1323.82 1300.71 1312.36 1352.06 1346.00 1361.00 C 1379.63 1369.94 1392.21 1314.88 1359.00 1308.00 Z" data-index="30"></path>
</g>
<g fill="None" fill-opacity="0.0" stroke="#FFFFFF" stroke-opacity="1.00" stroke-width="0.3"><path d="
M 254.00 1373.00 
C 232.84 1369.98 216.22 1391.92 224.23 1410.77 C 232.24 1429.62 257.81 1432.20 270.25 1417.25 C 282.68 1402.29 273.90 1375.84 254.00 1373.00 Z" data-index="31"></path>
</g>
<g fill="None" fill-opacity="0.0" stroke="#FFFFFF" stroke-opacity="1.00" stroke-width="0.3"><path d="
M 840.00 1374.00 
C 817.80 1369.40 800.85 1389.81 807.23 1409.77 C 813.61 1429.73 839.79 1431.79 852.75 1418.75 C 865.70 1405.70 858.14 1377.76 840.00 1374.00 Z" data-index="32"></path>
</g>
<g fill="#FFFFFF" fill-opacity="1.00" stroke="None">

</g>
<g fill="#000000" fill-opacity="1.00" stroke="None">
<path d="
M 464.00 94.00 
C 454.02 94.00 443.98 94.00 434.00 94.00 C 424.02 94.00 413.96 94.00 404.00 94.00 C 394.04 94.00 383.91 94.00 374.00 94.00 C 364.09 94.00 354.90 94.00 345.00 94.00 C 335.10 94.00 324.92 94.01 315.00 94.00 C 305.08 93.99 294.90 94.02 285.00 94.00 C 275.10 93.98 265.92 94.04 256.00 94.00 C 246.08 93.96 235.98 94.08 226.00 94.00 C 216.02 93.92 206.04 94.17 196.00 94.00 C 185.96 93.83 177.24 94.40 167.00 94.00 C 156.76 93.60 147.67 94.86 137.00 94.00 C 126.33 93.14 118.55 95.89 107.00 94.00 C 95.45 92.11 91.25 97.67 93.00 109.00 C 94.75 120.33 92.21 128.43 93.00 139.00 C 93.79 149.57 92.63 158.81 93.00 169.00 C 93.37 179.19 92.84 187.98 93.00 198.00 C 93.16 208.02 92.93 218.03 93.00 228.00 C 93.07 237.98 92.97 248.09 93.00 258.00 C 93.03 267.91 92.99 277.10 93.00 287.00 C 93.01 296.90 92.99 307.08 93.00 317.00 C 93.01 326.92 93.00 337.11 93.00 347.00 C 93.00 356.89 93.00 366.12 93.00 376.00 C 93.00 385.88 93.00 396.10 93.00 406.00 C 93.00 415.90 93.00 426.15 93.00 436.00 C 93.00 445.85 93.00 455.19 93.00 465.00
C 216.67 465.00 340.33 465.00 464.00 465.00
C 464.00 341.33 464.00 217.67 464.00 94.00
M 322.00 199.00 
C 341.08 202.95 348.45 230.54 335.08 244.08 C 321.72 257.63 296.45 255.01 289.68 235.32 C 282.91 215.63 299.94 194.43 322.00 199.00
M 254.00 264.00 
C 287.95 269.51 279.91 323.51 245.00 318.00 C 210.09 312.49 219.48 258.39 254.00 264.00
M 320.00 264.00 
C 354.28 269.57 344.53 324.67 310.00 318.00 C 275.47 311.33 285.49 258.40 320.00 264.00
M 256.00 330.00 
C 275.43 333.48 282.83 361.36 269.25 375.25 C 255.67 389.13 230.83 385.61 224.03 365.98 C 217.22 346.34 234.25 326.10 256.00 330.00 Z" data-index="34" style="opacity: 1;"></path>
</g>
<g fill="#000000" fill-opacity="1.00" stroke="None">
<path d="
M 984.00 94.00 
C 860.33 94.00 736.67 94.00 613.00 94.00
C 613.00 217.67 613.00 341.33 613.00 465.00
C 736.67 465.00 860.33 465.00 984.00 465.00
C 984.00 341.33 984.00 217.67 984.00 94.00
M 774.00 204.00 
C 807.40 210.92 794.19 265.62 760.78 256.22 C 727.37 246.83 739.89 196.93 774.00 204.00
M 774.00 269.00 
C 806.75 274.87 794.89 330.64 761.33 321.67 C 727.77 312.70 739.21 262.77 774.00 269.00
M 838.00 269.00 
C 871.65 274.46 860.20 330.21 826.33 321.67 C 792.46 313.13 803.60 263.41 838.00 269.00
M 840.00 334.00 
C 858.41 337.81 865.30 365.76 851.75 378.75 C 838.20 391.74 813.06 389.13 807.03 368.98 C 800.99 348.82 817.59 329.36 840.00 334.00 Z" data-index="35" style="opacity: 1;"></path>
</g>
<g fill="#000000" fill-opacity="1.00" stroke="None">
<path d="
M 1504.00 94.00 
C 1494.02 94.00 1483.98 94.00 1474.00 94.00 C 1464.02 94.00 1453.96 94.00 1444.00 94.00 C 1434.04 94.00 1423.91 94.00 1414.00 94.00 C 1404.09 94.00 1394.90 94.00 1385.00 94.00 C 1375.10 94.00 1364.93 94.01 1355.00 94.00 C 1345.08 93.99 1334.90 94.02 1325.00 94.00 C 1315.10 93.98 1305.92 94.04 1296.00 94.00 C 1286.08 93.96 1275.98 94.08 1266.00 94.00 C 1256.02 93.92 1246.04 94.17 1236.00 94.00 C 1225.96 93.83 1217.24 94.40 1207.00 94.00 C 1196.76 93.60 1187.67 94.86 1177.00 94.00 C 1166.33 93.14 1158.55 95.89 1147.00 94.00 C 1135.45 92.11 1131.25 97.67 1133.00 109.00 C 1134.75 120.33 1132.21 128.43 1133.00 139.00 C 1133.79 149.57 1132.63 158.81 1133.00 169.00 C 1133.37 179.19 1132.84 187.98 1133.00 198.00 C 1133.16 208.02 1132.93 218.03 1133.00 228.00 C 1133.07 237.98 1132.97 248.09 1133.00 258.00 C 1133.03 267.91 1132.98 277.10 1133.00 287.00 C 1133.02 296.90 1132.99 307.08 1133.00 317.00 C 1133.01 326.92 1133.00 337.11 1133.00 347.00 C 1133.00 356.89 1133.00 366.12 1133.00 376.00 C 1133.00 385.88 1133.00 396.10 1133.00 406.00 C 1133.00 415.90 1133.00 426.15 1133.00 436.00 C 1133.00 445.85 1133.00 455.19 1133.00 465.00
C 1256.66 465.00 1380.34 465.00 1504.00 465.00
C 1504.00 341.33 1504.00 217.67 1504.00 94.00
M 1302.00 204.00 
C 1335.49 209.44 1324.26 265.22 1290.33 256.67 C 1256.40 248.12 1267.64 198.42 1302.00 204.00
M 1368.00 334.00 
C 1400.40 340.71 1388.69 395.13 1355.33 386.67 C 1321.97 378.21 1332.94 326.74 1368.00 334.00 Z" data-index="36" style="opacity: 1;"></path>
</g>
<g fill="#FFFFFF" fill-opacity="1.00" stroke="None">
<path d="
M 322.00 199.00 
C 299.94 194.43 282.91 215.63 289.68 235.32 C 296.45 255.01 321.72 257.63 335.08 244.08 C 348.45 230.54 341.08 202.95 322.00 199.00 Z" data-index="37"></path>
</g>
<g fill="#FFFFFF" fill-opacity="1.00" stroke="None">
<path d="
M 774.00 204.00 
C 739.89 196.93 727.37 246.83 760.78 256.22 C 794.19 265.62 807.40 210.92 774.00 204.00 Z" data-index="38"></path>
</g>
<g fill="#FFFFFF" fill-opacity="1.00" stroke="None">
<path d="
M 1302.00 204.00 
C 1267.64 198.42 1256.40 248.12 1290.33 256.67 C 1324.26 265.22 1335.49 209.44 1302.00 204.00 Z" data-index="39"></path>
</g>
<g fill="#FFFFFF" fill-opacity="1.00" stroke="None">
<path d="
M 254.00 264.00 
C 219.48 258.39 210.09 312.49 245.00 318.00 C 279.91 323.51 287.95 269.51 254.00 264.00 Z" data-index="40"></path>
</g>
<g fill="#FFFFFF" fill-opacity="1.00" stroke="None">
<path d="
M 320.00 264.00 
C 285.49 258.40 275.47 311.33 310.00 318.00 C 344.53 324.67 354.28 269.57 320.00 264.00 Z" data-index="41"></path>
</g>
<g fill="#FFFFFF" fill-opacity="1.00" stroke="None">
<path d="
M 774.00 269.00 
C 739.21 262.77 727.77 312.70 761.33 321.67 C 794.89 330.64 806.75 274.87 774.00 269.00 Z" data-index="42" style="opacity: 1;"></path>
</g>
<g fill="#FFFFFF" fill-opacity="1.00" stroke="None">
<path d="
M 838.00 269.00 
C 803.60 263.41 792.46 313.13 826.33 321.67 C 860.20 330.21 871.65 274.46 838.00 269.00 Z" data-index="43" style="opacity: 1;"></path>
</g>
<g fill="#FFFFFF" fill-opacity="1.00" stroke="None">
<path d="
M 256.00 330.00 
C 234.25 326.10 217.22 346.34 224.03 365.98 C 230.83 385.61 255.67 389.13 269.25 375.25 C 282.83 361.36 275.43 333.48 256.00 330.00 Z" data-index="44"></path>
</g>
<g fill="#FFFFFF" fill-opacity="1.00" stroke="None">
<path d="
M 840.00 334.00 
C 817.59 329.36 800.99 348.82 807.03 368.98 C 813.06 389.13 838.20 391.74 851.75 378.75 C 865.30 365.76 858.41 337.81 840.00 334.00 Z" data-index="45"></path>
</g>
<g fill="#FFFFFF" fill-opacity="1.00" stroke="None">
<path d="
M 1368.00 334.00 
C 1332.94 326.74 1321.97 378.21 1355.33 386.67 C 1388.69 395.13 1400.40 340.71 1368.00 334.00 Z" data-index="46"></path>
</g>
<g fill="#000000" fill-opacity="1.00" stroke="None">
<path d="
M 466.00 614.00 
C 342.81 614.00 218.49 614.00 96.00 614.00
C 93.67 737.13 95.67 861.43 95.00 985.00
C 218.67 985.00 342.33 985.00 466.00 985.00
C 466.00 861.33 466.00 737.67 466.00 614.00 Z" data-index="47" style="opacity: 1;"></path>
</g>
<g fill="#000000" fill-opacity="1.00" stroke="None">
<path d="
M 986.00 614.00 
C 862.34 614.00 738.67 614.00 615.00 614.00
C 613.45 737.13 613.27 861.88 615.00 985.00
C 738.66 985.00 862.34 985.00 986.00 985.00
C 986.00 861.33 986.00 737.67 986.00 614.00
M 840.00 722.00 
C 858.42 725.81 865.50 753.46 852.75 766.75 C 839.99 780.03 813.31 778.06 807.08 757.92 C 800.84 737.79 817.84 717.41 840.00 722.00
M 773.00 787.00 
C 806.40 792.42 796.09 847.75 762.00 840.00 C 727.91 832.25 738.92 781.47 773.00 787.00
M 838.00 787.00 
C 871.63 792.46 861.09 847.76 827.00 840.00 C 792.91 832.24 803.92 781.47 838.00 787.00
M 773.00 852.00 
C 806.37 857.42 796.21 912.66 762.00 905.00 C 727.79 897.34 739.10 846.49 773.00 852.00
M 838.00 852.00 
C 856.76 855.05 865.95 881.26 853.75 895.75 C 841.54 910.24 814.90 908.59 807.70 889.31 C 800.49 870.02 815.91 848.41 838.00 852.00 Z" data-index="48" style="opacity: 1;"></path>
</g>
<g fill="#000000" fill-opacity="1.00" stroke="None">
<path d="
M 1506.00 985.00 
C 1506.00 972.34 1506.00 959.65 1506.00 947.00 C 1506.00 934.35 1506.01 921.64 1506.00 909.00 C 1505.99 896.36 1506.01 883.61 1506.00 871.00 C 1505.99 858.39 1506.02 845.55 1506.00 833.00 C 1505.98 820.45 1506.05 808.50 1506.00 796.00 C 1505.95 783.50 1506.11 770.46 1506.00 758.00 C 1505.89 745.54 1506.24 732.28 1506.00 720.00 C 1505.76 707.72 1506.53 693.85 1506.00 682.00 C 1505.47 670.15 1507.22 655.93 1506.00 645.00 C 1504.78 634.07 1511.62 614.64 1499.00 614.00 C 1486.38 613.36 1473.62 614.29 1461.00 614.00 C 1448.38 613.71 1435.58 614.14 1423.00 614.00 C 1410.43 613.86 1398.58 614.07 1386.00 614.00 C 1373.42 613.93 1360.62 614.04 1348.00 614.00 C 1335.38 613.96 1322.64 614.05 1310.00 614.00 C 1297.36 613.95 1284.63 614.09 1272.00 614.00 C 1259.37 613.91 1246.60 614.19 1234.00 614.00 C 1221.40 613.81 1209.63 614.43 1197.00 614.00 C 1184.37 613.57 1171.74 614.94 1159.00 614.00 C 1146.26 613.06 1131.91 612.07 1134.00 627.00 C 1136.09 641.93 1133.03 651.47 1134.00 665.00 C 1134.97 678.53 1133.56 689.28 1134.00 702.00 C 1134.44 714.72 1133.77 727.88 1134.00 740.00 C 1134.23 752.12 1134.21 761.48 1134.20 771.75 C 1134.18 782.03 1133.91 792.22 1134.00 804.00 C 1134.09 815.78 1134.25 826.70 1134.00 839.00 C 1133.75 851.30 1134.28 860.70 1135.00 872.00 C 1135.72 883.30 1134.66 898.02 1135.00 910.00 C 1135.34 921.98 1134.82 935.79 1135.00 948.00 C 1135.18 960.21 1134.86 972.76 1135.00 985.00
C 1258.66 985.00 1382.34 985.00 1506.00 985.00 Z" data-index="49"></path>
</g>
<g fill="#FFFFFF" fill-opacity="1.00" stroke="None">
<path d="
M 840.00 722.00 
C 817.84 717.41 800.84 737.79 807.08 757.92 C 813.31 778.06 839.99 780.03 852.75 766.75 C 865.50 753.46 858.42 725.81 840.00 722.00 Z" data-index="50"></path>
</g>
<g fill="#FFFFFF" fill-opacity="1.00" stroke="None">
<path d="
M 773.00 787.00 
C 738.92 781.47 727.91 832.25 762.00 840.00 C 796.09 847.75 806.40 792.42 773.00 787.00 Z" data-index="51"></path>
</g>
<g fill="#FFFFFF" fill-opacity="1.00" stroke="None">
<path d="
M 838.00 787.00 
C 803.92 781.47 792.91 832.24 827.00 840.00 C 861.09 847.76 871.63 792.46 838.00 787.00 Z" data-index="52"></path>
</g>
<g fill="#FFFFFF" fill-opacity="1.00" stroke="None">
<path d="
M 773.00 852.00 
C 739.10 846.49 727.79 897.34 762.00 905.00 C 796.21 912.66 806.37 857.42 773.00 852.00 Z" data-index="53"></path>
</g>
<g fill="#FFFFFF" fill-opacity="1.00" stroke="None">
<path d="
M 838.00 852.00 
C 815.91 848.41 800.49 870.02 807.70 889.31 C 814.90 908.59 841.54 910.24 853.75 895.75 C 865.95 881.26 856.76 855.05 838.00 852.00 Z" data-index="54"></path>
</g>
<g fill="#000000" fill-opacity="1.00" stroke="None">
<path d="
M 467.00 1135.00 
C 343.83 1132.68 219.58 1134.66 96.00 1134.00
C 95.94 1263.41 94.25 1376.08 96.00 1505.00
C 219.67 1505.01 343.33 1505.00 467.00 1505.00
C 467.00 1381.67 467.00 1258.33 467.00 1135.00
M 320.00 1242.00 
C 339.49 1245.17 348.57 1271.18 336.08 1286.08 C 323.60 1300.99 297.81 1298.93 290.08 1279.92 C 282.34 1260.92 298.11 1238.44 320.00 1242.00
M 253.00 1307.00 
C 287.60 1311.94 280.14 1366.17 245.00 1361.00 C 209.86 1355.83 219.72 1302.24 253.00 1307.00
M 254.00 1373.00 
C 273.90 1375.84 282.68 1402.29 270.25 1417.25 C 257.81 1432.20 232.24 1429.62 224.23 1410.77 C 216.22 1391.92 232.84 1369.98 254.00 1373.00 Z" data-index="55" style="opacity: 1;"></path>
</g>
<g fill="#000000" fill-opacity="1.00" stroke="None">
<path d="
M 987.00 1134.00 
C 977.71 1134.00 968.28 1134.00 959.00 1134.00 C 949.72 1134.00 940.22 1134.00 931.00 1134.00 C 921.78 1134.00 913.20 1134.00 904.00 1134.00 C 894.80 1134.00 885.19 1134.00 876.00 1134.00 C 866.81 1134.00 858.18 1134.00 849.00 1134.00 C 839.82 1134.00 830.18 1134.01 821.00 1134.00 C 811.82 1133.99 803.19 1134.02 794.00 1134.00 C 784.81 1133.98 775.20 1134.04 766.00 1134.00 C 756.80 1133.96 748.24 1134.08 739.00 1134.00 C 729.76 1133.92 720.31 1134.17 711.00 1134.00 C 701.69 1133.83 693.49 1134.40 684.00 1134.00 C 674.51 1133.60 665.86 1134.85 656.00 1134.00 C 646.14 1133.15 639.74 1135.95 629.00 1134.00 C 618.26 1132.05 613.09 1137.23 615.00 1148.00 C 616.91 1158.77 614.17 1165.13 615.00 1175.00 C 615.83 1184.87 614.61 1193.50 615.00 1203.00 C 615.39 1212.50 614.83 1220.68 615.00 1230.00 C 615.17 1239.32 614.92 1248.76 615.00 1258.00 C 615.08 1267.24 614.97 1275.80 615.00 1285.00 C 615.03 1294.20 614.98 1303.81 615.00 1313.00 C 615.02 1322.19 614.99 1330.82 615.00 1340.00 C 615.01 1349.18 615.00 1358.82 615.00 1368.00 C 615.00 1377.18 615.00 1385.83 615.00 1395.00 C 615.00 1404.17 615.00 1413.83 615.00 1423.00 C 615.00 1432.17 615.00 1440.84 615.00 1450.00 C 615.00 1459.16 615.00 1468.85 615.00 1478.00 C 615.00 1487.15 615.00 1495.89 615.00 1505.00
C 739.00 1505.00 863.00 1505.00 987.00 1505.00
C 987.00 1381.33 987.01 1257.67 987.00 1134.00
M 837.00 1243.00 
C 870.34 1248.42 862.63 1301.91 828.33 1296.67 C 794.03 1291.43 802.81 1237.45 837.00 1243.00
M 840.00 1374.00 
C 858.14 1377.76 865.70 1405.70 852.75 1418.75 C 839.79 1431.79 813.61 1429.73 807.23 1409.77 C 800.85 1389.81 817.80 1369.40 840.00 1374.00 Z" data-index="56" style="opacity: 1;"></path>
</g>
<g fill="#000000" fill-opacity="1.00" stroke="None">
<path d="
M 1506.00 1134.00 
C 1501.20 1130.61 1490.01 1135.61 1484.00 1134.00 C 1477.99 1132.39 1469.57 1134.73 1463.00 1134.00 C 1456.43 1133.27 1448.85 1134.33 1442.00 1134.00 C 1435.15 1133.67 1428.02 1134.14 1421.00 1134.00 C 1413.98 1133.86 1406.07 1134.07 1399.00 1134.00 C 1391.93 1133.93 1385.05 1134.03 1378.00 1134.00 C 1370.95 1133.97 1364.06 1134.01 1357.00 1134.00 C 1349.94 1133.99 1343.11 1134.01 1336.00 1134.00 C 1328.89 1133.99 1321.11 1134.01 1314.00 1134.00 C 1306.89 1133.99 1300.06 1134.01 1293.00 1134.00 C 1285.94 1133.99 1279.06 1134.02 1272.00 1134.00 C 1264.94 1133.98 1258.08 1134.03 1251.00 1134.00 C 1243.92 1133.97 1237.17 1134.07 1230.00 1134.00 C 1222.83 1133.93 1215.24 1134.15 1208.00 1134.00 C 1200.76 1133.85 1194.37 1134.34 1187.00 1134.00 C 1179.63 1133.66 1173.74 1134.76 1166.00 1134.00 C 1158.26 1133.24 1153.60 1135.68 1145.00 1134.00 C 1136.40 1132.32 1133.62 1137.91 1135.00 1146.00 C 1136.38 1154.09 1134.38 1159.49 1135.00 1167.00 C 1135.62 1174.51 1134.72 1180.74 1135.00 1188.00 C 1135.28 1195.26 1134.88 1201.80 1135.00 1209.00 C 1135.12 1216.20 1134.94 1223.85 1135.00 1231.00 C 1135.06 1238.15 1134.97 1244.93 1135.00 1252.00 C 1135.03 1259.07 1134.99 1265.95 1135.00 1273.00 C 1135.01 1280.05 1134.99 1286.94 1135.00 1294.00 C 1135.01 1301.06 1135.00 1307.89 1135.00 1315.00 C 1135.00 1322.11 1134.99 1329.89 1135.00 1337.00 C 1135.01 1344.11 1134.99 1350.95 1135.00 1358.00 C 1135.01 1365.05 1134.98 1371.96 1135.00 1379.00 C 1135.03 1386.04 1134.94 1392.95 1135.00 1400.00 C 1135.06 1407.05 1134.88 1415.02 1135.00 1422.00 C 1135.12 1428.98 1134.73 1436.24 1135.00 1443.00 C 1135.27 1449.76 1134.40 1457.63 1135.00 1464.00 C 1135.60 1470.37 1133.66 1479.44 1135.00 1485.00 C 1136.34 1490.56 1131.40 1501.57 1136.33 1504.67 C 1141.26 1507.77 1151.88 1503.76 1158.00 1505.00 C 1164.12 1506.24 1172.38 1504.44 1179.00 1505.00 C 1185.62 1505.56 1193.13 1504.75 1200.00 1505.00 C 1206.87 1505.25 1213.97 1504.89 1221.00 1505.00 C 1228.03 1505.11 1235.93 1504.95 1243.00 1505.00 C 1250.07 1505.05 1256.95 1504.98 1264.00 1505.00 C 1271.05 1505.02 1277.94 1504.99 1285.00 1505.00 C 1292.06 1505.01 1298.89 1504.99 1306.00 1505.00 C 1313.11 1505.01 1320.89 1504.99 1328.00 1505.00 C 1335.11 1505.01 1341.94 1504.99 1349.00 1505.00 C 1356.06 1505.01 1362.94 1504.99 1370.00 1505.00 C 1377.06 1505.01 1383.91 1504.97 1391.00 1505.00 C 1398.09 1505.03 1404.83 1504.93 1412.00 1505.00 C 1419.17 1505.07 1426.76 1504.85 1434.00 1505.00 C 1441.24 1505.15 1447.63 1504.66 1455.00 1505.00 C 1462.37 1505.34 1468.26 1504.24 1476.00 1505.00 C 1483.74 1505.76 1488.40 1503.32 1497.00 1505.00 C 1505.60 1506.68 1508.38 1501.09 1507.00 1493.00 C 1505.62 1484.91 1507.62 1479.51 1507.00 1472.00 C 1506.38 1464.49 1507.28 1458.26 1507.00 1451.00 C 1506.72 1443.74 1507.12 1437.20 1507.00 1430.00 C 1506.88 1422.80 1507.06 1415.15 1507.00 1408.00 C 1506.94 1400.85 1507.03 1394.07 1507.00 1387.00 C 1506.97 1379.93 1507.01 1373.05 1507.00 1366.00 C 1506.99 1358.95 1507.01 1352.06 1507.00 1345.00 C 1506.99 1337.94 1507.00 1331.11 1507.00 1324.00 C 1507.00 1316.89 1507.00 1309.11 1507.00 1302.00 C 1507.00 1294.89 1507.01 1288.05 1507.00 1281.00 C 1506.99 1273.95 1507.02 1267.04 1507.00 1260.00 C 1506.98 1252.96 1507.05 1246.04 1507.00 1239.00 C 1506.95 1231.96 1507.11 1223.96 1507.00 1217.00 C 1506.89 1210.04 1507.26 1202.72 1507.00 1196.00 C 1506.74 1189.28 1507.58 1181.28 1507.00 1175.00 C 1506.43 1168.72 1508.28 1159.37 1507.00 1154.00 C 1505.72 1148.63 1510.31 1137.05 1506.00 1134.00
M 1289.00 1242.00 
C 1322.63 1244.26 1320.31 1298.51 1285.00 1296.00 C 1249.69 1293.49 1254.43 1239.68 1289.00 1242.00
M 1355.00 1242.00 
C 1389.33 1244.59 1384.02 1300.67 1349.00 1296.00 C 1313.98 1291.34 1321.15 1239.45 1355.00 1242.00
M 1359.00 1308.00 
C 1392.21 1314.88 1379.63 1369.94 1346.00 1361.00 C 1312.36 1352.06 1323.82 1300.71 1359.00 1308.00 Z" data-index="57"></path>
</g>
<g fill="#FFFFFF" fill-opacity="1.00" stroke="None">
<path d="
M 320.00 1242.00 
C 298.11 1238.44 282.34 1260.92 290.08 1279.92 C 297.81 1298.93 323.60 1300.99 336.08 1286.08 C 348.57 1271.18 339.49 1245.17 320.00 1242.00 Z" data-index="58"></path>
</g>
<g fill="#FFFFFF" fill-opacity="1.00" stroke="None">
<path d="
M 1289.00 1242.00 
C 1254.43 1239.68 1249.69 1293.49 1285.00 1296.00 C 1320.31 1298.51 1322.63 1244.26 1289.00 1242.00 Z" data-index="59"></path>
</g>
<g fill="#FFFFFF" fill-opacity="1.00" stroke="None">
<path d="
M 1355.00 1242.00 
C 1321.15 1239.45 1313.98 1291.34 1349.00 1296.00 C 1384.02 1300.67 1389.33 1244.59 1355.00 1242.00 Z" data-index="60"></path>
</g>
<g fill="#FFFFFF" fill-opacity="1.00" stroke="None">
<path d="
M 837.00 1243.00 
C 802.81 1237.45 794.03 1291.43 828.33 1296.67 C 862.63 1301.91 870.34 1248.42 837.00 1243.00 Z" data-index="61"></path>
</g>
<g fill="#FFFFFF" fill-opacity="1.00" stroke="None">
<path d="
M 253.00 1307.00 
C 219.72 1302.24 209.86 1355.83 245.00 1361.00 C 280.14 1366.17 287.60 1311.94 253.00 1307.00 Z" data-index="62"></path>
</g>
<g fill="#FFFFFF" fill-opacity="1.00" stroke="None">
<path d="
M 1359.00 1308.00 
C 1323.82 1300.71 1312.36 1352.06 1346.00 1361.00 C 1379.63 1369.94 1392.21 1314.88 1359.00 1308.00 Z" data-index="63"></path>
</g>
<g fill="#FFFFFF" fill-opacity="1.00" stroke="None">
<path d="
M 254.00 1373.00 
C 232.84 1369.98 216.22 1391.92 224.23 1410.77 C 232.24 1429.62 257.81 1432.20 270.25 1417.25 C 282.68 1402.29 273.90 1375.84 254.00 1373.00 Z" data-index="64"></path>
</g>
<g fill="#FFFFFF" fill-opacity="1.00" stroke="None">
<path d="
M 840.00 1374.00 
C 817.80 1369.40 800.85 1389.81 807.23 1409.77 C 813.61 1429.73 839.79 1431.79 852.75 1418.75 C 865.70 1405.70 858.14 1377.76 840.00 1374.00 Z" data-index="65"></path>
</g>
</svg>