<?xml version="1.0" standalone="no"?>
<!DOCTYPE svg PUBLIC "-//W3C//DTD SVG 20010904//EN"
 "http://www.w3.org/TR/2001/REC-SVG-20010904/DTD/svg10.dtd">
<svg version="1.0" xmlns="http://www.w3.org/2000/svg"
 width="1408.000000pt" height="1408.000000pt" viewBox="0 0 1408.000000 1408.000000"
 preserveAspectRatio="xMidYMid meet">

<g transform="translate(0.000000,1408.000000) scale(0.100000,-0.100000)"
fill="#000000" stroke="none">
<path d="M6176 11680 l-3778 -5 1 -4635 c1 -2549 4 -4636 6 -4638 2 -2 2089
-5 4637 -5 l4633 -2 3 4643 2 4642 -47 2 c-90 4 -1678 3 -5457 -2z m5104
-4640 l0 -4240 -4240 0 -4240 0 0 4240 0 4240 4240 0 4240 0 0 -4240z"/>
<path d="M5487 9953 c-4 -3 -7 -192 -7 -420 l0 -413 423 2 422 3 3 409 c2 321
0 411 -10 418 -16 9 -822 11 -831 1z"/>
<path d="M6637 9953 c-4 -3 -7 -192 -7 -420 l0 -413 425 0 425 0 0 414 0 414
-22 6 c-31 8 -813 8 -821 -1z"/>
<path d="M7770 9540 l0 -420 420 0 420 0 0 414 c0 368 -2 415 -16 420 -9 3
-198 6 -420 6 l-404 0 0 -420z"/>
<path d="M5480 8400 l0 -420 423 2 422 3 0 415 0 415 -422 3 -423 2 0 -420z"/>
<path d="M6630 8400 l0 -420 425 0 425 0 -2 418 -3 417 -422 3 -423 2 0 -420z"/>
<path d="M7770 8400 l0 -420 420 0 420 0 -2 418 -3 417 -417 3 -418 2 0 -420z"/>
<path d="M5888 7672 l-408 -2 0 -415 0 -415 423 2 422 3 3 411 c2 386 1 412
-15 415 -10 2 -201 3 -425 1z"/>
<path d="M8078 7673 l-308 -3 0 -415 0 -415 420 0 420 0 0 414 0 413 -82 6
c-46 4 -96 6 -113 5 -16 -2 -168 -4 -337 -5z"/>
<path d="M6632 7258 l3 -413 423 -3 422 -2 0 415 0 415 -425 0 -425 0 2 -412z"/>
<path d="M4120 5325 l0 -965 195 0 195 0 0 83 c0 45 -5 305 -11 577 -6 272 -9
540 -7 595 l3 99 69 -179 c38 -99 92 -243 121 -320 155 -417 250 -670 283
-755 l37 -95 160 0 160 0 86 235 c179 492 407 1102 414 1109 3 3 2 -136 -1
-309 -4 -173 -8 -477 -8 -675 l-1 -360 193 -3 192 -2 0 965 0 965 -271 -2
-271 -3 -174 -480 c-96 -264 -204 -565 -240 -670 -36 -104 -68 -194 -71 -199
-7 -11 -29 41 -119 294 -98 275 -327 905 -361 993 l-26 67 -274 0 -273 0 0
-965z"/>
<path d="M6550 5325 l0 -965 195 0 c179 0 195 1 196 18 0 9 0 438 0 952 -1
514 -1 941 -1 948 0 9 -46 12 -195 12 l-195 0 0 -965z"/>
<path d="M7286 6274 c-8 -21 -8 -1760 1 -1846 l6 -68 614 0 613 0 -2 168 -3
167 -417 3 -418 2 -1 663 c-1 364 -3 718 -5 787 -2 68 -4 128 -4 132 0 4 -85
8 -189 8 -163 0 -190 -2 -195 -16z"/>
<path d="M8740 5341 c0 -522 3 -956 6 -965 6 -14 72 -16 645 -16 l639 0 -2
168 -3 167 -443 3 -442 2 2 243 3 242 383 3 382 2 0 170 0 170 -385 0 -385 0
0 204 c0 177 2 205 16 210 9 3 207 6 440 6 l424 0 0 170 0 170 -640 0 -640 0
0 -949z"/>
</g>
</svg>
