<?xml version="1.0" standalone="no"?>
<!DOCTYPE svg PUBLIC "-//W3C//DTD SVG 20010904//EN"
 "http://www.w3.org/TR/2001/REC-SVG-20010904/DTD/svg10.dtd">
<svg version="1.0" xmlns="http://www.w3.org/2000/svg"
 width="225.000000pt" height="225.000000pt" viewBox="0 0 225.000000 225.000000"
 preserveAspectRatio="xMidYMid meet">

<g transform="translate(0.000000,225.000000) scale(0.100000,-0.100000)"
fill="#000000" stroke="none">
<path d="M1507 1740 c-94 -24 -176 -90 -224 -182 -25 -48 -28 -63 -28 -153 0
-90 3 -105 28 -153 36 -68 94 -124 165 -159 48 -23 70 -27 142 -27 76 -1 92 3
150 32 l64 33 191 -191 191 -191 29 31 29 30 -187 188 c-103 104 -187 191
-187 195 0 4 12 31 27 60 25 47 28 62 28 152 0 90 -3 105 -28 153 -58 111
-163 180 -283 187 -38 2 -86 0 -107 -5z m210 -86 c56 -27 91 -63 126 -128 17
-32 22 -58 22 -121 0 -70 -4 -87 -29 -133 -53 -95 -137 -145 -248 -145 -150 0
-263 106 -276 259 -17 218 205 365 405 268z"/>
<path d="M144 1606 c-17 -8 -45 -31 -62 -52 -125 -151 66 -362 228 -251 91 61
107 174 37 254 -53 60 -133 79 -203 49z"/>
<path d="M715 1604 c-46 -24 -66 -45 -87 -93 -37 -82 -2 -176 82 -219 152 -79
312 95 225 244 -43 73 -148 106 -220 68z"/>
<path d="M1117 1243 c-4 -3 -7 -28 -7 -54 l0 -48 -52 -3 c-74 -4 -77 -28 -4
-28 l56 0 0 -55 c0 -42 3 -55 15 -55 12 0 15 13 15 55 l0 55 56 0 c73 0 70 24
-4 28 l-52 3 0 55 c0 50 -7 64 -23 47z"/>
<path d="M99 1097 c-52 -35 -69 -78 -69 -177 0 -233 145 -312 540 -297 225 9
331 52 381 154 32 64 33 197 4 257 -42 84 -101 96 -298 57 -56 -11 -115 -22
-131 -24 -16 -3 -92 8 -169 24 -171 35 -213 36 -258 6z"/>
</g>
</svg>
