<svg xmlns="http://www.w3.org/2000/svg" width="1024" height="1024" viewBox="0 0 1024 1024">
<g>
<path d="M 415.00 710.52 C378.34,702.72 347.83,696.28 322.50,690.99 C309.25,688.22 300.40,686.36 249.00,675.49 C237.18,672.99 221.20,669.63 213.50,668.02 C205.80,666.42 193.04,663.75 185.15,662.10 C177.25,660.45 169.72,658.39 168.42,657.54 C160.62,652.43 162.13,640.28 171.00,636.81 C172.38,636.27 188.35,634.32 206.50,632.48 C262.87,626.77 308.13,622.09 317.00,621.05 C321.67,620.51 333.15,619.36 342.50,618.50 C351.85,617.65 362.88,616.51 367.00,615.97 C371.12,615.43 379.00,614.55 384.50,614.01 C390.00,613.47 405.75,611.90 419.50,610.52 C434.54,609.01 450.77,608.01 460.25,608.00 C475.10,608.00 476.00,608.11 476.00,609.91 C476.00,610.97 474.44,626.61 472.54,644.66 C470.63,662.72 468.37,684.25 467.51,692.50 C466.65,700.75 465.72,708.96 465.43,710.75 L 464.91 714.00 L 447.70 713.91 C432.24,713.83 428.93,713.49 415.00,710.52 ZM 519.37 709.25 C519.71,706.64 521.13,693.47 522.53,680.00 C523.92,666.53 526.17,645.24 527.53,632.71 C528.89,620.18 530.00,609.49 530.00,608.96 C530.00,608.36 549.78,608.00 583.00,608.00 C634.14,608.00 636.00,608.07 636.00,609.87 C636.00,610.90 634.90,622.27 633.57,635.12 C632.23,647.98 629.94,669.97 628.49,684.00 C627.03,698.03 625.64,710.51 625.40,711.75 L 624.96 714.00 L 571.85 714.00 L 518.74 714.00 L 519.37 709.25 ZM 668.64 713.22 C668.37,712.79 668.57,708.86 669.07,704.47 C669.93,696.91 677.09,629.15 678.55,614.75 L 679.23 608.00 L 732.21 608.00 L 785.19 608.00 L 784.57 612.75 C784.24,615.36 782.61,630.33 780.97,646.00 C775.65,696.54 773.86,712.42 773.36,713.22 C772.73,714.24 669.27,714.24 668.64,713.22 ZM 817.01 712.25 C817.01,711.29 817.67,704.65 818.47,697.50 C819.90,684.56 822.57,659.10 825.49,630.50 C826.33,622.25 827.28,613.81 827.60,611.75 L 828.18 608.00 L 880.42 608.00 C909.16,608.00 932.89,608.22 933.16,608.49 C933.42,608.76 933.31,611.80 932.90,615.24 C932.49,618.68 930.09,641.30 927.56,665.50 C925.03,689.70 922.74,710.51 922.46,711.75 L 921.96 714.00 L 869.48 714.00 C820.16,714.00 817.00,713.89 817.01,712.25 ZM 445.92 564.59 C445.50,564.18 440.51,563.35 382.00,553.99 C337.28,546.84 329.56,545.60 301.50,541.08 C266.58,535.45 236.44,530.64 216.50,527.49 C207.15,526.01 188.70,523.02 175.50,520.84 C162.30,518.66 144.52,515.81 136.00,514.51 C127.47,513.20 109.25,510.29 95.50,508.05 C81.75,505.80 63.36,502.83 54.63,501.44 C37.25,498.69 33.79,497.43 31.52,493.03 C28.03,486.29 31.21,478.33 38.28,476.13 C40.05,475.58 53.88,474.87 69.00,474.54 C187.13,472.02 198.83,471.65 259.50,468.47 C274.90,467.67 312.02,465.88 342.00,464.51 C371.98,463.13 408.89,461.33 424.04,460.50 C454.68,458.83 492.00,458.50 492.00,459.90 C492.00,460.40 491.34,466.81 490.52,474.15 C488.39,493.46 481.00,563.35 481.00,564.24 C481.00,565.01 446.69,565.35 445.92,564.59 ZM 535.03 562.75 C535.04,561.51 536.16,550.15 537.51,537.50 C538.86,524.85 541.12,503.02 542.53,489.00 C543.94,474.98 545.30,462.49 545.56,461.25 L 546.04 459.00 L 598.52 459.00 L 651.00 459.00 L 651.01 461.25 C651.02,464.15 641.05,559.78 640.43,562.75 L 639.96 565.00 L 587.48 565.00 L 535.00 565.00 L 535.03 562.75 ZM 683.45 561.76 C683.75,559.97 684.92,549.72 686.04,539.00 C691.05,491.33 693.05,472.04 693.65,465.75 L 694.29 459.00 L 747.69 459.00 L 801.09 459.00 L 800.53 462.25 C800.02,465.18 798.11,482.85 793.43,528.00 C792.55,536.53 791.30,548.22 790.66,554.00 L 789.50 564.50 L 736.20 564.76 L 682.91 565.02 L 683.45 561.76 ZM 833.00 562.25 C833.00,560.74 834.61,544.20 836.59,525.50 C838.56,506.80 840.93,484.30 841.85,475.50 L 843.53 459.50 L 896.26 459.24 C938.24,459.04 949.00,459.24 949.00,460.25 C949.00,460.94 948.13,469.83 947.06,480.01 C945.99,490.18 943.75,511.55 942.09,527.50 C940.42,543.45 938.79,558.41 938.47,560.75 L 937.88 565.00 L 885.44 565.00 L 833.00 565.00 L 833.00 562.25 ZM 447.00 414.88 C439.58,414.43 413.92,413.12 390.00,411.97 C366.08,410.83 337.73,409.46 327.00,408.93 C316.27,408.41 284.69,406.89 256.81,405.56 C202.25,402.97 201.38,402.85 196.97,397.24 C193.14,392.36 194.61,384.34 200.12,380.19 C201.01,379.52 223.28,373.56 249.62,366.94 C275.95,360.32 336.88,344.91 385.00,332.70 L 472.50 310.50 L 489.75 310.21 C499.24,310.04 507.00,310.29 507.00,310.76 C507.00,312.02 498.24,394.99 496.92,406.25 L 495.77 416.00 L 478.14 415.85 C468.44,415.77 454.42,415.33 447.00,414.88 ZM 550.00 414.44 C550.00,413.57 550.90,404.46 552.00,394.18 C555.67,360.00 558.99,328.57 559.53,323.00 C559.82,319.98 560.31,315.81 560.62,313.75 L 561.18 310.00 L 613.59 310.00 L 666.00 310.00 L 666.00 312.78 C666.00,314.30 664.39,330.84 662.42,349.53 C660.45,368.21 658.09,390.70 657.17,399.50 L 655.50 415.50 L 602.75 415.76 C555.28,415.99 550.00,415.86 550.00,414.44 ZM 698.72 415.25 C698.50,414.84 700.04,398.52 702.15,379.00 C704.26,359.48 706.78,336.08 707.75,327.00 L 709.51 310.50 L 761.95 310.24 C790.79,310.10 814.69,310.32 815.07,310.74 C815.44,311.16 814.92,319.15 813.91,328.50 C810.48,360.07 805.00,413.01 805.00,414.51 C805.00,415.81 798.30,416.00 752.06,416.00 C722.94,416.00 698.94,415.66 698.72,415.25 ZM 848.00 413.58 C848.00,412.24 849.84,393.68 852.08,372.33 C854.33,350.97 856.69,328.33 857.33,322.00 L 858.50 310.50 L 911.25 310.24 C953.61,310.03 964.00,310.23 964.00,311.26 C964.00,311.97 962.90,323.11 961.55,336.02 C960.21,348.94 957.95,370.75 956.54,384.50 C955.12,398.25 953.73,410.96 953.44,412.75 L 952.91 416.00 L 900.45 416.00 L 848.00 416.00 L 848.00 413.58 Z" fill="rgba(0,0,0,1)"/>
</g>
</svg>