<?xml version="1.0" encoding="UTF-8"?>
<svg version="1.1" xmlns="http://www.w3.org/2000/svg" width="600" height="600">
<path d="M0 0 C1.01102783 0.03786621 2.02205566 0.07573242 3.0637207 0.11474609 C4.1487085 0.16324707 5.23369629 0.21174805 6.3515625 0.26171875 C7.46684326 0.31021973 8.58212402 0.3587207 9.73120117 0.40869141 C32.15023826 1.46299293 50.61798195 4.24455808 70.9765625 13.94921875 C71.935625 14.39523438 72.8946875 14.84125 73.8828125 15.30078125 C78.80609805 17.77928459 82.01435958 20.81798875 85.4765625 25.09765625 C87.02200531 27.0885294 87.02200531 27.0885294 89.2890625 29.13671875 C90.9765625 30.94921875 90.9765625 30.94921875 92.0390625 33.63671875 C92.3484375 34.39984375 92.6578125 35.16296875 92.9765625 35.94921875 C93.9665625 36.27921875 94.9565625 36.60921875 95.9765625 36.94921875 C96.99413419 39.4040727 97.79872635 41.72308975 98.5390625 44.26171875 C98.85133789 45.24881836 98.85133789 45.24881836 99.16992188 46.25585938 C102.55199392 57.41987776 103.32154542 68.59017716 103.6015625 80.19921875 C103.63987239 81.54168835 103.67893091 82.88413681 103.71875 84.2265625 C103.81200917 87.46731851 103.89780714 90.70808341 103.9765625 93.94921875 C103.6465625 93.94921875 103.3165625 93.94921875 102.9765625 93.94921875 C102.90308594 95.23505859 102.90308594 95.23505859 102.828125 96.546875 C102.75335937 97.69027344 102.67859375 98.83367187 102.6015625 100.01171875 C102.53195312 101.13707031 102.46234375 102.26242188 102.390625 103.421875 C101.95759172 107.11082831 100.99987445 110.38313164 99.9765625 113.94921875 C99.49819137 116.75105913 99.16681117 119.56240073 98.8515625 122.38671875 C98.72201172 123.4840332 98.72201172 123.4840332 98.58984375 124.60351562 C98.38027857 126.38481969 98.17768382 128.16694156 97.9765625 129.94921875 C97.3165625 129.94921875 96.6565625 129.94921875 95.9765625 129.94921875 C95.821875 131.80546875 95.821875 131.80546875 95.6640625 133.69921875 C95.12391572 138.64665015 93.96649352 143.34727948 92.6953125 148.15234375 C91.78760322 151.68451684 91.09679968 155.20960856 90.51171875 158.80859375 C90.35574219 159.7625 90.19976562 160.71640625 90.0390625 161.69921875 C89.88566406 162.6634375 89.73226562 163.62765625 89.57421875 164.62109375 C89.37699219 165.389375 89.17976562 166.15765625 88.9765625 166.94921875 C88.3165625 167.27921875 87.6565625 167.60921875 86.9765625 167.94921875 C86.703517 170.0311907 86.44431442 172.11588186 86.25390625 174.20703125 C85.95063677 177.20555487 85.51766751 180.16120543 85.0390625 183.13671875 C84.88566406 184.09964844 84.73226562 185.06257812 84.57421875 186.0546875 C83.9765625 188.94921875 83.9765625 188.94921875 83.0078125 191.84765625 C81.84909464 195.332588 81.11855359 198.78311773 80.4140625 202.38671875 C80.16527344 203.64355469 79.91648437 204.90039062 79.66015625 206.1953125 C78.67325911 211.61478764 77.84076207 216.80732639 77.9765625 222.32421875 C78.01381245 223.86543533 78.02379447 225.40827577 77.9765625 226.94921875 C77.6465625 227.27921875 77.3165625 227.60921875 76.9765625 227.94921875 C76.98882294 230.44728384 77.07514476 232.89573227 77.2265625 235.38671875 C77.27103516 236.13574463 77.31550781 236.88477051 77.36132812 237.65649414 C78.04905672 251.70488649 78.04905672 251.70488649 81.9765625 264.94921875 C82.15517186 266.3412377 82.29611957 267.73825262 82.4140625 269.13671875 C82.70461465 272.00138132 83.11044111 274.41333126 83.9140625 277.19921875 C84.83362367 280.44472876 85.38081813 283.43318115 85.8515625 286.76171875 C86.77699879 293.18753039 88.14824537 299.45914561 89.65576172 305.76879883 C90.54405969 309.57536994 91.21116533 313.00789127 90.9765625 316.94921875 C91.6365625 317.27921875 92.2965625 317.60921875 92.9765625 317.94921875 C93.50390625 320.6171875 93.50390625 320.6171875 93.9140625 324.13671875 C94.52278138 328.89233499 95.28491614 333.47899 96.4140625 338.13671875 C102.57723928 366.12257251 103.35097599 394.45025815 94.9765625 421.94921875 C94.3165625 421.94921875 93.6565625 421.94921875 92.9765625 421.94921875 C92.75355469 422.81546875 92.53054688 423.68171875 92.30078125 424.57421875 C90.78257458 428.44363044 88.62761601 431.00849062 85.7890625 433.94921875 C85.28785889 434.47612305 84.78665527 435.00302734 84.27026367 435.54589844 C82.85039583 437.0246696 81.41401722 438.48753726 79.9765625 439.94921875 C79.409375 440.5525 78.8421875 441.15578125 78.2578125 441.77734375 C67.80998825 451.8917268 51.84761925 456.23110794 37.9765625 458.94921875 C37.07317139 459.13613281 36.16978027 459.32304688 35.23901367 459.515625 C23.65958105 461.5509347 11.95237141 461.2506211 0.23364258 461.20996094 C-3.47656329 461.19917332 -7.18629257 461.20993755 -10.89648438 461.22265625 C-13.27083439 461.22133575 -15.64518412 461.21877563 -18.01953125 461.21484375 C-19.12066757 461.21889221 -20.22180389 461.22294067 -21.35630798 461.22711182 C-26.99361191 461.19278766 -31.69471078 460.80257196 -37.0234375 458.94921875 C-39.69107077 458.49533572 -42.32924333 458.23281814 -45.0234375 457.94921875 C-45.0234375 457.28921875 -45.0234375 456.62921875 -45.0234375 455.94921875 C-45.88001953 455.83707031 -45.88001953 455.83707031 -46.75390625 455.72265625 C-53.57153 454.61709564 -59.18041359 452.19328857 -65.3359375 449.09375 C-66.66625 448.52720703 -66.66625 448.52720703 -68.0234375 447.94921875 C-68.6834375 448.27921875 -69.3434375 448.60921875 -70.0234375 448.94921875 C-70.0234375 447.95921875 -70.0234375 446.96921875 -70.0234375 445.94921875 C-71.0134375 446.27921875 -72.0034375 446.60921875 -73.0234375 446.94921875 C-73.55582031 446.38589844 -74.08820313 445.82257813 -74.63671875 445.2421875 C-77.32404941 442.66041484 -80.2244714 440.47582293 -83.2109375 438.26171875 C-92.30764755 431.35646571 -99.49586322 423.6777737 -106.17578125 414.453125 C-107.93660587 411.93663591 -107.93660587 411.93663591 -110.0234375 409.94921875 C-111.32636963 407.56931343 -112.56841841 405.19054532 -113.7734375 402.76171875 C-114.12543213 402.05499023 -114.47742676 401.34826172 -114.84008789 400.62011719 C-123.14081098 383.69153038 -123.14081098 383.69153038 -125.0234375 374.94921875 C-125.6834375 374.94921875 -126.3434375 374.94921875 -127.0234375 374.94921875 C-127.1471875 373.80839844 -127.2709375 372.66757812 -127.3984375 371.4921875 C-127.9610025 366.99463878 -128.93902472 362.65830533 -130.0234375 358.26171875 C-131.80548268 350.92046742 -133.3010922 343.58144437 -134.5859375 336.13671875 C-134.72451172 335.36779297 -134.86308594 334.59886719 -135.00585938 333.80664062 C-135.86717696 328.77875225 -136.15721655 324.05027223 -136.0234375 318.94921875 C-136.6834375 318.61921875 -137.3434375 318.28921875 -138.0234375 317.94921875 C-138.70703125 303.59375 -138.70703125 303.59375 -138.84133911 300.70753479 C-138.97518274 297.94514541 -139.11773009 295.1838866 -139.2671814 292.42234802 C-139.91535239 280.1373413 -140.1862918 267.89062058 -140.19140625 255.58984375 C-140.19463914 253.70351133 -140.19800451 251.81717913 -140.20149231 249.93084717 C-140.20741788 246.00483624 -140.20933926 242.0788471 -140.20874023 238.15283203 C-140.20865936 234.2051939 -140.21555273 230.25767275 -140.22924805 226.31005859 C-140.32753808 197.53237141 -140.34571017 168.66163442 -136.390625 140.09375 C-136.03093881 137.01345869 -135.95762363 134.04717157 -136.0234375 130.94921875 C-135.3634375 130.94921875 -134.7034375 130.94921875 -134.0234375 130.94921875 C-134.00925781 130.32660156 -133.99507813 129.70398438 -133.98046875 129.0625 C-132.79561884 106.10203015 -124.33244275 82.31753016 -114.0234375 61.94921875 C-113.6934375 61.28921875 -113.3634375 60.62921875 -113.0234375 59.94921875 C-112.4046875 59.20671875 -111.7859375 58.46421875 -111.1484375 57.69921875 C-108.93472401 55.03285707 -108.93472401 55.03285707 -107.5859375 51.94921875 C-105.79978258 48.51980131 -103.82250928 46.62659176 -101.0234375 43.94921875 C-99.66524064 42.39022071 -98.31156733 40.82727701 -96.9609375 39.26171875 C-90.93087236 32.52461079 -83.74323362 24.87703351 -75.0234375 21.94921875 C-75.0234375 21.28921875 -75.0234375 20.62921875 -75.0234375 19.94921875 C-54.1306661 9.38130979 -33.84227791 2.53472195 -10.34375 1.16015625 C-6.67698858 0.8268143 -3.76458028 -0.14421997 0 0 Z " fill="#000000" transform="translate(413.0234375,59.05078125)"/>
<path d="M0 0 C49.5 0 99 0 150 0 C151.64478498 5.75674742 152.13742295 9.07530831 151.63110352 14.70239258 C150.9881182 23.93210598 150.88755905 33.13854632 150.88647461 42.38549805 C150.88607748 43.14107266 150.88568035 43.89664727 150.88527119 44.67511809 C150.88385557 49.52525696 150.89023147 54.37536363 150.89860606 59.22549415 C150.90493332 63.51888349 150.90545071 67.81227383 150.90663147 72.10566711 C150.90971752 80.20467268 150.91789348 88.30366446 150.92798096 96.40266401 C150.93922762 105.63630067 150.94467392 114.86993805 150.94967639 124.10357988 C150.96007893 143.06906102 150.97762458 162.03452939 151 181 C131.75501116 181.02334237 112.51002519 181.04098577 93.26502514 181.05181217 C84.32959203 181.05697228 75.39416771 181.06400956 66.45874023 181.07543945 C58.67220771 181.08539498 50.88568156 181.09185551 43.09914285 181.09408849 C38.97481614 181.09539412 34.85050764 181.09847065 30.72618675 181.10573006 C26.84636326 181.11250395 22.96656552 181.11461415 19.08673668 181.11310768 C17.66088216 181.11338339 16.23502681 181.11538041 14.8091774 181.11920547 C12.86592986 181.12416399 10.92266858 181.12239257 8.97941589 181.12025452 C7.89077838 181.12117631 6.80214087 181.1220981 5.68051434 181.12304783 C3 181 3 181 0 180 C0 120.6 0 61.2 0 0 Z M60 49 C53.34688481 58.64022813 50.83521226 67.26476355 52 79 C54.12216076 86.21052351 59.65879548 92.84898674 65 98 C66.67019463 87.97883222 65.57318673 79.0009728 64 69 C68.54532773 77.48461176 70.4018865 84.35472395 70 94 C73.17136008 91.11694538 74.74653188 88.64023119 75.40625 84.37109375 C75.67374934 76.00059348 73.48804454 70.94529969 69 64 C67.91153667 62.21144524 66.82799298 60.41988487 65.75 58.625 C65.27046875 57.85414063 64.7909375 57.08328125 64.296875 56.2890625 C62.95578603 53.92195968 61.95330883 51.5451547 61 49 C60.67 49 60.34 49 60 49 Z M121.5625 80.8125 C117.58482314 82.84075685 113.5984447 84.12462484 109.296875 85.2890625 C106.98837795 85.93126552 106.98837795 85.93126552 104.94140625 87.0546875 C102.39189146 88.29610114 99.86152459 88.42662832 97.0703125 88.73046875 C88.18127877 89.88772031 79.34423964 93.65576036 73 100 C68.63584144 106.01546179 68 111.67189512 68 119 C71.09706428 117.96764524 72.28942853 116.79420257 74.515625 114.515625 C82.73823275 106.11990972 92.07058049 101.21945574 103 97 C103 97.99 103 98.98 103 100 C101.69869141 100.36544922 101.69869141 100.36544922 100.37109375 100.73828125 C92.26653372 103.7716218 83.18173082 110.95722501 78 118 C78 118.99 78 119.98 78 121 C76.515 121.495 76.515 121.495 75 122 C73.4583949 124.10376936 72.09189113 126.1512947 70.75 128.375 C70.37359375 128.96539062 69.9971875 129.55578125 69.609375 130.1640625 C68.65254382 131.72594869 67.81749573 133.36087978 67 135 C67.33 135.99 67.66 136.98 68 138 C68.391875 137.40832031 68.78375 136.81664062 69.1875 136.20703125 C75.30713511 128.12225469 82.65121426 126.35755923 92 124 C104.01617628 120.74887006 112.52856632 117.39044539 119.49609375 106.65625 C124.63725724 97.57575344 126.2064261 89.32130522 126 79 C124.49974937 78.92226514 124.49974937 78.92226514 121.5625 80.8125 Z M24 86 C25.26736418 96.00550669 26.87765552 104.35444543 35 111 C42.491918 115.85490257 51.36949973 117.31176686 60 119 C57.56637239 111.48398988 50.77608933 105.25980534 43.9375 101.5 C42.968125 101.005 41.99875 100.51 41 100 C40.67 99.34 40.34 98.68 40 98 C48.23134561 101.80352908 55.56639325 105.42653223 62 112 C63.18505118 108.59200967 62.87064938 106.78219308 61.4375 103.5 C59.34478612 99.17978728 57.45684116 97.06335239 53 95 C50.53554492 94.38703502 48.07694764 93.91849623 45.57421875 93.48828125 C38.09208571 92.06906026 31.01254549 88.88407403 24 86 Z M66 138 C67 140 67 140 67 140 Z M65 140 C66 142 66 142 66 142 Z " fill="#000000" transform="translate(104,200)"/>
<path d="M0 0 C0.97931236 -0.00788544 0.97931236 -0.00788544 1.97840881 -0.01593018 C4.12005084 -0.02905055 6.26093931 -0.02042016 8.40258789 -0.01025391 C9.9018213 -0.01227719 11.40105375 -0.01519075 12.90028381 -0.01895142 C16.03648281 -0.02336417 19.17242474 -0.0169787 22.30859375 -0.00292969 C26.31440461 0.01414703 30.3196117 0.00432438 34.32540035 -0.01364708 C37.41993192 -0.02452611 40.51432211 -0.02101954 43.60885811 -0.0132637 C45.08514033 -0.01127229 46.56143568 -0.01368352 48.03770256 -0.02070236 C50.10750828 -0.02838367 52.17635857 -0.01662093 54.24609375 0 C55.42046494 0.00238678 56.59483612 0.00477356 57.80479431 0.00723267 C64.47619817 0.75849344 69.12793452 3.65197336 73.67993164 8.48974609 C79.99306552 16.43840688 79.37414195 26.22603637 79.37304688 35.84521484 C79.37524434 38.01338011 79.39346014 40.18104494 79.41235352 42.34912109 C79.41528587 43.72932769 79.41727172 45.1095367 79.41821289 46.48974609 C79.42232178 47.74094238 79.42643066 48.99213867 79.43066406 50.28125 C79.18774414 53.38818359 79.18774414 53.38818359 77.18774414 56.38818359 C73.49180443 56.80439302 69.91655327 56.51825833 66.18774414 56.38818359 C66.18774414 61.99818359 66.18774414 67.60818359 66.18774414 73.38818359 C68.82774414 73.38818359 71.46774414 73.38818359 74.18774414 73.38818359 C83.57663179 75.08174877 90.57288724 80.70145238 95.93774414 88.38427734 C100.9237501 96.37746814 101.8393722 105.15039754 101.18774414 114.38818359 C100.85774414 115.04818359 100.52774414 115.70818359 100.18774414 116.38818359 C80.77783002 116.41151122 61.36791873 116.4291621 41.95799351 116.43999577 C32.94627477 116.44515901 23.93456472 116.45220226 14.92285156 116.46362305 C7.07114864 116.47356901 -0.78054799 116.48003681 -8.63225704 116.48227209 C-12.79229038 116.48357935 -16.95230571 116.48666614 -21.1123333 116.49391365 C-25.02333998 116.50067248 -28.93432113 116.50280084 -32.8453331 116.50129128 C-34.28492814 116.50156767 -35.72452399 116.5035736 -37.164114 116.50738907 C-39.12119819 116.5123241 -41.0782959 116.51058167 -43.03538513 116.50843811 C-44.13324058 116.5093599 -45.23109602 116.5102817 -46.36221981 116.51123142 C-48.81225586 116.38818359 -48.81225586 116.38818359 -49.81225586 115.38818359 C-50.82391768 104.54184213 -49.03950402 95.58897905 -42.74975586 86.63818359 C-35.06918159 77.43801184 -25.1508239 73.66136714 -13.53491211 72.53662109 C-12.96643555 72.48763672 -12.39795898 72.43865234 -11.81225586 72.38818359 C-11.82385742 71.48455078 -11.83545898 70.58091797 -11.84741211 69.64990234 C-11.85643555 68.47041016 -11.86545898 67.29091797 -11.87475586 66.07568359 C-11.88635742 64.90392578 -11.89795898 63.73216797 -11.90991211 62.52490234 C-11.81225586 59.38818359 -11.81225586 59.38818359 -10.81225586 56.38818359 C-12.09422852 56.40558594 -12.09422852 56.40558594 -13.40209961 56.42333984 C-14.50682617 56.43236328 -15.61155273 56.44138672 -16.74975586 56.45068359 C-17.8519043 56.46228516 -18.95405273 56.47388672 -20.08959961 56.48583984 C-22.81225586 56.38818359 -22.81225586 56.38818359 -23.81225586 55.38818359 C-23.95071154 52.67005989 -24.02545152 49.97924243 -24.05053711 47.25927734 C-24.05860886 46.43621597 -24.0666806 45.6131546 -24.07499695 44.76515198 C-24.08886059 43.0157381 -24.09957249 41.26629691 -24.10742188 39.5168457 C-24.12452973 36.86079038 -24.16838034 34.20601412 -24.21264648 31.55029297 C-24.22278254 29.84913024 -24.23129578 28.14795692 -24.23803711 26.44677734 C-24.2555452 25.66000107 -24.27305328 24.87322479 -24.29109192 24.06260681 C-24.26587227 17.53731563 -22.38266354 12.37525553 -18.10131836 7.39990234 C-17.27760742 6.74441406 -17.27760742 6.74441406 -16.43725586 6.07568359 C-15.89327148 5.62580078 -15.34928711 5.17591797 -14.78881836 4.71240234 C-9.8335073 1.3925398 -5.98589288 0.01217391 0 0 Z " fill="#000000" transform="translate(153.812255859375,65.61181640625)"/>
<path d="M0 0 C49.83 0 99.66 0 151 0 C151 44.76795977 151 44.76795977 139.49609375 56.80078125 C131.18358356 64.12463608 120.99185121 66.31513651 110.20068359 66.25878906 C109.3605925 66.2622937 108.5205014 66.26579834 107.654953 66.26940918 C104.90269491 66.27814805 102.1506978 66.27240632 99.3984375 66.265625 C97.47368318 66.26697365 95.54892919 66.26891585 93.62417603 66.27142334 C89.60130553 66.27436376 85.57852416 66.2701109 81.55566406 66.26074219 C76.40652585 66.24933294 71.25759583 66.25592333 66.10846519 66.26788712 C62.13815752 66.27512184 58.16789904 66.27281063 54.19758987 66.26763153 C52.29902751 66.2663003 50.40046063 66.26792426 48.50190353 66.27259064 C45.8479914 66.27768409 43.19441458 66.26990676 40.54052734 66.25878906 C39.76115311 66.26283752 38.98177887 66.26688599 38.17878723 66.27105713 C33.7227524 66.23657127 30.14912633 65.60402321 26 64 C24.33911955 63.63893903 22.67381019 63.29537827 21 63 C21 62.34 21 61.68 21 61 C20.29875 60.773125 19.5975 60.54625 18.875 60.3125 C12.33170706 57.32534453 8.97592946 52.74300922 5 47 C4.34 46.67 3.68 46.34 3 46 C0 35 0 35 0 0 Z " fill="#000000" transform="translate(104,449)"/>
<path d="M0 0 C1.64678317 0.00138269 1.64678317 0.00138269 3.32683468 0.00279331 C4.5819183 0.00141865 5.83700191 0.00004398 7.13011837 -0.00137234 C8.53382039 0.00216727 9.93752217 0.00580209 11.34122372 0.00952244 C12.80933283 0.0098043 14.27744208 0.00964659 15.74555111 0.00907993 C19.74331052 0.00879193 23.74104019 0.01468909 27.73879266 0.02165389 C31.91217128 0.02788698 36.08555051 0.02849119 40.25893307 0.0296793 C48.16729187 0.03279275 56.07563692 0.04100632 63.98398966 0.05102879 C72.98504889 0.0621895 81.98610877 0.06770027 90.9871732 0.07272422 C109.50811126 0.08318892 128.0290365 0.10078862 146.54996395 0.12304783 C147.92448917 4.71318331 148.78142095 8.44293767 148.5616827 13.24023533 C148.51463192 14.3410947 148.46758114 15.44195408 148.41910458 16.57617283 C148.32919247 18.27000095 148.32919247 18.27000095 148.23746395 19.99804783 C148.18912411 21.1504697 148.14078426 22.30289158 148.09097958 23.49023533 C147.69564751 31.97736427 147.69564751 31.97736427 146.54996395 33.12304783 C144.61368095 33.21967756 142.67382133 33.24491927 140.73512936 33.24330235 C139.47163158 33.24467701 138.20813381 33.24605167 136.90634823 33.24746799 C135.49320102 33.24392838 134.08005405 33.24029357 132.66690731 33.23657322 C131.18894611 33.23629136 129.71098476 33.23644907 128.23302364 33.23701572 C124.20840567 33.23730373 120.18381724 33.23140653 116.15920615 33.22444177 C111.9578003 33.21820871 107.75639385 33.21760447 103.55498409 33.21641636 C95.59350138 33.2133029 87.63203233 33.20508932 79.67055565 33.19506687 C70.60903806 33.18390619 61.54751983 33.1783954 52.48599708 33.17337143 C33.84064495 33.16290671 15.19530555 33.14530699 -3.45003605 33.12304783 C-3.47468997 28.58407078 -3.49287394 24.0451324 -3.50496769 19.50610447 C-3.51000745 17.96085017 -3.51683924 16.41560066 -3.5254755 14.87036228 C-3.53755681 12.65379754 -3.54326778 10.43729564 -3.5476923 8.22070408 C-3.55285358 7.52590443 -3.55801487 6.83110477 -3.56333256 6.11525059 C-3.56352882 4.45075453 -3.51192734 2.78639284 -3.45003605 1.12304783 C-2.45003605 0.12304783 -2.45003605 0.12304783 0 0 Z " fill="#000000" transform="translate(107.45003604888916,397.8769521713257)"/>
<path d="M0 0 C16.83 0 33.66 0 51 0 C51 0.33 51 0.66 51 1 C34.17 1 17.34 1 0 1 C0 0.67 0 0.34 0 0 Z " fill="#060607" transform="translate(158,64)"/>
<path d="M0 0 C3 1 3 1 3 1 Z " fill="#010101" transform="translate(515,436)"/>
<path d="M0 0 C3 1 3 1 3 1 Z " fill="#010101" transform="translate(272,382)"/>
<path d="M0 0 C0.66 0.66 1.32 1.32 2 2 C1.34 2 0.68 2 0 2 C0 1.34 0 0.68 0 0 Z " fill="#010101" transform="translate(516,105)"/>
<path d="" fill="#060606" transform="translate(0,0)"/>
<path d="" fill="#080808" transform="translate(0,0)"/>
<path d="M0 0 C2 1 2 1 2 1 Z " fill="#020202" transform="translate(288,443)"/>
<path d="M0 0 C2 1 2 1 2 1 Z " fill="#030303" transform="translate(193,321)"/>
<path d="M0 0 C2 1 2 1 2 1 Z " fill="#020202" transform="translate(494,320)"/>
<path d="" fill="#050505" transform="translate(0,0)"/>
<path d="M0 0 C2 1 2 1 2 1 Z " fill="#010101" transform="translate(494,275)"/>
<path d="" fill="#020201" transform="translate(0,0)"/>
<path d="" fill="#010101" transform="translate(0,0)"/>
<path d="M0 0 C2 1 2 1 2 1 Z " fill="#010101" transform="translate(272,190)"/>
<path d="" fill="#010101" transform="translate(0,0)"/>
<path d="" fill="#020202" transform="translate(0,0)"/>
<path d="M0 0 C2 1 2 1 2 1 Z " fill="#020202" transform="translate(289,130)"/>
<path d="M0 0 C2 1 2 1 2 1 Z " fill="#040404" transform="translate(344,73)"/>
<path d="M0 0 C2 1 2 1 2 1 Z " fill="#070708" transform="translate(155,64)"/>
<path d="" fill="#080808" transform="translate(0,0)"/>
<path d="" fill="#010101" transform="translate(0,0)"/>
<path d="" fill="#010101" transform="translate(0,0)"/>
<path d="" fill="#010101" transform="translate(0,0)"/>
<path d="" fill="#020202" transform="translate(0,0)"/>
<path d="" fill="#010101" transform="translate(0,0)"/>
<path d="" fill="#010101" transform="translate(0,0)"/>
<path d="" fill="#010101" transform="translate(0,0)"/>
<path d="" fill="#010101" transform="translate(0,0)"/>
<path d="" fill="#050505" transform="translate(0,0)"/>
<path d="" fill="#040404" transform="translate(0,0)"/>
<path d="" fill="#010101" transform="translate(0,0)"/>
<path d="" fill="#020202" transform="translate(0,0)"/>
<path d="" fill="#050505" transform="translate(0,0)"/>
<path d="" fill="#010101" transform="translate(0,0)"/>
<path d="" fill="#010101" transform="translate(0,0)"/>
<path d="" fill="#070707" transform="translate(0,0)"/>
<path d="" fill="#030303" transform="translate(0,0)"/>
<path d="" fill="#030303" transform="translate(0,0)"/>
<path d="" fill="#010101" transform="translate(0,0)"/>
<path d="" fill="#020202" transform="translate(0,0)"/>
<path d="" fill="#010101" transform="translate(0,0)"/>
<path d="" fill="#020202" transform="translate(0,0)"/>
<path d="" fill="#030303" transform="translate(0,0)"/>
<path d="" fill="#020202" transform="translate(0,0)"/>
<path d="" fill="#000000" transform="translate(0,0)"/>
<path d="" fill="#020202" transform="translate(0,0)"/>
<path d="" fill="#020202" transform="translate(0,0)"/>
<path d="" fill="#020201" transform="translate(0,0)"/>
<path d="" fill="#010101" transform="translate(0,0)"/>
<path d="" fill="#000000" transform="translate(0,0)"/>
<path d="" fill="#000000" transform="translate(0,0)"/>
<path d="" fill="#020202" transform="translate(0,0)"/>
<path d="" fill="#000000" transform="translate(0,0)"/>
<path d="" fill="#010101" transform="translate(0,0)"/>
<path d="" fill="#010101" transform="translate(0,0)"/>
<path d="" fill="#010101" transform="translate(0,0)"/>
<path d="" fill="#080807" transform="translate(0,0)"/>
<path d="" fill="#010101" transform="translate(0,0)"/>
<path d="" fill="#040404" transform="translate(0,0)"/>
<path d="" fill="#020202" transform="translate(0,0)"/>
<path d="" fill="#010101" transform="translate(0,0)"/>
<path d="" fill="#040404" transform="translate(0,0)"/>
<path d="" fill="#020202" transform="translate(0,0)"/>
<path d="" fill="#010101" transform="translate(0,0)"/>
<path d="" fill="#080808" transform="translate(0,0)"/>
<path d="" fill="#010101" transform="translate(0,0)"/>
<path d="" fill="#010101" transform="translate(0,0)"/>
<path d="" fill="#010101" transform="translate(0,0)"/>
<path d="" fill="#020202" transform="translate(0,0)"/>
<path d="" fill="#020202" transform="translate(0,0)"/>
<path d="" fill="#010101" transform="translate(0,0)"/>
<path d="" fill="#020202" transform="translate(0,0)"/>
<path d="" fill="#020202" transform="translate(0,0)"/>
<path d="" fill="#030303" transform="translate(0,0)"/>
<path d="" fill="#020202" transform="translate(0,0)"/>
<path d="" fill="#020202" transform="translate(0,0)"/>
<path d="" fill="#010101" transform="translate(0,0)"/>
<path d="" fill="#010101" transform="translate(0,0)"/>
<path d="" fill="#020202" transform="translate(0,0)"/>
<path d="" fill="#010101" transform="translate(0,0)"/>
<path d="" fill="#010101" transform="translate(0,0)"/>
<path d="" fill="#020202" transform="translate(0,0)"/>
<path d="" fill="#010101" transform="translate(0,0)"/>
<path d="" fill="#070707" transform="translate(0,0)"/>
<path d="" fill="#010101" transform="translate(0,0)"/>
<path d="" fill="#030303" transform="translate(0,0)"/>
<path d="" fill="#010101" transform="translate(0,0)"/>
<path d="" fill="#010101" transform="translate(0,0)"/>
<path d="" fill="#000000" transform="translate(0,0)"/>
<path d="" fill="#010101" transform="translate(0,0)"/>
<path d="" fill="#020202" transform="translate(0,0)"/>
<path d="" fill="#010101" transform="translate(0,0)"/>
<path d="" fill="#020202" transform="translate(0,0)"/>
<path d="" fill="#080808" transform="translate(0,0)"/>
<path d="" fill="#030303" transform="translate(0,0)"/>
<path d="" fill="#020202" transform="translate(0,0)"/>
<path d="" fill="#070707" transform="translate(0,0)"/>
<path d="" fill="#020202" transform="translate(0,0)"/>
<path d="" fill="#060606" transform="translate(0,0)"/>
<path d="" fill="#030303" transform="translate(0,0)"/>
<path d="" fill="#020202" transform="translate(0,0)"/>
<path d="" fill="#030303" transform="translate(0,0)"/>
<path d="" fill="#030303" transform="translate(0,0)"/>
<path d="" fill="#030303" transform="translate(0,0)"/>
<path d="" fill="#020202" transform="translate(0,0)"/>
<path d="" fill="#010101" transform="translate(0,0)"/>
<path d="" fill="#030303" transform="translate(0,0)"/>
<path d="" fill="#010101" transform="translate(0,0)"/>
<path d="" fill="#020202" transform="translate(0,0)"/>
<path d="" fill="#030303" transform="translate(0,0)"/>
<path d="" fill="#010101" transform="translate(0,0)"/>
<path d="" fill="#030303" transform="translate(0,0)"/>
<path d="" fill="#020202" transform="translate(0,0)"/>
<path d="" fill="#020202" transform="translate(0,0)"/>
<path d="" fill="#020202" transform="translate(0,0)"/>
<path d="" fill="#030303" transform="translate(0,0)"/>
<path d="" fill="#030303" transform="translate(0,0)"/>
<path d="" fill="#0C0C0C" transform="translate(0,0)"/>
<path d="" fill="#050505" transform="translate(0,0)"/>
<path d="" fill="#010101" transform="translate(0,0)"/>
<path d="" fill="#010101" transform="translate(0,0)"/>
<path d="" fill="#020202" transform="translate(0,0)"/>
<path d="" fill="#060606" transform="translate(0,0)"/>
<path d="" fill="#010101" transform="translate(0,0)"/>
<path d="" fill="#060606" transform="translate(0,0)"/>
<path d="" fill="#050505" transform="translate(0,0)"/>
<path d="" fill="#010101" transform="translate(0,0)"/>
<path d="" fill="#020202" transform="translate(0,0)"/>
<path d="" fill="#030303" transform="translate(0,0)"/>
<path d="" fill="#060606" transform="translate(0,0)"/>
<path d="" fill="#030303" transform="translate(0,0)"/>
<path d="" fill="#010101" transform="translate(0,0)"/>
<path d="" fill="#020202" transform="translate(0,0)"/>
<path d="" fill="#020202" transform="translate(0,0)"/>
<path d="" fill="#010101" transform="translate(0,0)"/>
<path d="" fill="#010101" transform="translate(0,0)"/>
<path d="" fill="#070707" transform="translate(0,0)"/>
<path d="" fill="#010101" transform="translate(0,0)"/>
<path d="" fill="#030303" transform="translate(0,0)"/>
<path d="" fill="#080808" transform="translate(0,0)"/>
<path d="" fill="#040404" transform="translate(0,0)"/>
<path d="" fill="#010101" transform="translate(0,0)"/>
<path d="" fill="#040404" transform="translate(0,0)"/>
<path d="" fill="#030303" transform="translate(0,0)"/>
<path d="" fill="#030303" transform="translate(0,0)"/>
<path d="" fill="#020202" transform="translate(0,0)"/>
<path d="" fill="#030303" transform="translate(0,0)"/>
<path d="" fill="#020202" transform="translate(0,0)"/>
<path d="" fill="#030303" transform="translate(0,0)"/>
<path d="" fill="#060606" transform="translate(0,0)"/>
<path d="" fill="#030303" transform="translate(0,0)"/>
<path d="" fill="#030303" transform="translate(0,0)"/>
<path d="" fill="#070707" transform="translate(0,0)"/>
<path d="" fill="#010101" transform="translate(0,0)"/>
<path d="" fill="#010101" transform="translate(0,0)"/>
<path d="" fill="#010101" transform="translate(0,0)"/>
<path d="" fill="#010101" transform="translate(0,0)"/>
<path d="" fill="#040404" transform="translate(0,0)"/>
<path d="" fill="#020202" transform="translate(0,0)"/>
<path d="" fill="#010101" transform="translate(0,0)"/>
<path d="" fill="#010101" transform="translate(0,0)"/>
<path d="" fill="#010101" transform="translate(0,0)"/>
<path d="" fill="#010101" transform="translate(0,0)"/>
<path d="" fill="#010101" transform="translate(0,0)"/>
<path d="" fill="#080808" transform="translate(0,0)"/>
<path d="" fill="#030302" transform="translate(0,0)"/>
<path d="" fill="#010100" transform="translate(0,0)"/>
<path d="" fill="#010101" transform="translate(0,0)"/>
<path d="" fill="#040404" transform="translate(0,0)"/>
<path d="" fill="#010201" transform="translate(0,0)"/>
<path d="" fill="#030303" transform="translate(0,0)"/>
<path d="" fill="#030303" transform="translate(0,0)"/>
<path d="" fill="#020202" transform="translate(0,0)"/>
<path d="" fill="#020202" transform="translate(0,0)"/>
<path d="" fill="#010101" transform="translate(0,0)"/>
<path d="" fill="#020202" transform="translate(0,0)"/>
<path d="" fill="#020202" transform="translate(0,0)"/>
<path d="" fill="#020202" transform="translate(0,0)"/>
<path d="" fill="#020202" transform="translate(0,0)"/>
<path d="" fill="#010101" transform="translate(0,0)"/>
<path d="" fill="#050505" transform="translate(0,0)"/>
<path d="" fill="#070707" transform="translate(0,0)"/>
<path d="" fill="#020202" transform="translate(0,0)"/>
<path d="" fill="#020202" transform="translate(0,0)"/>
<path d="" fill="#020202" transform="translate(0,0)"/>
<path d="" fill="#020202" transform="translate(0,0)"/>
<path d="" fill="#020202" transform="translate(0,0)"/>
<path d="" fill="#010101" transform="translate(0,0)"/>
<path d="" fill="#010101" transform="translate(0,0)"/>
<path d="" fill="#080808" transform="translate(0,0)"/>
<path d="" fill="#010101" transform="translate(0,0)"/>
<path d="" fill="#010101" transform="translate(0,0)"/>
<path d="" fill="#010101" transform="translate(0,0)"/>
<path d="" fill="#040404" transform="translate(0,0)"/>
<path d="" fill="#010101" transform="translate(0,0)"/>
<path d="" fill="#040404" transform="translate(0,0)"/>
<path d="" fill="#040404" transform="translate(0,0)"/>
<path d="" fill="#010101" transform="translate(0,0)"/>
<path d="" fill="#010101" transform="translate(0,0)"/>
<path d="" fill="#010101" transform="translate(0,0)"/>
<path d="" fill="#010101" transform="translate(0,0)"/>
<path d="" fill="#010101" transform="translate(0,0)"/>
<path d="" fill="#000000" transform="translate(0,0)"/>
<path d="" fill="#040405" transform="translate(0,0)"/>
<path d="" fill="#030303" transform="translate(0,0)"/>
<path d="" fill="#020202" transform="translate(0,0)"/>
<path d="" fill="#010101" transform="translate(0,0)"/>
<path d="" fill="#010101" transform="translate(0,0)"/>
<path d="" fill="#010101" transform="translate(0,0)"/>
<path d="" fill="#010101" transform="translate(0,0)"/>
<path d="" fill="#010101" transform="translate(0,0)"/>
<path d="" fill="#010101" transform="translate(0,0)"/>
<path d="" fill="#010101" transform="translate(0,0)"/>
<path d="" fill="#010101" transform="translate(0,0)"/>
<path d="" fill="#010101" transform="translate(0,0)"/>
<path d="" fill="#010101" transform="translate(0,0)"/>
<path d="" fill="#010101" transform="translate(0,0)"/>
<path d="" fill="#020202" transform="translate(0,0)"/>
<path d="" fill="#010101" transform="translate(0,0)"/>
<path d="" fill="#030303" transform="translate(0,0)"/>
<path d="" fill="#020202" transform="translate(0,0)"/>
<path d="" fill="#080809" transform="translate(0,0)"/>
<path d="" fill="#020202" transform="translate(0,0)"/>
<path d="" fill="#020202" transform="translate(0,0)"/>
<path d="" fill="#060606" transform="translate(0,0)"/>
<path d="" fill="#080808" transform="translate(0,0)"/>
<path d="" fill="#010101" transform="translate(0,0)"/>
<path d="" fill="#010101" transform="translate(0,0)"/>
<path d="" fill="#010100" transform="translate(0,0)"/>
<path d="" fill="#010101" transform="translate(0,0)"/>
<path d="" fill="#010101" transform="translate(0,0)"/>
<path d="" fill="#010101" transform="translate(0,0)"/>
</svg>
