<?xml version="1.0" standalone="no"?>
<!DOCTYPE svg PUBLIC "-//W3C//DTD SVG 20010904//EN"
 "http://www.w3.org/TR/2001/REC-SVG-20010904/DTD/svg10.dtd">
<svg version="1.0" xmlns="http://www.w3.org/2000/svg"
 width="500.000000pt" height="500.000000pt" viewBox="0 0 500.000000 500.000000"
 preserveAspectRatio="xMidYMid meet">

<g transform="translate(0.000000,500.000000) scale(0.100000,-0.100000)"
fill="#000000" stroke="none">
<path d="M1470 4290 l0 -280 280 0 280 0 0 280 0 280 -280 0 -280 0 0 -280z"/>
<path d="M2895 4556 c-298 -58 -449 -264 -496 -676 -17 -144 -17 -605 0 -755
44 -404 187 -613 456 -670 39 -8 120 -15 180 -15 234 0 365 60 427 195 20 44
23 65 23 170 -1 104 -7 152 -49 350 -26 127 -50 269 -53 316 -6 92 5 158 73
447 44 184 55 340 31 423 -29 99 -112 172 -232 206 -73 20 -275 25 -360 9z"/>
<path d="M1474 3781 c-2 -2 -4 -130 -4 -283 l0 -279 278 3 277 3 0 278 0 278
-273 2 c-151 1 -276 0 -278 -2z"/>
<path d="M1470 2720 l0 -280 280 0 280 0 0 280 0 280 -280 0 -280 0 0 -280z"/>
<path d="M737 2395 c-96 -33 -151 -147 -126 -253 11 -44 37 -72 348 -386 493
-496 649 -641 730 -680 l66 -31 890 0 c686 0 900 -3 932 -13 23 -7 66 -29 97
-50 88 -60 441 -357 566 -477 63 -61 124 -118 135 -127 20 -16 20 -15 19 355
0 268 -4 382 -13 409 -9 29 -102 124 -408 420 -518 501 -584 563 -635 590
l-43 23 -685 0 -685 0 -41 -22 c-151 -80 -152 -289 -4 -373 l45 -25 528 -3
527 -3 0 -39 0 -40 -642 0 -643 0 -285 266 c-459 428 -487 452 -528 464 -50
13 -99 12 -145 -5z"/>
</g>
</svg>
