<?xml version="1.0" standalone="no"?>
<!DOCTYPE svg PUBLIC "-//W3C//DTD SVG 20010904//EN"
 "http://www.w3.org/TR/2001/REC-SVG-20010904/DTD/svg10.dtd">
<svg version="1.0" xmlns="http://www.w3.org/2000/svg"
 width="500.000000pt" height="500.000000pt" viewBox="0 0 500.000000 500.000000"
 preserveAspectRatio="xMidYMid meet">

<g transform="translate(0.000000,500.000000) scale(0.100000,-0.100000)"
fill="#000000" stroke="none">
<path d="M870 3500 l0 -160 155 0 155 0 0 160 0 160 -155 0 -155 0 0 -160z"/>
<path d="M1310 3500 l0 -160 155 0 155 0 0 160 0 160 -155 0 -155 0 0 -160z"/>
<path d="M1750 3500 l0 -160 155 0 155 0 0 160 0 160 -155 0 -155 0 0 -160z"/>
<path d="M2940 3500 l0 -160 155 0 155 0 0 160 0 160 -155 0 -155 0 0 -160z"/>
<path d="M3380 3500 l0 -160 155 0 155 0 0 160 0 160 -155 0 -155 0 0 -160z"/>
<path d="M3820 3500 l0 -160 155 0 155 0 0 160 0 160 -155 0 -155 0 0 -160z"/>
<path d="M870 3060 l0 -160 155 0 155 0 0 160 0 160 -155 0 -155 0 0 -160z"/>
<path d="M1310 3060 l0 -160 155 0 155 0 0 160 0 160 -155 0 -155 0 0 -160z"/>
<path d="M1750 3060 l0 -160 155 0 155 0 0 160 0 160 -155 0 -155 0 0 -160z"/>
<path d="M2940 3060 l0 -160 155 0 155 0 0 160 0 160 -155 0 -155 0 0 -160z"/>
<path d="M3380 3060 l0 -160 155 0 155 0 0 160 0 160 -155 0 -155 0 0 -160z"/>
<path d="M3820 3060 l0 -160 155 0 155 0 0 160 0 160 -155 0 -155 0 0 -160z"/>
<path d="M870 2620 l0 -160 155 0 155 0 0 160 0 160 -155 0 -155 0 0 -160z"/>
<path d="M1310 2620 l0 -160 155 0 155 0 0 160 0 160 -155 0 -155 0 0 -160z"/>
<path d="M1742 2623 l3 -158 155 0 155 0 3 158 3 157 -161 0 -161 0 3 -157z"/>
<path d="M2942 2623 l3 -158 155 0 155 0 3 158 3 157 -161 0 -161 0 3 -157z"/>
<path d="M3380 2620 l0 -160 155 0 155 0 0 160 0 160 -155 0 -155 0 0 -160z"/>
<path d="M3820 2620 l0 -160 155 0 155 0 0 160 0 160 -155 0 -155 0 0 -160z"/>
<path d="M2295 2441 c-11 -5 -117 -99 -235 -210 l-215 -201 -360 3 -360 2 -3
22 -3 22 310 3 309 3 26 24 c39 37 52 88 33 133 -31 73 -27 73 -439 76 -246 2
-381 -1 -409 -8 -34 -9 -87 -57 -322 -283 -163 -159 -283 -283 -287 -297 -4
-14 -5 -114 -2 -222 l5 -198 69 63 c137 124 314 269 353 290 40 21 44 22 536
18 490 -3 497 -3 545 18 38 17 109 82 321 293 150 149 277 284 284 300 15 37
-1 95 -35 127 -26 25 -89 36 -121 22z"/>
<path d="M2614 2440 c-55 -22 -87 -106 -61 -156 9 -16 136 -149 284 -296 208
-207 279 -272 317 -289 48 -21 55 -21 545 -18 492 4 496 3 536 -18 39 -21 216
-166 353 -290 l69 -63 5 198 c3 108 2 208 -2 222 -4 14 -124 138 -287 297
-235 226 -288 274 -322 283 -28 7 -163 10 -409 8 -412 -3 -408 -3 -439 -76
-19 -45 -6 -96 33 -133 l26 -24 309 -3 310 -3 -3 -22 -3 -22 -360 -2 -360 -3
-215 201 c-118 111 -225 205 -238 210 -28 11 -60 11 -88 -1z"/>
</g>
</svg>
