<?xml version="1.0" standalone="no"?>
<!DOCTYPE svg PUBLIC "-//W3C//DTD SVG 20010904//EN"
 "http://www.w3.org/TR/2001/REC-SVG-20010904/DTD/svg10.dtd">
<svg version="1.0" xmlns="http://www.w3.org/2000/svg"
 width="500.000000pt" height="500.000000pt" viewBox="0 0 500.000000 500.000000"
 preserveAspectRatio="xMidYMid meet">

<g transform="translate(0.000000,500.000000) scale(0.100000,-0.100000)"
fill="#000000" stroke="none">
<path d="M2470 4579 c-15 -27 -5 -66 20 -79 13 -7 20 -21 20 -40 l0 -30 140 0
140 0 0 29 c0 18 8 34 22 43 25 17 30 74 7 89 -8 5 -87 9 -176 9 -155 0 -163
-1 -173 -21z"/>
<path d="M1470 4290 l0 -280 280 0 280 0 0 280 0 280 -280 0 -280 0 0 -280z"/>
<path d="M2420 4380 c-49 -25 -126 -110 -153 -167 -20 -45 -22 -66 -25 -290
l-3 -243 411 0 412 0 -4 238 c-3 231 -4 238 -29 292 -32 69 -80 125 -138 162
l-45 28 -195 0 c-172 -1 -200 -3 -231 -20z"/>
<path d="M1474 3775 c-3 -6 -3 -132 -2 -280 l3 -270 275 0 275 0 0 278 0 278
-274 2 c-177 1 -275 -2 -277 -8z"/>
<path d="M2240 3400 l0 -250 410 0 410 0 0 250 0 250 -410 0 -410 0 0 -250z
m451 74 c22 -47 42 -105 46 -129 5 -40 2 -47 -25 -74 -60 -61 -152 -26 -152
58 0 34 74 231 87 231 3 0 22 -39 44 -86z"/>
<path d="M2244 3115 c-3 -6 -3 -150 -2 -320 l3 -310 405 2 405 1 0 318 0 318
-404 1 c-263 0 -405 -4 -407 -10z"/>
<path d="M1470 2720 l0 -280 280 0 280 0 0 280 0 280 -280 0 -280 0 0 -280z"/>
<path d="M2266 2429 c21 -41 60 -77 103 -95 52 -22 520 -20 564 2 41 21 85 62
103 97 l15 27 -401 0 -401 0 17 -31z"/>
<path d="M735 2395 c-90 -32 -148 -147 -125 -248 12 -50 24 -64 349 -391 494
-497 649 -641 730 -680 l66 -31 890 0 c685 0 900 -3 932 -13 23 -7 66 -29 97
-50 88 -60 441 -357 566 -477 63 -61 124 -118 135 -127 20 -16 20 -15 19 355
0 268 -4 382 -13 409 -9 29 -102 124 -408 420 -509 493 -583 562 -635 590
l-43 23 -685 0 -685 0 -41 -22 c-151 -80 -152 -289 -4 -373 l45 -25 528 -3
527 -3 0 -39 0 -40 -642 0 -643 0 -285 266 c-459 428 -487 452 -528 464 -50
14 -99 12 -147 -5z"/>
</g>
</svg>
