<svg width="500" height="500" viewBox="0 0 500 500" xmlns="http://www.w3.org/2000/svg">
  <polygon points="100.00,145.00 100.06,144.22 100.24,143.45 100.54,142.73 100.95,142.06 101.46,141.46 102.06,140.95 102.73,140.54 103.45,140.24 104.22,140.06 105.00,140.00 165.00,140.00 165.78,140.06 166.55,140.24 167.27,140.54 167.94,140.95 168.54,141.46 169.05,142.06 169.46,142.73 169.76,143.45 169.94,144.22 170.00,145.00 170.00,205.00 169.94,205.78 169.76,206.55 169.46,207.27 169.05,207.94 168.54,208.54 167.94,209.05 167.27,209.46 166.55,209.76 165.78,209.94 165.00,210.00 105.00,210.00 104.22,209.94 103.45,209.76 102.73,209.46 102.06,209.05 101.46,208.54 100.95,207.94 100.54,207.27 100.24,206.55 100.06,205.78 100.00,205.00" fill="black" />
  <polygon points="176.00,145.00 176.06,144.22 176.24,143.45 176.54,142.73 176.95,142.06 177.46,141.46 178.06,140.95 178.73,140.54 179.45,140.24 180.22,140.06 181.00,140.00 241.00,140.00 241.78,140.06 242.55,140.24 243.27,140.54 243.94,140.95 244.54,141.46 245.05,142.06 245.46,142.73 245.76,143.45 245.94,144.22 246.00,145.00 246.00,205.00 245.94,205.78 245.76,206.55 245.46,207.27 245.05,207.94 244.54,208.54 243.94,209.05 243.27,209.46 242.55,209.76 241.78,209.94 241.00,210.00 181.00,210.00 180.22,209.94 179.45,209.76 178.73,209.46 178.06,209.05 177.46,208.54 176.95,207.94 176.54,207.27 176.24,206.55 176.06,205.78 176.00,205.00" fill="black" />
  <polygon points="252.00,145.00 252.06,144.22 252.24,143.45 252.54,142.73 252.95,142.06 253.46,141.46 254.06,140.95 254.73,140.54 255.45,140.24 256.22,140.06 257.00,140.00 317.00,140.00 317.78,140.06 318.55,140.24 319.27,140.54 319.94,140.95 320.54,141.46 321.05,142.06 321.46,142.73 321.76,143.45 321.94,144.22 322.00,145.00 322.00,205.00 321.94,205.78 321.76,206.55 321.46,207.27 321.05,207.94 320.54,208.54 319.94,209.05 319.27,209.46 318.55,209.76 317.78,209.94 317.00,210.00 257.00,210.00 256.22,209.94 255.45,209.76 254.73,209.46 254.06,209.05 253.46,208.54 252.95,207.94 252.54,207.27 252.24,206.55 252.06,205.78 252.00,205.00" fill="black" />
  <polygon points="100.00,221.00 100.06,220.22 100.24,219.45 100.54,218.73 100.95,218.06 101.46,217.46 102.06,216.95 102.73,216.54 103.45,216.24 104.22,216.06 105.00,216.00 165.00,216.00 165.78,216.06 166.55,216.24 167.27,216.54 167.94,216.95 168.54,217.46 169.05,218.06 169.46,218.73 169.76,219.45 169.94,220.22 170.00,221.00 170.00,281.00 169.94,281.78 169.76,282.55 169.46,283.27 169.05,283.94 168.54,284.54 167.94,285.05 167.27,285.46 166.55,285.76 165.78,285.94 165.00,286.00 105.00,286.00 104.22,285.94 103.45,285.76 102.73,285.46 102.06,285.05 101.46,284.54 100.95,283.94 100.54,283.27 100.24,282.55 100.06,281.78 100.00,281.00" fill="black" />
  <polygon points="176.00,221.00 176.06,220.22 176.24,219.45 176.54,218.73 176.95,218.06 177.46,217.46 178.06,216.95 178.73,216.54 179.45,216.24 180.22,216.06 181.00,216.00 241.00,216.00 241.78,216.06 242.55,216.24 243.27,216.54 243.94,216.95 244.54,217.46 245.05,218.06 245.46,218.73 245.76,219.45 245.94,220.22 246.00,221.00 246.00,281.00 245.94,281.78 245.76,282.55 245.46,283.27 245.05,283.94 244.54,284.54 243.94,285.05 243.27,285.46 242.55,285.76 241.78,285.94 241.00,286.00 181.00,286.00 180.22,285.94 179.45,285.76 178.73,285.46 178.06,285.05 177.46,284.54 176.95,283.94 176.54,283.27 176.24,282.55 176.06,281.78 176.00,281.00" fill="black" />
  <polygon points="252.00,221.00 252.06,220.22 252.24,219.45 252.54,218.73 252.95,218.06 253.46,217.46 254.06,216.95 254.73,216.54 255.45,216.24 256.22,216.06 257.00,216.00 317.00,216.00 317.78,216.06 318.55,216.24 319.27,216.54 319.94,216.95 320.54,217.46 321.05,218.06 321.46,218.73 321.76,219.45 321.94,220.22 322.00,221.00 322.00,281.00 321.94,281.78 321.76,282.55 321.46,283.27 321.05,283.94 320.54,284.54 319.94,285.05 319.27,285.46 318.55,285.76 317.78,285.94 317.00,286.00 257.00,286.00 256.22,285.94 255.45,285.76 254.73,285.46 254.06,285.05 253.46,284.54 252.95,283.94 252.54,283.27 252.24,282.55 252.06,281.78 252.00,281.00" fill="black" />
  <polygon points="100.00,297.00 100.06,296.22 100.24,295.45 100.54,294.73 100.95,294.06 101.46,293.46 102.06,292.95 102.73,292.54 103.45,292.24 104.22,292.06 105.00,292.00 165.00,292.00 165.78,292.06 166.55,292.24 167.27,292.54 167.94,292.95 168.54,293.46 169.05,294.06 169.46,294.73 169.76,295.45 169.94,296.22 170.00,297.00 170.00,357.00 169.94,357.78 169.76,358.55 169.46,359.27 169.05,359.94 168.54,360.54 167.94,361.05 167.27,361.46 166.55,361.76 165.78,361.94 165.00,362.00 105.00,362.00 104.22,361.94 103.45,361.76 102.73,361.46 102.06,361.05 101.46,360.54 100.95,359.94 100.54,359.27 100.24,358.55 100.06,357.78 100.00,357.00" fill="black" />
  <polygon points="176.00,297.00 176.06,296.22 176.24,295.45 176.54,294.73 176.95,294.06 177.46,293.46 178.06,292.95 178.73,292.54 179.45,292.24 180.22,292.06 181.00,292.00 241.00,292.00 241.78,292.06 242.55,292.24 243.27,292.54 243.94,292.95 244.54,293.46 245.05,294.06 245.46,294.73 245.76,295.45 245.94,296.22 246.00,297.00 246.00,357.00 245.94,357.78 245.76,358.55 245.46,359.27 245.05,359.94 244.54,360.54 243.94,361.05 243.27,361.46 242.55,361.76 241.78,361.94 241.00,362.00 181.00,362.00 180.22,361.94 179.45,361.76 178.73,361.46 178.06,361.05 177.46,360.54 176.95,359.94 176.54,359.27 176.24,358.55 176.06,357.78 176.00,357.00" fill="black" />
  <polygon points="252.00,297.00 252.06,296.22 252.24,295.45 252.54,294.73 252.95,294.06 253.46,293.46 254.06,292.95 254.73,292.54 255.45,292.24 256.22,292.06 257.00,292.00 317.00,292.00 317.78,292.06 318.55,292.24 319.27,292.54 319.94,292.95 320.54,293.46 321.05,294.06 321.46,294.73 321.76,295.45 321.94,296.22 322.00,297.00 322.00,357.00 321.94,357.78 321.76,358.55 321.46,359.27 321.05,359.94 320.54,360.54 319.94,361.05 319.27,361.46 318.55,361.76 317.78,361.94 317.00,362.00 257.00,362.00 256.22,361.94 255.45,361.76 254.73,361.46 254.06,361.05 253.46,360.54 252.95,359.94 252.54,359.27 252.24,358.55 252.06,357.78 252.00,357.00" fill="black" />
  <polygon points="100.00,373.00 100.06,372.22 100.24,371.45 100.54,370.73 100.95,370.06 101.46,369.46 102.06,368.95 102.73,368.54 103.45,368.24 104.22,368.06 105.00,368.00 165.00,368.00 165.78,368.06 166.55,368.24 167.27,368.54 167.94,368.95 168.54,369.46 169.05,370.06 169.46,370.73 169.76,371.45 169.94,372.22 170.00,373.00 170.00,433.00 169.94,433.78 169.76,434.55 169.46,435.27 169.05,435.94 168.54,436.54 167.94,437.05 167.27,437.46 166.55,437.76 165.78,437.94 165.00,438.00 105.00,438.00 104.22,437.94 103.45,437.76 102.73,437.46 102.06,437.05 101.46,436.54 100.95,435.94 100.54,435.27 100.24,434.55 100.06,433.78 100.00,433.00" fill="black" />
  <polygon points="176.00,373.00 176.06,372.22 176.24,371.45 176.54,370.73 176.95,370.06 177.46,369.46 178.06,368.95 178.73,368.54 179.45,368.24 180.22,368.06 181.00,368.00 241.00,368.00 241.78,368.06 242.55,368.24 243.27,368.54 243.94,368.95 244.54,369.46 245.05,370.06 245.46,370.73 245.76,371.45 245.94,372.22 246.00,373.00 246.00,433.00 245.94,433.78 245.76,434.55 245.46,435.27 245.05,435.94 244.54,436.54 243.94,437.05 243.27,437.46 242.55,437.76 241.78,437.94 241.00,438.00 181.00,438.00 180.22,437.94 179.45,437.76 178.73,437.46 178.06,437.05 177.46,436.54 176.95,435.94 176.54,435.27 176.24,434.55 176.06,433.78 176.00,433.00" fill="black" />
  <polygon points="252.00,373.00 252.06,372.22 252.24,371.45 252.54,370.73 252.95,370.06 253.46,369.46 254.06,368.95 254.73,368.54 255.45,368.24 256.22,368.06 257.00,368.00 317.00,368.00 317.78,368.06 318.55,368.24 319.27,368.54 319.94,368.95 320.54,369.46 321.05,370.06 321.46,370.73 321.76,371.45 321.94,372.22 322.00,373.00 322.00,433.00 321.94,433.78 321.76,434.55 321.46,435.27 321.05,435.94 320.54,436.54 319.94,437.05 319.27,437.46 318.55,437.76 317.78,437.94 317.00,438.00 257.00,438.00 256.22,437.94 255.45,437.76 254.73,437.46 254.06,437.05 253.46,436.54 252.95,435.94 252.54,435.27 252.24,434.55 252.06,433.78 252.00,433.00" fill="black" />
  <polygon points="105.00,134.00 103.34,133.86 102.37,133.43 102.07,132.73 102.46,131.74 103.54,130.46 116.46,117.54 117.94,116.26 119.53,115.27 121.23,114.57 123.06,114.14 125.00,114.00 185.00,114.00 186.66,114.14 187.63,114.57 187.93,115.27 187.54,116.26 186.46,117.54 173.54,130.46 172.06,131.74 170.47,132.73 168.77,133.43 166.94,133.86 165.00,134.00" fill="black" />
  <polygon points="181.00,134.00 179.34,133.86 178.37,133.43 178.07,132.73 178.46,131.74 179.54,130.46 192.46,117.54 193.94,116.26 195.53,115.27 197.23,114.57 199.06,114.14 201.00,114.00 261.00,114.00 262.66,114.14 263.63,114.57 263.93,115.27 263.54,116.26 262.46,117.54 249.54,130.46 248.06,131.74 246.47,132.73 244.77,133.43 242.94,133.86 241.00,134.00" fill="black" />
  <polygon points="257.00,134.00 255.34,133.86 254.37,133.43 254.07,132.73 254.46,131.74 255.54,130.46 268.46,117.54 269.94,116.26 271.53,115.27 273.23,114.57 275.06,114.14 277.00,114.00 337.00,114.00 338.66,114.14 339.63,114.57 339.93,115.27 339.54,116.26 338.46,117.54 325.54,130.46 324.06,131.74 322.47,132.73 320.77,133.43 318.94,133.86 317.00,134.00" fill="black" />
  <polygon points="131.00,108.00 129.34,107.86 128.37,107.43 128.07,106.73 128.46,105.74 129.54,104.46 142.46,91.54 143.94,90.26 145.53,89.27 147.23,88.57 149.06,88.14 151.00,88.00 211.00,88.00 212.66,88.14 213.63,88.57 213.93,89.27 213.54,90.26 212.46,91.54 199.54,104.46 198.06,105.74 196.47,106.73 194.77,107.43 192.94,107.86 191.00,108.00" fill="black" />
  <polygon points="207.00,108.00 205.34,107.86 204.37,107.43 204.07,106.73 204.46,105.74 205.54,104.46 218.46,91.54 219.94,90.26 221.53,89.27 223.23,88.57 225.06,88.14 227.00,88.00 287.00,88.00 288.66,88.14 289.63,88.57 289.93,89.27 289.54,90.26 288.46,91.54 275.54,104.46 274.06,105.74 272.47,106.73 270.77,107.43 268.94,107.86 267.00,108.00" fill="black" />
  <polygon points="283.00,108.00 281.34,107.86 280.37,107.43 280.07,106.73 280.46,105.74 281.54,104.46 294.46,91.54 295.94,90.26 297.53,89.27 299.23,88.57 301.06,88.14 303.00,88.00 363.00,88.00 364.66,88.14 365.63,88.57 365.93,89.27 365.54,90.26 364.46,91.54 351.54,104.46 350.06,105.74 348.47,106.73 346.77,107.43 344.94,107.86 343.00,108.00" fill="black" />
  <polygon points="157.00,82.00 155.34,81.86 154.37,81.43 154.07,80.73 154.46,79.74 155.54,78.46 168.46,65.54 169.94,64.26 171.53,63.27 173.23,62.57 175.06,62.14 177.00,62.00 237.00,62.00 238.66,62.14 239.63,62.57 239.93,63.27 239.54,64.26 238.46,65.54 225.54,78.46 224.06,79.74 222.47,80.73 220.77,81.43 218.94,81.86 217.00,82.00" fill="black" />
  <polygon points="233.00,82.00 231.34,81.86 230.37,81.43 230.07,80.73 230.46,79.74 231.54,78.46 244.46,65.54 245.94,64.26 247.53,63.27 249.23,62.57 251.06,62.14 253.00,62.00 313.00,62.00 314.66,62.14 315.63,62.57 315.93,63.27 315.54,64.26 314.46,65.54 301.54,78.46 300.06,79.74 298.47,80.73 296.77,81.43 294.94,81.86 293.00,82.00" fill="black" />
  <polygon points="309.00,82.00 307.34,81.86 306.37,81.43 306.07,80.73 306.46,79.74 307.54,78.46 320.46,65.54 321.94,64.26 323.53,63.27 325.23,62.57 327.06,62.14 329.00,62.00 389.00,62.00 390.66,62.14 391.63,62.57 391.93,63.27 391.54,64.26 390.46,65.54 377.54,78.46 376.06,79.74 374.47,80.73 372.77,81.43 370.94,81.86 369.00,82.00" fill="black" />
  <polygon points="328.00,143.00 328.14,141.06 328.57,139.23 329.27,137.53 330.26,135.94 331.54,134.46 344.46,121.54 345.74,120.46 346.73,120.07 347.43,120.37 347.86,121.34 348.00,123.00 348.00,183.00 347.86,184.94 347.43,186.77 346.73,188.47 345.74,190.06 344.46,191.54 331.54,204.46 330.26,205.54 329.27,205.93 328.57,205.63 328.14,204.66 328.00,203.00" fill="black" />
  <polygon points="328.00,219.00 328.14,217.06 328.57,215.23 329.27,213.53 330.26,211.94 331.54,210.46 344.46,197.54 345.74,196.46 346.73,196.07 347.43,196.37 347.86,197.34 348.00,199.00 348.00,259.00 347.86,260.94 347.43,262.77 346.73,264.47 345.74,266.06 344.46,267.54 331.54,280.46 330.26,281.54 329.27,281.93 328.57,281.63 328.14,280.66 328.00,279.00" fill="black" />
  <polygon points="328.00,295.00 328.14,293.06 328.57,291.23 329.27,289.53 330.26,287.94 331.54,286.46 344.46,273.54 345.74,272.46 346.73,272.07 347.43,272.37 347.86,273.34 348.00,275.00 348.00,335.00 347.86,336.94 347.43,338.77 346.73,340.47 345.74,342.06 344.46,343.54 331.54,356.46 330.26,357.54 329.27,357.93 328.57,357.63 328.14,356.66 328.00,355.00" fill="black" />
  <polygon points="328.00,371.00 328.14,369.06 328.57,367.23 329.27,365.53 330.26,363.94 331.54,362.46 344.46,349.54 345.74,348.46 346.73,348.07 347.43,348.37 347.86,349.34 348.00,351.00 348.00,411.00 347.86,412.94 347.43,414.77 346.73,416.47 345.74,418.06 344.46,419.54 331.54,432.46 330.26,433.54 329.27,433.93 328.57,433.63 328.14,432.66 328.00,431.00" fill="black" />
  <polygon points="354.00,117.00 354.14,115.06 354.57,113.23 355.27,111.53 356.26,109.94 357.54,108.46 370.46,95.54 371.74,94.46 372.73,94.07 373.43,94.37 373.86,95.34 374.00,97.00 374.00,157.00 373.86,158.94 373.43,160.77 372.73,162.47 371.74,164.06 370.46,165.54 357.54,178.46 356.26,179.54 355.27,179.93 354.57,179.63 354.14,178.66 354.00,177.00" fill="black" />
  <polygon points="354.00,193.00 354.14,191.06 354.57,189.23 355.27,187.53 356.26,185.94 357.54,184.46 370.46,171.54 371.74,170.46 372.73,170.07 373.43,170.37 373.86,171.34 374.00,173.00 374.00,233.00 373.86,234.94 373.43,236.77 372.73,238.47 371.74,240.06 370.46,241.54 357.54,254.46 356.26,255.54 355.27,255.93 354.57,255.63 354.14,254.66 354.00,253.00" fill="black" />
  <polygon points="354.00,269.00 354.14,267.06 354.57,265.23 355.27,263.53 356.26,261.94 357.54,260.46 370.46,247.54 371.74,246.46 372.73,246.07 373.43,246.37 373.86,247.34 374.00,249.00 374.00,309.00 373.86,310.94 373.43,312.77 372.73,314.47 371.74,316.06 370.46,317.54 357.54,330.46 356.26,331.54 355.27,331.93 354.57,331.63 354.14,330.66 354.00,329.00" fill="black" />
  <polygon points="354.00,345.00 354.14,343.06 354.57,341.23 355.27,339.53 356.26,337.94 357.54,336.46 370.46,323.54 371.74,322.46 372.73,322.07 373.43,322.37 373.86,323.34 374.00,325.00 374.00,385.00 373.86,386.94 373.43,388.77 372.73,390.47 371.74,392.06 370.46,393.54 357.54,406.46 356.26,407.54 355.27,407.93 354.57,407.63 354.14,406.66 354.00,405.00" fill="black" />
  <polygon points="380.00,91.00 380.14,89.06 380.57,87.23 381.27,85.53 382.26,83.94 383.54,82.46 396.46,69.54 397.74,68.46 398.73,68.07 399.43,68.37 399.86,69.34 400.00,71.00 400.00,131.00 399.86,132.94 399.43,134.77 398.73,136.47 397.74,138.06 396.46,139.54 383.54,152.46 382.26,153.54 381.27,153.93 380.57,153.63 380.14,152.66 380.00,151.00" fill="black" />
  <polygon points="380.00,167.00 380.14,165.06 380.57,163.23 381.27,161.53 382.26,159.94 383.54,158.46 396.46,145.54 397.74,144.46 398.73,144.07 399.43,144.37 399.86,145.34 400.00,147.00 400.00,207.00 399.86,208.94 399.43,210.77 398.73,212.47 397.74,214.06 396.46,215.54 383.54,228.46 382.26,229.54 381.27,229.93 380.57,229.63 380.14,228.66 380.00,227.00" fill="black" />
  <polygon points="380.00,243.00 380.14,241.06 380.57,239.23 381.27,237.53 382.26,235.94 383.54,234.46 396.46,221.54 397.74,220.46 398.73,220.07 399.43,220.37 399.86,221.34 400.00,223.00 400.00,283.00 399.86,284.94 399.43,286.77 398.73,288.47 397.74,290.06 396.46,291.54 383.54,304.46 382.26,305.54 381.27,305.93 380.57,305.63 380.14,304.66 380.00,303.00" fill="black" />
  <polygon points="380.00,319.00 380.14,317.06 380.57,315.23 381.27,313.53 382.26,311.94 383.54,310.46 396.46,297.54 397.74,296.46 398.73,296.07 399.43,296.37 399.86,297.34 400.00,299.00 400.00,359.00 399.86,360.94 399.43,362.77 398.73,364.47 397.74,366.06 396.46,367.54 383.54,380.46 382.26,381.54 381.27,381.93 380.57,381.63 380.14,380.66 380.00,379.00" fill="black" />
</svg>