<?xml version="1.0" standalone="no"?>
<!DOCTYPE svg PUBLIC "-//W3C//DTD SVG 20010904//EN"
 "http://www.w3.org/TR/2001/REC-SVG-20010904/DTD/svg10.dtd">
<svg version="1.0" xmlns="http://www.w3.org/2000/svg"
 width="1181.000000pt" height="1181.000000pt" viewBox="0 0 1181.000000 1181.000000"
 preserveAspectRatio="xMidYMid meet">

<g transform="translate(0.000000,1181.000000) scale(0.100000,-0.100000)"
fill="#000000" stroke="none">
<path d="M1582 10781 c1 -5 291 -302 643 -660 l640 -650 1300 -1 1300 0 -145
148 c-80 81 -308 311 -506 512 -197 201 -423 430 -501 510 l-142 145 -1297 3
c-788 1 -1294 -1 -1292 -7z"/>
<path d="M4630 10779 c0 -15 1268 -1299 1283 -1299 5 0 198 192 430 428 232
235 519 526 638 647 120 120 215 223 213 227 -8 13 -2564 10 -2564 -3z"/>
<path d="M7688 10782 c-9 -4 -305 -299 -657 -657 l-640 -650 1296 -3 1296 -2
465 472 c256 260 546 554 644 653 98 100 178 184 178 188 0 9 -2559 8 -2582
-1z"/>
<path d="M1271 9800 l-1 -715 627 -627 c346 -346 631 -628 635 -628 5 0 8 316
8 703 l0 702 -634 640 -635 640 0 -715z"/>
<path d="M9901 9873 l-631 -638 0 -703 c0 -455 3 -702 10 -700 5 2 291 284
635 628 l625 624 0 713 c0 392 -2 713 -4 713 -2 0 -288 -287 -635 -637z"/>
<path d="M3126 9058 c21 -24 310 -319 644 -656 l605 -612 400 402 c220 222
512 517 650 656 l249 252 -1293 0 -1293 0 38 -42z"/>
<path d="M6221 9033 c34 -38 324 -332 643 -655 l581 -588 178 178 c98 97 390
392 649 655 l470 477 -1292 0 -1292 0 63 -67z"/>
<path d="M5266 8216 c-356 -360 -646 -660 -644 -665 3 -9 1277 -1303 1288
-1309 3 -1 80 73 171 165 91 93 382 388 647 658 l483 489 -119 121 c-65 66
-295 300 -513 520 -217 220 -455 462 -530 538 l-135 139 -648 -656z"/>
<path d="M8323 8213 l-632 -638 -1 -703 c0 -409 4 -702 9 -700 5 2 291 282
635 623 l626 621 -2 718 -3 718 -632 -639z"/>
<path d="M2831 8100 l-1 -715 629 -629 c372 -372 633 -626 640 -622 8 5 11
201 11 699 l0 693 -639 644 -640 645 0 -715z"/>
<path d="M1270 7966 l0 -714 627 -621 c344 -341 630 -621 635 -621 4 0 8 315
8 701 l0 701 -627 634 c-344 349 -630 634 -635 634 -4 0 -8 -321 -8 -714z"/>
<path d="M9897 8046 l-627 -634 0 -701 c0 -386 4 -701 8 -701 5 0 291 280 635
621 l627 621 0 714 c0 393 -4 714 -8 714 -5 0 -291 -285 -635 -634z"/>
<path d="M6752 6521 l-632 -639 0 -695 c0 -427 4 -698 9 -702 6 -3 294 276
640 621 l631 627 0 713 c0 393 -4 714 -8 714 -5 0 -293 -288 -640 -639z"/>
<path d="M4400 6417 l0 -714 624 -621 c344 -342 630 -622 635 -622 8 0 11 213
11 701 l0 701 -627 634 c-344 349 -630 634 -635 634 -4 0 -8 -321 -8 -713z"/>
<path d="M2830 6386 l0 -713 631 -627 c346 -345 634 -624 640 -621 5 4 9 275
9 701 l0 696 -632 639 c-347 351 -635 639 -640 639 -4 0 -8 -321 -8 -714z"/>
<path d="M8323 6465 l-633 -638 0 -704 c0 -667 1 -703 18 -694 9 5 295 288
635 628 l617 618 -2 714 -3 714 -632 -638z"/>
<path d="M1270 6273 l0 -708 625 -625 c343 -344 629 -626 635 -628 7 -3 10
218 10 694 l0 698 -158 161 c-86 88 -355 361 -596 607 -241 245 -456 461 -477
478 l-39 31 0 -708z"/>
<path d="M10216 6667 c-171 -172 -454 -460 -628 -639 l-318 -325 0 -697 c0
-530 3 -696 12 -696 6 0 292 280 635 623 l623 622 0 713 c0 391 -3 712 -7 712
-4 0 -147 -141 -317 -313z"/>
<path d="M2830 4721 l0 -709 625 -624 c344 -342 632 -624 640 -626 13 -3 15
89 15 693 l0 697 -632 639 c-347 351 -635 639 -640 639 -4 0 -8 -319 -8 -709z"/>
<path d="M4400 4720 l0 -715 623 -623 c342 -342 628 -622 635 -622 9 0 12 147
12 698 l0 697 -507 515 c-280 283 -565 571 -635 640 l-128 124 0 -714z"/>
<path d="M6752 4791 l-632 -639 0 -695 c0 -409 4 -698 9 -701 5 -4 293 276
640 620 l631 626 0 714 c0 393 -4 714 -8 714 -5 0 -293 -288 -640 -639z"/>
<path d="M8323 4795 l-633 -638 0 -704 c0 -667 1 -703 18 -694 9 5 295 288
635 628 l617 618 -2 714 -3 714 -632 -638z"/>
<path d="M4400 3002 l0 -707 628 -628 c345 -345 631 -625 635 -621 4 4 7 320
7 703 l0 696 -626 633 c-344 347 -630 632 -635 632 -5 0 -9 -295 -9 -708z"/>
<path d="M6904 3233 c-258 -263 -540 -550 -626 -638 l-158 -161 0 -691 c0
-416 4 -694 9 -698 5 -3 293 277 640 621 l631 626 0 709 c0 601 -2 709 -14
709 -8 0 -225 -215 -482 -477z"/>
</g>
</svg>
