<?xml version="1.0" standalone="no"?>
<!DOCTYPE svg PUBLIC "-//W3C//DTD SVG 20010904//EN"
 "http://www.w3.org/TR/2001/REC-SVG-20010904/DTD/svg10.dtd">
<svg version="1.0" xmlns="http://www.w3.org/2000/svg"
 width="600.000000pt" height="600.000000pt" viewBox="0 0 600.000000 600.000000"
 preserveAspectRatio="xMidYMid meet">

<g transform="translate(0.000000,600.000000) scale(0.100000,-0.100000)"
fill="#000000" stroke="none">
<path d="M1740 5045 l0 -245 240 0 240 0 0 245 0 245 -240 0 -240 0 0 -245z"/>
<path d="M2420 5045 l0 -245 240 0 240 0 0 245 0 245 -240 0 -240 0 0 -245z"/>
<path d="M3100 5040 l0 -240 240 0 240 0 0 240 0 240 -240 0 -240 0 0 -240z"/>
<path d="M3770 5040 l0 -240 245 0 245 0 0 240 0 240 -245 0 -245 0 0 -240z"/>
<path d="M1740 4355 l0 -245 240 0 240 0 0 245 0 245 -240 0 -240 0 0 -245z"/>
<path d="M2420 4355 l0 -245 240 0 240 0 0 245 0 245 -240 0 -240 0 0 -245z"/>
<path d="M3100 4350 l0 -240 240 0 240 0 0 240 0 240 -240 0 -240 0 0 -240z"/>
<path d="M3770 4350 l0 -240 245 0 245 0 0 240 0 240 -245 0 -245 0 0 -240z"/>
<path d="M1740 3660 l0 -240 240 0 240 0 0 240 0 240 -240 0 -240 0 0 -240z"/>
<path d="M2420 3660 l0 -240 240 0 240 0 0 240 0 240 -240 0 -240 0 0 -240z"/>
<path d="M3100 3660 l0 -240 240 0 240 0 0 240 0 240 -240 0 -240 0 0 -240z"/>
<path d="M3770 3660 l0 -240 245 0 245 0 0 240 0 240 -245 0 -245 0 0 -240z"/>
<path d="M1740 2970 l0 -240 240 0 240 0 0 240 0 240 -240 0 -240 0 0 -240z"/>
<path d="M2420 2970 l0 -240 240 0 240 0 0 240 0 240 -240 0 -240 0 0 -240z"/>
<path d="M3100 2970 l0 -240 240 0 240 0 0 240 0 240 -240 0 -240 0 0 -240z"/>
<path d="M3770 2970 l0 -240 245 0 245 0 0 240 0 240 -245 0 -245 0 0 -240z"/>
<path d="M887 2876 c-132 -48 -202 -219 -140 -346 16 -32 146 -168 450 -470
615 -612 720 -711 789 -749 118 -64 94 -62 814 -62 360 1 819 4 1020 7 481 8
487 7 682 -148 219 -174 479 -398 615 -530 78 -76 146 -138 150 -138 4 0 8
204 7 452 0 440 -1 454 -21 493 -13 24 -123 139 -274 285 -140 135 -391 378
-559 540 -338 327 -369 354 -440 381 -48 18 -89 19 -843 19 -898 0 -865 3
-941 -74 -46 -46 -76 -115 -76 -176 0 -91 63 -190 148 -232 l47 -23 633 -3
633 -3 -3 -47 -3 -47 -767 -3 -767 -2 -63 57 c-114 105 -641 596 -742 691
-115 110 -174 142 -256 141 -30 0 -72 -6 -93 -13z"/>
</g>
</svg>
