<?xml version="1.0" standalone="no"?>
<!DOCTYPE svg PUBLIC "-//W3C//DTD SVG 20010904//EN"
 "http://www.w3.org/TR/2001/REC-SVG-20010904/DTD/svg10.dtd">
<svg version="1.0" xmlns="http://www.w3.org/2000/svg"
 width="750.000000pt" height="750.000000pt" viewBox="0 0 750.000000 750.000000"
 preserveAspectRatio="xMidYMid meet">

<g transform="translate(0.000000,750.000000) scale(0.100000,-0.100000)"
fill="#000000" stroke="none">
<path d="M1590 5220 l0 -750 653 2 652 3 0 745 0 745 -652 3 -653 2 0 -750z"/>
<path d="M3232 5223 l3 -748 370 0 370 0 3 748 2 747 -375 0 -375 0 2 -747z"/>
<path d="M4310 5220 l0 -750 373 2 372 3 0 745 0 745 -372 3 -373 2 0 -750z"/>
<path d="M5390 5220 l0 -750 280 0 280 0 0 750 0 750 -280 0 -280 0 0 -750z"/>
<path d="M1590 3765 l0 -375 653 2 652 3 0 370 0 370 -652 3 -653 2 0 -375z"/>
<path d="M3230 3765 l0 -375 375 0 375 0 -2 373 -3 372 -372 3 -373 2 0 -375z"/>
<path d="M4310 3765 l0 -375 375 0 375 0 -2 373 -3 372 -372 3 -373 2 0 -375z"/>
<path d="M5390 3765 l0 -375 280 0 280 0 0 375 0 375 -280 0 -280 0 0 -375z"/>
<path d="M1597 3053 c-4 -3 -7 -172 -7 -375 l0 -368 655 0 655 0 -2 373 -3
372 -646 3 c-355 1 -649 -1 -652 -5z"/>
<path d="M3230 2685 l0 -375 375 0 375 0 -2 373 -3 372 -372 3 -373 2 0 -375z"/>
<path d="M4317 3053 c-4 -3 -7 -172 -7 -375 l0 -368 375 0 375 0 -2 373 -3
372 -366 3 c-201 1 -368 -1 -372 -5z"/>
<path d="M5397 3053 c-4 -3 -7 -172 -7 -375 l0 -368 280 0 280 0 -2 373 -3
372 -271 3 c-149 1 -273 -1 -277 -5z"/>
<path d="M1557 1973 c-4 -3 -7 -105 -7 -225 l0 -218 675 0 675 0 -2 223 -3
222 -666 3 c-366 1 -669 -1 -672 -5z"/>
<path d="M3237 1973 c-4 -3 -7 -105 -7 -225 l0 -218 375 0 375 0 -2 223 -3
222 -366 3 c-201 1 -368 -1 -372 -5z"/>
<path d="M4317 1973 c-4 -3 -7 -105 -7 -225 l0 -218 375 0 375 0 -2 223 -3
222 -366 3 c-201 1 -368 -1 -372 -5z"/>
<path d="M5397 1973 c-4 -3 -7 -105 -7 -225 l0 -218 280 0 280 0 -2 223 -3
222 -271 3 c-149 1 -273 -1 -277 -5z"/>
</g>
</svg>
