<svg width="500" height="500" xmlns="http://www.w3.org/2000/svg" enable-background="new 0 0 500 500">

 <g>
  <title>Layer 1</title>
  <path id="svg_1" fill-rule="evenodd" d="m298.473,332.997c0,-2.802 0,-5.242 0,-8.212c-14.722,0 -29.174,0.015 -43.626,-0.003c-19.157,-0.023 -38.316,0.072 -57.472,-0.166c-10.302,-0.129 -18.292,-7.216 -20.328,-17.286c-1.853,-9.163 3.034,-19.079 12.012,-22.986c3.381,-1.472 7.402,-2.037 11.135,-2.051c40.813,-0.139 81.629,0.009 122.443,-0.161c9.123,-0.038 15.375,4.223 21.629,10.393c25.26,24.919 50.955,49.397 76.488,74.041c3.596,3.471 6.904,7.313 10.838,10.345c6.215,4.787 8.258,10.58 8.043,18.449c-0.553,20.143 -0.186,40.312 -0.184,60.47l0,8.481c-9.523,-9.161 -17.688,-17.688 -26.564,-25.398c-13.682,-11.885 -27.795,-23.277 -41.836,-34.744c-8.523,-6.962 -18.785,-9.397 -29.422,-9.31c-23.133,0.192 -46.261,1.237 -69.394,1.434c-28.321,0.242 -56.652,-0.366 -84.968,0.079c-12.632,0.199 -23.001,-4.502 -31.481,-12.761c-29.835,-29.058 -59.207,-58.59 -88.763,-87.933c-6.604,-6.557 -8.228,-14.462 -5.22,-22.947c2.912,-8.216 9.268,-12.885 18.003,-13.75c6.879,-0.682 12.596,2 17.604,6.694c19.688,18.456 39.46,36.825 59.202,55.224c3.777,3.521 7.468,7.144 11.396,10.486c1.268,1.08 3.166,2.005 4.778,2.009c41.318,0.085 82.636,0.04 123.953,0.002c0.472,0 0.942,-0.21 1.734,-0.399z" clip-rule="evenodd"/>
  <g>
   <path d="m131.35402,43.37053l40.97469,0l0,40.25069l-40.97469,0l0,-40.25069z"/>
   <path d="m188.62752,43.37105l40.97522,0l0,40.25121l-40.97522,0l0,-40.25121z"/>
   <path d="m131.35402,100.68846l40.97469,0l0,40.25018l-40.97469,0l0,-40.25018z"/>
   <path d="m188.62752,100.68898l40.97522,0l0,40.25069l-40.97522,0l0,-40.25069z"/>
   <path d="m246.08684,43.54375l40.97469,0l0,40.25069l-40.97469,0l0,-40.25069z"/>
   <path stroke-miterlimit="10" d="m303.36033,43.54427l40.97574,0l0,40.25121l-40.97574,0l0,-40.25121z"/>
   <path d="m246.08684,100.8617l40.97469,0l0,40.25018l-40.97469,0l0,-40.25018z"/>
   <path d="m303.36033,100.8622l40.97574,0l0,40.25069l-40.97574,0l0,-40.25069z"/>
   <path d="m131.35402,158.17964l40.97469,0l0,40.25172l-40.97469,0l0,-40.25172z"/>
   <path d="m188.62752,158.17964l40.97522,0l0,40.25172l-40.97522,0l0,-40.25172z"/>
   <path d="m131.35402,215.49757l40.97469,0l0,40.25069l-40.97469,0l0,-40.25069z"/>
   <path d="m188.62752,215.49861l40.97522,0l0,40.25069l-40.97522,0l0,-40.25069z"/>
   <path d="m246.08684,158.17964l40.97469,0l0,40.25069l-40.97469,0l0,-40.25069z"/>
   <path d="m303.36033,158.17964l40.97574,0l0,40.25172l-40.97574,0l0,-40.25172z"/>
   <path d="m246.08684,215.49757l40.97469,0l0,40.25069l-40.97469,0l0,-40.25069z"/>
   <path d="m303.36033,215.49861l40.97574,0l0,40.25069l-40.97574,0l0,-40.25069z"/>
  </g>
 </g>
</svg>