<?xml version="1.0" standalone="no"?>
<!DOCTYPE svg PUBLIC "-//W3C//DTD SVG 20010904//EN"
 "http://www.w3.org/TR/2001/REC-SVG-20010904/DTD/svg10.dtd">
<svg version="1.0" xmlns="http://www.w3.org/2000/svg"
 width="810.000000pt" height="810.000000pt" viewBox="0 0 810.000000 810.000000"
 preserveAspectRatio="xMidYMid meet">

<g transform="translate(0.000000,810.000000) scale(0.100000,-0.100000)"
fill="#000000" stroke="none">
<path d="M1232 5983 l3 -898 820 0 820 0 3 898 2 897 -825 0 -825 0 2 -897z"/>
<path d="M3202 5983 l3 -898 298 -3 297 -2 0 900 0 900 -300 0 -300 0 2 -897z"/>
<path d="M4127 6873 c-2 -5 -2 -24 -1 -43 1 -19 3 -421 3 -892 l1 -857 295 0
295 0 0 37 c0 46 0 1685 0 1730 l0 32 -294 0 c-162 0 -297 -3 -299 -7z"/>
<path d="M5050 5980 l0 -900 298 2 297 3 0 895 0 895 -297 3 -298 2 0 -900z"/>
<path d="M5972 5983 l3 -898 445 0 445 0 3 898 2 897 -450 0 -450 0 2 -897z"/>
<path d="M1237 4753 c-4 -3 -7 -138 -7 -300 l0 -293 799 0 798 0 7 46 c8 61 8
345 0 462 l-7 92 -792 0 c-435 0 -795 -3 -798 -7z"/>
<path d="M3160 4460 l0 -300 300 0 300 0 -2 298 -3 297 -297 3 -298 2 0 -300z"/>
<path d="M4080 4460 l0 -300 300 0 300 0 0 300 0 300 -300 0 -300 0 0 -300z"/>
<path d="M5005 4748 c-3 -8 -4 -141 -3 -298 l3 -285 298 -3 297 -2 -2 297 -3
298 -293 3 c-230 2 -294 0 -297 -10z"/>
<path d="M5920 4460 l0 -300 445 0 445 0 -2 298 -3 297 -442 3 -443 2 0 -300z"/>
<path d="M1232 3533 l3 -298 797 -3 796 -2 7 76 c6 55 1 487 -5 522 0 1 -360
2 -800 2 l-800 0 2 -297z"/>
<path d="M3160 3530 l0 -300 300 0 300 0 0 300 0 300 -300 0 -300 0 0 -300z"/>
<path d="M4080 3530 l0 -300 300 0 300 0 0 300 0 300 -300 0 -300 0 0 -300z"/>
<path d="M5002 3533 l3 -298 298 -3 297 -2 0 300 0 300 -300 0 -300 0 2 -297z"/>
<path d="M5920 3530 l0 -300 445 0 445 0 0 300 0 300 -445 0 -445 0 0 -300z"/>
<path d="M1237 2903 c-4 -3 -7 -138 -7 -300 l0 -293 799 0 798 0 7 46 c8 61 8
413 0 493 l-7 61 -792 0 c-435 0 -795 -3 -798 -7z"/>
<path d="M3160 2610 l0 -300 300 0 300 0 -2 298 -3 297 -297 3 -298 2 0 -300z"/>
<path d="M4080 2610 l0 -300 300 0 300 0 -2 298 -3 297 -297 3 -298 2 0 -300z"/>
<path d="M5005 2898 c-3 -8 -4 -141 -3 -298 l3 -285 298 -3 297 -2 -2 297 -3
298 -293 3 c-230 2 -294 0 -297 -10z"/>
<path d="M5927 2903 c-4 -3 -7 -138 -7 -300 l0 -293 445 0 445 0 -2 298 -3
297 -436 3 c-239 1 -439 -1 -442 -5z"/>
<path d="M5922 1608 l3 -373 440 0 440 0 3 373 2 372 -445 0 -445 0 2 -372z"/>
<path d="M1234 1961 c-2 -2 -4 -170 -4 -373 l0 -368 799 0 798 0 6 53 c8 79 9
465 1 583 l-7 104 -794 2 c-437 2 -797 1 -799 -1z"/>
<path d="M3453 1962 l-293 -2 0 -370 0 -370 300 0 300 0 0 369 c0 204 -3 371
-7 373 -5 2 -140 2 -300 0z"/>
<path d="M4084 1961 c-2 -2 -4 -170 -4 -373 l0 -368 300 0 300 0 0 370 0 369
-296 3 c-163 2 -298 1 -300 -1z"/>
<path d="M5007 1963 c-4 -3 -7 -172 -7 -375 l0 -368 298 2 297 3 0 370 0 370
-291 3 c-160 1 -293 -1 -297 -5z"/>
</g>
</svg>
