<svg width="512" height="512" viewBox="0 0 512 512" xmlns="http://www.w3.org/2000/svg">
  <rect width="100%" height="100%" fill="none" />
  <rect x="20.0" y="20.0" width="45.875" height="45.875" fill="black" rx="1.5" ry="1.5" />
  <rect x="80.875" y="20.0" width="45.875" height="45.875" fill="black" rx="1.5" ry="1.5" />
  <rect x="141.75" y="20.0" width="45.875" height="45.875" fill="black" rx="1.5" ry="1.5" />
  <rect x="202.625" y="20.0" width="45.875" height="45.875" fill="black" rx="1.5" ry="1.5" />
  <rect x="263.5" y="20.0" width="45.875" height="45.875" fill="black" rx="1.5" ry="1.5" />
  <rect x="324.375" y="20.0" width="45.875" height="45.875" fill="black" rx="1.5" ry="1.5" />
  <rect x="385.25" y="20.0" width="45.875" height="45.875" fill="black" rx="1.5" ry="1.5" />
  <rect x="446.125" y="20.0" width="45.875" height="45.875" fill="black" rx="1.5" ry="1.5" />
  <rect x="20.0" y="80.875" width="45.875" height="45.875" fill="black" rx="1.5" ry="1.5" />
  <rect x="80.875" y="80.875" width="45.875" height="45.875" fill="black" rx="1.5" ry="1.5" />
  <rect x="141.75" y="80.875" width="45.875" height="45.875" fill="black" rx="1.5" ry="1.5" />
  <rect x="202.625" y="80.875" width="45.875" height="45.875" fill="black" rx="1.5" ry="1.5" />
  <rect x="263.5" y="80.875" width="45.875" height="45.875" fill="black" rx="1.5" ry="1.5" />
  <rect x="324.375" y="80.875" width="45.875" height="45.875" fill="black" rx="1.5" ry="1.5" />
  <rect x="385.25" y="80.875" width="45.875" height="45.875" fill="black" rx="1.5" ry="1.5" />
  <rect x="446.125" y="80.875" width="45.875" height="45.875" fill="black" rx="1.5" ry="1.5" />
  <rect x="20.0" y="141.75" width="45.875" height="45.875" fill="black" rx="1.5" ry="1.5" />
  <rect x="80.875" y="141.75" width="45.875" height="45.875" fill="black" rx="1.5" ry="1.5" />
  <rect x="141.75" y="141.75" width="45.875" height="45.875" fill="black" rx="1.5" ry="1.5" />
  <rect x="202.625" y="141.75" width="45.875" height="45.875" fill="black" rx="1.5" ry="1.5" />
  <rect x="263.5" y="141.75" width="45.875" height="45.875" fill="black" rx="1.5" ry="1.5" />
  <rect x="324.375" y="141.75" width="45.875" height="45.875" fill="black" rx="1.5" ry="1.5" />
  <rect x="385.25" y="141.75" width="45.875" height="45.875" fill="black" rx="1.5" ry="1.5" />
  <rect x="446.125" y="141.75" width="45.875" height="45.875" fill="black" rx="1.5" ry="1.5" />
  <rect x="20.0" y="202.625" width="45.875" height="45.875" fill="black" rx="1.5" ry="1.5" />
  <rect x="80.875" y="202.625" width="45.875" height="45.875" fill="black" rx="1.5" ry="1.5" />
  <rect x="141.75" y="202.625" width="45.875" height="45.875" fill="black" rx="1.5" ry="1.5" />
  <rect x="202.625" y="202.625" width="45.875" height="45.875" fill="black" rx="1.5" ry="1.5" />
  <rect x="263.5" y="202.625" width="45.875" height="45.875" fill="black" rx="1.5" ry="1.5" />
  <rect x="324.375" y="202.625" width="45.875" height="45.875" fill="black" rx="1.5" ry="1.5" />
  <rect x="385.25" y="202.625" width="45.875" height="45.875" fill="black" rx="1.5" ry="1.5" />
  <rect x="446.125" y="202.625" width="45.875" height="45.875" fill="black" rx="1.5" ry="1.5" />
  <rect x="20.0" y="263.5" width="45.875" height="45.875" fill="black" rx="1.5" ry="1.5" />
  <rect x="80.875" y="263.5" width="45.875" height="45.875" fill="black" rx="1.5" ry="1.5" />
  <rect x="141.75" y="263.5" width="45.875" height="45.875" fill="black" rx="1.5" ry="1.5" />
  <rect x="202.625" y="263.5" width="45.875" height="45.875" fill="black" rx="1.5" ry="1.5" />
  <rect x="263.5" y="263.5" width="45.875" height="45.875" fill="black" rx="1.5" ry="1.5" />
  <rect x="324.375" y="263.5" width="45.875" height="45.875" fill="black" rx="1.5" ry="1.5" />
  <rect x="385.25" y="263.5" width="45.875" height="45.875" fill="black" rx="1.5" ry="1.5" />
  <rect x="446.125" y="263.5" width="45.875" height="45.875" fill="black" rx="1.5" ry="1.5" />
  <rect x="20.0" y="324.375" width="45.875" height="45.875" fill="black" rx="1.5" ry="1.5" />
  <rect x="80.875" y="324.375" width="45.875" height="45.875" fill="black" rx="1.5" ry="1.5" />
  <rect x="141.75" y="324.375" width="45.875" height="45.875" fill="black" rx="1.5" ry="1.5" />
  <rect x="202.625" y="324.375" width="45.875" height="45.875" fill="black" rx="1.5" ry="1.5" />
  <rect x="263.5" y="324.375" width="45.875" height="45.875" fill="black" rx="1.5" ry="1.5" />
  <rect x="324.375" y="324.375" width="45.875" height="45.875" fill="black" rx="1.5" ry="1.5" />
  <rect x="385.25" y="324.375" width="45.875" height="45.875" fill="black" rx="1.5" ry="1.5" />
  <rect x="446.125" y="324.375" width="45.875" height="45.875" fill="black" rx="1.5" ry="1.5" />
  <rect x="20.0" y="385.25" width="45.875" height="45.875" fill="black" rx="1.5" ry="1.5" />
  <rect x="80.875" y="385.25" width="45.875" height="45.875" fill="black" rx="1.5" ry="1.5" />
  <rect x="141.75" y="385.25" width="45.875" height="45.875" fill="black" rx="1.5" ry="1.5" />
  <rect x="202.625" y="385.25" width="45.875" height="45.875" fill="black" rx="1.5" ry="1.5" />
  <rect x="263.5" y="385.25" width="45.875" height="45.875" fill="black" rx="1.5" ry="1.5" />
  <rect x="324.375" y="385.25" width="45.875" height="45.875" fill="black" rx="1.5" ry="1.5" />
  <rect x="385.25" y="385.25" width="45.875" height="45.875" fill="black" rx="1.5" ry="1.5" />
  <rect x="446.125" y="385.25" width="45.875" height="45.875" fill="black" rx="1.5" ry="1.5" />
  <rect x="20.0" y="446.125" width="45.875" height="45.875" fill="black" rx="1.5" ry="1.5" />
  <rect x="80.875" y="446.125" width="45.875" height="45.875" fill="black" rx="1.5" ry="1.5" />
  <rect x="141.75" y="446.125" width="45.875" height="45.875" fill="black" rx="1.5" ry="1.5" />
  <rect x="202.625" y="446.125" width="45.875" height="45.875" fill="black" rx="1.5" ry="1.5" />
  <rect x="263.5" y="446.125" width="45.875" height="45.875" fill="black" rx="1.5" ry="1.5" />
  <rect x="324.375" y="446.125" width="45.875" height="45.875" fill="black" rx="1.5" ry="1.5" />
  <rect x="385.25" y="446.125" width="45.875" height="45.875" fill="black" rx="1.5" ry="1.5" />
  <rect x="446.125" y="446.125" width="45.875" height="45.875" fill="black" rx="1.5" ry="1.5" />
</svg>