<svg width="512" height="512" viewBox="0 0 512 512" xmlns="http://www.w3.org/2000/svg">
  <rect width="100%" height="100%" fill="none" />
  <path d="M80,30 h352 a50,50 0 0 1 50,50 v352 a50,50 0 0 1 -50,50 h-352 a50,50 0 0 1 -50,-50 v-352 a50,50 0 0 1 50,-50Z M85.0,60.0 h64.0 a25,25 0 0 1 25,25 v64.0 a25,25 0 0 1 -25,25 h-64.0 a25,25 0 0 1 -25,-25 v-64.0 a25,25 0 0 1 25,-25Z M224.0,60.0 h64.0 a25,25 0 0 1 25,25 v64.0 a25,25 0 0 1 -25,25 h-64.0 a25,25 0 0 1 -25,-25 v-64.0 a25,25 0 0 1 25,-25Z M363.0,60.0 h64.0 a25,25 0 0 1 25,25 v64.0 a25,25 0 0 1 -25,25 h-64.0 a25,25 0 0 1 -25,-25 v-64.0 a25,25 0 0 1 25,-25Z M85.0,199.0 h64.0 a25,25 0 0 1 25,25 v64.0 a25,25 0 0 1 -25,25 h-64.0 a25,25 0 0 1 -25,-25 v-64.0 a25,25 0 0 1 25,-25Z M224.0,199.0 h64.0 a25,25 0 0 1 25,25 v64.0 a25,25 0 0 1 -25,25 h-64.0 a25,25 0 0 1 -25,-25 v-64.0 a25,25 0 0 1 25,-25Z M363.0,199.0 h64.0 a25,25 0 0 1 25,25 v64.0 a25,25 0 0 1 -25,25 h-64.0 a25,25 0 0 1 -25,-25 v-64.0 a25,25 0 0 1 25,-25Z M85.0,338.0 h64.0 a25,25 0 0 1 25,25 v64.0 a25,25 0 0 1 -25,25 h-64.0 a25,25 0 0 1 -25,-25 v-64.0 a25,25 0 0 1 25,-25Z M224.0,338.0 h64.0 a25,25 0 0 1 25,25 v64.0 a25,25 0 0 1 -25,25 h-64.0 a25,25 0 0 1 -25,-25 v-64.0 a25,25 0 0 1 25,-25Z" fill="black" fill-rule="evenodd" />
</svg>