<svg width="512" height="512" viewBox="0 0 512 512" xmlns="http://www.w3.org/2000/svg">
  <rect width="100%" height="100%" fill="none" />
  <rect x="15.0" y="15.0" width="41.111111111111114" height="41.111111111111114" fill="black" rx="1.2" ry="1.2" />
  <rect x="70.11111111111111" y="15.0" width="41.111111111111114" height="41.111111111111114" fill="black" rx="1.2" ry="1.2" />
  <rect x="125.22222222222223" y="15.0" width="41.111111111111114" height="41.111111111111114" fill="black" rx="1.2" ry="1.2" />
  <rect x="180.33333333333334" y="15.0" width="41.111111111111114" height="41.111111111111114" fill="black" rx="1.2" ry="1.2" />
  <rect x="235.44444444444446" y="15.0" width="41.111111111111114" height="41.111111111111114" fill="black" rx="1.2" ry="1.2" />
  <rect x="290.55555555555554" y="15.0" width="41.111111111111114" height="41.111111111111114" fill="black" rx="1.2" ry="1.2" />
  <rect x="345.6666666666667" y="15.0" width="41.111111111111114" height="41.111111111111114" fill="black" rx="1.2" ry="1.2" />
  <rect x="400.7777777777778" y="15.0" width="41.111111111111114" height="41.111111111111114" fill="black" rx="1.2" ry="1.2" />
  <rect x="455.8888888888889" y="15.0" width="41.111111111111114" height="41.111111111111114" fill="black" rx="1.2" ry="1.2" />
  <rect x="15.0" y="70.11111111111111" width="41.111111111111114" height="41.111111111111114" fill="black" rx="1.2" ry="1.2" />
  <rect x="70.11111111111111" y="70.11111111111111" width="41.111111111111114" height="41.111111111111114" fill="black" rx="1.2" ry="1.2" />
  <rect x="125.22222222222223" y="70.11111111111111" width="41.111111111111114" height="41.111111111111114" fill="black" rx="1.2" ry="1.2" />
  <rect x="180.33333333333334" y="70.11111111111111" width="41.111111111111114" height="41.111111111111114" fill="black" rx="1.2" ry="1.2" />
  <rect x="235.44444444444446" y="70.11111111111111" width="41.111111111111114" height="41.111111111111114" fill="black" rx="1.2" ry="1.2" />
  <rect x="290.55555555555554" y="70.11111111111111" width="41.111111111111114" height="41.111111111111114" fill="black" rx="1.2" ry="1.2" />
  <rect x="345.6666666666667" y="70.11111111111111" width="41.111111111111114" height="41.111111111111114" fill="black" rx="1.2" ry="1.2" />
  <rect x="400.7777777777778" y="70.11111111111111" width="41.111111111111114" height="41.111111111111114" fill="black" rx="1.2" ry="1.2" />
  <rect x="455.8888888888889" y="70.11111111111111" width="41.111111111111114" height="41.111111111111114" fill="black" rx="1.2" ry="1.2" />
  <rect x="15.0" y="125.22222222222223" width="41.111111111111114" height="41.111111111111114" fill="black" rx="1.2" ry="1.2" />
  <rect x="70.11111111111111" y="125.22222222222223" width="41.111111111111114" height="41.111111111111114" fill="black" rx="1.2" ry="1.2" />
  <rect x="125.22222222222223" y="125.22222222222223" width="41.111111111111114" height="41.111111111111114" fill="black" rx="1.2" ry="1.2" />
  <rect x="180.33333333333334" y="125.22222222222223" width="41.111111111111114" height="41.111111111111114" fill="black" rx="1.2" ry="1.2" />
  <rect x="235.44444444444446" y="125.22222222222223" width="41.111111111111114" height="41.111111111111114" fill="black" rx="1.2" ry="1.2" />
  <rect x="290.55555555555554" y="125.22222222222223" width="41.111111111111114" height="41.111111111111114" fill="black" rx="1.2" ry="1.2" />
  <rect x="345.6666666666667" y="125.22222222222223" width="41.111111111111114" height="41.111111111111114" fill="black" rx="1.2" ry="1.2" />
  <rect x="400.7777777777778" y="125.22222222222223" width="41.111111111111114" height="41.111111111111114" fill="black" rx="1.2" ry="1.2" />
  <rect x="455.8888888888889" y="125.22222222222223" width="41.111111111111114" height="41.111111111111114" fill="black" rx="1.2" ry="1.2" />
  <rect x="15.0" y="180.33333333333334" width="41.111111111111114" height="41.111111111111114" fill="black" rx="1.2" ry="1.2" />
  <rect x="70.11111111111111" y="180.33333333333334" width="41.111111111111114" height="41.111111111111114" fill="black" rx="1.2" ry="1.2" />
  <rect x="125.22222222222223" y="180.33333333333334" width="41.111111111111114" height="41.111111111111114" fill="black" rx="1.2" ry="1.2" />
  <rect x="180.33333333333334" y="180.33333333333334" width="41.111111111111114" height="41.111111111111114" fill="black" rx="1.2" ry="1.2" />
  <rect x="235.44444444444446" y="180.33333333333334" width="41.111111111111114" height="41.111111111111114" fill="black" rx="1.2" ry="1.2" />
  <rect x="290.55555555555554" y="180.33333333333334" width="41.111111111111114" height="41.111111111111114" fill="black" rx="1.2" ry="1.2" />
  <rect x="345.6666666666667" y="180.33333333333334" width="41.111111111111114" height="41.111111111111114" fill="black" rx="1.2" ry="1.2" />
  <rect x="400.7777777777778" y="180.33333333333334" width="41.111111111111114" height="41.111111111111114" fill="black" rx="1.2" ry="1.2" />
  <rect x="455.8888888888889" y="180.33333333333334" width="41.111111111111114" height="41.111111111111114" fill="black" rx="1.2" ry="1.2" />
  <rect x="15.0" y="235.44444444444446" width="41.111111111111114" height="41.111111111111114" fill="black" rx="1.2" ry="1.2" />
  <rect x="70.11111111111111" y="235.44444444444446" width="41.111111111111114" height="41.111111111111114" fill="black" rx="1.2" ry="1.2" />
  <rect x="125.22222222222223" y="235.44444444444446" width="41.111111111111114" height="41.111111111111114" fill="black" rx="1.2" ry="1.2" />
  <rect x="180.33333333333334" y="235.44444444444446" width="41.111111111111114" height="41.111111111111114" fill="black" rx="1.2" ry="1.2" />
  <rect x="235.44444444444446" y="235.44444444444446" width="41.111111111111114" height="41.111111111111114" fill="black" rx="1.2" ry="1.2" />
  <rect x="290.55555555555554" y="235.44444444444446" width="41.111111111111114" height="41.111111111111114" fill="black" rx="1.2" ry="1.2" />
  <rect x="345.6666666666667" y="235.44444444444446" width="41.111111111111114" height="41.111111111111114" fill="black" rx="1.2" ry="1.2" />
  <rect x="400.7777777777778" y="235.44444444444446" width="41.111111111111114" height="41.111111111111114" fill="black" rx="1.2" ry="1.2" />
  <rect x="455.8888888888889" y="235.44444444444446" width="41.111111111111114" height="41.111111111111114" fill="black" rx="1.2" ry="1.2" />
  <rect x="15.0" y="290.55555555555554" width="41.111111111111114" height="41.111111111111114" fill="black" rx="1.2" ry="1.2" />
  <rect x="70.11111111111111" y="290.55555555555554" width="41.111111111111114" height="41.111111111111114" fill="black" rx="1.2" ry="1.2" />
  <rect x="125.22222222222223" y="290.55555555555554" width="41.111111111111114" height="41.111111111111114" fill="black" rx="1.2" ry="1.2" />
  <rect x="180.33333333333334" y="290.55555555555554" width="41.111111111111114" height="41.111111111111114" fill="black" rx="1.2" ry="1.2" />
  <rect x="235.44444444444446" y="290.55555555555554" width="41.111111111111114" height="41.111111111111114" fill="black" rx="1.2" ry="1.2" />
  <rect x="290.55555555555554" y="290.55555555555554" width="41.111111111111114" height="41.111111111111114" fill="black" rx="1.2" ry="1.2" />
  <rect x="345.6666666666667" y="290.55555555555554" width="41.111111111111114" height="41.111111111111114" fill="black" rx="1.2" ry="1.2" />
  <rect x="400.7777777777778" y="290.55555555555554" width="41.111111111111114" height="41.111111111111114" fill="black" rx="1.2" ry="1.2" />
  <rect x="455.8888888888889" y="290.55555555555554" width="41.111111111111114" height="41.111111111111114" fill="black" rx="1.2" ry="1.2" />
  <rect x="15.0" y="345.6666666666667" width="41.111111111111114" height="41.111111111111114" fill="black" rx="1.2" ry="1.2" />
  <rect x="70.11111111111111" y="345.6666666666667" width="41.111111111111114" height="41.111111111111114" fill="black" rx="1.2" ry="1.2" />
  <rect x="125.22222222222223" y="345.6666666666667" width="41.111111111111114" height="41.111111111111114" fill="black" rx="1.2" ry="1.2" />
  <rect x="180.33333333333334" y="345.6666666666667" width="41.111111111111114" height="41.111111111111114" fill="black" rx="1.2" ry="1.2" />
  <rect x="235.44444444444446" y="345.6666666666667" width="41.111111111111114" height="41.111111111111114" fill="black" rx="1.2" ry="1.2" />
  <rect x="290.55555555555554" y="345.6666666666667" width="41.111111111111114" height="41.111111111111114" fill="black" rx="1.2" ry="1.2" />
  <rect x="345.6666666666667" y="345.6666666666667" width="41.111111111111114" height="41.111111111111114" fill="black" rx="1.2" ry="1.2" />
  <rect x="400.7777777777778" y="345.6666666666667" width="41.111111111111114" height="41.111111111111114" fill="black" rx="1.2" ry="1.2" />
  <rect x="455.8888888888889" y="345.6666666666667" width="41.111111111111114" height="41.111111111111114" fill="black" rx="1.2" ry="1.2" />
  <rect x="15.0" y="400.7777777777778" width="41.111111111111114" height="41.111111111111114" fill="black" rx="1.2" ry="1.2" />
  <rect x="70.11111111111111" y="400.7777777777778" width="41.111111111111114" height="41.111111111111114" fill="black" rx="1.2" ry="1.2" />
  <rect x="125.22222222222223" y="400.7777777777778" width="41.111111111111114" height="41.111111111111114" fill="black" rx="1.2" ry="1.2" />
  <rect x="180.33333333333334" y="400.7777777777778" width="41.111111111111114" height="41.111111111111114" fill="black" rx="1.2" ry="1.2" />
  <rect x="235.44444444444446" y="400.7777777777778" width="41.111111111111114" height="41.111111111111114" fill="black" rx="1.2" ry="1.2" />
  <rect x="290.55555555555554" y="400.7777777777778" width="41.111111111111114" height="41.111111111111114" fill="black" rx="1.2" ry="1.2" />
  <rect x="345.6666666666667" y="400.7777777777778" width="41.111111111111114" height="41.111111111111114" fill="black" rx="1.2" ry="1.2" />
  <rect x="400.7777777777778" y="400.7777777777778" width="41.111111111111114" height="41.111111111111114" fill="black" rx="1.2" ry="1.2" />
  <rect x="455.8888888888889" y="400.7777777777778" width="41.111111111111114" height="41.111111111111114" fill="black" rx="1.2" ry="1.2" />
  <rect x="15.0" y="455.8888888888889" width="41.111111111111114" height="41.111111111111114" fill="black" rx="1.2" ry="1.2" />
  <rect x="70.11111111111111" y="455.8888888888889" width="41.111111111111114" height="41.111111111111114" fill="black" rx="1.2" ry="1.2" />
  <rect x="125.22222222222223" y="455.8888888888889" width="41.111111111111114" height="41.111111111111114" fill="black" rx="1.2" ry="1.2" />
  <rect x="180.33333333333334" y="455.8888888888889" width="41.111111111111114" height="41.111111111111114" fill="black" rx="1.2" ry="1.2" />
  <rect x="235.44444444444446" y="455.8888888888889" width="41.111111111111114" height="41.111111111111114" fill="black" rx="1.2" ry="1.2" />
  <rect x="290.55555555555554" y="455.8888888888889" width="41.111111111111114" height="41.111111111111114" fill="black" rx="1.2" ry="1.2" />
  <rect x="345.6666666666667" y="455.8888888888889" width="41.111111111111114" height="41.111111111111114" fill="black" rx="1.2" ry="1.2" />
  <rect x="400.7777777777778" y="455.8888888888889" width="41.111111111111114" height="41.111111111111114" fill="black" rx="1.2" ry="1.2" />
  <rect x="455.8888888888889" y="455.8888888888889" width="41.111111111111114" height="41.111111111111114" fill="black" rx="1.2" ry="1.2" />
</svg>