<?xml version="1.0" standalone="no"?>
<!DOCTYPE svg PUBLIC "-//W3C//DTD SVG 20010904//EN"
 "http://www.w3.org/TR/2001/REC-SVG-20010904/DTD/svg10.dtd">
<svg version="1.0" xmlns="http://www.w3.org/2000/svg"
 width="585.000000pt" height="600.000000pt" viewBox="0 0 585.000000 600.000000"
 preserveAspectRatio="xMidYMid meet">

<g transform="translate(0.000000,600.000000) scale(0.100000,-0.100000)"
fill="#000000" stroke="none">
<path d="M4498 4520 c-335 -53 -539 -233 -646 -570 -62 -194 -82 -369 -89
-770 -15 -902 99 -1294 434 -1484 137 -77 260 -100 496 -93 246 6 349 36 456
133 91 82 131 192 131 358 0 107 -20 235 -75 496 -76 358 -88 475 -66 615 6
39 38 185 71 325 70 306 83 382 83 520 1 254 -100 388 -341 452 -88 23 -356
33 -454 18z"/>
<path d="M1835 4500 c-309 -56 -588 -204 -813 -431 -125 -127 -195 -227 -277
-394 -118 -240 -159 -413 -159 -670 0 -121 6 -188 22 -276 102 -549 490 -997
1013 -1173 176 -58 259 -71 479 -71 223 0 315 13 486 71 245 82 436 204 622
399 200 209 332 460 394 748 31 147 31 436 -1 587 -118 556 -494 983 -1021
1159 -210 71 -520 92 -745 51z m348 -380 c37 -129 121 -424 188 -655 113 -396
120 -424 116 -491 -13 -226 -223 -393 -445 -354 -83 14 -132 40 -199 103 -94
89 -133 211 -108 346 7 36 83 314 170 616 204 713 196 688 205 678 3 -4 37
-114 73 -243z"/>
<path d="M2082 3824 c-134 -457 -222 -787 -222 -835 0 -95 53 -178 144 -226
44 -24 160 -23 206 1 107 56 167 174 142 281 -17 70 -234 819 -242 834 -5 9
-14 -11 -28 -55z"/>
</g>
</svg>
