<?xml version="1.0" standalone="no"?>
<!DOCTYPE svg PUBLIC "-//W3C//DTD SVG 20010904//EN"
 "http://www.w3.org/TR/2001/REC-SVG-20010904/DTD/svg10.dtd">
<svg version="1.0" xmlns="http://www.w3.org/2000/svg"
 width="600.000000pt" height="600.000000pt" viewBox="0 0 600.000000 600.000000"
 preserveAspectRatio="xMidYMid meet">

<g transform="translate(0.000000,600.000000) scale(0.100000,-0.100000)"
fill="#000000" stroke="none">
<path d="M1401 4840 c-104 -22 -237 -80 -311 -134 -64 -48 -151 -140 -194
-206 -86 -131 -126 -266 -126 -428 0 -134 21 -224 80 -347 134 -278 423 -448
735 -433 344 18 627 249 721 588 28 99 26 291 -4 393 -75 262 -265 462 -517
543 -66 22 -103 27 -210 30 -71 2 -150 -1 -174 -6z"/>
<path d="M4284 4836 c-292 -67 -519 -291 -595 -586 -20 -80 -18 -288 4 -370
41 -153 141 -311 255 -406 134 -110 291 -172 462 -181 236 -13 454 75 612 246
141 154 207 323 208 534 0 130 -21 220 -82 346 -44 91 -61 116 -141 196 -103
104 -191 158 -322 201 -99 33 -301 43 -401 20z"/>
<path d="M2885 3534 c-380 -42 -697 -201 -940 -474 -168 -189 -280 -417 -332
-675 -26 -132 -23 -394 6 -532 84 -400 314 -726 661 -936 340 -206 780 -253
1164 -125 355 118 654 379 816 713 110 225 143 368 143 615 0 189 -17 303 -69
460 -161 480 -588 848 -1084 934 -97 17 -293 28 -365 20z m294 -747 c189 -665
192 -681 150 -792 -27 -73 -104 -156 -177 -192 -50 -25 -68 -28 -152 -28 -85
0 -101 3 -153 29 -69 35 -140 108 -169 173 -12 28 -23 79 -26 122 -5 73 -2 86
169 683 96 334 177 608 180 608 4 0 84 -271 178 -603z"/>
<path d="M2882 2552 c-62 -218 -112 -412 -112 -431 1 -126 105 -231 228 -231
64 0 106 17 157 61 48 43 74 100 75 164 0 34 -36 175 -112 442 -62 216 -115
393 -118 393 -3 0 -56 -179 -118 -398z"/>
<path d="M1405 3210 c-281 -37 -538 -169 -760 -394 -320 -323 -500 -761 -531
-1289 l-7 -117 41 -39 c89 -85 372 -155 792 -196 158 -15 730 -33 730 -23 0 3
-23 43 -50 89 -88 147 -156 326 -197 519 -28 133 -25 468 5 610 61 280 189
539 362 734 34 37 59 70 57 72 -1 2 -37 11 -78 19 -92 20 -271 27 -364 15z"/>
<path d="M4310 3210 c-86 -12 -160 -30 -160 -39 0 -4 14 -20 31 -37 46 -43
142 -172 199 -266 105 -174 183 -406 210 -622 17 -130 7 -380 -19 -507 -35
-175 -110 -365 -199 -513 -23 -37 -42 -71 -42 -74 0 -10 575 8 725 23 471 47
758 124 821 220 15 23 15 41 5 183 -61 827 -546 1479 -1202 1617 -90 19 -283
27 -369 15z"/>
</g>
</svg>
