<?xml version="1.0" standalone="no"?>
<!DOCTYPE svg PUBLIC "-//W3C//DTD SVG 20010904//EN"
 "http://www.w3.org/TR/2001/REC-SVG-20010904/DTD/svg10.dtd">
<svg version="1.0" xmlns="http://www.w3.org/2000/svg"
 width="600.000000pt" height="600.000000pt" viewBox="0 0 600.000000 600.000000"
 preserveAspectRatio="xMidYMid meet">

<g transform="translate(0.000000,600.000000) scale(0.100000,-0.100000)"
fill="#000000" stroke="none">
<path d="M2775 5604 c-595 -110 -1029 -528 -1157 -1112 -29 -129 -31 -393 -5
-527 38 -197 114 -382 222 -545 74 -112 270 -303 390 -383 357 -234 806 -294
1211 -162 215 70 385 176 554 345 126 126 193 215 264 358 157 311 193 644
106 987 -128 507 -531 899 -1048 1022 -137 32 -410 41 -537 17z m404 -734
c166 -582 173 -612 169 -682 -19 -360 -499 -459 -664 -136 -20 40 -28 72 -32
130 -4 76 -1 88 169 688 96 335 176 610 179 610 3 0 83 -274 179 -610z"/>
<path d="M2882 4642 c-69 -246 -112 -414 -112 -443 0 -62 42 -143 92 -179 82
-60 200 -58 281 4 47 36 87 116 87 175 0 42 -212 816 -229 833 -3 4 -57 -172
-119 -390z"/>
<path d="M887 2876 c-133 -48 -201 -218 -139 -346 15 -32 144 -167 449 -470
619 -615 720 -711 789 -749 117 -63 96 -62 799 -61 352 0 811 3 1020 6 487 8
504 5 671 -127 206 -163 503 -418 637 -547 82 -79 150 -142 152 -140 2 1 4
203 6 448 2 405 1 449 -15 487 -13 31 -82 105 -274 290 -141 136 -394 381
-562 543 -338 327 -369 354 -440 381 -48 18 -89 19 -843 19 -898 0 -865 3
-941 -74 -46 -46 -76 -115 -76 -176 0 -91 63 -190 148 -232 l47 -23 633 -3
632 -3 0 -50 0 -49 -769 0 -770 0 -63 58 c-106 96 -637 590 -742 690 -115 110
-174 142 -256 141 -30 0 -72 -6 -93 -13z"/>
</g>
</svg>
