<?xml version="1.0" standalone="no"?>
<!DOCTYPE svg PUBLIC "-//W3C//DTD SVG 20010904//EN"
 "http://www.w3.org/TR/2001/REC-SVG-20010904/DTD/svg10.dtd">
<svg version="1.0" xmlns="http://www.w3.org/2000/svg"
 width="600.000000pt" height="600.000000pt" viewBox="0 0 600.000000 600.000000"
 preserveAspectRatio="xMidYMid meet">

<g transform="translate(0.000000,600.000000) scale(0.100000,-0.100000)"
fill="#000000" stroke="none">
<path d="M2672 5189 c-177 -177 -322 -324 -322 -326 0 -1 293 -3 650 -3 358 0
650 1 650 3 0 6 -640 642 -648 645 -5 1 -153 -142 -330 -319z m578 -14 l245
-245 -495 0 -494 0 244 245 c135 135 247 245 250 245 3 0 115 -110 250 -245z"/>
<path d="M2673 4383 l327 -328 327 328 328 327 -655 0 -655 0 328 -327z"/>
<path d="M1832 4348 l-322 -323 646 -3 c356 -1 649 -1 650 1 5 4 -630 640
-643 644 -5 2 -155 -142 -331 -319z"/>
<path d="M3507 4346 l-318 -321 647 -3 c356 -1 649 0 651 2 7 7 -639 646 -651
644 -6 -1 -154 -146 -329 -322z"/>
<path d="M1833 3543 l327 -328 327 328 328 327 -655 0 -655 0 328 -327z"/>
<path d="M3513 3543 l327 -328 327 328 328 327 -655 0 -655 0 328 -327z"/>
<path d="M991 3508 l-323 -323 326 -3 c179 -1 472 -1 651 0 l326 3 -321 320
c-176 176 -324 321 -328 323 -5 1 -154 -143 -331 -320z"/>
<path d="M2672 3508 l-323 -323 326 -3 c179 -1 471 -1 651 0 l325 3 -320 320
c-175 176 -323 321 -328 322 -5 2 -154 -142 -331 -319z"/>
<path d="M4351 3508 l-322 -323 647 -3 c356 -1 649 0 651 2 5 4 -637 646 -647
646 -4 0 -152 -145 -329 -322z"/>
<path d="M670 2814 c0 -10 640 -644 650 -644 9 0 448 435 594 588 l59 62 -651
0 c-359 0 -652 -3 -652 -6z"/>
<path d="M2350 2815 c0 -10 640 -645 649 -645 9 0 651 636 651 645 0 3 -292 5
-650 5 -357 0 -650 -2 -650 -5z"/>
<path d="M4030 2815 c0 -9 641 -645 650 -645 7 0 606 594 641 637 10 11 -99
13 -640 13 -358 0 -651 -2 -651 -5z"/>
<path d="M1830 2455 c-179 -179 -320 -325 -315 -326 6 0 296 0 645 0 349 1
639 1 645 1 5 0 -136 146 -315 325 -179 179 -327 325 -330 325 -3 0 -151 -146
-330 -325z"/>
<path d="M3511 2456 c-279 -279 -320 -324 -300 -327 13 -2 307 -3 654 -1 l629
3 -324 324 c-179 179 -327 325 -330 325 -3 0 -151 -146 -329 -324z"/>
<path d="M1510 1974 c0 -10 638 -644 648 -644 9 0 512 495 602 593 l53 57
-652 0 c-358 0 -651 -3 -651 -6z"/>
<path d="M3190 1974 c0 -10 641 -644 651 -644 8 0 552 540 628 623 l24 27
-651 0 c-359 0 -652 -3 -652 -6z"/>
<path d="M2670 1615 c-179 -179 -318 -325 -310 -325 8 -1 299 -1 645 0 347 0
634 0 640 0 5 0 -136 146 -315 325 -179 179 -327 325 -330 325 -3 0 -151 -146
-330 -325z"/>
<path d="M2350 1133 c0 -12 625 -633 643 -639 13 -4 94 71 337 313 176 175
320 321 320 326 0 4 -292 7 -650 7 -357 0 -650 -3 -650 -7z m897 -310 l-247
-248 -247 248 -248 247 495 0 495 0 -248 -247z"/>
</g>
</svg>
