<?xml version="1.0" standalone="no"?>
<!DOCTYPE svg PUBLIC "-//W3C//DTD SVG 20010904//EN"
 "http://www.w3.org/TR/2001/REC-SVG-20010904/DTD/svg10.dtd">
<svg version="1.0" xmlns="http://www.w3.org/2000/svg"
 width="600.000000pt" height="600.000000pt" viewBox="0 0 600.000000 600.000000"
 preserveAspectRatio="xMidYMid meet">

<g transform="translate(0.000000,600.000000) scale(0.100000,-0.100000)"
fill="#000000" stroke="none">
<path d="M670 5633 c0 -12 641 -644 651 -641 8 3 649 639 649 645 0 2 -292 3
-650 3 -357 0 -650 -3 -650 -7z"/>
<path d="M2350 5635 c0 -4 655 -656 655 -651 0 1 146 149 325 329 l325 327
-653 0 c-358 0 -652 -2 -652 -5z"/>
<path d="M4030 5636 c0 -10 644 -646 651 -644 9 3 649 640 649 645 0 2 -292 3
-650 3 -357 0 -650 -2 -650 -4z"/>
<path d="M1830 5275 c-223 -224 -319 -325 -305 -325 11 0 305 -1 653 -3 347
-1 632 0 632 3 0 7 -644 650 -650 650 -3 0 -151 -146 -330 -325z"/>
<path d="M3510 5275 l-325 -325 655 0 655 0 -325 325 c-179 179 -327 325 -330
325 -3 0 -151 -146 -330 -325z"/>
<path d="M5309 5008 l-326 -327 325 -326 c179 -179 327 -323 329 -322 2 2 2
296 1 653 l-3 649 -326 -327z"/>
<path d="M360 4680 c0 -357 1 -650 3 -650 1 0 149 147 329 327 l326 326 -323
324 c-177 177 -325 323 -329 323 -3 0 -6 -292 -6 -650z"/>
<path d="M1510 4795 c0 -13 641 -646 650 -643 9 3 650 639 650 645 0 2 -292 3
-650 3 -357 0 -650 -2 -650 -5z"/>
<path d="M3190 4797 c0 -2 146 -150 325 -328 l325 -325 323 323 c177 178 324
326 326 328 2 3 -289 5 -647 5 -359 0 -652 -1 -652 -3z"/>
<path d="M2670 4435 l-325 -325 653 -2 c358 -2 652 -1 652 2 0 7 -644 650
-650 650 -3 0 -151 -146 -330 -325z"/>
<path d="M720 4165 l-325 -325 328 -328 327 -327 0 653 c0 358 -1 652 -3 652
-1 0 -148 -146 -327 -325z"/>
<path d="M1200 3840 c0 -357 1 -650 3 -650 7 0 647 646 647 653 0 9 -636 647
-645 647 -3 0 -5 -292 -5 -650z"/>
<path d="M4468 4170 c-175 -175 -318 -323 -318 -327 0 -9 413 -428 573 -582
l77 -74 0 651 c0 359 -3 652 -7 652 -5 -1 -151 -144 -325 -320z"/>
<path d="M4950 3840 l0 -655 327 328 328 327 -328 327 -327 328 0 -655z"/>
<path d="M2350 3955 c0 -3 147 -152 326 -332 l327 -327 161 167 c89 91 237
241 330 332 l169 165 -657 0 c-361 0 -656 -2 -656 -5z m882 -307 l-232 -233
-232 233 -233 232 465 0 465 0 -233 -232z"/>
<path d="M3633 3335 c-178 -177 -323 -327 -323 -334 0 -14 640 -655 646 -648
2 2 3 296 2 653 l-3 649 -322 -320z m247 -337 l0 -463 -232 232 -233 233 225
228 c124 126 228 230 233 230 4 1 7 -206 7 -460z"/>
<path d="M360 3000 c0 -357 1 -650 3 -650 8 0 642 642 642 650 0 9 -634 650
-642 650 -2 0 -3 -292 -3 -650z"/>
<path d="M1560 3325 l-325 -325 328 -328 327 -327 0 653 c0 358 -1 652 -3 652
-1 0 -148 -146 -327 -325z"/>
<path d="M2040 3000 c0 -357 2 -650 3 -650 9 0 647 644 647 652 0 11 -633 648
-643 648 -4 0 -7 -292 -7 -650z m312 -232 l-232 -233 0 465 0 465 232 -233
233 -232 -233 -232z"/>
<path d="M4110 3000 l0 -655 327 328 328 327 -328 327 -327 328 0 -655z"/>
<path d="M5308 3326 c-175 -177 -318 -324 -318 -327 0 -6 639 -649 646 -649 2
0 4 293 4 650 0 358 -3 649 -7 648 -5 0 -151 -146 -325 -322z"/>
<path d="M720 2485 l-325 -325 328 -328 327 -327 0 653 c0 358 -1 652 -3 652
-1 0 -148 -146 -327 -325z"/>
<path d="M1200 2160 c0 -357 1 -650 3 -650 5 0 642 640 645 648 2 8 -635 652
-645 652 -2 0 -3 -292 -3 -650z"/>
<path d="M4470 2488 c-173 -175 -317 -323 -318 -328 -4 -10 630 -650 642 -650
3 0 6 293 6 650 0 358 -3 649 -7 649 -5 -1 -150 -145 -323 -321z"/>
<path d="M4950 2160 l0 -655 327 328 328 327 -328 327 -327 328 0 -655z"/>
<path d="M2673 2375 c-178 -179 -323 -327 -323 -330 0 -3 293 -5 650 -5 358 0
650 3 650 6 0 8 -642 654 -649 654 -4 0 -151 -147 -328 -325z m562 -25 l230
-230 -465 0 -465 0 230 230 c126 127 232 230 235 230 3 0 109 -103 235 -230z"/>
<path d="M360 1320 c0 -357 1 -650 3 -650 1 0 149 146 328 325 l325 325 -324
325 c-179 179 -326 325 -328 325 -2 0 -4 -292 -4 -650z"/>
<path d="M5311 1651 c-173 -174 -316 -321 -318 -327 -3 -9 631 -654 643 -654
2 0 4 293 4 650 0 358 -3 649 -7 649 -5 -1 -149 -144 -322 -318z"/>
<path d="M2673 1563 l327 -328 327 328 328 327 -655 0 -655 0 328 -327z"/>
<path d="M1832 1534 c-177 -179 -322 -327 -322 -330 0 -2 293 -4 650 -4 358 0
650 2 650 4 0 4 -557 563 -615 617 l-40 37 -323 -324z"/>
<path d="M3513 1531 c-178 -179 -323 -327 -323 -328 0 -2 293 -3 650 -3 358 0
650 3 650 6 0 7 -645 654 -651 652 -2 0 -149 -148 -326 -327z"/>
<path d="M1833 723 l327 -328 327 328 328 327 -655 0 -655 0 328 -327z"/>
<path d="M3513 723 l327 -328 327 328 328 327 -655 0 -655 0 328 -327z"/>
<path d="M993 695 c-178 -178 -323 -326 -323 -329 0 -3 293 -6 650 -6 358 0
650 2 650 4 0 4 -651 657 -654 655 0 0 -146 -146 -323 -324z"/>
<path d="M4355 694 c-181 -178 -326 -326 -323 -329 3 -3 297 -4 654 -3 l649 3
-326 326 -327 327 -327 -324z"/>
<path d="M2673 688 c-178 -177 -323 -324 -323 -325 0 -2 293 -3 650 -3 358 0
650 2 650 4 0 6 -642 646 -649 646 -3 0 -151 -145 -328 -322z"/>
</g>
</svg>
