<?xml version="1.0" standalone="no"?>
<!DOCTYPE svg PUBLIC "-//W3C//DTD SVG 20010904//EN"
 "http://www.w3.org/TR/2001/REC-SVG-20010904/DTD/svg10.dtd">
<svg version="1.0" xmlns="http://www.w3.org/2000/svg"
 width="400.000000pt" height="400.000000pt" viewBox="0 0 400.000000 400.000000"
 preserveAspectRatio="xMidYMid meet">

<g transform="translate(0.000000,400.000000) scale(0.100000,-0.100000)"
fill="#000000" stroke="none">
<path d="M540 3532 c0 -4 69 -76 153 -160 l152 -152 160 160 160 160 -313 0
c-171 0 -312 -3 -312 -8z"/>
<path d="M1310 3530 c0 -3 69 -74 153 -158 l152 -152 153 153 c83 84 152 156
152 160 0 4 -137 7 -305 5 -168 -2 -305 -5 -305 -8z"/>
<path d="M2080 3530 c0 -3 69 -74 153 -158 l152 -152 153 153 c83 84 152 155
152 159 0 4 -137 6 -305 6 -168 -1 -305 -5 -305 -8z"/>
<path d="M2995 3380 l160 -160 152 152 c84 84 153 156 153 160 0 5 -141 8
-312 8 l-313 0 160 -160z"/>
<path d="M1070 3375 l-155 -155 315 0 315 0 -155 155 c-85 85 -157 155 -160
155 -3 0 -75 -70 -160 -155z"/>
<path d="M1840 3375 l-155 -155 315 0 315 0 -155 155 c-85 85 -157 155 -160
155 -3 0 -75 -70 -160 -155z"/>
<path d="M2610 3375 l-155 -155 315 0 315 0 -155 155 c-85 85 -157 155 -160
155 -3 0 -75 -70 -160 -155z"/>
<path d="M460 3148 l0 -313 160 160 160 160 -152 152 c-84 84 -156 153 -160
153 -5 0 -8 -141 -8 -312z"/>
<path d="M3372 3307 l-152 -152 160 -160 161 -160 -2 308 c0 169 -4 309 -8
311 -4 3 -76 -64 -159 -147z"/>
<path d="M1073 2993 l157 -158 157 158 158 157 -315 0 -315 0 158 -157z"/>
<path d="M1843 2993 l157 -158 157 158 158 157 -315 0 -315 0 158 -157z"/>
<path d="M2613 2993 l157 -158 157 158 158 157 -315 0 -315 0 158 -157z"/>
<path d="M1457 2992 c-81 -81 -147 -151 -147 -155 0 -4 141 -7 312 -7 l313 0
-155 155 c-85 85 -159 155 -165 155 -6 0 -77 -66 -158 -148z"/>
<path d="M2220 2985 l-155 -155 313 0 c171 0 312 3 312 8 0 11 -294 302 -305
302 -6 0 -80 -70 -165 -155z"/>
<path d="M620 2925 l-155 -155 158 -158 157 -157 0 313 c0 171 -1 312 -3 312
-1 0 -72 -70 -157 -155z"/>
<path d="M850 2770 l0 -315 157 158 158 157 -158 157 -157 158 0 -315z"/>
<path d="M2990 2925 l-155 -155 158 -158 157 -157 0 313 c0 171 -1 312 -3 312
-1 0 -72 -70 -157 -155z"/>
<path d="M3220 2770 l0 -315 157 158 158 157 -158 157 -157 158 0 -315z"/>
<path d="M1310 2762 c0 -11 294 -302 305 -302 6 0 80 70 165 155 l155 155
-313 0 c-171 0 -312 -3 -312 -8z"/>
<path d="M2220 2615 c85 -85 159 -155 165 -155 12 0 305 291 305 303 0 4 -141
7 -312 7 l-313 0 155 -155z"/>
<path d="M1840 2605 l-155 -155 315 0 315 0 -155 155 c-85 85 -157 155 -160
155 -3 0 -75 -70 -160 -155z"/>
<path d="M460 2385 c0 -168 3 -305 8 -305 4 0 76 69 160 153 l152 152 -153
153 c-84 83 -156 152 -160 152 -4 0 -7 -137 -7 -305z"/>
<path d="M1007 2542 c-81 -81 -147 -152 -147 -157 0 -6 70 -80 155 -165 l155
-155 0 313 c0 171 -3 312 -8 312 -4 0 -74 -66 -155 -148z"/>
<path d="M1230 2378 l0 -313 155 155 c85 85 155 159 155 165 0 12 -291 305
-303 305 -4 0 -7 -141 -7 -312z"/>
<path d="M2607 2542 c-81 -81 -147 -152 -147 -157 0 -6 70 -80 155 -165 l155
-155 0 313 c0 171 -3 312 -8 312 -4 0 -74 -66 -155 -148z"/>
<path d="M2830 2378 l0 -313 155 155 c85 85 155 159 155 165 0 12 -291 305
-303 305 -4 0 -7 -141 -7 -312z"/>
<path d="M3373 2538 l-153 -153 151 -152 c83 -84 155 -153 160 -153 5 0 9 129
9 305 0 168 -3 305 -8 305 -4 0 -76 -69 -159 -152z"/>
<path d="M1843 2223 l157 -158 157 158 158 157 -315 0 -315 0 158 -157z"/>
<path d="M620 2155 l-155 -155 158 -158 157 -157 0 313 c0 171 -1 312 -3 312
-1 0 -72 -70 -157 -155z"/>
<path d="M850 2000 l0 -315 157 158 158 157 -158 157 -157 158 0 -315z"/>
<path d="M1390 2155 l-155 -155 158 -158 157 -157 0 313 c0 171 -1 312 -3 312
-1 0 -72 -70 -157 -155z"/>
<path d="M1620 2000 l0 -315 157 158 158 157 -158 157 -157 158 0 -315z"/>
<path d="M2220 2155 l-155 -155 158 -158 157 -157 0 313 c0 171 -1 312 -3 312
-1 0 -72 -70 -157 -155z"/>
<path d="M2450 2000 l0 -315 157 158 158 157 -158 157 -157 158 0 -315z"/>
<path d="M2990 2155 l-155 -155 158 -158 157 -157 0 313 c0 171 -1 312 -3 312
-1 0 -72 -70 -157 -155z"/>
<path d="M3220 2000 l0 -315 157 158 158 157 -158 157 -157 158 0 -315z"/>
<path d="M1012 1777 c-83 -84 -152 -157 -152 -162 0 -6 70 -80 155 -165 l155
-155 0 318 c0 174 -1 317 -3 317 -1 0 -71 -69 -155 -153z"/>
<path d="M1230 1622 c0 -171 3 -312 8 -312 11 0 302 294 302 305 0 6 -70 80
-155 165 l-155 155 0 -313z"/>
<path d="M1840 1775 l-155 -155 315 0 315 0 -155 155 c-85 85 -157 155 -160
155 -3 0 -75 -70 -160 -155z"/>
<path d="M2613 1778 c-84 -84 -153 -158 -153 -163 0 -14 298 -310 305 -304 3
3 4 144 3 313 l-3 306 -152 -152z"/>
<path d="M2830 1615 l0 -320 155 155 c85 85 155 159 155 165 0 6 -70 80 -155
165 l-155 155 0 -320z"/>
<path d="M460 1615 c0 -168 3 -305 8 -305 4 0 76 69 160 153 l152 152 -153
153 c-84 83 -156 152 -160 152 -4 0 -7 -137 -7 -305z"/>
<path d="M3370 1770 l-155 -150 154 -154 c85 -85 158 -153 163 -150 10 7 11
604 0 604 -4 0 -78 -68 -162 -150z"/>
<path d="M1843 1393 l157 -158 157 158 158 157 -315 0 -315 0 158 -157z"/>
<path d="M620 1385 l-155 -155 158 -158 157 -157 0 313 c0 171 -1 312 -3 312
-1 0 -72 -70 -157 -155z"/>
<path d="M850 1230 l0 -315 157 158 158 157 -158 157 -157 158 0 -315z"/>
<path d="M1450 1385 l-155 -155 320 0 320 0 -155 155 c-85 85 -159 155 -165
155 -6 0 -80 -70 -165 -155z"/>
<path d="M2220 1385 l-155 -155 313 0 c171 0 312 3 312 8 0 11 -294 302 -305
302 -6 0 -80 -70 -165 -155z"/>
<path d="M2988 1388 c-81 -83 -148 -154 -148 -157 0 -4 70 -76 155 -161 l155
-155 0 313 c0 171 -3 312 -7 312 -3 0 -73 -68 -155 -152z"/>
<path d="M3220 1230 l0 -315 157 158 158 157 -158 157 -157 158 0 -315z"/>
<path d="M1450 1015 c85 -85 159 -155 165 -155 6 0 80 70 165 155 l155 155
-320 0 -320 0 155 -155z"/>
<path d="M2220 1015 c85 -85 159 -155 165 -155 6 0 80 70 165 155 l155 155
-320 0 -320 0 155 -155z"/>
<path d="M460 852 c0 -172 3 -312 8 -312 4 0 76 69 159 153 l153 152 -153 152
c-83 84 -155 156 -159 159 -5 4 -8 -133 -8 -304z"/>
<path d="M1070 1005 l-155 -155 313 0 c171 0 312 4 312 8 0 10 -299 302 -308
302 -4 0 -77 -70 -162 -155z"/>
<path d="M1840 1005 l-155 -155 315 0 315 0 -155 155 c-85 85 -157 155 -160
155 -3 0 -75 -70 -160 -155z"/>
<path d="M2607 1012 c-81 -81 -147 -150 -147 -154 0 -5 141 -8 312 -8 l313 0
-155 155 c-85 85 -159 155 -165 155 -5 0 -76 -67 -158 -148z"/>
<path d="M3377 1003 l-157 -158 155 -155 c85 -85 157 -152 160 -149 3 3 4 144
3 313 l-3 306 -158 -157z"/>
<path d="M692 627 c-84 -84 -152 -156 -152 -160 0 -4 139 -7 310 -7 171 0 310
2 310 4 0 2 -290 293 -314 313 -1 1 -70 -66 -154 -150z"/>
<path d="M1073 623 l157 -158 157 158 158 157 -315 0 -315 0 158 -157z"/>
<path d="M1462 627 c-83 -84 -152 -156 -152 -160 0 -4 137 -7 305 -7 239 0
305 3 305 13 0 11 -289 307 -300 307 -3 0 -74 -69 -158 -153z"/>
<path d="M1843 623 l157 -158 157 158 158 157 -315 0 -315 0 158 -157z"/>
<path d="M2225 630 c-82 -82 -146 -153 -141 -157 10 -11 606 -16 606 -6 0 9
-302 313 -310 313 -3 0 -72 -67 -155 -150z"/>
<path d="M2613 623 l157 -158 157 158 158 157 -315 0 -315 0 158 -157z"/>
<path d="M3002 627 c-84 -83 -155 -155 -158 -159 -4 -4 134 -7 305 -8 171 0
311 3 311 7 0 5 -69 77 -152 160 l-153 152 -153 -152z"/>
</g>
</svg>
