<?xml version="1.0" standalone="no"?>
<!DOCTYPE svg PUBLIC "-//W3C//DTD SVG 20010904//EN"
 "http://www.w3.org/TR/2001/REC-SVG-20010904/DTD/svg10.dtd">
<svg version="1.0" xmlns="http://www.w3.org/2000/svg"
 width="500.000000pt" height="500.000000pt" viewBox="0 0 500.000000 500.000000"
 preserveAspectRatio="xMidYMid meet">

<g transform="translate(0.000000,500.000000) scale(0.100000,-0.100000)"
fill="#000000" stroke="none">
<path d="M3265 4849 c-145 -20 -248 -98 -313 -236 -23 -50 -27 -71 -27 -153 0
-86 3 -101 32 -162 144 -305 562 -311 710 -10 36 72 38 81 38 171 0 87 -3 102
-32 163 -75 159 -239 250 -408 227z m100 -202 c55 -190 57 -225 14 -261 -43
-36 -91 -35 -130 3 -20 21 -29 39 -29 63 0 33 90 362 97 355 2 -2 24 -74 48
-160z"/>
<path d="M3280 4569 c-36 -130 -36 -141 13 -169 24 -13 28 -13 54 6 15 12 29
30 31 42 3 16 -53 230 -62 240 -2 1 -18 -52 -36 -119z"/>
<path d="M2520 4590 l0 -90 90 0 90 0 0 90 0 90 -90 0 -90 0 0 -90z"/>
<path d="M2210 4525 l0 -105 105 0 105 0 0 105 0 105 -105 0 -105 0 0 -105z"/>
<path d="M1820 4460 l0 -140 135 0 135 0 0 140 0 140 -135 0 -135 0 0 -140z"/>
<path d="M1320 4355 l0 -205 203 2 202 3 3 203 2 202 -205 0 -205 0 0 -205z"/>
<path d="M2520 4330 l0 -90 90 0 90 0 0 90 0 90 -90 0 -90 0 0 -90z"/>
<path d="M2210 4220 l0 -110 105 0 106 0 -3 108 -3 107 -102 3 -103 3 0 -111z"/>
<path d="M1820 4065 l0 -135 135 0 135 0 0 135 0 135 -135 0 -135 0 0 -135z"/>
<path d="M2520 4065 l0 -96 88 3 87 3 3 93 3 92 -91 0 -90 0 0 -95z"/>
<path d="M2210 3910 l0 -110 105 0 105 0 0 110 0 110 -105 0 -105 0 0 -110z"/>
<path d="M1320 3775 l0 -205 205 0 205 0 -2 203 -3 202 -202 3 -203 2 0 -205z"/>
<path d="M2950 3697 l0 -257 70 0 70 0 0 180 0 180 180 0 180 0 0 70 0 70
-143 0 c-79 0 -192 3 -250 7 l-107 6 0 -256z"/>
<path d="M2520 3805 l0 -95 90 0 91 0 -3 93 -3 92 -87 3 -88 3 0 -96z"/>
<path d="M1820 3670 l0 -140 135 0 135 0 0 140 0 140 -135 0 -135 0 0 -140z"/>
<path d="M3170 3470 l0 -250 255 0 255 0 0 250 0 250 -255 0 -255 0 0 -250z"/>
<path d="M2210 3605 l0 -105 105 0 105 0 0 105 0 105 -105 0 -105 0 0 -105z"/>
<path d="M2520 3540 l0 -90 90 0 90 0 0 90 0 90 -90 0 -90 0 0 -90z"/>
<path d="M1400 2955 l0 -195 193 2 192 3 3 193 2 192 -195 0 -195 0 0 -195z"/>
<path d="M2255 2999 c-104 -76 -191 -142 -192 -147 0 -4 33 -110 75 -237 l77
-230 248 -3 c136 -1 247 -1 247 1 0 3 34 109 75 238 41 128 71 237 67 241 -30
28 -385 278 -395 277 -6 0 -97 -63 -202 -140z"/>
<path d="M3152 2728 l-191 -333 381 -3 c210 -1 383 -1 385 2 4 3 -361 642
-376 659 -4 4 -94 -142 -199 -325z"/>
<path d="M1828 2723 c-24 -21 -59 -53 -78 -70 l-35 -33 -120 0 c-146 0 -146
18 0 22 l100 3 0 30 0 30 -140 3 -140 2 -98 -92 -97 -93 0 -67 c0 -38 3 -68 6
-68 3 0 31 23 62 51 32 28 67 55 80 60 13 5 98 9 190 9 l166 0 98 98 c54 54
98 103 98 109 0 14 -28 43 -41 43 -5 0 -28 -17 -51 -37z"/>
<path d="M735 2395 c-90 -32 -148 -147 -125 -248 11 -51 20 -61 500 -538 465
-465 491 -489 566 -525 l78 -39 891 0 c957 0 930 1 1016 -53 76 -49 466 -378
599 -506 l125 -121 6 350 c3 206 2 371 -4 400 -11 58 -10 57 -622 649 -286
276 -382 363 -425 384 l-55 27 -680 0 -680 0 -41 -22 c-151 -80 -152 -289 -4
-373 l45 -25 528 -3 527 -3 0 -40 0 -39 -642 0 -643 0 -285 266 c-454 424
-487 452 -528 464 -50 14 -99 12 -147 -5z"/>
</g>
</svg>
