<?xml version="1.0" standalone="no"?>
<!DOCTYPE svg PUBLIC "-//W3C//DTD SVG 20010904//EN"
 "http://www.w3.org/TR/2001/REC-SVG-20010904/DTD/svg10.dtd">
<svg version="1.0" xmlns="http://www.w3.org/2000/svg"
 width="400.000000pt" height="400.000000pt" viewBox="0 0 400.000000 400.000000"
 preserveAspectRatio="xMidYMid meet">

<g transform="translate(0.000000,400.000000) scale(0.100000,-0.100000)"
fill="#000000" stroke="none">
<path d="M1948 3772 c-26 -20 -84 -64 -130 -96 -129 -93 -188 -138 -188 -145
1 -3 40 -34 88 -68 48 -34 131 -94 184 -133 54 -38 102 -70 107 -70 5 0 40 24
78 53 38 28 85 63 104 77 18 13 68 49 109 78 41 30 76 58 78 62 3 7 -97 87
-174 140 -12 8 -60 43 -108 78 -47 34 -90 62 -94 62 -4 -1 -28 -17 -54 -38z"/>
<path d="M1513 3457 c-23 -18 -42 -39 -43 -47 0 -8 15 -60 34 -115 18 -55 48
-147 66 -205 18 -58 35 -108 39 -112 3 -4 47 22 96 58 50 36 123 89 163 117
l73 52 -33 28 c-30 25 -130 99 -229 168 -20 14 -54 39 -77 57 -22 18 -41 32
-43 31 -2 0 -23 -15 -46 -32z"/>
<path d="M2363 3423 c-48 -36 -132 -97 -185 -135 -54 -39 -98 -73 -98 -78 0
-4 30 -30 68 -57 168 -124 250 -183 255 -183 3 0 9 15 13 32 3 18 12 46 20 63
26 62 104 314 104 339 0 18 -12 32 -45 55 l-44 30 -88 -66z"/>
<path d="M1345 3332 c-27 -20 -86 -62 -130 -94 -159 -115 -195 -143 -195 -152
0 -5 19 -66 41 -135 23 -69 54 -164 69 -211 15 -46 32 -86 37 -87 5 -2 35 16
66 39 31 24 112 84 181 133 81 57 126 96 126 108 0 19 -129 417 -139 429 -3 4
-28 -10 -56 -30z"/>
<path d="M2595 3313 c-10 -32 -23 -74 -30 -93 -20 -55 -95 -286 -95 -293 0 -4
44 -39 98 -78 53 -40 129 -96 167 -124 71 -52 115 -79 119 -73 1 2 15 44 31
93 15 50 43 135 61 190 56 172 59 154 -42 227 -48 35 -122 88 -164 119 -41 31
-87 63 -101 72 l-26 17 -18 -57z"/>
<path d="M1933 3112 c-34 -26 -114 -85 -178 -130 -63 -46 -115 -88 -115 -94 0
-11 15 -58 84 -268 l51 -155 234 0 233 0 49 150 c27 83 58 176 69 209 23 67
23 68 -49 119 -25 19 -103 75 -172 125 -69 51 -130 92 -135 92 -5 0 -37 -22
-71 -48z"/>
<path d="M1385 2714 c-93 -69 -176 -131 -184 -138 -11 -12 -11 -22 4 -65 l17
-51 238 0 238 0 -33 103 c-74 230 -90 277 -100 277 -5 -1 -86 -57 -180 -126z"/>
<path d="M2430 2814 c-6 -14 -10 -29 -10 -34 0 -4 -22 -77 -50 -160 -27 -83
-50 -154 -50 -156 0 -2 107 -3 237 -2 l237 3 15 47 c12 39 12 50 1 63 -14 17
-355 265 -364 265 -4 0 -11 -12 -16 -26z"/>
<path d="M1259 2347 c5 -18 24 -80 43 -137 20 -58 48 -144 63 -192 l27 -88
234 0 c216 0 234 1 234 18 0 9 -31 109 -68 222 l-67 205 -236 3 -237 2 7 -33z"/>
<path d="M1820 2323 c10 -32 43 -132 72 -223 l54 -165 61 -3 61 -3 71 218 c39
120 71 222 71 226 0 4 -92 7 -204 7 l-204 0 18 -57z"/>
<path d="M2221 2164 c-39 -118 -71 -220 -71 -225 0 -5 96 -9 234 -9 l233 0 16
43 c27 75 127 388 127 398 0 5 -93 9 -234 9 l-235 0 -70 -216z"/>
<path d="M605 1923 c-35 -9 -87 -55 -102 -91 -19 -45 -19 -112 0 -148 9 -16
188 -201 400 -411 329 -329 392 -387 443 -410 l59 -28 720 0 c709 0 721 0 765
-21 72 -33 318 -236 515 -424 l100 -95 6 275 c3 151 1 296 -3 321 -8 43 -23
59 -246 275 -491 477 -551 533 -591 553 -39 20 -54 21 -581 21 -600 0 -582 2
-638 -66 -28 -34 -32 -46 -32 -100 0 -74 26 -119 85 -149 38 -19 63 -20 463
-23 l423 -3 -3 -32 -3 -32 -506 -3 -506 -2 -40 32 c-51 42 -238 214 -424 389
-176 167 -221 192 -304 172z"/>
</g>
</svg>
