<svg width="499.99999999999994" height="499.99999999999994" xmlns="http://www.w3.org/2000/svg" enable-background="new 0 0 500 500">

 <g>
  <title>Layer 1</title>
  <path id="svg_1" fill-rule="evenodd" d="m298.473,332.997c0,-2.802 0,-5.242 0,-8.212c-14.722,0 -29.174,0.015 -43.626,-0.003c-19.157,-0.023 -38.316,0.072 -57.472,-0.166c-10.302,-0.129 -18.292,-7.216 -20.328,-17.286c-1.853,-9.163 3.034,-19.079 12.012,-22.986c3.381,-1.472 7.402,-2.037 11.135,-2.051c40.813,-0.139 81.629,0.009 122.443,-0.161c9.123,-0.038 15.375,4.223 21.629,10.393c25.26,24.919 50.955,49.397 76.488,74.041c3.596,3.471 6.904,7.313 10.838,10.345c6.215,4.787 8.258,10.58 8.043,18.449c-0.553,20.143 -0.186,40.312 -0.184,60.47l0,8.481c-9.523,-9.161 -17.688,-17.688 -26.564,-25.398c-13.682,-11.885 -27.795,-23.277 -41.836,-34.744c-8.523,-6.962 -18.785,-9.397 -29.422,-9.31c-23.133,0.192 -46.261,1.237 -69.394,1.434c-28.321,0.242 -56.652,-0.366 -84.968,0.079c-12.632,0.199 -23.001,-4.502 -31.481,-12.761c-29.835,-29.058 -59.207,-58.59 -88.763,-87.933c-6.604,-6.557 -8.228,-14.462 -5.22,-22.947c2.912,-8.216 9.268,-12.885 18.003,-13.75c6.879,-0.682 12.596,2 17.604,6.694c19.688,18.456 39.46,36.825 59.202,55.224c3.777,3.521 7.468,7.144 11.396,10.486c1.268,1.08 3.166,2.005 4.778,2.009c41.318,0.085 82.636,0.04 123.953,0.002c0.472,0 0.942,-0.21 1.734,-0.399z" clip-rule="evenodd"/>
  <g>
   <g fill-rule="evenodd" clip-rule="evenodd">
    <path d="m237.6888,196.0933c-7.56253,0 -15.12553,-0.04753 -22.68758,0.03843c-1.5884,0.0177 -2.40288,-0.36054 -2.92478,-2.07321c-4.62761,-15.1911 -9.32522,-30.35894 -14.08414,-45.50554c-0.48328,-1.53924 -0.3114,-2.3402 0.9767,-3.31209c12.39049,-9.34767 24.73898,-18.75753 37.0585,-28.20785c1.1843,-0.90918 1.95919,-0.91727 3.14832,-0.00506c12.44794,9.55095 24.92775,19.05739 37.44715,28.50569c1.12347,0.8485 1.37742,1.58323 0.96511,2.89744c-4.79852,15.31195 -9.58544,30.62846 -14.30092,45.96873c-0.44321,1.44215 -1.13795,1.72633 -2.42798,1.71773c-7.7233,-0.05006 -15.44708,-0.02478 -23.17037,-0.02427z"/>
    <path d="m155.60518,204.12776l2.41591,0c15.60833,0 31.21618,0.02478 46.82403,-0.03489c1.69413,-0.00657 2.48833,0.44397 3.04355,2.26435c4.77775,15.67097 9.68249,31.29947 14.54473,46.94213c0.19505,0.62803 0.34665,1.27123 0.57694,2.12429c-0.69571,0.08647 -1.29245,0.22401 -1.88918,0.22451c-15.84925,0.01163 -31.69849,-0.00101 -47.54774,0.02882c-1.32431,0.00253 -2.1581,-0.18811 -2.64186,-1.77336c-4.92887,-16.14984 -9.94754,-32.26883 -14.93966,-48.39742c-0.09656,-0.31351 -0.17767,-0.63107 -0.38672,-1.37843z"/>
    <path d="m319.61745,204.29261c-2.09099,6.72581 -4.14674,13.32824 -6.19718,19.9332c-3.04645,9.81035 -6.10834,19.61615 -9.10892,29.44217c-0.37803,1.23786 -0.7155,2.02619 -2.20638,2.02113c-16.07906,-0.05309 -32.15763,-0.03388 -48.23621,-0.04248c-0.37658,-0.00051 -0.75316,-0.09658 -1.41218,-0.18659c1.21327,-3.98259 2.35846,-7.79579 3.53648,-11.59787c3.90679,-12.60363 7.84641,-25.19512 11.70927,-37.8124c0.43693,-1.42647 1.03415,-1.96197 2.51006,-1.95641c15.9178,0.05663 31.83561,0.03439 47.75389,0.04197c0.47314,0.00051 0.9458,0.08748 1.65116,0.15726z"/>
    <path d="m146.5793,175.15686c-2.18176,-6.95134 -4.29496,-13.6195 -6.36567,-20.30132c-2.99044,-9.65157 -5.92585,-19.32185 -8.95105,-28.96129c-0.39976,-1.27477 -0.47024,-2.0899 0.71406,-2.98391c13.28704,-10.03891 26.53498,-20.13344 39.79789,-30.20775c0.12215,-0.09304 0.29837,-0.10771 0.7382,-0.25688c5.2591,16.94575 10.51724,33.88998 15.81014,50.94495c-13.91903,10.5916 -27.7357,21.10633 -41.74356,31.7662z"/>
    <path d="m279.19965,74.22419c-5.98475,4.56461 -11.68175,8.91583 -17.3855,13.25795c-7.53307,5.73522 -15.08015,11.44971 -22.59536,17.21021c-0.99601,0.76355 -1.74,1.17162 -2.94699,0.24676c-13.02489,-9.98126 -26.09129,-19.90235 -39.15287,-29.83204c-0.32299,-0.24575 -0.71357,-0.39543 -1.31466,-0.72107c7.42058,-5.65431 14.35161,-10.94101 21.28892,-16.2181c6.3005,-4.79317 12.62223,-9.55499 18.89955,-14.38153c1.0047,-0.77215 1.72938,-1.1792 2.94023,-0.25182c13.2827,10.17746 26.60837,20.29424 40.26668,30.68964z"/>
    <path d="m303.02035,92.35571c9.38508,7.1359 18.47566,14.04729 27.56479,20.95969c4.15881,3.16292 8.35286,6.2783 12.43443,9.5469c0.62522,0.50061 1.21423,1.87803 1.00132,2.57635c-4.93804,16.21658 -9.9881,32.39524 -15.02173,48.57946c-0.09173,0.29581 -0.2414,0.5719 -0.45286,1.06391c-6.61431,-5.02325 -13.10696,-9.94486 -19.59092,-14.88012c-6.75481,-5.14107 -13.52217,-10.26494 -20.21662,-15.49146c-0.6426,-0.50162 -1.32093,-1.84617 -1.11864,-2.51162c5.03171,-16.53717 10.17928,-33.03541 15.40025,-49.84311z"/>
    <path d="m296.46446,87.37696c-5.29724,17.06963 -10.56021,34.03156 -15.89173,51.21295c-12.19979,-9.28345 -24.14804,-18.37576 -36.39803,-27.69764c13.95717,-10.62699 27.74246,-21.12201 41.59099,-31.66557c3.61422,2.75333 7.10677,5.41412 10.69877,8.15026z"/>
    <path d="m215.56948,204.21372l44.61137,0c-1.06264,3.46277 -2.06396,6.75565 -3.0841,10.04245c-4.05887,13.07895 -8.15733,26.14526 -12.14523,39.24797c-0.50742,1.66717 -1.20409,2.26435 -2.8596,2.19154c-3.04886,-0.13451 -6.11124,0.04955 -9.15865,-0.10417c-0.72033,-0.0359 -1.83656,-0.7327 -2.04126,-1.37945c-5.18572,-16.39761 -10.27488,-32.8291 -15.37321,-49.25705c-0.04393,-0.14411 0.01931,-0.32666 0.05069,-0.7413z"/>
    <path d="m190.83146,151.47823c4.65657,15.01766 9.19969,29.67073 13.83309,44.61507c-1.04188,0 -1.74917,0 -2.45647,0c-15.60495,0 -31.21087,-0.04096 -46.81534,0.05309c-1.89546,0.01112 -2.69787,-0.65837 -3.17632,-2.46005c-0.79372,-2.98897 -1.84428,-5.90411 -2.61917,-8.89763c-0.1767,-0.68315 0.07532,-1.92303 0.5586,-2.29419c13.41064,-10.29983 26.87632,-20.52078 40.67561,-31.0163z"/>
    <path d="m231.03635,110.88772c-12.08874,9.19951 -23.97085,18.24277 -36.1547,27.51459c-1.14906,-3.71813 -2.21411,-7.17231 -3.28447,-10.62447c-3.98307,-12.85292 -7.93718,-25.71544 -11.99315,-38.54359c-0.49294,-1.55946 -0.31044,-2.41454 0.99215,-3.33889c2.92478,-2.07473 5.74383,-4.31229 8.8429,-6.66361c13.77901,10.48642 27.59714,21.00166 41.59727,31.65596z"/>
    <path d="m270.89362,195.9239c4.55615,-14.69808 9.09347,-29.33801 13.71818,-44.25908c4.51608,3.43951 8.85159,6.74705 13.19193,10.04751c8.89842,6.76576 17.78092,13.55427 26.71796,20.26289c1.25769,0.94407 1.59757,1.73998 1.0187,3.31765c-1.08871,2.96824 -1.97657,6.02395 -2.82195,9.08119c-0.34761,1.25606 -0.87483,1.74909 -2.16341,1.74504c-16.23017,-0.0445 -32.46035,-0.03337 -48.691,-0.04248c-0.23512,0 -0.47121,-0.0713 -0.97042,-0.15271z"/>
   </g>
  </g>
 </g>
</svg>