<?xml version="1.0" standalone="no"?>
<!DOCTYPE svg PUBLIC "-//W3C//DTD SVG 20010904//EN"
 "http://www.w3.org/TR/2001/REC-SVG-20010904/DTD/svg10.dtd">
<svg version="1.0" xmlns="http://www.w3.org/2000/svg"
 width="960.000000pt" height="960.000000pt" viewBox="0 0 960.000000 960.000000"
 preserveAspectRatio="xMidYMid meet">

<g transform="translate(0.000000,960.000000) scale(0.100000,-0.100000)"
fill="#000000" stroke="none">
<path d="M4652 8448 c-77 -57 -174 -128 -216 -158 -72 -51 -173 -125 -425
-309 -55 -41 -101 -77 -101 -80 0 -6 31 -29 255 -191 72 -52 184 -133 250
-181 412 -301 375 -278 409 -260 13 7 86 59 162 115 173 128 488 358 564 411
113 80 140 100 140 106 0 3 -55 46 -122 95 -285 208 -331 242 -404 294 -42 30
-139 101 -216 158 -77 56 -144 102 -148 102 -4 0 -71 -46 -148 -102z"/>
<path d="M3650 7721 c-37 -30 -245 -182 -422 -307 -60 -42 -108 -83 -108 -90
0 -12 22 -44 248 -354 170 -234 234 -323 279 -385 23 -33 51 -71 62 -85 l19
-24 59 40 c74 52 563 406 650 472 13 9 52 37 87 62 36 25 65 50 66 56 0 6 -19
24 -42 39 -24 16 -221 158 -440 317 -218 158 -402 288 -410 288 -7 -1 -29 -13
-48 -29z"/>
<path d="M5800 7686 c-47 -34 -220 -160 -385 -280 -165 -119 -325 -235 -355
-258 l-54 -41 34 -29 c19 -16 76 -58 125 -93 90 -65 185 -134 440 -320 186
-135 259 -185 268 -182 4 1 29 32 55 68 93 131 221 307 343 474 163 223 209
289 209 301 0 5 -37 36 -82 68 -180 129 -376 272 -430 313 -31 24 -62 43 -70
43 -7 0 -51 -29 -98 -64z"/>
<path d="M2630 6979 c-151 -110 -281 -206 -289 -213 -11 -12 -2 -49 59 -238
39 -122 78 -239 85 -258 7 -19 34 -102 60 -185 26 -82 53 -166 60 -185 8 -19
23 -67 35 -107 11 -40 25 -75 30 -78 8 -5 102 59 340 235 49 36 98 72 110 80
26 18 185 134 323 236 l98 72 -33 43 c-65 86 -442 604 -551 757 -17 23 -36 42
-41 42 -6 0 -135 -91 -286 -201z"/>
<path d="M6643 7138 c-16 -24 -106 -146 -198 -273 -92 -126 -202 -277 -243
-335 -42 -58 -89 -122 -105 -143 -16 -20 -27 -44 -24 -51 5 -12 180 -143 536
-400 46 -34 111 -81 145 -106 162 -119 167 -123 177 -113 6 6 21 48 35 94 13
46 28 93 33 104 5 11 30 88 56 170 26 83 64 202 85 265 20 63 59 179 84 257
26 79 44 148 41 153 -4 6 -41 35 -83 65 -42 30 -117 84 -167 121 -196 143
-325 234 -333 234 -5 0 -22 -19 -39 -42z"/>
<path d="M4615 6824 c-93 -68 -197 -144 -230 -167 -33 -24 -112 -81 -175 -127
-63 -46 -161 -117 -218 -158 -57 -41 -106 -81 -109 -88 -3 -8 43 -81 103 -164
60 -83 127 -176 150 -208 22 -31 98 -136 169 -232 71 -96 143 -195 160 -220
47 -66 189 -262 263 -362 35 -49 67 -88 71 -88 6 0 138 175 278 370 30 41 89
122 131 181 42 58 114 157 160 220 46 62 144 197 218 299 73 102 133 191 131
199 -3 20 -899 672 -920 670 -7 0 -88 -56 -182 -125z"/>
<path d="M2004 6527 c-99 -74 -230 -169 -597 -436 -65 -47 -132 -97 -148 -111
l-30 -25 34 -105 c19 -58 72 -220 117 -360 45 -140 86 -264 90 -275 5 -11 28
-83 53 -160 25 -77 50 -140 56 -140 6 0 54 32 107 70 156 114 372 271 472 343
164 119 300 221 305 230 3 4 -7 46 -23 92 -15 47 -55 168 -88 270 -180 557
-224 690 -230 689 -4 0 -57 -37 -118 -82z"/>
<path d="M7462 6583 c-6 -16 -45 -136 -87 -268 -92 -284 -185 -571 -220 -674
-19 -55 -22 -77 -14 -87 13 -16 121 -96 504 -374 154 -112 299 -218 323 -237
48 -36 72 -42 72 -16 0 15 70 238 90 288 5 11 32 94 60 185 28 91 55 174 60
185 24 59 118 369 114 379 -3 7 -17 19 -32 28 -15 9 -213 152 -440 317 -228
166 -415 301 -417 301 -1 0 -7 -12 -13 -27z"/>
<path d="M3504 6017 c-93 -68 -261 -190 -374 -272 -314 -228 -380 -276 -380
-284 0 -7 148 -467 160 -496 5 -11 32 -94 60 -185 112 -356 129 -400 150 -400
10 0 42 9 72 19 29 11 168 57 308 102 140 45 314 101 385 124 72 24 238 78
370 120 132 42 247 80 255 84 9 5 30 12 49 16 18 4 35 13 37 20 3 7 -19 45
-48 84 -29 38 -84 114 -123 168 -38 53 -110 153 -160 220 -49 68 -120 165
-157 215 -37 51 -113 156 -170 234 -57 77 -136 187 -177 243 -40 55 -77 103
-81 106 -4 2 -83 -51 -176 -118z"/>
<path d="M5833 6022 c-48 -65 -109 -147 -134 -183 -25 -35 -99 -136 -163 -224
-64 -88 -151 -207 -193 -265 -136 -188 -235 -324 -290 -397 -29 -39 -54 -77
-55 -83 -3 -12 -5 -11 362 -130 140 -46 335 -109 433 -141 98 -33 183 -59 189
-59 5 0 24 -6 41 -14 28 -12 277 -92 347 -112 14 -3 30 -10 35 -14 6 -4 22
-10 37 -14 14 -3 33 -8 40 -11 11 -4 23 20 47 97 18 57 36 112 41 123 4 11 31
94 60 185 28 91 55 174 60 185 5 11 32 94 60 185 28 91 55 174 60 185 5 11 16
44 25 74 20 63 30 50 -120 158 -60 44 -184 133 -275 199 -344 251 -495 360
-507 367 -8 5 -43 -34 -100 -111z"/>
<path d="M2492 5285 c-18 -13 -81 -59 -140 -103 -59 -43 -199 -145 -312 -227
-113 -81 -246 -179 -297 -216 l-92 -68 20 -68 c11 -37 22 -79 26 -92 3 -14 12
-36 19 -50 8 -14 14 -31 14 -37 0 -13 86 -287 100 -319 5 -11 15 -40 21 -65 7
-25 16 -50 21 -56 8 -10 116 18 228 61 19 7 103 34 185 60 83 26 166 53 185
60 19 8 69 24 110 36 41 12 89 27 105 34 17 7 53 18 80 25 28 7 54 17 59 21 6
5 18 9 28 9 11 0 18 7 18 19 0 11 -27 101 -60 202 -33 100 -60 187 -60 192 0
5 -6 23 -14 40 -8 18 -37 106 -66 197 -28 91 -55 174 -60 185 -5 11 -14 38
-20 60 -23 80 -42 125 -53 124 -7 0 -27 -11 -45 -24z"/>
<path d="M7037 5268 c-27 -77 -54 -160 -137 -418 -45 -140 -102 -314 -126
-386 -24 -72 -44 -140 -44 -151 0 -16 14 -25 68 -42 37 -11 71 -21 76 -21 4 0
22 -6 39 -14 18 -8 66 -24 107 -36 41 -11 91 -27 110 -35 19 -7 103 -34 185
-60 83 -26 166 -53 185 -60 19 -8 60 -21 90 -30 30 -9 64 -20 75 -25 50 -23
59 -18 81 45 12 33 24 67 27 75 3 8 29 89 57 180 28 91 55 174 60 185 27 61
58 190 49 201 -6 7 -49 41 -97 75 -188 136 -491 355 -557 404 -133 98 -215
155 -224 155 -5 0 -16 -19 -24 -42z"/>
<path d="M4920 3854 c0 -431 -1 -787 -2 -791 -2 -5 257 -9 574 -11 l577 -2 6
22 c3 13 10 32 15 43 4 11 31 94 60 185 28 91 55 174 60 185 5 11 32 94 60
185 28 91 55 174 60 185 5 11 20 58 34 105 14 47 32 105 41 129 17 48 14 71
-10 71 -8 0 -23 4 -33 9 -9 5 -91 33 -182 61 -91 28 -174 55 -185 60 -11 5
-94 32 -185 60 -91 28 -174 55 -185 60 -11 5 -94 32 -185 60 -91 28 -174 55
-185 60 -11 5 -65 23 -120 40 -55 17 -126 40 -157 50 l-58 18 0 -784z"/>
<path d="M4505 4584 c-77 -25 -149 -50 -160 -54 -11 -5 -94 -32 -185 -60 -91
-28 -174 -55 -185 -60 -11 -5 -94 -32 -185 -60 -91 -29 -174 -56 -185 -60 -11
-5 -94 -32 -185 -60 -91 -28 -173 -56 -182 -61 -10 -5 -25 -9 -33 -9 -9 0 -18
-6 -21 -13 -4 -12 61 -232 86 -292 5 -11 32 -94 60 -185 29 -91 56 -174 60
-185 5 -11 32 -94 60 -185 28 -91 55 -174 60 -185 5 -11 12 -30 15 -42 l6 -23
575 0 574 0 0 790 c0 746 -1 790 -17 789 -10 0 -81 -21 -158 -45z"/>
<path d="M2900 4063 c-8 -2 -24 -8 -35 -13 -23 -10 -348 -115 -570 -185 -82
-26 -159 -51 -170 -56 -11 -5 -54 -19 -95 -32 -68 -21 -75 -26 -72 -48 2 -23
95 -321 112 -364 5 -11 28 -81 51 -155 24 -74 47 -141 52 -147 7 -10 131 -13
558 -13 302 0 549 3 549 6 0 11 -62 209 -74 239 -7 17 -19 53 -27 80 -7 28
-19 61 -26 75 -7 14 -13 30 -13 37 0 6 -31 105 -69 220 -37 114 -79 243 -92
286 -24 79 -32 86 -79 70z"/>
<path d="M6637 4049 c-10 -43 -67 -224 -76 -244 -5 -11 -30 -87 -56 -170 -26
-82 -53 -166 -60 -185 -8 -19 -22 -62 -31 -95 -9 -33 -20 -67 -25 -75 -8 -15
-69 -213 -69 -224 0 -3 249 -6 554 -6 l554 0 47 148 c25 81 50 156 55 167 4
11 29 88 55 170 25 83 51 163 56 179 5 15 7 32 4 36 -3 5 -38 18 -77 29 -40
12 -82 26 -93 31 -26 11 -308 100 -319 100 -4 0 -22 6 -39 14 -18 8 -106 37
-197 65 -91 29 -173 56 -182 61 -9 5 -35 12 -56 16 -35 5 -40 4 -45 -17z"/>
<path d="M2260 2804 c0 -22 38 -151 56 -191 8 -17 14 -35 14 -39 0 -13 91
-296 106 -331 8 -17 14 -35 14 -40 0 -6 9 -36 20 -69 12 -32 32 -97 46 -144
14 -47 31 -98 38 -115 8 -16 17 -45 21 -62 3 -18 10 -35 15 -38 5 -3 256 -6
559 -8 579 -2 565 -3 542 41 -5 9 -23 60 -39 112 -38 123 -181 563 -243 750
l-48 145 -550 3 c-507 2 -551 1 -551 -14z"/>
<path d="M3610 2808 c0 -6 22 -77 49 -157 27 -80 76 -229 108 -331 33 -102 87
-267 119 -367 l59 -182 363 -3 c200 -2 366 0 368 3 2 4 4 240 4 525 l1 519
-536 3 c-411 2 -535 -1 -535 -10z"/>
<path d="M4922 2294 l3 -525 364 0 c200 1 365 2 366 3 1 2 16 50 34 108 18 58
39 119 47 137 8 17 14 36 14 41 0 10 91 294 191 594 27 81 49 152 49 158 0 7
-178 10 -535 10 l-535 0 2 -526z"/>
<path d="M6235 2808 c-2 -7 -11 -33 -20 -58 -9 -25 -25 -74 -35 -110 -11 -36
-24 -74 -29 -85 -6 -11 -19 -54 -31 -95 -11 -41 -27 -91 -35 -110 -7 -19 -34
-102 -60 -185 -26 -82 -53 -166 -60 -185 -27 -71 -65 -203 -60 -208 8 -8 1098
-3 1106 6 5 6 30 80 206 627 36 110 69 209 73 220 5 11 19 54 30 95 12 41 23
81 25 88 4 9 -111 12 -551 12 -435 0 -556 -3 -559 -12z"/>
</g>
</svg>
