<?xml version="1.0" standalone="no"?>
<!DOCTYPE svg PUBLIC "-//W3C//DTD SVG 20010904//EN"
 "http://www.w3.org/TR/2001/REC-SVG-20010904/DTD/svg10.dtd">
<svg version="1.0" xmlns="http://www.w3.org/2000/svg"
 width="600.000000pt" height="600.000000pt" viewBox="0 0 600.000000 600.000000"
 preserveAspectRatio="xMidYMid meet">

<g transform="translate(0.000000,600.000000) scale(0.100000,-0.100000)"
fill="#000000" stroke="none">
<path d="M2942 5775 c-35 -8 -103 -33 -150 -56 -68 -33 -103 -59 -167 -121
l-80 -80 -110 -28 c-672 -173 -1274 -632 -1596 -1217 -46 -82 -46 -82 -118
-111 -177 -72 -335 -260 -388 -462 -48 -186 -3 -402 117 -565 l37 -50 6 -210
c6 -234 22 -354 72 -561 99 -412 292 -783 580 -1119 49 -57 52 -64 58 -130 26
-279 196 -496 462 -586 97 -33 297 -34 394 -2 l64 22 162 -54 c169 -57 392
-107 557 -124 54 -6 177 -11 275 -11 302 1 554 45 851 151 l113 40 62 -21 c42
-15 97 -23 172 -27 133 -7 200 8 325 70 206 101 359 336 360 553 0 45 5 56 46
104 265 310 454 655 559 1016 65 224 104 509 105 759 l0 140 36 50 c84 118
124 241 124 387 0 242 -103 438 -303 576 -32 22 -81 49 -109 59 -57 20 -54 17
-144 168 -333 558 -920 993 -1558 1154 l-111 28 -80 80 c-132 130 -287 193
-475 192 -47 0 -113 -7 -148 -14z m318 -145 c86 -25 171 -81 241 -158 246
-272 154 -699 -183 -852 -205 -92 -436 -50 -599 110 -214 210 -218 547 -8 760
146 149 344 199 549 140z m-969 -926 c234 -70 399 -284 399 -520 0 -294 -248
-545 -540 -544 -237 1 -454 159 -521 382 -31 100 -24 266 14 358 66 159 218
292 376 329 63 15 213 12 272 -5z m1908 1 c96 -25 162 -65 242 -144 119 -118
159 -217 159 -385 0 -118 -24 -198 -84 -289 -263 -396 -860 -294 -981 168 -71
273 109 575 386 649 70 19 209 20 278 1z m-3033 -649 c172 -63 299 -196 348
-365 23 -78 21 -223 -4 -302 -40 -131 -143 -260 -258 -322 -63 -34 -189 -67
-256 -67 -172 1 -344 88 -442 225 -152 213 -135 497 39 683 152 162 375 219
573 148z m4119 24 c102 -14 221 -76 299 -154 107 -108 159 -234 158 -391 -3
-446 -524 -694 -873 -416 -397 316 -187 943 326 970 11 0 52 -4 90 -9z m-3494
-1209 c213 -82 353 -283 353 -506 0 -162 -53 -283 -168 -393 -120 -113 -242
-158 -401 -149 -49 2 -112 12 -138 21 -264 92 -424 372 -362 635 46 193 198
353 386 406 79 22 256 15 330 -14z m2952 14 c159 -41 298 -165 363 -325 33
-78 44 -229 24 -319 -42 -191 -203 -355 -397 -406 -284 -74 -584 108 -658 400
-70 274 109 575 386 649 71 19 210 20 282 1z m-1492 -1055 c242 -74 402 -303
386 -550 -7 -106 -34 -185 -94 -273 -103 -152 -263 -237 -445 -237 -326 0
-586 296 -537 613 33 212 173 378 374 443 93 31 226 32 316 4z m-1279 -201
c151 -31 306 -152 372 -292 104 -220 64 -450 -109 -622 -110 -110 -219 -155
-375 -155 -91 0 -176 18 -238 49 -122 62 -229 182 -273 306 -27 75 -36 218
-19 298 58 283 355 475 642 416z m2492 -4 c279 -73 459 -354 403 -627 -34
-167 -136 -304 -282 -379 -89 -46 -148 -60 -251 -61 -146 0 -276 54 -379 157
-168 168 -208 411 -103 625 40 82 149 193 234 238 114 59 260 77 378 47z"/>
<path d="M3032 5347 c-35 -122 -63 -230 -62 -240 1 -76 85 -137 159 -117 57
15 91 59 91 118 0 39 -107 442 -121 456 -2 2 -32 -95 -67 -217z m116 -65 c50
-176 51 -200 16 -236 -47 -46 -124 -32 -149 28 -15 35 -14 42 29 196 39 136
47 160 55 160 4 0 26 -67 49 -148z"/>
<path d="M2082 4418 c-34 -123 -62 -234 -62 -248 0 -58 68 -120 131 -120 35 0
89 31 104 61 8 15 15 46 15 69 0 35 -101 412 -119 448 -4 7 -35 -88 -69 -210z
m116 -71 c23 -83 42 -164 42 -178 0 -33 -42 -79 -72 -80 -61 -3 -80 7 -104 53
-14 26 -13 37 11 126 41 156 65 232 73 232 4 0 26 -69 50 -153z"/>
<path d="M4057 4625 c-68 -227 -117 -414 -117 -446 0 -23 8 -54 17 -70 18 -31
67 -59 102 -59 66 0 131 63 131 125 -1 48 -126 473 -133 450z m59 -286 c48
-167 49 -196 7 -229 -59 -46 -153 -10 -153 60 0 28 74 302 87 323 9 14 13 3
59 -154z"/>
<path d="M986 3990 c-31 -83 -116 -417 -116 -454 0 -38 5 -52 33 -81 21 -24
44 -38 68 -41 72 -12 149 51 149 121 -1 43 -127 473 -134 455z m18 -147 c74
-245 86 -298 75 -330 -14 -42 -44 -63 -92 -63 -49 0 -87 35 -87 81 0 39 80
329 91 329 4 0 10 -8 13 -17z"/>
<path d="M5186 3950 c-124 -432 -126 -442 -73 -495 19 -19 48 -36 69 -40 72
-14 148 48 148 120 0 17 -29 129 -64 250 l-64 220 -16 -55z m48 -172 c72 -239
75 -260 33 -305 -30 -34 -96 -32 -131 3 -14 15 -26 38 -26 53 -1 32 82 331 92
331 4 0 18 -37 32 -82z"/>
<path d="M1542 2610 c-34 -120 -62 -237 -62 -260 0 -32 7 -48 34 -78 32 -34
39 -37 90 -37 49 0 59 4 87 31 52 53 50 86 -23 341 l-64 222 -62 -219z m116
-92 c23 -81 42 -156 42 -166 0 -26 -37 -71 -68 -83 -54 -21 -122 29 -122 89 0
15 64 249 86 311 9 26 20 -2 62 -151z"/>
<path d="M4587 2770 c-9 -30 -35 -120 -58 -200 -50 -170 -58 -234 -35 -279 29
-54 108 -77 166 -48 34 17 70 74 69 111 0 17 -28 130 -63 251 l-63 220 -16
-55z m39 -147 c9 -32 29 -103 45 -158 18 -59 27 -110 24 -126 -7 -31 -40 -64
-73 -74 -48 -14 -112 35 -112 87 -1 31 83 328 92 328 4 0 15 -26 24 -57z"/>
<path d="M3032 1547 c-34 -123 -62 -233 -62 -245 0 -58 64 -122 123 -122 55 0
96 26 118 74 13 30 17 55 13 73 -12 54 -116 418 -123 430 -3 6 -34 -88 -69
-210z m116 -65 c23 -82 42 -162 42 -178 0 -82 -107 -120 -161 -58 -30 35 -28
64 12 208 52 184 49 176 58 176 3 0 26 -67 49 -148z"/>
<path d="M1791 1325 c-72 -254 -73 -274 -15 -324 69 -61 179 -30 205 58 10 34
6 57 -50 252 -34 118 -61 220 -61 227 0 6 -3 12 -8 12 -4 0 -36 -101 -71 -225z
m89 44 c6 -22 24 -86 41 -142 37 -131 37 -160 0 -198 -37 -37 -79 -38 -120 -3
-24 20 -31 34 -31 63 0 29 35 171 76 304 9 29 23 19 34 -24z"/>
<path d="M4272 1341 c-34 -121 -62 -233 -62 -251 0 -69 53 -120 125 -120 73 0
125 51 125 123 0 26 -114 454 -124 464 -1 1 -30 -96 -64 -216z m116 -84 c24
-83 43 -162 42 -175 0 -38 -52 -82 -95 -82 -43 0 -95 44 -95 81 0 21 76 304
87 322 11 19 21 -4 61 -146z"/>
</g>
</svg>
