<?xml version="1.0" standalone="no"?>
<!DOCTYPE svg PUBLIC "-//W3C//DTD SVG 20010904//EN"
 "http://www.w3.org/TR/2001/REC-SVG-20010904/DTD/svg10.dtd">
<svg version="1.0" xmlns="http://www.w3.org/2000/svg"
 width="600.000000pt" height="600.000000pt" viewBox="0 0 600.000000 600.000000"
 preserveAspectRatio="xMidYMid meet">

<g transform="translate(0.000000,600.000000) scale(0.100000,-0.100000)"
fill="#000000" stroke="none">
<path d="M2935 5774 c-115 -28 -221 -89 -313 -179 -79 -78 -88 -84 -146 -95
-33 -6 -130 -35 -215 -62 -269 -88 -575 -256 -811 -444 -207 -165 -447 -440
-575 -660 -83 -142 -84 -144 -148 -170 -134 -54 -271 -184 -338 -319 -54 -111
-73 -190 -73 -310 0 -148 38 -261 129 -390 l42 -60 6 -210 c9 -313 56 -568
158 -848 95 -261 276 -572 461 -793 84 -100 85 -101 92 -170 15 -147 60 -260
147 -370 84 -106 223 -193 369 -230 86 -22 249 -15 340 15 l65 20 115 -40
c281 -99 500 -139 801 -146 348 -9 616 35 942 153 l98 35 67 -23 c58 -20 86
-23 202 -22 122 0 141 3 204 27 110 44 176 86 256 167 120 119 189 276 190
426 0 47 4 57 43 100 200 226 399 558 502 838 107 290 165 625 165 951 l0 130
36 50 c164 227 167 546 6 783 -68 99 -180 190 -292 237 -63 26 -63 26 -117
123 -67 121 -191 291 -303 418 -332 375 -801 661 -1283 783 l-112 28 -81 81
c-133 132 -286 192 -479 191 -49 0 -117 -7 -150 -15z m331 -145 c123 -38 254
-151 315 -270 86 -171 74 -392 -29 -542 -199 -286 -589 -327 -833 -87 -214
210 -217 548 -8 760 147 150 352 201 555 139z m-975 -925 c199 -59 351 -224
390 -422 44 -232 -82 -482 -296 -587 -201 -98 -446 -61 -607 92 -118 113 -167
228 -168 389 0 123 21 202 79 291 80 123 182 199 321 239 66 18 216 17 281 -2z
m1899 5 c90 -21 172 -69 251 -148 119 -118 159 -217 159 -385 -1 -161 -52
-281 -169 -388 -217 -202 -543 -196 -751 12 -287 287 -171 764 219 897 73 25
210 31 291 12z m-3110 -630 c37 -5 100 -27 147 -49 287 -139 392 -491 228
-765 -138 -230 -425 -325 -670 -223 -117 49 -237 164 -286 274 -90 201 -53
435 94 592 132 140 304 201 487 171z m4210 1 c98 -15 219 -79 294 -154 104
-104 157 -232 158 -378 0 -148 -42 -261 -138 -366 -207 -229 -545 -242 -772
-28 -353 333 -125 912 368 935 14 0 54 -4 90 -9z m-2055 -344 c92 -24 167 -68
241 -141 285 -281 185 -743 -192 -892 -61 -24 -82 -27 -184 -27 -92 1 -127 5
-174 22 -169 62 -289 184 -346 352 -30 88 -31 228 -1 321 56 177 215 327 391
369 56 13 210 11 265 -4z m-1490 -851 c268 -70 448 -356 391 -624 -36 -169
-139 -306 -288 -381 -99 -49 -170 -64 -278 -57 -196 12 -361 122 -449 298 -89
178 -76 373 36 541 72 109 182 189 304 222 72 19 211 20 284 1z m3046 -14
c143 -55 265 -176 320 -320 27 -68 37 -231 20 -311 -40 -187 -205 -355 -398
-405 -178 -47 -377 10 -512 145 -114 114 -168 255 -158 410 15 235 173 432
398 495 79 22 256 15 330 -14z m-1556 -1036 c233 -61 405 -284 405 -525 0
-240 -174 -464 -406 -524 -376 -97 -736 232 -670 613 21 119 65 202 155 291
78 77 149 120 238 145 66 18 207 18 278 0z m-1263 -206 c152 -31 305 -151 371
-290 105 -222 66 -454 -107 -624 -77 -76 -165 -127 -256 -146 -78 -17 -242 -7
-308 19 -150 58 -271 181 -323 327 -27 75 -36 218 -19 298 58 283 355 475 642
416z m2492 -4 c256 -67 432 -310 412 -568 -18 -224 -168 -411 -385 -477 -80
-25 -224 -27 -302 -4 -269 79 -440 353 -386 619 24 116 67 197 151 281 76 76
182 137 266 153 72 14 181 12 244 -4z"/>
<path d="M3031 5345 c-69 -242 -72 -270 -27 -318 13 -14 42 -31 64 -38 35 -10
45 -9 78 7 53 27 78 64 76 116 -2 37 -111 440 -123 452 -2 2 -33 -96 -68 -219z
m117 -63 c23 -82 42 -160 42 -174 0 -42 -45 -88 -87 -88 -47 0 -72 15 -88 54
-15 35 -14 42 29 196 39 136 47 160 55 160 4 0 26 -67 49 -148z"/>
<path d="M2082 4417 c-34 -122 -62 -233 -62 -247 0 -39 37 -90 77 -107 93 -38
184 33 174 137 -2 21 -112 412 -120 427 -4 7 -35 -87 -69 -210z m116 -70 c23
-83 42 -165 42 -180 0 -44 -40 -77 -93 -77 -46 0 -78 23 -91 65 -8 27 77 345
92 345 4 0 26 -69 50 -153z"/>
<path d="M4057 4625 c-69 -231 -117 -416 -117 -447 0 -69 55 -128 119 -128 66
0 131 63 131 125 -1 48 -126 473 -133 450z m58 -286 c49 -167 50 -196 8 -229
-59 -46 -153 -10 -153 60 0 28 74 302 87 323 8 14 12 5 58 -154z"/>
<path d="M940 3833 c-77 -275 -80 -289 -69 -325 19 -72 97 -111 169 -85 41 14
80 68 80 109 0 32 -121 458 -130 458 -3 0 -25 -71 -50 -157z m68 -5 c5 -18 26
-91 47 -161 32 -113 35 -133 24 -158 -16 -40 -46 -59 -90 -59 -48 0 -89 37
-89 81 0 39 80 329 91 329 5 0 12 -15 17 -32z"/>
<path d="M5197 3985 c-58 -190 -117 -419 -117 -453 0 -84 93 -142 173 -108 42
17 77 68 77 111 0 47 -126 473 -133 450z m32 -192 c62 -210 71 -249 66 -275
-15 -66 -109 -91 -159 -42 -14 15 -26 38 -26 53 -1 33 83 331 92 331 4 0 16
-30 27 -67z"/>
<path d="M3031 3443 c-65 -233 -68 -260 -35 -311 17 -25 70 -52 105 -52 11 0
37 8 56 17 43 20 77 87 67 130 -13 55 -116 418 -123 430 -3 7 -35 -89 -70
-214z m117 -63 c48 -171 50 -197 21 -229 -50 -54 -127 -43 -154 22 -13 31 -12
43 11 128 40 149 65 229 73 229 4 0 26 -67 49 -150z"/>
<path d="M1542 2607 c-34 -122 -62 -239 -62 -260 0 -28 8 -46 34 -75 32 -34
38 -37 91 -37 53 0 59 3 91 37 26 29 34 46 34 75 0 21 -28 138 -63 260 l-63
222 -62 -222z m116 -89 c23 -81 42 -156 42 -166 0 -26 -37 -71 -68 -83 -52
-20 -122 31 -122 88 0 15 69 266 86 312 9 26 20 -2 62 -151z"/>
<path d="M4585 2765 c-9 -33 -37 -130 -62 -215 -49 -167 -53 -211 -28 -260 27
-52 109 -75 165 -47 34 17 70 74 69 111 0 17 -28 130 -63 251 l-63 220 -18
-60z m44 -152 c79 -271 80 -275 39 -320 -55 -59 -157 -18 -158 64 -1 27 84
323 92 323 4 0 16 -30 27 -67z"/>
<path d="M3033 1546 c-35 -122 -63 -232 -63 -244 0 -58 64 -122 123 -122 55 0
96 26 118 74 13 30 17 55 13 73 -12 54 -116 418 -123 430 -3 6 -34 -89 -68
-211z m115 -64 c23 -82 42 -162 42 -178 0 -82 -107 -121 -161 -58 -29 34 -28
63 12 207 52 184 49 177 58 177 4 0 26 -67 49 -148z"/>
<path d="M1792 1327 c-34 -122 -62 -230 -62 -240 0 -28 27 -73 56 -96 19 -15
41 -21 75 -21 58 0 103 33 120 89 10 34 5 58 -51 257 -34 120 -65 222 -69 226
-3 4 -34 -93 -69 -215z m116 -60 c51 -173 52 -198 13 -238 -39 -38 -80 -39
-122 -1 -46 41 -44 56 47 365 3 9 9 17 13 17 4 0 26 -64 49 -143z"/>
<path d="M4272 1337 c-35 -122 -63 -235 -62 -250 1 -67 54 -117 125 -117 73 0
125 51 125 123 0 25 -114 453 -124 464 -1 1 -30 -98 -64 -220z m116 -80 c24
-83 43 -162 42 -175 0 -13 -13 -37 -29 -53 -38 -38 -91 -40 -126 -5 -41 41
-40 64 6 223 45 159 47 163 57 163 4 0 26 -69 50 -153z"/>
</g>
</svg>
