<svg width="500" height="500" xmlns="http://www.w3.org/2000/svg" enable-background="new 0 0 500 500">

 <g>
  <title>Layer 1</title>
  <path id="svg_1" fill-rule="evenodd" d="m298.473,332.997c0,-2.802 0,-5.242 0,-8.212c-14.722,0 -29.174,0.015 -43.626,-0.003c-19.157,-0.023 -38.316,0.072 -57.472,-0.166c-10.302,-0.129 -18.292,-7.216 -20.328,-17.286c-1.853,-9.163 3.034,-19.079 12.012,-22.986c3.381,-1.472 7.402,-2.037 11.135,-2.051c40.813,-0.139 81.629,0.009 122.443,-0.161c9.123,-0.038 15.375,4.223 21.629,10.393c25.26,24.919 50.955,49.397 76.488,74.041c3.596,3.471 6.904,7.313 10.838,10.345c6.215,4.787 8.258,10.58 8.043,18.449c-0.553,20.143 -0.186,40.312 -0.184,60.47l0,8.481c-9.523,-9.161 -17.688,-17.688 -26.564,-25.398c-13.682,-11.885 -27.795,-23.277 -41.836,-34.744c-8.523,-6.962 -18.785,-9.397 -29.422,-9.31c-23.133,0.192 -46.261,1.237 -69.394,1.434c-28.321,0.242 -56.652,-0.366 -84.968,0.079c-12.632,0.199 -23.001,-4.502 -31.481,-12.761c-29.835,-29.058 -59.207,-58.59 -88.763,-87.933c-6.604,-6.557 -8.228,-14.462 -5.22,-22.947c2.912,-8.216 9.268,-12.885 18.003,-13.75c6.879,-0.682 12.596,2 17.604,6.694c19.688,18.456 39.46,36.825 59.202,55.224c3.777,3.521 7.468,7.144 11.396,10.486c1.268,1.08 3.166,2.005 4.778,2.009c41.318,0.085 82.636,0.04 123.953,0.002c0.472,0 0.942,-0.21 1.734,-0.399z" clip-rule="evenodd"/>
  <g>
   <g fill-rule="evenodd" clip-rule="evenodd">
    <path d="m237.53656,69.66667c10.31748,18.01172 20.40682,35.62479 30.61123,53.43895c-20.443,0 -40.70258,0 -61.21744,0c10.15818,-17.73667 20.2636,-35.38114 30.60621,-53.43895z"/>
    <path d="m161.5248,202.37735c10.27276,17.93827 20.33446,35.50828 30.52631,53.30523c-20.43094,0 -40.55384,0 -61.05111,0c10.18833,-17.79188 20.26411,-35.38772 30.5248,-53.30523z"/>
    <path d="m313.54781,202.37735c10.25517,17.90585 20.31637,35.47637 30.51475,53.28344c-20.41436,0 -40.53625,0 -61.02398,0c10.15869,-17.74274 20.23446,-35.3391 30.50922,-53.28344z"/>
    <path d="m206.99618,255.70385c10.23808,-17.87445 20.29526,-35.43433 30.51877,-53.28243c10.2426,17.88204 20.31737,35.4713 30.51827,53.28243c-20.444,0 -40.55887,0 -61.03704,0z"/>
    <path d="m206.98965,131.79135l61.04508,0c-10.19235,17.79846 -20.26913,35.39482 -30.51877,53.2951c-10.22451,-17.85165 -20.28722,-35.41862 -30.52631,-53.2951z"/>
    <path d="m245.04301,189.27405c10.17879,-17.76908 20.22491,-35.30668 30.50169,-53.24748c10.2808,17.95043 20.32592,35.48903 30.49616,53.24748c-20.444,0 -40.55485,0 -60.99785,0z"/>
    <path d="m275.52259,251.44533c-10.27075,-17.93067 -20.3023,-35.4475 -30.46752,-53.19429l60.93001,0c-10.14562,17.71438 -20.17818,35.23373 -30.46249,53.19429z"/>
    <path d="m229.99694,189.29533c-20.44049,0 -40.52218,0 -60.97624,0c10.16874,-17.7549 20.21536,-35.29655 30.48762,-53.23178c10.26472,17.92155 20.31184,35.4632 30.48862,53.23178z"/>
    <path d="m169.06593,198.21811l60.92498,0c-10.15567,17.73363 -20.1817,35.24184 -30.45696,53.18467c-10.22602,-17.85165 -20.26863,-35.38165 -30.46802,-53.18467z"/>
   </g>
  </g>
 </g>
</svg>