<?xml version="1.0" standalone="no"?>
<!DOCTYPE svg PUBLIC "-//W3C//DTD SVG 20010904//EN"
 "http://www.w3.org/TR/2001/REC-SVG-20010904/DTD/svg10.dtd">
<svg version="1.0" xmlns="http://www.w3.org/2000/svg"
 width="400.000000pt" height="400.000000pt" viewBox="0 0 400.000000 400.000000"
 preserveAspectRatio="xMidYMid meet">

<g transform="translate(0.000000,400.000000) scale(0.100000,-0.100000)"
fill="#000000" stroke="none">
<path d="M1240 3100 c0 -187 2 -340 5 -340 6 0 642 635 664 663 13 16 -5 17
-328 17 l-341 0 0 -340z"/>
<path d="M2415 3100 c187 -187 341 -340 342 -340 2 0 3 153 3 340 l0 340 -342
0 -343 0 340 -340z"/>
<path d="M1625 3050 l-370 -370 375 -375 375 -375 365 371 c201 205 366 375
368 379 4 10 -721 740 -734 740 -5 0 -176 -167 -379 -370z"/>
<path d="M1240 2260 l0 -340 341 0 c323 0 341 1 328 17 -21 27 -658 663 -664
663 -3 0 -5 -153 -5 -340z"/>
<path d="M2415 2260 l-340 -340 343 0 342 0 0 340 c0 187 -1 340 -3 340 -1 0
-155 -153 -342 -340z"/>
<path d="M604 1923 c-44 -8 -95 -65 -109 -120 -26 -99 -36 -86 399 -520 339
-339 400 -396 452 -420 l59 -28 720 0 720 0 48 -22 c69 -32 317 -236 507 -418
l105 -100 5 275 c6 352 7 350 -97 450 -43 41 -215 208 -382 370 -167 162 -324
307 -350 322 l-46 28 -543 0 c-602 0 -584 2 -640 -66 -28 -34 -32 -46 -32 -99
0 -49 5 -68 26 -99 48 -71 48 -71 522 -74 l423 -3 -3 -32 -3 -32 -506 -3 -506
-2 -40 32 c-51 42 -238 214 -424 389 -177 168 -216 190 -305 172z"/>
</g>
</svg>
