<?xml version="1.0" standalone="no"?>
<!DOCTYPE svg PUBLIC "-//W3C//DTD SVG 20010904//EN"
 "http://www.w3.org/TR/2001/REC-SVG-20010904/DTD/svg10.dtd">
<svg version="1.0" xmlns="http://www.w3.org/2000/svg"
 width="600.000000pt" height="600.000000pt" viewBox="0 0 600.000000 600.000000"
 preserveAspectRatio="xMidYMid meet">

<g transform="translate(0.000000,600.000000) scale(0.100000,-0.100000)"
fill="#000000" stroke="none">
<path d="M1782 5033 l3 -396 534 -144 c294 -79 536 -141 539 -139 2 3 -60 246
-139 541 l-143 535 -398 0 -398 0 2 -397z"/>
<path d="M2742 5418 c3 -7 61 -237 129 -510 68 -274 126 -498 129 -498 4 0
185 713 241 952 l16 68 -259 0 c-204 0 -259 -3 -256 -12z"/>
<path d="M3281 4895 c-79 -295 -141 -538 -138 -541 2 -3 245 59 538 138 l534
144 3 397 2 397 -398 0 -398 0 -143 -535z"/>
<path d="M1780 4212 l0 -260 503 126 c276 68 506 128 510 132 5 4 -214 62
-485 129 -271 68 -501 125 -510 127 -17 5 -18 -12 -18 -254z"/>
<path d="M3690 4341 c-483 -122 -503 -129 -465 -139 22 -6 255 -65 518 -130
l477 -120 0 259 c0 201 -3 259 -12 258 -7 0 -240 -58 -518 -128z"/>
<path d="M2830 4070 c-14 -4 -194 -53 -400 -108 -206 -56 -437 -118 -512 -138
l-138 -37 0 -398 0 -399 394 0 c217 0 397 4 400 8 9 15 287 1063 284 1071 -2
4 -14 5 -28 1z"/>
<path d="M3140 4067 c0 -7 50 -196 110 -422 61 -225 125 -465 142 -532 l33
-123 397 0 398 0 0 400 c0 220 -2 400 -4 400 -5 0 -1047 279 -1063 285 -7 2
-13 -1 -13 -8z"/>
<path d="M2871 3513 c-68 -274 -126 -504 -129 -510 -3 -10 53 -13 258 -13 205
0 261 3 258 13 -3 6 -61 236 -129 510 -68 273 -126 497 -129 497 -3 0 -61
-224 -129 -497z"/>
<path d="M889 2876 c-86 -30 -140 -97 -160 -198 -9 -46 -8 -65 6 -114 16 -58
25 -67 333 -378 524 -526 852 -839 918 -875 118 -64 96 -62 804 -62 355 1 814
4 1020 7 481 8 499 5 666 -127 211 -167 504 -418 636 -546 81 -79 151 -143
155 -143 5 0 8 204 8 453 -1 438 -2 453 -22 492 -13 25 -123 139 -280 290
-142 138 -393 381 -558 540 -332 322 -364 349 -435 376 -48 18 -89 19 -843 19
-898 0 -865 3 -941 -74 -47 -46 -76 -115 -76 -177 0 -62 36 -143 82 -184 81
-73 42 -70 746 -73 l633 -3 -3 -47 -3 -47 -766 -3 -767 -2 -68 62 c-38 34
-228 211 -422 392 -404 378 -440 409 -492 425 -49 14 -126 13 -171 -3z"/>
</g>
</svg>
