<?xml version="1.0" standalone="no"?>
<!DOCTYPE svg PUBLIC "-//W3C//DTD SVG 20010904//EN"
 "http://www.w3.org/TR/2001/REC-SVG-20010904/DTD/svg10.dtd">
<svg version="1.0" xmlns="http://www.w3.org/2000/svg"
 width="600.000000pt" height="600.000000pt" viewBox="0 0 600.000000 600.000000"
 preserveAspectRatio="xMidYMid meet">

<g transform="translate(0.000000,600.000000) scale(0.100000,-0.100000)"
fill="#000000" stroke="none">
<path d="M165 5889 c-19 -17 -40 -47 -45 -67 -7 -25 -10 -342 -8 -986 l3 -949
26 -20 c24 -17 30 -18 55 -6 16 8 38 28 49 45 11 17 67 156 125 310 57 153
105 281 107 283 3 4 270 -51 503 -105 l106 -25 18 -87 c38 -189 120 -396 196
-500 42 -58 107 -86 240 -106 125 -18 131 -16 190 74 40 62 96 221 107 303 7
54 4 52 117 87 135 41 286 131 301 179 6 20 -18 192 -36 255 -31 109 -227 222
-519 296 -47 12 -86 23 -88 25 -4 3 -133 638 -130 640 2 1 111 55 243 119 132
64 253 129 268 144 43 40 60 78 47 102 -11 20 -22 20 -925 20 l-914 0 -36 -31z"/>
<path d="M2152 5908 c-5 -7 -13 -24 -17 -38 -17 -58 -58 -109 -136 -170 -160
-127 -245 -248 -256 -367 -4 -48 -1 -70 19 -119 46 -114 205 -308 273 -334
101 -38 244 19 398 160 l78 71 55 -49 c30 -27 92 -71 139 -99 l84 -50 5 -159
c5 -179 20 -256 68 -347 45 -84 86 -109 189 -115 171 -10 240 46 291 236 15
57 21 117 24 232 l3 155 28 15 c71 38 167 103 208 141 l45 41 71 -67 c126
-118 235 -175 336 -175 81 0 142 46 246 185 94 126 111 167 112 256 0 137 -65
233 -289 423 -42 36 -66 67 -89 115 l-32 66 -921 3 c-730 2 -924 -1 -932 -10z"/>
<path d="M4132 5908 c-24 -24 -13 -60 31 -102 31 -30 108 -72 280 -155 131
-63 236 -119 234 -125 -2 -6 -33 -149 -68 -318 l-63 -306 -61 -13 c-100 -20
-265 -77 -360 -124 -96 -48 -153 -93 -179 -143 -18 -35 -41 -136 -51 -230 l-7
-63 41 -39 c49 -47 176 -110 283 -141 l76 -22 12 -61 c33 -175 113 -346 174
-374 29 -13 182 7 253 34 108 40 218 255 284 559 11 49 22 92 25 94 6 6 547
132 549 128 1 -1 43 -114 95 -251 51 -137 101 -268 111 -290 37 -84 97 -118
131 -76 17 21 18 66 18 966 0 1047 3 1002 -65 1044 -32 20 -47 20 -882 20
-647 0 -852 -3 -861 -12z"/>
<path d="M2339 4393 c-11 -30 -5 -191 12 -328 17 -130 60 -292 98 -368 30 -59
44 -75 80 -94 52 -27 137 -31 180 -9 76 40 129 157 151 333 6 48 12 88 13 89
1 1 47 -2 102 -7 92 -8 212 -6 293 7 32 5 32 5 32 -38 0 -61 34 -214 60 -276
27 -62 76 -108 125 -118 62 -11 131 1 169 30 93 71 169 362 170 655 1 117 -1
135 -17 145 -14 9 -27 5 -65 -17 -132 -79 -289 -141 -432 -173 -108 -24 -339
-24 -450 -1 -147 32 -312 97 -440 176 -47 28 -68 27 -81 -6z"/>
<path d="M5325 4191 c-102 -26 -295 -172 -337 -255 -47 -93 -4 -250 111 -398
l51 -68 -59 -71 c-33 -38 -74 -98 -92 -132 l-32 -62 -161 0 c-200 0 -280 -20
-350 -88 -51 -49 -66 -92 -66 -190 0 -84 16 -123 69 -169 71 -61 185 -94 367
-105 l102 -6 12 -41 c17 -55 55 -131 96 -189 l34 -47 -66 -62 c-163 -152 -229
-310 -175 -417 24 -47 65 -83 183 -162 131 -88 210 -124 278 -123 120 0 258
78 385 218 88 97 121 121 203 146 l57 18 3 867 c1 476 -1 873 -5 880 -5 7 -37
28 -73 47 -61 31 -68 39 -122 128 -74 124 -151 208 -225 247 -62 34 -138 47
-188 34z"/>
<path d="M542 4090 c-72 -34 -157 -113 -220 -206 -50 -75 -87 -107 -149 -130
-26 -10 -51 -23 -55 -28 -4 -6 -8 -410 -8 -898 l0 -888 63 -28 c65 -30 81 -45
174 -172 55 -73 144 -149 220 -187 45 -21 63 -25 121 -21 62 3 78 9 152 53 98
60 208 157 226 202 18 41 18 107 0 165 -16 55 -86 165 -148 233 l-45 50 45 55
c25 30 61 88 80 128 l34 72 107 0 c281 0 433 68 461 206 14 65 7 151 -14 192
-18 34 -72 85 -111 105 -63 32 -153 48 -290 54 l-140 6 -34 72 c-18 40 -57
104 -86 142 l-52 69 45 49 c125 139 175 235 176 340 0 59 -4 78 -26 116 -43
73 -212 218 -303 260 -63 29 -147 25 -223 -11z"/>
<path d="M4210 3609 c-260 -33 -447 -105 -485 -186 -20 -42 -19 -146 2 -190
31 -66 127 -111 297 -139 l107 -17 -7 -41 c-4 -23 -7 -118 -7 -213 l0 -171
-61 -7 c-152 -18 -287 -71 -329 -129 -19 -26 -22 -45 -22 -120 l0 -88 47 -43
c54 -49 138 -83 278 -113 180 -39 423 -55 448 -30 19 19 15 34 -34 137 -96
200 -134 364 -134 571 0 227 54 432 166 634 35 64 64 117 64 120 0 2 -7 12
-16 20 -12 13 -38 16 -132 15 -64 -1 -146 -5 -182 -10z"/>
<path d="M1483 3590 c-13 -5 -23 -18 -23 -28 0 -10 25 -67 56 -125 116 -223
153 -359 161 -587 8 -238 -32 -418 -137 -625 -31 -60 -48 -106 -44 -117 8 -27
43 -32 178 -25 291 15 531 89 593 184 25 37 24 155 0 201 -35 65 -160 121
-318 144 l-76 11 1 176 c0 97 -3 193 -7 214 -9 43 -14 40 99 55 98 13 196 44
246 79 54 37 71 80 66 174 -3 69 -6 81 -31 107 -63 65 -208 117 -412 146 -134
20 -324 28 -352 16z"/>
<path d="M2560 3491 c-19 -4 -49 -15 -66 -24 -45 -23 -108 -99 -122 -145 -8
-28 -12 -170 -12 -475 l0 -435 28 -53 c31 -60 93 -113 150 -129 23 -6 202 -10
468 -10 l430 0 52 26 c29 14 65 42 82 62 59 71 60 84 60 550 0 297 -4 437 -12
464 -15 50 -78 122 -132 151 -40 22 -48 22 -466 24 -234 0 -441 -2 -460 -6z"/>
<path d="M2395 2126 c-37 -16 -80 -65 -101 -115 -48 -111 -94 -379 -94 -545 0
-134 0 -134 163 -53 220 110 370 143 600 134 199 -7 357 -53 531 -152 87 -49
98 -52 116 -30 17 20 8 276 -14 393 -42 227 -88 331 -163 364 -59 26 -136 21
-183 -12 -55 -39 -104 -167 -125 -330 l-5 -45 -208 0 -208 0 -16 100 c-28 170
-73 262 -145 291 -41 17 -109 17 -148 0z"/>
<path d="M1421 2024 c-102 -17 -143 -36 -181 -82 -64 -77 -142 -280 -174 -452
-9 -46 -20 -87 -24 -91 -4 -4 -119 -32 -257 -63 -137 -32 -264 -61 -282 -66
l-31 -8 -118 260 c-117 256 -142 298 -185 298 -9 0 -27 -12 -38 -27 -21 -26
-21 -28 -19 -829 3 -794 3 -803 24 -831 11 -15 36 -36 55 -45 32 -17 95 -18
884 -18 934 0 895 -3 895 59 0 54 -12 61 -377 207 -144 57 -173 72 -172 89 0
11 23 134 52 274 l52 254 130 32 c168 42 290 87 363 135 95 61 116 103 127
256 7 88 6 91 -20 122 -44 52 -200 118 -346 147 -21 4 -28 14 -42 63 -26 94
-111 255 -157 296 -44 40 -42 40 -159 20z"/>
<path d="M4231 1993 c-52 -54 -109 -162 -142 -270 -22 -70 -24 -73 -58 -79
-111 -18 -277 -86 -330 -135 -31 -29 -35 -58 -23 -170 13 -120 33 -158 114
-211 87 -58 183 -95 373 -142 l130 -33 52 -259 c29 -142 52 -266 52 -275 1
-10 -9 -19 -23 -23 -49 -12 -479 -196 -497 -212 -11 -10 -19 -31 -19 -50 0
-68 -61 -64 1005 -64 1088 0 1008 -6 1053 80 l22 44 0 812 c0 806 0 811 -21
838 -24 31 -67 35 -97 9 -13 -12 -60 -129 -131 -328 -90 -256 -113 -310 -128
-309 -31 2 -778 176 -786 184 -4 4 -17 49 -28 101 -53 253 -144 450 -229 494
-27 14 -181 45 -223 45 -12 0 -41 -21 -66 -47z"/>
<path d="M2852 1469 c-89 -12 -144 -63 -181 -170 -25 -70 -43 -202 -40 -291
l2 -70 -68 -36 c-37 -20 -92 -58 -122 -85 l-53 -49 -68 63 c-161 152 -290 200
-393 146 -52 -28 -126 -121 -189 -238 -36 -69 -43 -92 -43 -138 0 -98 80 -222
199 -307 113 -82 153 -122 171 -175 l18 -49 823 0 c775 0 823 1 828 17 16 54
54 111 94 140 170 124 248 212 276 310 23 80 13 125 -56 240 -98 163 -163 222
-246 223 -84 0 -199 -60 -310 -163 -34 -31 -65 -57 -68 -57 -4 0 -37 23 -73
51 -37 28 -91 64 -120 81 l-53 30 0 98 c0 105 -18 223 -45 285 -49 119 -137
163 -283 144z"/>
</g>
</svg>
