<svg width="500" height="500" viewBox="0 0 500 500" xmlns="http://www.w3.org/2000/svg">
  <polygon points="80.00,113.00 80.06,112.22 80.24,111.45 80.54,110.73 80.95,110.06 81.46,109.46 82.06,108.95 82.73,108.54 83.45,108.24 84.22,108.06 85.00,108.00 175.00,108.00 175.78,108.06 176.55,108.24 177.27,108.54 177.94,108.95 178.54,109.46 179.05,110.06 179.46,110.73 179.76,111.45 179.94,112.22 180.00,113.00 180.00,203.00 179.94,203.78 179.76,204.55 179.46,205.27 179.05,205.94 178.54,206.54 177.94,207.05 177.27,207.46 176.55,207.76 175.78,207.94 175.00,208.00 85.00,208.00 84.22,207.94 83.45,207.76 82.73,207.46 82.06,207.05 81.46,206.54 80.95,205.94 80.54,205.27 80.24,204.55 80.06,203.78 80.00,203.00" fill="black" />
  <polygon points="191.00,108.00 281.00,108.00 286.00,113.00 286.00,203.00 281.00,208.00 272.00,205.30 263.00,203.20 254.00,201.70 245.00,200.80 236.00,200.50 227.00,200.80 218.00,201.70 209.00,203.20 200.00,205.30 191.00,208.00 186.00,203.00 186.00,113.00" fill="black" />
  <polygon points="292.00,113.00 292.06,112.22 292.24,111.45 292.54,110.73 292.95,110.06 293.46,109.46 294.06,108.95 294.73,108.54 295.45,108.24 296.22,108.06 297.00,108.00 387.00,108.00 387.78,108.06 388.55,108.24 389.27,108.54 389.94,108.95 390.54,109.46 391.05,110.06 391.46,110.73 391.76,111.45 391.94,112.22 392.00,113.00 392.00,203.00 391.94,203.78 391.76,204.55 391.46,205.27 391.05,205.94 390.54,206.54 389.94,207.05 389.27,207.46 388.55,207.76 387.78,207.94 387.00,208.00 297.00,208.00 296.22,207.94 295.45,207.76 294.73,207.46 294.06,207.05 293.46,206.54 292.95,205.94 292.54,205.27 292.24,204.55 292.06,203.78 292.00,203.00" fill="black" />
  <polygon points="85.00,214.00 175.00,214.00 180.00,219.00 177.30,228.00 175.20,237.00 173.70,246.00 172.80,255.00 172.50,264.00 172.80,273.00 173.70,282.00 175.20,291.00 177.30,300.00 180.00,309.00 175.00,314.00 85.00,314.00 80.00,309.00 80.00,219.00" fill="black" />
  <polygon points="191.00,214.00 200.00,216.70 209.00,218.80 218.00,220.30 227.00,221.20 236.00,221.50 245.00,221.20 254.00,220.30 263.00,218.80 272.00,216.70 281.00,214.00 286.00,219.00 283.30,228.00 281.20,237.00 279.70,246.00 278.80,255.00 278.50,264.00 278.80,273.00 279.70,282.00 281.20,291.00 283.30,300.00 286.00,309.00 281.00,314.00 272.00,311.30 263.00,309.20 254.00,307.70 245.00,306.80 236.00,306.50 227.00,306.80 218.00,307.70 209.00,309.20 200.00,311.30 191.00,314.00 186.00,309.00 188.70,300.00 190.80,291.00 192.30,282.00 193.20,273.00 193.50,264.00 193.20,255.00 192.30,246.00 190.80,237.00 188.70,228.00 186.00,219.00" fill="black" />
  <polygon points="297.00,214.00 387.00,214.00 392.00,219.00 392.00,309.00 387.00,314.00 297.00,314.00 292.00,309.00 294.70,300.00 296.80,291.00 298.30,282.00 299.20,273.00 299.50,264.00 299.20,255.00 298.30,246.00 296.80,237.00 294.70,228.00 292.00,219.00" fill="black" />
  <polygon points="80.00,325.00 80.06,324.22 80.24,323.45 80.54,322.73 80.95,322.06 81.46,321.46 82.06,320.95 82.73,320.54 83.45,320.24 84.22,320.06 85.00,320.00 175.00,320.00 175.78,320.06 176.55,320.24 177.27,320.54 177.94,320.95 178.54,321.46 179.05,322.06 179.46,322.73 179.76,323.45 179.94,324.22 180.00,325.00 180.00,415.00 179.94,415.78 179.76,416.55 179.46,417.27 179.05,417.94 178.54,418.54 177.94,419.05 177.27,419.46 176.55,419.76 175.78,419.94 175.00,420.00 85.00,420.00 84.22,419.94 83.45,419.76 82.73,419.46 82.06,419.05 81.46,418.54 80.95,417.94 80.54,417.27 80.24,416.55 80.06,415.78 80.00,415.00" fill="black" />
  <polygon points="191.00,320.00 200.00,322.70 209.00,324.80 218.00,326.30 227.00,327.20 236.00,327.50 245.00,327.20 254.00,326.30 263.00,324.80 272.00,322.70 281.00,320.00 286.00,325.00 286.00,415.00 281.00,420.00 191.00,420.00 186.00,415.00 186.00,325.00" fill="black" />
  <polygon points="292.00,325.00 292.06,324.22 292.24,323.45 292.54,322.73 292.95,322.06 293.46,321.46 294.06,320.95 294.73,320.54 295.45,320.24 296.22,320.06 297.00,320.00 387.00,320.00 387.78,320.06 388.55,320.24 389.27,320.54 389.94,320.95 390.54,321.46 391.05,322.06 391.46,322.73 391.76,323.45 391.94,324.22 392.00,325.00 392.00,415.00 391.94,415.78 391.76,416.55 391.46,417.27 391.05,417.94 390.54,418.54 389.94,419.05 389.27,419.46 388.55,419.76 387.78,419.94 387.00,420.00 297.00,420.00 296.22,419.94 295.45,419.76 294.73,419.46 294.06,419.05 293.46,418.54 292.95,417.94 292.54,417.27 292.24,416.55 292.06,415.78 292.00,415.00" fill="black" />
  <polygon points="85.00,102.00 83.34,101.86 82.37,101.43 82.07,100.73 82.46,99.74 83.54,98.46 98.46,83.54 99.94,82.26 101.53,81.27 103.23,80.57 105.06,80.14 107.00,80.00 197.00,80.00 198.66,80.14 199.63,80.57 199.93,81.27 199.54,82.26 198.46,83.54 183.54,98.46 182.06,99.74 180.47,100.73 178.77,101.43 176.94,101.86 175.00,102.00" fill="black" />
  <polygon points="191.00,102.00 189.34,101.86 188.37,101.43 188.07,100.73 188.46,99.74 189.54,98.46 204.46,83.54 205.94,82.26 207.53,81.27 209.23,80.57 211.06,80.14 213.00,80.00 303.00,80.00 304.66,80.14 305.63,80.57 305.93,81.27 305.54,82.26 304.46,83.54 289.54,98.46 288.06,99.74 286.47,100.73 284.77,101.43 282.94,101.86 281.00,102.00" fill="black" />
  <polygon points="297.00,102.00 295.34,101.86 294.37,101.43 294.07,100.73 294.46,99.74 295.54,98.46 310.46,83.54 311.94,82.26 313.53,81.27 315.23,80.57 317.06,80.14 319.00,80.00 409.00,80.00 410.66,80.14 411.63,80.57 411.93,81.27 411.54,82.26 410.46,83.54 395.54,98.46 394.06,99.74 392.47,100.73 390.77,101.43 388.94,101.86 387.00,102.00" fill="black" />
  <polygon points="398.00,111.00 398.14,109.06 398.57,107.23 399.27,105.53 400.26,103.94 401.54,102.46 416.46,87.54 417.74,86.46 418.73,86.07 419.43,86.37 419.86,87.34 420.00,89.00 420.00,179.00 419.86,180.94 419.43,182.77 418.73,184.47 417.74,186.06 416.46,187.54 401.54,202.46 400.26,203.54 399.27,203.93 398.57,203.63 398.14,202.66 398.00,201.00" fill="black" />
  <polygon points="398.00,217.00 398.14,215.06 398.57,213.23 399.27,211.53 400.26,209.94 401.54,208.46 416.46,193.54 417.74,192.46 418.73,192.07 419.43,192.37 419.86,193.34 420.00,195.00 420.00,285.00 419.86,286.94 419.43,288.77 418.73,290.47 417.74,292.06 416.46,293.54 401.54,308.46 400.26,309.54 399.27,309.93 398.57,309.63 398.14,308.66 398.00,307.00" fill="black" />
  <polygon points="398.00,323.00 398.14,321.06 398.57,319.23 399.27,317.53 400.26,315.94 401.54,314.46 416.46,299.54 417.74,298.46 418.73,298.07 419.43,298.37 419.86,299.34 420.00,301.00 420.00,391.00 419.86,392.94 419.43,394.77 418.73,396.47 417.74,398.06 416.46,399.54 401.54,414.46 400.26,415.54 399.27,415.93 398.57,415.63 398.14,414.66 398.00,413.00" fill="black" />
</svg>