<?xml version="1.0" standalone="no"?>
<!DOCTYPE svg PUBLIC "-//W3C//DTD SVG 20010904//EN"
 "http://www.w3.org/TR/2001/REC-SVG-20010904/DTD/svg10.dtd">
<svg version="1.0" xmlns="http://www.w3.org/2000/svg"
 width="600.000000pt" height="600.000000pt" viewBox="0 0 600.000000 600.000000"
 preserveAspectRatio="xMidYMid meet">

<g transform="translate(0.000000,600.000000) scale(0.100000,-0.100000)"
fill="#000000" stroke="none">
<path d="M2935 4920 c-16 -5 -154 -70 -305 -143 -301 -145 -320 -160 -290
-214 9 -16 49 -45 100 -73 47 -25 175 -95 285 -155 l200 -110 71 0 72 0 279
138 c153 77 286 146 296 154 25 23 22 75 -5 100 -13 11 -146 84 -296 162 -288
150 -331 165 -407 141z"/>
<path d="M2055 4512 c-86 -32 -579 -274 -602 -295 -13 -11 -23 -32 -23 -47 0
-15 10 -36 23 -47 12 -12 139 -88 282 -169 236 -134 265 -148 317 -152 45 -3
67 1 111 21 l55 25 -29 -46 c-32 -51 -49 -101 -49 -147 l0 -30 -82 0 -83 0
-310 -160 c-347 -179 -356 -186 -319 -253 16 -28 76 -68 329 -218 l310 -185
75 3 c74 3 78 5 277 111 111 59 212 107 225 106 13 0 46 -6 73 -13 l50 -11
-213 -114 c-117 -62 -219 -123 -227 -134 -20 -29 -19 -80 3 -105 25 -31 637
-390 684 -403 83 -22 117 -9 455 178 175 96 324 180 331 187 7 7 15 29 19 49
5 32 2 40 -29 69 -19 18 -118 82 -221 142 -103 60 -185 112 -181 115 3 3 28
11 56 17 l51 12 231 -132 231 -131 70 0 70 0 303 169 c167 93 312 178 323 189
24 27 24 58 -1 89 -19 25 -606 357 -669 379 -18 6 -57 9 -87 7 l-54 -5 -9 36
c-5 20 -12 50 -16 67 -3 18 -19 53 -35 78 l-30 46 53 -27 c41 -21 66 -26 118
-26 65 0 68 1 345 148 153 81 285 154 292 163 19 24 15 70 -8 90 -25 21 -578
316 -622 331 -17 6 -53 11 -79 11 -42 0 -84 -18 -336 -146 -158 -81 -296 -154
-305 -162 -22 -19 -23 -51 -2 -80 15 -22 15 -23 -8 -18 -64 13 -99 16 -111 9
-17 -11 -187 -10 -187 1 0 5 -31 6 -72 2 l-72 -7 22 24 c25 26 28 55 10 79 -7
9 -138 85 -291 168 -311 170 -336 178 -432 142z m715 -482 c-19 -16 -75 -50
-125 -75 -102 -52 -398 -158 -392 -141 8 24 127 110 212 152 89 44 251 93 310
93 l30 0 -35 -29z m504 3 c150 -37 287 -108 386 -199 65 -60 76 -82 33 -59
-16 8 -82 35 -148 61 -157 60 -383 188 -385 217 0 8 12 5 114 -20z m-1019
-375 c16 -15 14 -16 -27 -11 -23 3 -45 7 -47 9 -2 2 4 16 14 30 17 26 18 27
31 8 7 -10 20 -26 29 -36z m1505 0 c11 -18 20 -36 20 -40 0 -5 -25 -8 -56 -8
l-56 0 31 26 c17 14 31 32 31 40 0 22 9 17 30 -18z m-1555 -58 c3 -5 2 -10 -4
-10 -5 0 -13 5 -16 10 -3 6 -2 10 4 10 5 0 13 -4 16 -10z m220 -27 c100 -31
212 -89 287 -148 56 -43 96 -91 86 -100 -13 -13 -213 49 -303 94 -99 49 -205
126 -233 168 -14 23 -14 23 34 17 27 -4 85 -18 129 -31z m1270 -16 c-39 -60
-200 -156 -335 -200 -111 -37 -210 -57 -210 -44 0 25 119 124 195 163 115 59
194 82 358 103 4 1 1 -10 -8 -22z m83 11 c-2 -6 -10 -14 -16 -16 -7 -2 -10 2
-6 12 7 18 28 22 22 4z m-734 -260 c-4 -15 1 -18 26 -18 27 0 30 -2 20 -19 -5
-11 -10 -49 -10 -86 l0 -65 -27 7 c-16 5 -48 8 -73 8 -25 0 -57 -3 -72 -8
l-28 -7 0 62 c-1 35 -7 80 -14 100 -7 21 -12 39 -10 41 2 1 46 3 98 2 86 0 95
-2 90 -17z m-206 -131 l3 -86 -58 -30 c-55 -27 -62 -28 -110 -18 -28 7 -54 15
-58 18 -3 4 29 25 72 48 43 23 84 50 91 58 18 25 15 67 -8 96 l-21 26 43 -12
43 -13 3 -87z m358 71 c-22 -30 -20 -74 3 -97 10 -10 52 -38 92 -62 l73 -44
-58 -13 c-58 -12 -59 -12 -120 21 l-61 34 -3 81 -3 81 28 7 c15 3 33 7 38 9
23 8 25 4 11 -17z"/>
<path d="M1110 4067 c-194 -88 -575 -280 -586 -295 -20 -26 -17 -58 9 -86 22
-25 491 -306 553 -332 19 -8 58 -14 88 -14 51 0 79 12 374 159 194 97 326 169
336 183 22 31 20 61 -6 85 -13 11 -75 50 -138 85 -63 36 -185 105 -270 154
-145 82 -159 88 -220 91 -57 3 -74 0 -140 -30z"/>
<path d="M4665 4021 c-90 -38 -545 -287 -563 -308 -24 -26 -24 -62 0 -90 13
-16 616 -350 658 -364 17 -6 59 -9 94 -7 59 4 78 12 341 158 298 165 319 182
300 236 -8 23 -62 56 -335 203 l-325 175 -75 3 c-41 2 -84 -1 -95 -6z"/>
<path d="M422 3560 c-44 -18 -45 -36 -34 -419 10 -331 13 -364 32 -409 12 -27
33 -61 48 -75 51 -47 548 -347 576 -347 14 0 35 9 47 21 21 21 21 25 14 377
-7 393 -13 436 -67 497 -19 22 -140 101 -306 200 -151 91 -277 165 -281 164
-3 0 -16 -4 -29 -9z"/>
<path d="M5251 3295 c-150 -85 -279 -162 -287 -172 -32 -40 -54 -94 -59 -145
-3 -29 -10 -196 -16 -372 l-10 -318 22 -24 c12 -13 34 -24 48 -24 23 0 554
293 593 327 9 8 26 35 37 59 19 39 22 80 36 406 21 508 43 493 -364 263z"/>
<path d="M1235 3047 l-27 -22 2 -310 c1 -387 8 -460 47 -523 36 -58 49 -68
367 -265 271 -167 296 -178 337 -141 21 19 21 21 17 409 -4 373 -5 392 -25
430 -12 22 -34 52 -50 66 -26 25 -503 318 -584 360 -48 24 -52 24 -84 -4z"/>
<path d="M4390 2814 c-181 -101 -306 -178 -322 -197 -50 -57 -56 -99 -65 -448
-10 -402 -10 -394 12 -419 38 -42 71 -30 344 126 350 200 343 195 376 257 l29
52 14 370 c18 519 44 502 -388 259z"/>
<path d="M2107 2512 c-15 -17 -17 -59 -17 -404 0 -409 2 -431 49 -497 25 -35
651 -431 681 -431 12 0 35 13 51 30 l30 29 -3 398 -3 398 -29 46 c-35 55 -19
44 -389 268 -307 186 -337 199 -370 163z"/>
<path d="M3470 2314 c-173 -97 -327 -187 -342 -201 -15 -14 -36 -47 -47 -74
-20 -45 -22 -73 -28 -432 l-6 -385 26 -26 c48 -48 64 -41 412 163 297 174 322
191 349 234 36 58 41 117 51 544 l7 302 -26 26 c-15 15 -36 25 -53 25 -18 0
-144 -65 -343 -176z"/>
</g>
</svg>
